<svg xmlns="http://www.w3.org/2000/svg" xmlns:xlink="http://www.w3.org/1999/xlink" width="610" height="416" viewBox="0 0 610 416">
  <defs>
    <clipPath id="clip-path">
      <rect id="Rectángulo_409792" data-name="Rectángulo 409792" width="610" height="416" transform="translate(180 914)" fill="#fff" stroke="#707070" stroke-width="1" opacity="0.68"/>
    </clipPath>
    <filter id="Trazado_1013079" x="15.787" y="4.122" width="562.693" height="485.389" filterUnits="userSpaceOnUse">
      <feOffset dy="3" input="SourceAlpha"/>
      <feGaussianBlur stdDeviation="3" result="blur"/>
      <feFlood flood-opacity="0.161"/>
      <feComposite operator="in" in2="blur"/>
      <feComposite in="SourceGraphic"/>
    </filter>
    <clipPath id="clip-path-2">
      <path id="Trazado_1013064" data-name="Trazado 1013064" d="M61.175,241c5.218-71.424,43.847-143.542,109-173.267,38.8-17.7,83.122-19.214,125.565-14.988,72.917,7.261,146.557,32.188,198.674,83.7s78.134,132.894,51.4,201.122c-20.367,51.986-67.958,89.9-120.274,109.4s-109.272,22.623-165.092,21.436c-52.361-1.115-108.854-7.587-147.465-42.972C89.072,403.518,74.876,372.627,67.683,341S58.573,276.6,61.175,241Z" transform="translate(-60.069 -50.774)"/>
    </clipPath>
    <clipPath id="clip-path-3">
      <path id="Trazado_1013016" data-name="Trazado 1013016" d="M394.336,410.743c13.244-4.092,26.135-9.8,37.1-18.291s19.93-19.9,24.028-33.143c5.173-16.716,2.316-34.8-1.687-51.829-3.908-16.625-8.929-33.141-17.164-48.1-7.72-14.026-18.448-26.694-32.079-35.025Z" transform="translate(-394.336 -224.352)"/>
    </clipPath>
    <clipPath id="clip-path-4">
      <path id="Trazado_1013060" data-name="Trazado 1013060" d="M268.879,297.1c-7.594,3.456-13.4,10.484-17.274,18.017-5.391,10.5-7.73,23.319-2.944,34.108,4.573,10.311,14.832,17.054,25.437,20.9a77.526,77.526,0,0,0,11.162,3.12h0a136.462,136.462,0,0,1-8.69,44.468c-14.632-1.482-29.353-3.094-43.321-7.635-14.1-4.583-27.556-12.435-36.322-24.391-14.076-19.2-13.789-45.686-7.142-68.545a145.381,145.381,0,0,1,55.389-77.562A140.6,140.6,0,0,1,272,224.778v40.011Z" transform="translate(-185.369 -224.778)"/>
    </clipPath>
  </defs>
  <g id="Enmascarar_grupo_1098785" data-name="Enmascarar grupo 1098785" transform="translate(-180 -914)" clip-path="url(#clip-path)">
    <g id="Grupo_1159380" data-name="Grupo 1159380" transform="translate(1812.472 -1120)">
      <g transform="matrix(1, 0, 0, 1, -1632.47, 2034)" filter="url(#Trazado_1013079)">
        <path id="Trazado_1013079-2" data-name="Trazado 1013079" d="M61.282,263.554C67.009,183.663,109.4,103,180.89,69.747c42.581-19.8,91.211-21.492,137.783-16.765,80.012,8.122,160.818,36,218.007,93.624s85.737,148.648,56.4,224.965c-22.349,58.148-74.571,100.558-131.978,122.369S341.2,519.244,279.95,517.916c-57.457-1.247-119.446-8.486-161.814-48.066C91.894,445.336,76.317,410.783,68.424,375.4S58.427,303.376,61.282,263.554Z" transform="translate(-35.28 -40.65)" fill="#fff"/>
      </g>
      <g id="Grupo_1159379" data-name="Grupo 1159379" transform="translate(-1607.685 2055.406)">
        <path id="Trazado_1012936" data-name="Trazado 1012936" d="M61.175,241c5.218-71.424,43.847-143.542,109-173.267,38.8-17.7,83.122-19.214,125.565-14.988,72.917,7.261,146.557,32.188,198.674,83.7s78.134,132.894,51.4,201.122c-20.367,51.986-67.958,89.9-120.274,109.4s-109.272,22.623-165.092,21.436c-52.361-1.115-108.854-7.587-147.465-42.972C89.072,403.518,74.876,372.627,67.683,341S58.573,276.6,61.175,241Z" transform="translate(-26.343 -38.734)" fill="#d9a89a"/>
        <g id="OBJECTS" transform="translate(0 0)">
          <g id="Grupo_1159377" data-name="Grupo 1159377" transform="translate(0 12.04)">
            <g id="Grupo_1159326" data-name="Grupo 1159326" transform="translate(0 30.237)">
              <g id="Grupo_1159319" data-name="Grupo 1159319" transform="translate(50.645 268.265)">
                <path id="Trazado_1012937" data-name="Trazado 1012937" d="M109.618,344.792c-10.862,10.993-20.479,23.575-25.835,38.073s-6.109,31.116.266,45.194a25.789,25.789,0,0,0,6.626,9.373,13.406,13.406,0,0,0,10.732,3.231c6.5-1.192,10.365-7.929,12.289-14.249,2.688-8.83,3.342-18.15,5.57-27.107s6.432-17.993,14.178-23.013Z" transform="translate(-76.411 -340.549)" fill="#2e2854" opacity="0.15"/>
                <path id="Trazado_1012938" data-name="Trazado 1012938" d="M110.9,340.671c-11.593,10.219-22.055,22.108-28.4,36.2s-8.238,30.621-2.848,45.1a25.762,25.762,0,0,0,5.965,9.807A13.411,13.411,0,0,0,96.1,435.747c6.565-.741,10.887-7.2,13.242-13.368,3.29-8.624,4.584-17.877,7.424-26.659s7.657-17.507,15.729-21.982Z" transform="translate(-76.5 -340.671)" fill="#49ad9f"/>
                <path id="Trazado_1012939" data-name="Trazado 1012939" d="M93.613,409.264a75.455,75.455,0,0,1,30.27-51.072" transform="translate(-75.992 -340.151)" fill="none" stroke="#2e2854" stroke-linecap="round" stroke-linejoin="round" stroke-miterlimit="10" stroke-width="1.5"/>
              </g>
              <g id="Grupo_1159320" data-name="Grupo 1159320" transform="translate(370.765 303.591)">
                <path id="Trazado_1012940" data-name="Trazado 1012940" d="M392.338,374.979c.92,15.427,3.853,30.989,11.059,44.661s19.066,25.337,33.8,30a25.78,25.78,0,0,0,11.4,1.334,13.41,13.41,0,0,0,9.576-5.825c3.456-5.631,1.028-13.009-2.388-18.665-4.773-7.9-11.27-14.615-16.444-22.258s-9.087-16.809-7.646-25.925Z" transform="translate(-387.245 -374.979)" fill="#2e2854" opacity="0.15"/>
                <path id="Trazado_1012941" data-name="Trazado 1012941" d="M387.392,375.44c.173,15.453,2.351,31.139,8.887,45.143s17.819,26.229,32.309,31.6a25.771,25.771,0,0,0,11.322,1.883,13.408,13.408,0,0,0,9.847-5.355c3.724-5.457,1.656-12.944-1.483-18.758-4.385-8.122-10.55-15.142-15.348-23.027s-8.264-17.229-6.385-26.265Z" transform="translate(-387.392 -374.965)" fill="#76c9bf"/>
                <path id="Trazado_1012942" data-name="Trazado 1012942" d="M428.156,433.221a75.457,75.457,0,0,1-18.931-56.27" transform="translate(-386.752 -374.92)" fill="none" stroke="#2e2854" stroke-linecap="round" stroke-linejoin="round" stroke-miterlimit="10" stroke-width="1.5"/>
              </g>
              <g id="Grupo_1159321" data-name="Grupo 1159321" transform="translate(0 233.408)">
                <path id="Trazado_1012943" data-name="Trazado 1012943" d="M110.617,310.2c-12.359-2.508-24.86,5.022-32.694,14.9s-12.256,21.958-18.1,33.133-13.888,22.131-23.211,27.607a67.007,67.007,0,0,0,51.168-5.738,67,67,0,0,0,31.567-40.677Z" transform="translate(-27.039 -306.733)" fill="#2e2854" opacity="0.15"/>
                <path id="Trazado_1012944" data-name="Trazado 1012944" d="M107.4,307.8c-12.106-3.536-25.193,2.92-33.829,12.111s-14.055,20.852-20.814,31.5-15.7,20.889-25.444,25.563a67,67,0,0,0,51.469-1.428A67,67,0,0,0,113.65,337.66Z" transform="translate(-27.315 -306.819)" fill="#76c9bf"/>
                <path id="Trazado_1012945" data-name="Trazado 1012945" d="M67.484,357.21a83.825,83.825,0,0,0,39.087-38.854" transform="translate(-26.123 -306.477)" fill="none" stroke="#2e2854" stroke-linecap="round" stroke-linejoin="round" stroke-miterlimit="10" stroke-width="1.5"/>
              </g>
              <g id="Grupo_1159322" data-name="Grupo 1159322" transform="translate(46.312 29.831)">
                <path id="Trazado_1012946" data-name="Trazado 1012946" d="M83.328,163.976c-5.026-4.76-7.4-11.9-7.263-18.818s2.582-13.64,6.015-19.651a76.441,76.441,0,0,1,12.892-16.4c1.1,8.572,5.721,16.212,9.315,24.074s6.22,16.95,3.19,25.045a19.884,19.884,0,0,1-14.84,12.353Z" transform="translate(-72.18 -109.11)" fill="#2e2854" opacity="0.15"/>
                <path id="Trazado_1012947" data-name="Trazado 1012947" d="M81.9,165.036c-5.556-4.129-8.763-10.933-9.45-17.821s.942-13.85,3.636-20.228a76.435,76.435,0,0,1,10.85-17.812c2.117,8.381,7.609,15.416,12.111,22.8s8.192,16.089,6.146,24.488a19.887,19.887,0,0,1-13.265,14.03Z" transform="translate(-72.292 -109.108)" fill="#49ad9f"/>
                <path id="Trazado_1012948" data-name="Trazado 1012948" d="M85.719,134.012a66.033,66.033,0,0,1,3.9,36.213" transform="translate(-71.893 -108.371)" fill="none" stroke="#2e2854" stroke-linecap="round" stroke-linejoin="round" stroke-miterlimit="10" stroke-width="1.5"/>
              </g>
              <g id="Grupo_1159323" data-name="Grupo 1159323" transform="translate(182.995 29.824)">
                <path id="Trazado_1012949" data-name="Trazado 1012949" d="M220.689,172.274q-3.35-19.94-6.7-39.88c-.8-4.764-1.574-9.81.2-14.3a14.641,14.641,0,0,1,10.5-8.652,17.2,17.2,0,0,1,13.429,3.014c4.9,3.542,7.792,9.239,9.742,14.966a70.123,70.123,0,0,1-.064,45.01Z" transform="translate(-204.795 -109.104)" fill="#2e2854" opacity="0.15"/>
                <path id="Trazado_1012950" data-name="Trazado 1012950" d="M218.381,174.467q-5.685-19.4-11.372-38.807c-1.358-4.637-2.725-9.554-1.494-14.226a14.639,14.639,0,0,1,9.4-9.833,17.2,17.2,0,0,1,13.692,1.4c5.289,2.937,8.83,8.252,11.445,13.708a70.13,70.13,0,0,1,5.263,44.7Z" transform="translate(-205.035 -109.054)" fill="#76c9bf"/>
                <path id="Trazado_1012951" data-name="Trazado 1012951" d="M224.8,133.6a122.833,122.833,0,0,1,8.209,42.808" transform="translate(-204.448 -108.377)" fill="none" stroke="#2e2854" stroke-linecap="round" stroke-linejoin="round" stroke-miterlimit="10" stroke-width="1.5"/>
              </g>
              <g id="Grupo_1159324" data-name="Grupo 1159324" transform="translate(158.287)">
                <path id="Trazado_1012952" data-name="Trazado 1012952" d="M191.149,170.667a85.8,85.8,0,0,1,5.868-76.947c3.346-5.444,8.591-11.075,14.92-10.2,5.382.74,9.078,6.19,9.793,11.576s-.819,10.779-2.046,16.07a146.844,146.844,0,0,0-1.534,58.578Z" transform="translate(-180.931 -80.042)" fill="#2e2854" opacity="0.15"/>
                <path id="Trazado_1012953" data-name="Trazado 1012953" d="M190.879,168.856A85.8,85.8,0,0,1,189.555,91.7c2.825-5.731,7.522-11.827,13.9-11.549,5.427.237,9.615,5.319,10.828,10.613s.188,10.809-.541,16.191a146.811,146.811,0,0,0,3.927,58.465Z" transform="translate(-181.039 -80.139)" fill="#49ad9f"/>
                <path id="Trazado_1012954" data-name="Trazado 1012954" d="M201.171,98.3a151.3,151.3,0,0,0,4.28,72.01" transform="translate(-180.516 -79.6)" fill="none" stroke="#2e2854" stroke-linecap="round" stroke-linejoin="round" stroke-miterlimit="10" stroke-width="1.5"/>
              </g>
              <g id="Grupo_1159325" data-name="Grupo 1159325" transform="translate(363.564 12.229)">
                <path id="Trazado_1012955" data-name="Trazado 1012955" d="M385.086,227.116a177.222,177.222,0,0,1,16.229-82.2c4.784-10.3,10.634-20.231,18.447-28.478s17.715-14.76,28.784-17.322c7.228-1.673,15.788-1.234,20.776,4.258,4.12,4.537,4.669,11.3,3.866,17.373-2.286,17.312-13.339,31.948-22.051,47.082a191.776,191.776,0,0,0-25.161,84.651Z" transform="translate(-380.265 -91.831)" fill="#2e2854" opacity="0.15"/>
                <path id="Trazado_1012956" data-name="Trazado 1012956" d="M381.048,223.723a177.215,177.215,0,0,1,12.807-82.8c4.352-10.493,9.785-20.655,17.25-29.218s17.088-15.482,28.04-18.5c7.152-1.972,15.723-1.887,20.934,3.393,4.3,4.363,5.133,11.095,4.583,17.2-1.566,17.391-12,32.474-20.08,47.955a191.785,191.785,0,0,0-21.63,85.621Z" transform="translate(-380.399 -92.016)" fill="#49ad9f"/>
                <path id="Trazado_1012957" data-name="Trazado 1012957" d="M443.352,113.227a407.893,407.893,0,0,0-41.984,124.089" transform="translate(-379.776 -91.386)" fill="none" stroke="#2e2854" stroke-linecap="round" stroke-linejoin="round" stroke-miterlimit="10" stroke-width="1.5"/>
              </g>
            </g>
            <g id="Grupo_1159344" data-name="Grupo 1159344" transform="translate(10.461 48.05)">
              <g id="Grupo_1159332" data-name="Grupo 1159332" transform="translate(0 58.937)">
                <path id="Trazado_1012958" data-name="Trazado 1012958" d="M262.564,328.433q-97.075,3.993-194.26.216a19.7,19.7,0,0,1-18.931-19.034c-1.4-43.362-1.58-85.631-.172-127.807a19.687,19.687,0,0,1,18.642-18.984,1812.463,1812.463,0,0,1,192.347-.13,19.7,19.7,0,0,1,18.531,17.65,806.458,806.458,0,0,1,2.715,129.469A19.741,19.741,0,0,1,262.564,328.433Z" transform="translate(-37.155 -154.512)" fill="#2e2854" opacity="0.15"/>
                <path id="Trazado_1012959" data-name="Trazado 1012959" d="M251.81,322.9q-97.075,3.993-194.26.216a19.706,19.706,0,0,1-18.931-19.034c-1.4-43.363-1.58-85.632-.172-127.807A19.687,19.687,0,0,1,57.089,157.3a1812.463,1812.463,0,0,1,192.347-.13,19.7,19.7,0,0,1,18.531,17.65,806.455,806.455,0,0,1,2.715,129.469A19.738,19.738,0,0,1,251.81,322.9Z" transform="translate(-37.474 -154.676)" fill="#fff"/>
                <path id="Trazado_1012960" data-name="Trazado 1012960" d="M251.81,322.9q-97.075,3.993-194.26.216a19.706,19.706,0,0,1-18.931-19.034c-1.4-43.363-1.58-85.632-.172-127.807A19.687,19.687,0,0,1,57.089,157.3a1812.463,1812.463,0,0,1,192.347-.13,19.7,19.7,0,0,1,18.531,17.65,806.455,806.455,0,0,1,2.715,129.469A19.738,19.738,0,0,1,251.81,322.9Z" transform="translate(-37.474 -154.676)" fill="none" stroke="#2e2854" stroke-linecap="round" stroke-linejoin="round" stroke-miterlimit="10" stroke-width="1.5"/>
                <g id="Grupo_1159331" data-name="Grupo 1159331" transform="translate(22.689 22.06)">
                  <g id="Grupo_1159327" data-name="Grupo 1159327" transform="translate(1.897 76.459)">
                    <rect id="Rectángulo_409763" data-name="Rectángulo 409763" width="178.611" height="48.976" fill="#f7a145"/>
                    <rect id="Rectángulo_409764" data-name="Rectángulo 409764" width="7.008" height="29.36" transform="translate(11.266 19.616)" fill="#2e2854"/>
                    <rect id="Rectángulo_409765" data-name="Rectángulo 409765" width="7.008" height="17.311" transform="translate(26.008 31.666)" fill="#2e2854"/>
                    <rect id="Rectángulo_409766" data-name="Rectángulo 409766" width="7.008" height="35.122" transform="translate(40.751 13.853)" fill="#2e2854"/>
                    <rect id="Rectángulo_409767" data-name="Rectángulo 409767" width="7.008" height="37.742" transform="translate(55.494 11.235)" fill="#2e2854"/>
                    <rect id="Rectángulo_409768" data-name="Rectángulo 409768" width="7.008" height="10.501" transform="translate(70.237 38.476)" fill="#2e2854"/>
                    <rect id="Rectángulo_409769" data-name="Rectángulo 409769" width="7.008" height="23.336" transform="translate(84.98 25.641)" fill="#2e2854"/>
                    <rect id="Rectángulo_409770" data-name="Rectángulo 409770" width="7.008" height="29.36" transform="translate(99.722 19.616)" fill="#2e2854"/>
                    <rect id="Rectángulo_409771" data-name="Rectángulo 409771" width="7.008" height="29.36" transform="translate(114.465 19.616)" fill="#2e2854"/>
                    <rect id="Rectángulo_409772" data-name="Rectángulo 409772" width="7.008" height="23.336" transform="translate(129.208 25.641)" fill="#2e2854"/>
                    <rect id="Rectángulo_409773" data-name="Rectángulo 409773" width="7.008" height="35.122" transform="translate(143.95 13.853)" fill="#2e2854"/>
                    <rect id="Rectángulo_409774" data-name="Rectángulo 409774" width="7.008" height="30.408" transform="translate(158.693 18.568)" fill="#2e2854"/>
                  </g>
                  <g id="Grupo_1159330" data-name="Grupo 1159330" transform="translate(0 0)">
                    <g id="Grupo_1159328" data-name="Grupo 1159328">
                      <circle id="Elipse_11778" data-name="Elipse 11778" cx="17.72" cy="17.72" r="17.72" transform="translate(0 8.257) rotate(-13.473)" fill="none" stroke="#2e2854" stroke-linecap="round" stroke-linejoin="round" stroke-miterlimit="10" stroke-width="1.5"/>
                      <circle id="Elipse_11779" data-name="Elipse 11779" cx="13.035" cy="13.035" r="13.035" transform="matrix(0.974, -0.228, 0.228, 0.974, 5.677, 11.644)" fill="#d24d84"/>
                    </g>
                    <g id="Grupo_1159329" data-name="Grupo 1159329" transform="translate(57.391 8.938)">
                      <line id="Línea_915" data-name="Línea 915" x2="110.207" fill="none" stroke="#2e2854" stroke-linecap="round" stroke-linejoin="round" stroke-miterlimit="10" stroke-width="1.5"/>
                      <line id="Línea_916" data-name="Línea 916" x2="110.207" transform="translate(0 12.424)" fill="none" stroke="#2e2854" stroke-linecap="round" stroke-linejoin="round" stroke-miterlimit="10" stroke-width="1.5"/>
                      <line id="Línea_917" data-name="Línea 917" x2="70.319" transform="translate(0 24.848)" fill="none" stroke="#2e2854" stroke-linecap="round" stroke-linejoin="round" stroke-miterlimit="10" stroke-width="1.5"/>
                    </g>
                  </g>
                  <rect id="Rectángulo_409775" data-name="Rectángulo 409775" width="58.998" height="9.206" transform="translate(1.897 50.32)" fill="#6d7fe3"/>
                  <rect id="Rectángulo_409776" data-name="Rectángulo 409776" width="110.736" height="9.206" transform="translate(69.772 50.32)" fill="#6d7fe3"/>
                </g>
              </g>
              <g id="Grupo_1159337" data-name="Grupo 1159337" transform="translate(379.67 47.136)">
                <g id="Grupo_1159333" data-name="Grupo 1159333">
                  <path id="Trazado_1012961" data-name="Trazado 1012961" d="M566.036,415.519q-64.577,3.674-129.3,2.869a17.643,17.643,0,0,1-17.382-16.466c-5.265-78.972-6.621-156.4-2.529-233.815a17.632,17.632,0,0,1,17.513-16.7c43.558-.214,87.222.721,131.756,3.981A17.637,17.637,0,0,1,582.4,172.383c2.6,74.431,2.769,149.1.266,226.081A17.65,17.65,0,0,1,566.036,415.519Z" transform="translate(-405.956 -142.972)" fill="#2e2854" opacity="0.15"/>
                  <path id="Trazado_1012962" data-name="Trazado 1012962" d="M557.808,407.353q-64.577,3.674-129.3,2.869a17.643,17.643,0,0,1-17.382-16.466c-5.265-78.973-6.621-156.4-2.529-233.815a17.632,17.632,0,0,1,17.513-16.7c43.558-.214,87.222.721,131.756,3.982a17.637,17.637,0,0,1,16.308,16.993c2.6,74.431,2.769,149.1.266,226.081A17.652,17.652,0,0,1,557.808,407.353Z" transform="translate(-406.2 -143.215)" fill="#fff"/>
                  <path id="Trazado_1012963" data-name="Trazado 1012963" d="M557.808,407.353q-64.577,3.674-129.3,2.869a17.643,17.643,0,0,1-17.382-16.466c-5.265-78.973-6.621-156.4-2.529-233.815a17.632,17.632,0,0,1,17.513-16.7c43.558-.214,87.222.721,131.756,3.982a17.637,17.637,0,0,1,16.308,16.993c2.6,74.431,2.769,149.1.266,226.081A17.652,17.652,0,0,1,557.808,407.353Z" transform="translate(-406.2 -143.215)" fill="none" stroke="#2e2854" stroke-linecap="round" stroke-linejoin="round" stroke-miterlimit="10" stroke-width="1.5"/>
                </g>
                <g id="Grupo_1159334" data-name="Grupo 1159334" transform="translate(19.607 24.417)">
                  <path id="Trazado_1012964" data-name="Trazado 1012964" d="M492.1,186.575a39.565,39.565,0,0,1,39.565,39.566h19.646a59.213,59.213,0,1,0-118.426,0h19.646A39.568,39.568,0,0,1,492.1,186.575Z" transform="translate(-425.015 -166.928)" fill="#2e2854"/>
                  <path id="Trazado_1012965" data-name="Trazado 1012965" d="M530.373,182.744l-13.524,14.244a39.442,39.442,0,0,1,12.329,28.684h19.646A59.025,59.025,0,0,0,530.373,182.744Z" transform="translate(-422.523 -166.459)" fill="#d24d84"/>
                  <path id="Trazado_1012966" data-name="Trazado 1012966" d="M463.633,198.148a39.443,39.443,0,0,1,23.632-11.342l-2.155-19.527a59.035,59.035,0,0,0-35.366,16.973Z" transform="translate(-424.515 -166.918)" fill="#f7a145"/>
                  <line id="Línea_918" data-name="Línea 918" x2="134.18" transform="translate(0 59.213)" fill="none" stroke="#2e2854" stroke-linecap="round" stroke-linejoin="round" stroke-miterlimit="10" stroke-width="1.5"/>
                </g>
                <g id="Grupo_1159335" data-name="Grupo 1159335" transform="translate(23.696 107.086)">
                  <rect id="Rectángulo_409777" data-name="Rectángulo 409777" width="38.753" height="9.206" fill="#d24d84"/>
                  <rect id="Rectángulo_409778" data-name="Rectángulo 409778" width="73.861" height="9.206" transform="translate(0 16.083)" fill="#d24d84"/>
                  <rect id="Rectángulo_409779" data-name="Rectángulo 409779" width="72.738" height="9.206" transform="translate(44.584)" fill="#d24d84"/>
                </g>
                <line id="Línea_919" data-name="Línea 919" x2="134.18" transform="translate(19.607 156.381)" fill="none" stroke="#2e2854" stroke-linecap="round" stroke-linejoin="round" stroke-miterlimit="10" stroke-width="1.5"/>
                <line id="Línea_920" data-name="Línea 920" x2="134.18" transform="translate(19.607 172.268)" fill="none" stroke="#2e2854" stroke-linecap="round" stroke-linejoin="round" stroke-miterlimit="10" stroke-width="1.5"/>
                <line id="Línea_921" data-name="Línea 921" x2="82.159" transform="translate(19.607 188.154)" fill="none" stroke="#2e2854" stroke-linecap="round" stroke-linejoin="round" stroke-miterlimit="10" stroke-width="1.5"/>
                <g id="Grupo_1159336" data-name="Grupo 1159336" transform="translate(19.743 206.571)">
                  <rect id="Rectángulo_409780" data-name="Rectángulo 409780" width="134.044" height="46.061" fill="#f7a145"/>
                  <rect id="Rectángulo_409781" data-name="Rectángulo 409781" width="7.008" height="27.612" transform="translate(11.266 18.448)" fill="#2e2854"/>
                  <rect id="Rectángulo_409782" data-name="Rectángulo 409782" width="7.008" height="16.28" transform="translate(26.009 29.779)" fill="#2e2854"/>
                  <rect id="Rectángulo_409783" data-name="Rectángulo 409783" width="7.008" height="33.032" transform="translate(40.752 13.029)" fill="#2e2854"/>
                  <rect id="Rectángulo_409784" data-name="Rectángulo 409784" width="7.008" height="35.495" transform="translate(55.494 10.565)" fill="#2e2854"/>
                  <rect id="Rectángulo_409785" data-name="Rectángulo 409785" width="7.008" height="9.876" transform="translate(70.237 36.185)" fill="#2e2854"/>
                  <rect id="Rectángulo_409786" data-name="Rectángulo 409786" width="7.008" height="21.947" transform="translate(84.98 24.114)" fill="#2e2854"/>
                  <rect id="Rectángulo_409787" data-name="Rectángulo 409787" width="7.008" height="27.612" transform="translate(99.723 18.448)" fill="#2e2854"/>
                  <rect id="Rectángulo_409788" data-name="Rectángulo 409788" width="7.008" height="27.612" transform="translate(114.465 18.448)" fill="#2e2854"/>
                </g>
              </g>
              <g id="Grupo_1159342" data-name="Grupo 1159342" transform="translate(70.253 200.472)">
                <g id="Grupo_1159338" data-name="Grupo 1159338">
                  <path id="Trazado_1012967" data-name="Trazado 1012967" d="M265.909,302.2q-68.072-3.7-136.288-2.535a14.367,14.367,0,0,0-14.134,13.955,524.116,524.116,0,0,0,2.9,74.368,14.372,14.372,0,0,0,13.267,12.683q66.337,4.763,132.928,3.214a14.361,14.361,0,0,0,14.024-14.179l.9-72.993A14.363,14.363,0,0,0,265.909,302.2Z" transform="translate(-105.419 -291.915)" fill="#2e2854" opacity="0.15"/>
                  <path id="Trazado_1012968" data-name="Trazado 1012968" d="M256.361,294.945q-68.072-3.7-136.287-2.535a14.367,14.367,0,0,0-14.134,13.955,524.265,524.265,0,0,0,2.9,74.368,14.372,14.372,0,0,0,13.267,12.683q66.337,4.763,132.928,3.214a14.361,14.361,0,0,0,14.024-14.179l.9-72.993A14.363,14.363,0,0,0,256.361,294.945Z" transform="translate(-105.703 -292.131)" fill="#fff"/>
                  <path id="Trazado_1012969" data-name="Trazado 1012969" d="M256.361,294.945q-68.072-3.7-136.287-2.535a14.367,14.367,0,0,0-14.134,13.955,524.265,524.265,0,0,0,2.9,74.368,14.372,14.372,0,0,0,13.267,12.683q66.337,4.763,132.928,3.214a14.361,14.361,0,0,0,14.024-14.179l.9-72.993A14.363,14.363,0,0,0,256.361,294.945Z" transform="translate(-105.703 -292.131)" fill="none" stroke="#2e2854" stroke-linecap="round" stroke-linejoin="round" stroke-miterlimit="10" stroke-width="1.5"/>
                </g>
                <g id="Grupo_1159339" data-name="Grupo 1159339" transform="translate(19.953 16.614)">
                  <path id="Trazado_1012970" data-name="Trazado 1012970" d="M149.548,311.564a15,15,0,1,0,4.111,17.937A15.076,15.076,0,0,0,149.548,311.564Z" transform="translate(-125.081 -308.266)" fill="#2e2854"/>
                  <path id="Trazado_1012971" data-name="Trazado 1012971" d="M144.125,318.665a4.376,4.376,0,1,0-4.376,4.376A4.376,4.376,0,0,0,144.125,318.665Z" transform="translate(-124.775 -308.087)" fill="#f7a145"/>
                  <path id="Trazado_1012972" data-name="Trazado 1012972" d="M139.937,325.388a11.7,11.7,0,0,0-10.9,7.457,15.2,15.2,0,0,0,9.329,4.746,15.439,15.439,0,0,0,12.485-4.708A11.7,11.7,0,0,0,139.937,325.388Z" transform="translate(-124.963 -307.757)" fill="#f7a145"/>
                </g>
                <g id="Grupo_1159340" data-name="Grupo 1159340" transform="translate(62.474 24.494)">
                  <line id="Línea_922" data-name="Línea 922" x2="75.75" fill="none" stroke="#2e2854" stroke-linecap="round" stroke-linejoin="round" stroke-miterlimit="10" stroke-width="1.5"/>
                  <line id="Línea_923" data-name="Línea 923" x2="75.75" transform="translate(0 9.75)" fill="none" stroke="#2e2854" stroke-linecap="round" stroke-linejoin="round" stroke-miterlimit="10" stroke-width="1.5"/>
                  <line id="Línea_924" data-name="Línea 924" x2="42.344" transform="translate(0 19.501)" fill="none" stroke="#2e2854" stroke-linecap="round" stroke-linejoin="round" stroke-miterlimit="10" stroke-width="1.5"/>
                </g>
                <g id="Grupo_1159341" data-name="Grupo 1159341" transform="translate(20.902 59.911)">
                  <rect id="Rectángulo_409789" data-name="Rectángulo 409789" width="38.753" height="9.206" fill="#d24d84"/>
                  <rect id="Rectángulo_409790" data-name="Rectángulo 409790" width="62.745" height="9.206" transform="translate(0 16.084)" fill="#d24d84"/>
                  <rect id="Rectángulo_409791" data-name="Rectángulo 409791" width="72.738" height="9.206" transform="translate(44.584)" fill="#d24d84"/>
                </g>
              </g>
              <g id="CALCULATOR_2_" transform="translate(80.072)">
                <path id="Trazado_1012973" data-name="Trazado 1012973" d="M166.164,100.895l-41.237-.376-3.827,3.587a5.8,5.8,0,0,0-1.807,4.079l-1.361,60.453c-.092,4.065,2.289,7.423,6.355,7.47l36.109.421c2.181.026,3.979-.9,5.929-2.2l4.962-3.517.882-63.767A6.061,6.061,0,0,0,166.164,100.895Z" transform="translate(-115.159 -97.347)" fill="#2e2854" opacity="0.15"/>
                <path id="Trazado_1012974" data-name="Trazado 1012974" d="M122.08,97.438l-1.564,64.886a4.526,4.526,0,0,0,4.445,4.635l43.478.768.882-63.767a6.061,6.061,0,0,0-6.006-6.145Z" transform="translate(-115.082 -97.438)" fill="#d24d84"/>
                <path id="Trazado_1012975" data-name="Trazado 1012975" d="M122.237,97.438l-3.827,3.587A5.8,5.8,0,0,0,116.6,105.1l-1.361,60.453c-.092,4.065,2.289,7.423,6.355,7.47l36.109.42c2.181.026,3.979-.9,5.929-2.2l4.962-3.517-43.478-.768a4.527,4.527,0,0,1-4.445-4.635Z" transform="translate(-115.239 -97.438)" fill="#ad3b6a"/>
                <path id="Trazado_1012976" data-name="Trazado 1012976" d="M127.58,105.253l.162,10.632,35.419.371.022-11.737Z" transform="translate(-114.872 -97.228)" fill="#49ad9f"/>
                <path id="Trazado_1012977" data-name="Trazado 1012977" d="M127.624,108.128l33.087-1.23.21,9.335,2.24.024.022-11.737-35.6.734Z" transform="translate(-114.872 -97.228)" fill="#2e2854" opacity="0.15"/>
                <g id="Grupo_1159343" data-name="Grupo 1159343" transform="translate(12.632 27.404)">
                  <path id="Trazado_1012978" data-name="Trazado 1012978" d="M129.226,124.366l6.987,0-.314,8.278-6.923.019Z" transform="translate(-127.462 -124.043)" fill="#fff" stroke="#2e2854" stroke-linecap="round" stroke-linejoin="round" stroke-miterlimit="10" stroke-width="1.5"/>
                  <path id="Trazado_1012979" data-name="Trazado 1012979" d="M140.675,124.272l7.634-.084-.239,8.022-7.616.021Z" transform="translate(-127.122 -124.048)" fill="#fff" stroke="#2e2854" stroke-linecap="round" stroke-linejoin="round" stroke-miterlimit="10" stroke-width="1.5"/>
                  <path id="Trazado_1012980" data-name="Trazado 1012980" d="M152.16,124.263l.1,8.053,7.641.126-.068-8.39Z" transform="translate(-126.774 -124.052)" fill="#fff" stroke="#2e2854" stroke-linecap="round" stroke-linejoin="round" stroke-miterlimit="10" stroke-width="1.5"/>
                  <path id="Trazado_1012981" data-name="Trazado 1012981" d="M128.376,138.1l-.239,8.023,6.956.337.332-9.033Z" transform="translate(-127.487 -123.655)" fill="#fff" stroke="#2e2854" stroke-linecap="round" stroke-linejoin="round" stroke-miterlimit="10" stroke-width="1.5"/>
                  <path id="Trazado_1012982" data-name="Trazado 1012982" d="M139.773,137.707l7.629.4-.338,8.823s-7.266-.221-7.438-.342S139.773,137.707,139.773,137.707Z" transform="translate(-127.148 -123.647)" fill="#fff" stroke="#2e2854" stroke-linecap="round" stroke-linejoin="round" stroke-miterlimit="10" stroke-width="1.5"/>
                  <path id="Trazado_1012983" data-name="Trazado 1012983" d="M151.888,137.64l.041,8.244,7.381-.16-.361-9.031Z" transform="translate(-126.782 -123.677)" fill="#fff" stroke="#2e2854" stroke-linecap="round" stroke-linejoin="round" stroke-miterlimit="10" stroke-width="1.5"/>
                  <path id="Trazado_1012984" data-name="Trazado 1012984" d="M127.891,151.048l-.385,8.049,7.343-.033-.213-8.364Z" transform="translate(-127.506 -123.261)" fill="#fff" stroke="#2e2854" stroke-linecap="round" stroke-linejoin="round" stroke-miterlimit="10" stroke-width="1.5"/>
                  <path id="Trazado_1012985" data-name="Trazado 1012985" d="M139.3,150.132l.2,8.637,7.755-.255-.308-8.047Z" transform="translate(-127.156 -123.278)" fill="#fff" stroke="#2e2854" stroke-linecap="round" stroke-linejoin="round" stroke-miterlimit="10" stroke-width="1.5"/>
                  <path id="Trazado_1012986" data-name="Trazado 1012986" d="M152.273,149.889l.213,8.364,7.259.012-.257-8.448Z" transform="translate(-126.771 -123.287)" fill="#fff" stroke="#2e2854" stroke-linecap="round" stroke-linejoin="round" stroke-miterlimit="10" stroke-width="1.5"/>
                </g>
                <path id="Trazado_1012987" data-name="Trazado 1012987" d="M127.58,105.253l.162,10.632,35.419.371.022-11.737Z" transform="translate(-114.872 -97.228)" fill="none" stroke="#2e2854" stroke-linecap="round" stroke-linejoin="round" stroke-miterlimit="10" stroke-width="1.5"/>
                <path id="Trazado_1012988" data-name="Trazado 1012988" d="M122.08,97.438l-1.564,64.886a4.526,4.526,0,0,0,4.445,4.635l43.478.768.882-63.767a6.061,6.061,0,0,0-6.006-6.145Z" transform="translate(-115.082 -97.438)" fill="none" stroke="#2e2854" stroke-linecap="round" stroke-linejoin="round" stroke-miterlimit="10" stroke-width="1.5"/>
              </g>
            </g>
            <g id="Grupo_1159376" data-name="Grupo 1159376" transform="translate(33.726)">
              <g id="Grupo_1159375" data-name="Grupo 1159375" clip-path="url(#clip-path-2)">
                <path id="Trazado_1012989" data-name="Trazado 1012989" d="M470.447,318.2c-3.246-16.766-7.609-33.469-15.244-48.745-6.684-13.372-16.038-25.664-28.068-34.45v0a12.059,12.059,0,0,0-2.945-2.461c-1.468-.879-3.955-2.01-3.955-2.01a.028.028,0,0,1,0,.009c-10.809-6.168-22.894-9.417-35.347-10.717,0,0,0,0,0-.005-.115-.012-.232-.018-.346-.029-.557-.057-1.114-.115-1.673-.165l-.009.023c-2.646-.233-5.3-.4-7.969-.476l-10.114.8c-1.218-4.577-2.021-7.6-3.239-12.177l-.257-3.106a65.044,65.044,0,0,0,14.9-5.22c7.743-3.809,14.979-9.305,19.018-16.932a46.346,46.346,0,0,0,4.059-12.245c4.62,2.976,10.671,3.169,15.916,1.493,4.517-1.446,8.792-4.417,10.61-8.8a14.743,14.743,0,0,0,.51-9.039,17.071,17.071,0,0,0-9.039-11.386,14.987,14.987,0,0,0-10.027-.916c.4-1.237.792-2.477,1.137-3.733,1.842-6.7,2.6-14.008.1-20.492C403.731,105.15,391.7,105.2,387.4,104.394a30,30,0,0,0-41-27.749c-10.177,4-17.307,13.109-23.925,21.816-7.351-3.185-15.681-.778-20.881,4.434s-7.6,12.705-8.033,20.054a75.634,75.634,0,0,0,1.429,17.37c-.174-.03-.347-.064-.525-.082a14.876,14.876,0,0,0-5.759.491,17.07,17.07,0,0,0-10.693,9.847,14.744,14.744,0,0,0-.9,9.009c1.114,4.611,4.878,8.21,9.117,10.338,4.888,2.454,10.847,3.205,15.851,1.037,2.934,8.241,7.234,16.13,13.532,22.193a46.68,46.68,0,0,0,22.474,11.706l-.349,3.1-4.141,11.64-7.81-.048q-2.108.147-4.2.355h0l-.122.014q-2,.2-3.99.453l0,.007a143.125,143.125,0,0,0-28.275,6.588s0-.009,0-.013a84.63,84.63,0,0,0-8.288,3.14.048.048,0,0,0,0,.012,140.284,140.284,0,0,0-22.4,11.746,145.374,145.374,0,0,0-58.419,75.307c-7.548,22.578-8.883,49.032,4.42,68.773,8.285,12.293,21.422,20.673,35.327,25.811a145.413,145.413,0,0,0,23.454,6.246q-1.2,28.453-2.058,56.92s146.964-4.088,145.56-5.48q4.51-26.19,7.679-52.588a108.832,108.832,0,0,0,30.286-14.618c11.289-8.044,20.7-19.1,25.322-32.165C475.91,353.555,473.771,335.376,470.447,318.2Zm-212.8,33.349c-4.355-10.97-1.51-23.689,4.293-33.965a48.119,48.119,0,0,1,7.362-9.941q-1.858,27.845-3.376,55.71A32.739,32.739,0,0,1,257.645,351.547Z" transform="translate(-56.081 -50.066)" fill="#2e2854" opacity="0.15"/>
                <g id="Grupo_1159374" data-name="Grupo 1159374" transform="translate(129.019 22.932)">
                  <g id="Grupo_1159353" data-name="Grupo 1159353" transform="translate(74.659)">
                    <g id="Grupo_1159345" data-name="Grupo 1159345" transform="translate(62.973 119.261)">
                      <path id="Trazado_1012990" data-name="Trazado 1012990" d="M319.949,191.007l-.916,12.628v11.243l12.484-1.406,11.991.639-.7-11.581-1.679-13.663Z" transform="translate(-319.033 -188.868)" fill="#9e4950"/>
                      <path id="Trazado_1012991" data-name="Trazado 1012991" d="M319.033,203.635v2.928a49.875,49.875,0,0,0,23.809-3.5l-.032-.529-1.679-13.663-21.182,2.139Z" transform="translate(-319.033 -188.868)" fill="#2e2854" opacity="0.15"/>
                    </g>
                    <path id="Trazado_1012992" data-name="Trazado 1012992" d="M365.92,101.627c4.334.632,16.351.108,21.56,12.179,2.752,6.38,2.29,13.711.715,20.479s-4.2,13.262-5.688,20.049c-1.844,8.4-1.98,17.313-5.7,25.062-3.734,7.78-10.747,13.559-18.331,17.672a60.671,60.671,0,0,1-31.128,7.63,47.744,47.744,0,0,1-29.64-11.543c-6.615-5.88-11.261-13.708-14.526-21.933s-5.229-16.9-7.179-25.53c-1.624-7.181-3.256-14.447-3.114-21.808s2.244-14.942,7.231-20.357,13.218-8.149,20.689-5.258c6.268-8.962,13.031-18.343,23.041-22.746a30,30,0,0,1,42.069,26.1Z" transform="translate(-257.43 -73.044)" fill="#654687"/>
                    <path id="Trazado_1012993" data-name="Trazado 1012993" d="M377.566,135.931l-5.645,20.43c-2.424,1.667-6.617,1.88-10.5,1.259s-8.855-3.709-12.67-4.672a50.8,50.8,0,0,0-35.555,3.436c-4.044,1.965-8.3,6.582-12.756,5.98-5.025-.679-8.69-5.261-10.429-10.024s-3.667-8.54-4.92-14.885c5.958-11.155,14.627-20.847,24.527-26.665,4.774,6.433,13.641,8.752,21.576,7.657s15.158-5.051,22.684-8.39a12.067,12.067,0,0,0,8.52,10.155c2.465.694,5.142.581,7.5,1.577a11.289,11.289,0,0,1,5.491,5.625C376.562,129.824,378.493,132.574,377.566,135.931Z" transform="translate(-257.068 -71.946)" fill="#9e4950"/>
                    <g id="Grupo_1159346" data-name="Grupo 1159346" transform="translate(57.834 88.664)">
                      <path id="Trazado_1012994" data-name="Trazado 1012994" d="M350.817,159.258a104.621,104.621,0,0,0-36.775,4.786c.008,4.351,3.9,7.768,7.942,9.373a23.02,23.02,0,0,0,17.426-.272A19.127,19.127,0,0,0,350.817,159.258Z" transform="translate(-314.042 -159.153)" fill="#2e2854"/>
                      <path id="Trazado_1012995" data-name="Trazado 1012995" d="M314.042,164.045a7.523,7.523,0,0,0,.7,3.115,184.792,184.792,0,0,1,35.19-4.893,20.68,20.68,0,0,0,.889-3.008A104.594,104.594,0,0,0,314.042,164.045Z" transform="translate(-314.042 -159.153)" fill="#fff"/>
                      <path id="Trazado_1012996" data-name="Trazado 1012996" d="M333,168.535a9.781,9.781,0,0,0-7.98,5.608,23.037,23.037,0,0,0,14.066-1.275c.6-.258,1.179-.549,1.749-.861A9.694,9.694,0,0,0,333,168.535Z" transform="translate(-313.716 -158.875)" fill="#d24d84"/>
                    </g>
                    <g id="Grupo_1159348" data-name="Grupo 1159348" transform="translate(34.114 59.159)">
                      <path id="Trazado_1012997" data-name="Trazado 1012997" d="M335.386,138.271a19.662,19.662,0,0,1,4.112,8.942,29.88,29.88,0,0,1-7.041.451" transform="translate(-289.776 -130.267)" fill="none" stroke="#2e2854" stroke-linecap="round" stroke-linejoin="round" stroke-miterlimit="10" stroke-width="1.5"/>
                      <path id="Trazado_1012998" data-name="Trazado 1012998" d="M300.381,143.508a8.862,8.862,0,0,1,12.844-1.525" transform="translate(-290.728 -130.219)" fill="none" stroke="#2e2854" stroke-linecap="round" stroke-linejoin="round" stroke-miterlimit="10" stroke-width="1.5"/>
                      <path id="Trazado_1012999" data-name="Trazado 1012999" d="M352.6,138.942a8.531,8.531,0,0,1,11.691,1.085" transform="translate(-289.178 -130.302)" fill="none" stroke="#2e2854" stroke-linecap="round" stroke-linejoin="round" stroke-miterlimit="10" stroke-width="1.5"/>
                      <g id="Grupo_1159347" data-name="Grupo 1159347">
                        <path id="Trazado_1013000" data-name="Trazado 1013000" d="M325.01,137.641a13.813,13.813,0,0,1,17.387-.633" transform="translate(-289.997 -130.387)" fill="none" stroke="#f7a145" stroke-linecap="round" stroke-linejoin="round" stroke-miterlimit="10" stroke-width="2"/>
                        <path id="Trazado_1013001" data-name="Trazado 1013001" d="M325.358,131.337a141.055,141.055,0,0,0-34.352,6.095,35.193,35.193,0,0,0,2.353,8.267,13.228,13.228,0,0,0,5.984,6.414,18.549,18.549,0,0,0,8.439,1.42c4.474-.078,9.157-.856,12.586-3.447a14.448,14.448,0,0,0,5.17-8.34A23.942,23.942,0,0,0,325.358,131.337Z" transform="translate(-291.006 -130.473)" fill="none" stroke="#f7a145" stroke-linecap="round" stroke-linejoin="round" stroke-miterlimit="10" stroke-width="2"/>
                        <path id="Trazado_1013002" data-name="Trazado 1013002" d="M341.633,131.36a141.029,141.029,0,0,1,34.885.461,35.237,35.237,0,0,1-.984,8.538,13.241,13.241,0,0,1-4.868,7.3,18.566,18.566,0,0,1-8.1,2.766c-4.428.645-9.173.635-12.977-1.367a14.436,14.436,0,0,1-6.45-7.4A23.947,23.947,0,0,1,341.633,131.36Z" transform="translate(-289.504 -130.498)" fill="none" stroke="#f7a145" stroke-linecap="round" stroke-linejoin="round" stroke-miterlimit="10" stroke-width="2"/>
                      </g>
                    </g>
                    <g id="Grupo_1159350" data-name="Grupo 1159350" transform="translate(0 68.043)">
                      <path id="Trazado_1013003" data-name="Trazado 1013003" d="M283.463,148.1a9.223,9.223,0,0,0-8.539-8.934,14.874,14.874,0,0,0-5.735.719,17.071,17.071,0,0,0-10.295,10.263,14.736,14.736,0,0,0-.541,9.036c1.3,4.563,5.2,8.01,9.519,9.968,5.107,2.315,11.271,2.807,16.253.232Z" transform="translate(-257.875 -139.126)" fill="#9e4950"/>
                      <g id="Grupo_1159349" data-name="Grupo 1159349" transform="translate(9.838 10.186)">
                        <path id="Trazado_1013004" data-name="Trazado 1013004" d="M267.43,152.868a12.516,12.516,0,0,1,11.541-3.585" transform="translate(-267.43 -149.018)" fill="none" stroke="#2e2854" stroke-linecap="round" stroke-linejoin="round" stroke-miterlimit="10" stroke-width="1.5"/>
                        <path id="Trazado_1013005" data-name="Trazado 1013005" d="M275.128,157.743a26.514,26.514,0,0,1-2.719-8.111" transform="translate(-267.282 -149)" fill="none" stroke="#2e2854" stroke-linecap="round" stroke-linejoin="round" stroke-miterlimit="10" stroke-width="1.5"/>
                      </g>
                    </g>
                    <g id="Grupo_1159352" data-name="Grupo 1159352" transform="translate(122.687 64.379)">
                      <path id="Trazado_1013006" data-name="Trazado 1013006" d="M379.552,141.61a6.282,6.282,0,0,1,4.237-5.315,14.984,14.984,0,0,1,10.382.427,17.07,17.07,0,0,1,9.482,11.019,14.745,14.745,0,0,1-.151,9.052c-1.641,4.45-5.8,7.589-10.253,9.213-5.269,1.918-11.453,1.938-16.224-1.009Z" transform="translate(-377.026 -135.567)" fill="#9e4950"/>
                      <g id="Grupo_1159351" data-name="Grupo 1159351" transform="translate(6.371 9.945)">
                        <path id="Trazado_1013007" data-name="Trazado 1013007" d="M394.446,149.791a12.518,12.518,0,0,0-11.233-4.456" transform="translate(-383.213 -145.226)" fill="none" stroke="#2e2854" stroke-linecap="round" stroke-linejoin="round" stroke-miterlimit="10" stroke-width="1.5"/>
                        <path id="Trazado_1013008" data-name="Trazado 1013008" d="M386.161,154.043a26.5,26.5,0,0,0,3.33-7.879" transform="translate(-383.126 -145.198)" fill="none" stroke="#2e2854" stroke-linecap="round" stroke-linejoin="round" stroke-miterlimit="10" stroke-width="1.5"/>
                      </g>
                    </g>
                  </g>
                  <g id="Grupo_1159373" data-name="Grupo 1159373" transform="translate(0 132.923)">
                    <g id="Grupo_1159356" data-name="Grupo 1159356" transform="translate(215.169 22.875)">
                      <path id="Trazado_1013009" data-name="Trazado 1013009" d="M394.336,410.743c13.244-4.092,26.135-9.8,37.1-18.291s19.93-19.9,24.028-33.143c5.173-16.716,2.316-34.8-1.687-51.829-3.908-16.625-8.929-33.141-17.164-48.1-7.72-14.026-18.448-26.694-32.079-35.025Z" transform="translate(-394.335 -224.352)" fill="#6d7fe3"/>
                      <g id="Grupo_1159355" data-name="Grupo 1159355" transform="translate(0.001)">
                        <g id="Grupo_1159354" data-name="Grupo 1159354" clip-path="url(#clip-path-3)">
                          <path id="Trazado_1013010" data-name="Trazado 1013010" d="M405.172,246.145c9.851,9.409,16.988,21.322,22.723,33.679,6.438,13.873,11.287,28.635,12.6,43.874s-1.06,31.006-8.328,44.462-19.7,24.383-34.471,28.334" transform="translate(-394.236 -223.705)" fill="none" stroke="#9da7e0" stroke-linecap="round" stroke-linejoin="round" stroke-miterlimit="10" stroke-width="1.5"/>
                          <path id="Trazado_1013011" data-name="Trazado 1013011" d="M404.483,271.452a75.5,75.5,0,0,1-3.37,90.787" transform="translate(-394.135 -222.954)" fill="none" stroke="#9da7e0" stroke-linecap="round" stroke-linejoin="round" stroke-miterlimit="10" stroke-width="1.5"/>
                          <path id="Trazado_1013012" data-name="Trazado 1013012" d="M393.71,361.382a98.776,98.776,0,0,0,59.938,8.4" transform="translate(-394.355 -220.285)" fill="none" stroke="#9da7e0" stroke-linecap="round" stroke-linejoin="round" stroke-miterlimit="10" stroke-width="1.5"/>
                          <path id="Trazado_1013013" data-name="Trazado 1013013" d="M399.61,336.327a126.442,126.442,0,0,0,63.874-6.411" transform="translate(-394.179 -221.219)" fill="none" stroke="#9da7e0" stroke-linecap="round" stroke-linejoin="round" stroke-miterlimit="10" stroke-width="1.5"/>
                          <path id="Trazado_1013014" data-name="Trazado 1013014" d="M401.537,317A142.675,142.675,0,0,0,453.191,293.2" transform="translate(-394.122 -222.309)" fill="none" stroke="#9da7e0" stroke-linecap="round" stroke-linejoin="round" stroke-miterlimit="10" stroke-width="1.5"/>
                          <path id="Trazado_1013015" data-name="Trazado 1013015" d="M438.653,255.076a164.744,164.744,0,0,1-35.409,32.263" transform="translate(-394.072 -223.44)" fill="none" stroke="#9da7e0" stroke-linecap="round" stroke-linejoin="round" stroke-miterlimit="10" stroke-width="1.5"/>
                        </g>
                      </g>
                      <path id="Trazado_1013017" data-name="Trazado 1013017" d="M455.459,357.4a59.512,59.512,0,0,0,1.8-7.651C437.6,380.16,413.949,383,413.949,383c-.111-28.639-12.374-94.239-12.374-94.239s-.512,4.626-1.341,12.2l-5.9,107.873c13.244-4.092,26.135-9.8,37.1-18.291S451.362,370.638,455.459,357.4Z" transform="translate(-394.335 -222.44)" fill="#2e2854" opacity="0.15"/>
                      <path id="Trazado_1013018" data-name="Trazado 1013018" d="M394.336,408.347c13.244-4.092,26.135-9.8,37.1-18.291s19.93-19.9,24.028-33.143c5.173-16.716,2.316-34.8-1.687-51.829" transform="translate(-394.335 -221.956)" fill="none" stroke="#2e2854" stroke-linecap="round" stroke-linejoin="round" stroke-miterlimit="10" stroke-width="1.5"/>
                    </g>
                    <g id="Grupo_1159357" data-name="Grupo 1159357" transform="translate(71.538 0)">
                      <path id="Trazado_1013019" data-name="Trazado 1013019" d="M408.764,294.055l-.093-69.36q-1.364-.832-2.765-1.607c-12.059-6.657-25.587-9.635-39.408-10.294-3.162,8.848-11.007,21.721-29.877,21.567-18.633-.152-27.452-11.15-31.353-18.859a143.2,143.2,0,0,0-35.326,9.634l-13.287,74.345q-2.45,86.581-1.585,173.215s146.686-9.908,145.228-11.243A1044.037,1044.037,0,0,0,408.764,294.055Z" transform="translate(-254.845 -201.82)" fill="#d24d84"/>
                      <path id="Trazado_1013020" data-name="Trazado 1013020" d="M319.139,203.209c3.992,3.174,8.672,5.234,12.484,9.839l-4.53,9.07L315.462,215Z" transform="translate(-253.046 -202.104)" fill="#6d7fe3"/>
                      <path id="Trazado_1013021" data-name="Trazado 1013021" d="M331.157,213.078c3.44-4.47,7.356-7.4,11.293-10.942,1.4,4.526,2.321,7.514,3.72,12.039l-9.845,7.227Z" transform="translate(-252.58 -202.136)" fill="#6d7fe3"/>
                      <path id="Trazado_1013022" data-name="Trazado 1013022" d="M307.881,214.984l7.806-.262,16.161-1.956,15.013,1.1,10.073-1.2s3.979,22.281-21.888,21.7S307.881,214.984,307.881,214.984Z" transform="translate(-253.271 -201.824)" fill="#6d7fe3"/>
                      <path id="Trazado_1013023" data-name="Trazado 1013023" d="M357.174,212.662c-4.024,9.668-13.967,16.766-24.492,16.992-10.053.213-19.838-5.861-24.561-14.67q-4.166.457-8.277,1.151a39.969,39.969,0,0,0,20.732,19.339,36.353,36.353,0,0,0,30.4-1.685,33.574,33.574,0,0,0,16.209-20.879Q362.2,212.59,357.174,212.662Z" transform="translate(-253.509 -201.824)" fill="#bf326c"/>
                      <path id="Trazado_1013024" data-name="Trazado 1013024" d="M407.058,226.134q1.064,35.232-.806,70.473a2.807,2.807,0,0,1-2.733,2.659c-.561.012-1.158.018-1.73.007a2.793,2.793,0,0,1-2.732-2.926c1.114-24.811.636-49.563.93-74.407,0,0,2.53,1.032,4.032,1.852A12.071,12.071,0,0,1,407.058,226.134Z" transform="translate(-250.564 -201.548)" fill="#bf326c"/>
                      <path id="Trazado_1013025" data-name="Trazado 1013025" d="M396.106,458.661a1043.971,1043.971,0,0,0,8.813-151.842" transform="translate(-250.652 -199.029)" fill="none" stroke="#2e2854" stroke-linecap="round" stroke-linejoin="round" stroke-miterlimit="10" stroke-width="1.5"/>
                      <path id="Trazado_1013026" data-name="Trazado 1013026" d="M363.019,331.064c-22.121-.382-51.042,2.266-51.042,2.266l-.611,33.756s-28,4.892-55.953-14.063q-.533,33.958-.558,67.92c11.185,1.208,31.232,3.093,51.634,3.634,0,0-1.823,9.165,1.731,13.85s17,3.259,42.357,3.055,31.668-.2,32.89-8.555,2.037-68.709,1.426-86.494S385.14,331.446,363.019,331.064Z" transform="translate(-254.845 -198.31)" fill="#2e2854" opacity="0.15"/>
                    </g>
                    <g id="Grupo_1159372" data-name="Grupo 1159372" transform="translate(0 22.008)">
                      <g id="Grupo_1159368" data-name="Grupo 1159368" transform="translate(87.187 106.931)">
                        <path id="Trazado_1013027" data-name="Trazado 1013027" d="M310.288,369.447a78.092,78.092,0,0,1-17.554.89v13.232l20.7-1.655Z" transform="translate(-269.368 -326.109)" fill="#9e4950"/>
                        <g id="Grupo_1159365" data-name="Grupo 1159365" transform="translate(36.172)">
                          <path id="Trazado_1013028" data-name="Trazado 1013028" d="M376.775,332.66a831.5,831.5,0,0,1-.137,97.679,4.384,4.384,0,0,1-4.029,4.085c-20.017,1.54-40.134,2.215-60.808,1.8a4.373,4.373,0,0,1-4.275-4.279c-.7-32.663-1.412-65.358-2.353-98.888a4.371,4.371,0,0,1,4.05-4.49,424.854,424.854,0,0,1,63.544-.035A4.368,4.368,0,0,1,376.775,332.66Z" transform="translate(-305.171 -327.358)" fill="#fff"/>
                          <g id="Grupo_1159358" data-name="Grupo 1159358" transform="translate(8.213 26.751)">
                            <path id="Trazado_1013029" data-name="Trazado 1013029" d="M327.678,357.105a64.939,64.939,0,0,0-14.5.044,126.568,126.568,0,0,0,.534,14.006c4.753-.161,9.506-.321,14.375-.466C327.905,366.43,327.719,362.17,327.678,357.105Z" transform="translate(-313.148 -353.238)" fill="none" stroke="#2e2854" stroke-linecap="round" stroke-linejoin="round" stroke-miterlimit="10" stroke-width="1.5"/>
                            <path id="Trazado_1013030" data-name="Trazado 1013030" d="M313.415,356.571a43.692,43.692,0,0,1,6.787,9.575q1.415-6.405,2.829-12.808" transform="translate(-313.14 -353.338)" fill="none" stroke="#d14b56" stroke-linecap="round" stroke-linejoin="round" stroke-miterlimit="10" stroke-width="3"/>
                          </g>
                          <g id="Grupo_1159359" data-name="Grupo 1159359" transform="translate(8.214 10.585)">
                            <path id="Trazado_1013031" data-name="Trazado 1013031" d="M313.15,343.021a4.331,4.331,0,0,1,4.53-4.446,4.49,4.49,0,0,1,3.762,1.576l-1.732,1.618a2.244,2.244,0,0,0-1.838-.932,2.082,2.082,0,0,0,.094,4.154,2.245,2.245,0,0,0,1.794-1.013l1.8,1.537a4.487,4.487,0,0,1-3.688,1.745A4.333,4.333,0,0,1,313.15,343.021Z" transform="translate(-313.149 -337.61)" fill="#2e2854"/>
                            <path id="Trazado_1013032" data-name="Trazado 1013032" d="M327.388,344.761l-.759.017.047,2.088-2.8.063-.186-8.305,4-.09c2.314-.053,3.812,1.125,3.855,3.047a2.781,2.781,0,0,1-1.507,2.645l1.8,2.524-2.989.067Zm.17-4.064-1.02.023.044,1.946,1.02-.023c.771-.018,1.131-.392,1.117-1S328.329,340.679,327.557,340.7Z" transform="translate(-312.836 -337.611)" fill="#2e2854"/>
                            <path id="Trazado_1013033" data-name="Trazado 1013033" d="M341.052,344.431l.047,2.112-6.905.155-.186-8.305,6.751-.151.047,2.112-4,.09.022.973,3.511-.079.045,2.017-3.512.079.025,1.091Z" transform="translate(-312.53 -337.62)" fill="#2e2854"/>
                            <path id="Trazado_1013034" data-name="Trazado 1013034" d="M343.495,338.178l4.093-.092c2.777-.063,4.722,1.473,4.78,4.048s-1.816,4.195-4.593,4.258l-4.093.092Zm4.113,6.033a1.97,1.97,0,1,0-.089-3.94l-1.175.027.089,3.939Z" transform="translate(-312.248 -337.625)" fill="#2e2854"/>
                            <path id="Trazado_1013035" data-name="Trazado 1013035" d="M354.748,337.924l2.8-.063.186,8.305-2.8.063Z" transform="translate(-311.914 -337.631)" fill="#2e2854"/>
                            <path id="Trazado_1013036" data-name="Trazado 1013036" d="M362.383,339.928l-2.432.055-.048-2.172,7.665-.173.049,2.172-2.433.055.138,6.134-2.8.063Z" transform="translate(-311.761 -337.638)" fill="#2e2854"/>
                          </g>
                          <g id="Grupo_1159360" data-name="Grupo 1159360" transform="translate(30.201 31.411)">
                            <path id="Trazado_1013037" data-name="Trazado 1013037" d="M334.5,358.82s26.012-.65,32.632-.956" transform="translate(-334.502 -357.864)" fill="none" stroke="#2e2854" stroke-linecap="round" stroke-linejoin="round" stroke-miterlimit="10" stroke-width="1.5"/>
                            <path id="Trazado_1013038" data-name="Trazado 1013038" d="M334.5,366.493s20.341-.2,32.632-.867" transform="translate(-334.502 -357.634)" fill="none" stroke="#2e2854" stroke-linecap="round" stroke-linejoin="round" stroke-miterlimit="10" stroke-width="1.5"/>
                          </g>
                          <g id="Grupo_1159361" data-name="Grupo 1159361" transform="translate(9.177 52.322)">
                            <path id="Trazado_1013039" data-name="Trazado 1013039" d="M328.614,381.938a64.873,64.873,0,0,0-14.5.045,126.56,126.56,0,0,0,.534,14.006c4.753-.161,9.506-.321,14.375-.466C328.84,391.263,328.654,387,328.614,381.938Z" transform="translate(-314.084 -378.072)" fill="none" stroke="#2e2854" stroke-linecap="round" stroke-linejoin="round" stroke-miterlimit="10" stroke-width="1.5"/>
                            <path id="Trazado_1013040" data-name="Trazado 1013040" d="M314.35,381.405a43.7,43.7,0,0,1,6.787,9.575q1.415-6.405,2.829-12.808" transform="translate(-314.076 -378.172)" fill="none" stroke="#d14b56" stroke-linecap="round" stroke-linejoin="round" stroke-miterlimit="10" stroke-width="3"/>
                          </g>
                          <g id="Grupo_1159362" data-name="Grupo 1159362" transform="translate(31.164 56.981)">
                            <path id="Trazado_1013041" data-name="Trazado 1013041" d="M335.437,383.653s26.012-.65,32.632-.956" transform="translate(-335.437 -382.697)" fill="none" stroke="#2e2854" stroke-linecap="round" stroke-linejoin="round" stroke-miterlimit="10" stroke-width="1.5"/>
                            <path id="Trazado_1013042" data-name="Trazado 1013042" d="M335.437,391.327s20.341-.2,32.632-.867" transform="translate(-335.437 -382.467)" fill="none" stroke="#2e2854" stroke-linecap="round" stroke-linejoin="round" stroke-miterlimit="10" stroke-width="1.5"/>
                          </g>
                          <g id="Grupo_1159363" data-name="Grupo 1159363" transform="translate(10.14 77.893)">
                            <path id="Trazado_1013043" data-name="Trazado 1013043" d="M329.549,406.772a65,65,0,0,0-14.5.044,126.538,126.538,0,0,0,.534,14.006c4.753-.161,9.506-.321,14.375-.466C329.775,416.1,329.59,411.838,329.549,406.772Z" transform="translate(-315.019 -402.906)" fill="none" stroke="#2e2854" stroke-linecap="round" stroke-linejoin="round" stroke-miterlimit="10" stroke-width="1.5"/>
                            <path id="Trazado_1013044" data-name="Trazado 1013044" d="M315.285,406.239a43.669,43.669,0,0,1,6.787,9.575q1.415-6.405,2.829-12.808" transform="translate(-315.011 -403.006)" fill="none" stroke="#d14b56" stroke-linecap="round" stroke-linejoin="round" stroke-miterlimit="10" stroke-width="3"/>
                          </g>
                          <g id="Grupo_1159364" data-name="Grupo 1159364" transform="translate(32.127 82.552)">
                            <path id="Trazado_1013045" data-name="Trazado 1013045" d="M336.372,408.487s26.012-.65,32.632-.956" transform="translate(-336.372 -407.531)" fill="none" stroke="#2e2854" stroke-linecap="round" stroke-linejoin="round" stroke-miterlimit="10" stroke-width="1.5"/>
                            <path id="Trazado_1013046" data-name="Trazado 1013046" d="M336.372,416.16s20.341-.2,32.632-.867" transform="translate(-336.372 -407.301)" fill="none" stroke="#2e2854" stroke-linecap="round" stroke-linejoin="round" stroke-miterlimit="10" stroke-width="1.5"/>
                          </g>
                        </g>
                        <g id="Grupo_1159367" data-name="Grupo 1159367" transform="translate(0 42.832)">
                          <path id="Trazado_1013047" data-name="Trazado 1013047" d="M274.058,413.427l.41.041a223.463,223.463,0,0,0,45.073.706,7.9,7.9,0,0,0,3.4-.822,2.767,2.767,0,0,0,1.436-2.944c-.427-1.5-2.29-1.968-3.84-2.124a81.591,81.591,0,0,0-13.063-.171,70.623,70.623,0,0,0,18.061-3.933,7.384,7.384,0,0,0,3.138-1.8,2.716,2.716,0,0,0,.36-3.347c-.717-.91-2.033-1.023-3.19-1.034a137.019,137.019,0,0,0-19.329,1.505,105.043,105.043,0,0,0,22-5.168,9.232,9.232,0,0,0,3.831-2.123,3.357,3.357,0,0,0,.593-4.047c-.939-1.341-2.864-1.411-4.5-1.328q-4.006.2-8,.562a62.629,62.629,0,0,0,8.744-2.459,8.328,8.328,0,0,0,2.857-1.541,3.186,3.186,0,0,0,1.09-2.925,3.241,3.241,0,0,0-2.388-2.215,9.526,9.526,0,0,0-3.4-.1l-19.841,1.8-.22-6.821-13.876-2.794a78.839,78.839,0,0,1-10.66-1.392l-12.7,18.446Z" transform="translate(-270.042 -368.956)" fill="#9e4950"/>
                          <path id="Trazado_1013048" data-name="Trazado 1013048" d="M319.451,413.062a7.9,7.9,0,0,0,3.4-.822,3.276,3.276,0,0,0,1.222-1.283,320.435,320.435,0,0,1-51-4.478l.9,5.833.41.041A223.469,223.469,0,0,0,319.451,413.062Z" transform="translate(-269.952 -367.842)" fill="#2e2854" opacity="0.15"/>
                          <g id="Grupo_1159366" data-name="Grupo 1159366" transform="translate(4.016 9.103)">
                            <path id="Trazado_1013049" data-name="Trazado 1013049" d="M319.355,386.873c-4.178.882-8.438,1.454-12.674,2.019" transform="translate(-272.97 -377.527)" fill="none" stroke="#2e2854" stroke-linecap="round" stroke-linejoin="round" stroke-miterlimit="10" stroke-width="1.5"/>
                            <path id="Trazado_1013050" data-name="Trazado 1013050" d="M273.942,413.165l.41.041a223.468,223.468,0,0,0,45.073.706,7.9,7.9,0,0,0,3.4-.822,2.767,2.767,0,0,0,1.436-2.944c-.427-1.5-2.29-1.968-3.84-2.124a81.6,81.6,0,0,0-13.063-.171,70.616,70.616,0,0,0,18.061-3.933,7.384,7.384,0,0,0,3.138-1.8,2.716,2.716,0,0,0,.36-3.348c-.717-.91-2.033-1.022-3.19-1.034a137.019,137.019,0,0,0-19.329,1.505,105.045,105.045,0,0,0,22-5.168,9.231,9.231,0,0,0,3.831-2.123,3.357,3.357,0,0,0,.593-4.047c-.939-1.341-2.864-1.411-4.5-1.328q-4.006.2-8,.562a62.623,62.623,0,0,0,8.744-2.459,8.328,8.328,0,0,0,2.857-1.541,3.186,3.186,0,0,0,1.09-2.925A3.242,3.242,0,0,0,330.629,378a9.527,9.527,0,0,0-3.4-.1l-19.841,1.8" transform="translate(-273.942 -377.796)" fill="none" stroke="#2e2854" stroke-linecap="round" stroke-linejoin="round" stroke-miterlimit="10" stroke-width="1.5"/>
                          </g>
                        </g>
                      </g>
                      <g id="Grupo_1159371" data-name="Grupo 1159371" transform="translate(0 1.306)">
                        <path id="Trazado_1013051" data-name="Trazado 1013051" d="M268.879,297.1c-7.594,3.456-13.4,10.484-17.274,18.017-5.391,10.5-7.73,23.319-2.944,34.108,4.573,10.311,14.832,17.054,25.437,20.9a77.526,77.526,0,0,0,11.162,3.12h0a136.462,136.462,0,0,1-8.69,44.468c-14.632-1.482-29.353-3.094-43.321-7.635-14.1-4.583-27.556-12.435-36.322-24.391-14.076-19.2-13.789-45.686-7.142-68.545a145.381,145.381,0,0,1,55.389-77.562A140.6,140.6,0,0,1,272,224.778v40.011Z" transform="translate(-185.369 -224.778)" fill="#6d7fe3"/>
                        <g id="Grupo_1159370" data-name="Grupo 1159370" transform="translate(0)">
                          <g id="Grupo_1159369" data-name="Grupo 1159369" clip-path="url(#clip-path-4)">
                            <path id="Trazado_1013052" data-name="Trazado 1013052" d="M271.124,236.617c-29.323,20.756-52.175,50.762-63.476,84.864-3.5,10.563-5.92,21.9-3.639,32.787,3.378,16.132,16.739,28.718,31.766,35.484S267.5,398.4,283.883,400.2" transform="translate(-184.842 -224.427)" fill="none" stroke="#9da7e0" stroke-linecap="round" stroke-linejoin="round" stroke-miterlimit="10" stroke-width="1.5"/>
                            <path id="Trazado_1013053" data-name="Trazado 1013053" d="M271.406,259.061a95.053,95.053,0,0,0-38.791,44.712c-5.587,13.27-8.13,28.425-3.67,42.114,4.042,12.4,13.483,22.477,24.337,29.716s23.152,11.961,35.336,16.625" transform="translate(-184.143 -223.76)" fill="none" stroke="#9da7e0" stroke-linecap="round" stroke-linejoin="round" stroke-miterlimit="10" stroke-width="1.5"/>
                            <path id="Trazado_1013054" data-name="Trazado 1013054" d="M240.108,238.623q11.428,32.815,21.088,66.209" transform="translate(-183.744 -224.367)" fill="none" stroke="#9da7e0" stroke-linecap="round" stroke-linejoin="round" stroke-miterlimit="10" stroke-width="1.5"/>
                            <path id="Trazado_1013055" data-name="Trazado 1013055" d="M210.871,266.16a185.5,185.5,0,0,0,45,46.1" transform="translate(-184.612 -223.55)" fill="none" stroke="#9da7e0" stroke-linecap="round" stroke-linejoin="round" stroke-miterlimit="10" stroke-width="1.5"/>
                            <path id="Trazado_1013056" data-name="Trazado 1013056" d="M189.847,312a235.048,235.048,0,0,0,57.589,12.4" transform="translate(-185.236 -222.189)" fill="none" stroke="#9da7e0" stroke-linecap="round" stroke-linejoin="round" stroke-miterlimit="10" stroke-width="1.5"/>
                            <path id="Trazado_1013057" data-name="Trazado 1013057" d="M184.754,356.457A124.854,124.854,0,0,0,246.8,336.338" transform="translate(-185.387 -221.467)" fill="none" stroke="#9da7e0" stroke-linecap="round" stroke-linejoin="round" stroke-miterlimit="10" stroke-width="1.5"/>
                            <path id="Trazado_1013058" data-name="Trazado 1013058" d="M252.5,348.736a211.828,211.828,0,0,1-40.731,49.887" transform="translate(-184.585 -221.099)" fill="none" stroke="#9da7e0" stroke-linecap="round" stroke-linejoin="round" stroke-miterlimit="10" stroke-width="1.5"/>
                            <path id="Trazado_1013059" data-name="Trazado 1013059" d="M266.231,360.941a236.327,236.327,0,0,1-20.5,50.89" transform="translate(-183.577 -220.736)" fill="none" stroke="#9da7e0" stroke-linecap="round" stroke-linejoin="round" stroke-miterlimit="10" stroke-width="1.5"/>
                          </g>
                        </g>
                        <path id="Trazado_1013061" data-name="Trazado 1013061" d="M234.4,397.488c-34.81-13.985-45.474-52.744-48.207-66.425-2.349,18.173.065,36.911,10.733,51.462,8.766,11.956,22.224,19.807,36.322,24.391,13.968,4.541,28.689,6.154,43.321,7.635q1-2.663,1.894-5.368C264.154,406.862,248.658,403.215,234.4,397.488Z" transform="translate(-185.368 -221.623)" fill="#2e2854" opacity="0.15"/>
                        <path id="Trazado_1013062" data-name="Trazado 1013062" d="M276.571,414.275c-14.632-1.482-29.353-3.094-43.321-7.635-14.1-4.583-27.556-12.435-36.322-24.391-8.8-12-11.984-26.845-11.515-41.873" transform="translate(-185.369 -221.347)" fill="none" stroke="#2e2854" stroke-linecap="round" stroke-linejoin="round" stroke-miterlimit="10" stroke-width="1.5"/>
                      </g>
                      <path id="Trazado_1013063" data-name="Trazado 1013063" d="M273.009,223.51a200.71,200.71,0,0,1-4.024,75.681,2.534,2.534,0,0,1-1.607,1.78,15.1,15.1,0,0,1-3.761.82,2.518,2.518,0,0,1-2.629-3.02,255.071,255.071,0,0,0,3.864-71.8A84.65,84.65,0,0,1,273.009,223.51Z" transform="translate(-183.125 -223.51)" fill="#bf326c"/>
                    </g>
                  </g>
                </g>
              </g>
            </g>
          </g>
          <g id="Grupo_1159378" data-name="Grupo 1159378" transform="translate(26.334 0)">
            <path id="Trazado_1013065" data-name="Trazado 1013065" d="M258.5,94.192a2.618,2.618,0,1,0-.175-4.064A2.6,2.6,0,0,0,258.5,94.192Z" transform="translate(-46.819 -37.584)" fill="#fff"/>
            <path id="Trazado_1013066" data-name="Trazado 1013066" d="M179.459,83.505a2.617,2.617,0,1,0-.175-4.063A2.6,2.6,0,0,0,179.459,83.505Z" transform="translate(-49.165 -37.901)" fill="#fff"/>
            <path id="Trazado_1013067" data-name="Trazado 1013067" d="M405.123,99.614a2.617,2.617,0,1,0-.175-4.063A2.6,2.6,0,0,0,405.123,99.614Z" transform="translate(-42.467 -37.423)" fill="#fff"/>
            <path id="Trazado_1013068" data-name="Trazado 1013068" d="M182.862,421.4a2.617,2.617,0,1,0-.175-4.063A2.6,2.6,0,0,0,182.862,421.4Z" transform="translate(-49.064 -27.872)" fill="#fff"/>
            <path id="Trazado_1013069" data-name="Trazado 1013069" d="M510.507,429.718a2.617,2.617,0,1,0-.175-4.063A2.6,2.6,0,0,0,510.507,429.718Z" transform="translate(-39.339 -27.625)" fill="#f2d3e8"/>
            <path id="Trazado_1013070" data-name="Trazado 1013070" d="M445.681,52.949a2.617,2.617,0,1,0-.175-4.063A2.6,2.6,0,0,0,445.681,52.949Z" transform="translate(-41.263 -38.808)" fill="#f2d3e8"/>
            <path id="Trazado_1013071" data-name="Trazado 1013071" d="M57.3,86.016a2.617,2.617,0,1,0-.175-4.063A2.6,2.6,0,0,0,57.3,86.016Z" transform="translate(-52.791 -37.827)" fill="#f2d3e8"/>
            <path id="Trazado_1013072" data-name="Trazado 1013072" d="M104.467,453.813a2.617,2.617,0,1,0-.175-4.063A2.6,2.6,0,0,0,104.467,453.813Z" transform="translate(-51.391 -26.91)" fill="#f2d3e8"/>
            <path id="Trazado_1013073" data-name="Trazado 1013073" d="M221.895,440.861a5.706,5.706,0,1,0-2.79-8.138A5.738,5.738,0,0,0,221.895,440.861Z" transform="translate(-47.978 -27.48)" fill="#fff"/>
            <path id="Trazado_1013074" data-name="Trazado 1013074" d="M480.733,440.861a5.706,5.706,0,1,0-2.792-8.138A5.739,5.739,0,0,0,480.733,440.861Z" transform="translate(-40.295 -27.48)" fill="#f2d3e8"/>
            <path id="Trazado_1013075" data-name="Trazado 1013075" d="M56.414,50.018a5.706,5.706,0,0,0,4.774-10.352,5.919,5.919,0,0,0-7.565,2.214A5.74,5.74,0,0,0,56.414,50.018Z" transform="translate(-52.89 -39.081)" fill="#f2d3e8"/>
            <path id="Trazado_1013076" data-name="Trazado 1013076" d="M69.442,429.448a5.706,5.706,0,1,0-2.791-8.138A5.739,5.739,0,0,0,69.442,429.448Z" transform="translate(-52.503 -27.819)" fill="#f2d3e8"/>
            <path id="Trazado_1013077" data-name="Trazado 1013077" d="M491.783,114.545a5.706,5.706,0,1,0-2.79-8.138A5.737,5.737,0,0,0,491.783,114.545Z" transform="translate(-39.967 -37.166)" fill="#f2d3e8"/>
            <circle id="Elipse_11780" data-name="Elipse 11780" cx="2.795" cy="2.795" r="2.795" transform="translate(465.92 436.269)" fill="none" stroke="#2e2854" stroke-linecap="round" stroke-linejoin="round" stroke-miterlimit="10" stroke-width="1.5"/>
            <circle id="Elipse_11781" data-name="Elipse 11781" cx="2.795" cy="2.795" r="2.795" transform="translate(132.54 443.813)" fill="none" stroke="#2e2854" stroke-linecap="round" stroke-linejoin="round" stroke-miterlimit="10" stroke-width="1.5"/>
            <circle id="Elipse_11782" data-name="Elipse 11782" cx="2.795" cy="2.795" r="2.795" transform="translate(464.102 26.979)" fill="none" stroke="#2e2854" stroke-linecap="round" stroke-linejoin="round" stroke-miterlimit="10" stroke-width="1.5"/>
            <circle id="Elipse_11783" data-name="Elipse 11783" cx="2.795" cy="2.795" r="2.795" transform="translate(30.205 26.979)" fill="none" stroke="#2e2854" stroke-linecap="round" stroke-linejoin="round" stroke-miterlimit="10" stroke-width="1.5"/>
            <circle id="Elipse_11784" data-name="Elipse 11784" cx="2.795" cy="2.795" r="2.795" transform="translate(243.162 163.802)" fill="none" stroke="#2e2854" stroke-linecap="round" stroke-linejoin="round" stroke-miterlimit="10" stroke-width="1.5"/>
            <path id="Trazado_1013078" data-name="Trazado 1013078" d="M138.291,44.658a2.795,2.795,0,1,0,2.795-2.795A2.794,2.794,0,0,0,138.291,44.658Z" transform="translate(-50.355 -38.998)" fill="none" stroke="#2e2854" stroke-linecap="round" stroke-linejoin="round" stroke-miterlimit="10" stroke-width="1.5"/>
          </g>
        </g>
      </g>
    </g>
  </g>
</svg>
