<svg xmlns="http://www.w3.org/2000/svg" xmlns:xlink="http://www.w3.org/1999/xlink" width="108" height="108" viewBox="0 0 108 108">
  <defs>
    <filter id="Trazado_982547" x="0" y="0" width="108" height="108" filterUnits="userSpaceOnUse">
      <feOffset dy="3" input="SourceAlpha"/>
      <feGaussianBlur stdDeviation="3" result="blur"/>
      <feFlood flood-opacity="0.161"/>
      <feComposite operator="in" in2="blur"/>
      <feComposite in="SourceGraphic"/>
    </filter>
  </defs>
  <g id="Grupo_1160832" data-name="Grupo 1160832" transform="translate(-171 -305)">
    <g id="Grupo_1158749" data-name="Grupo 1158749" transform="translate(0 -2673)">
      <g id="Grupo_1155827" data-name="Grupo 1155827" transform="translate(180 2984)">
        <g id="Grupo_1153134" data-name="Grupo 1153134">
          <g id="Grupo_1149598" data-name="Grupo 1149598">
            <g id="Grupo_1148770" data-name="Grupo 1148770">
              <g id="Grupo_1146954" data-name="Grupo 1146954">
                <g transform="matrix(1, 0, 0, 1, -9, -6)" filter="url(#Trazado_982547)">
                  <g id="Trazado_982547-2" data-name="Trazado 982547" transform="translate(9 6)" fill="#fdf6ea">
                    <path d="M 45 88.5 C 39.12687683105469 88.5 33.43022537231445 87.35007476806641 28.06830024719238 85.08217620849609 C 22.88852500915527 82.89131164550781 18.23629951477051 79.75458526611328 14.2408504486084 75.75914764404297 C 10.24541282653809 71.76370239257812 7.108687400817871 67.11147308349609 4.917825222015381 61.93170166015625 C 2.649924993515015 56.56977462768555 1.5 50.87312316894531 1.5 45 C 1.5 39.12687683105469 2.649924993515015 33.43022537231445 4.917825222015381 28.06830024719238 C 7.108687400817871 22.88852500915527 10.24541282653809 18.23629951477051 14.2408504486084 14.2408504486084 C 18.23629951477051 10.24541282653809 22.88852500915527 7.108687400817871 28.06830024719238 4.917825222015381 C 33.43022537231445 2.649924993515015 39.12687683105469 1.5 45 1.5 C 50.87312316894531 1.5 56.56977462768555 2.649924993515015 61.93170166015625 4.917825222015381 C 67.11147308349609 7.108687400817871 71.76370239257812 10.24541282653809 75.75914764404297 14.2408504486084 C 79.75458526611328 18.23629951477051 82.89131164550781 22.88852500915527 85.08217620849609 28.06830024719238 C 87.35007476806641 33.43022537231445 88.5 39.12687683105469 88.5 45 C 88.5 50.87312316894531 87.35007476806641 56.56977462768555 85.08217620849609 61.93170166015625 C 82.89131164550781 67.11147308349609 79.75458526611328 71.76370239257812 75.75914764404297 75.75914764404297 C 71.76370239257812 79.75458526611328 67.11147308349609 82.89131164550781 61.93170166015625 85.08217620849609 C 56.56977462768555 87.35007476806641 50.87312316894531 88.5 45 88.5 Z" stroke="none"/>
                    <path d="M 45 3 C 39.32871246337891 3 33.82865524291992 4.110054016113281 28.65262985229492 6.299339294433594 C 23.65165710449219 8.414573669433594 19.15968322753906 11.44334411621094 15.301513671875 15.301513671875 C 11.44334411621094 19.15968322753906 8.414573669433594 23.65165710449219 6.299339294433594 28.65262985229492 C 4.110054016113281 33.82865524291992 3 39.32871246337891 3 45 C 3 50.67128753662109 4.110054016113281 56.17134475708008 6.299339294433594 61.34737396240234 C 8.414573669433594 66.34834289550781 11.44334411621094 70.84031677246094 15.301513671875 74.698486328125 C 19.15968322753906 78.55665588378906 23.65165710449219 81.58542633056641 28.65262985229492 83.70066070556641 C 33.82865524291992 85.88994598388672 39.32871246337891 87 45 87 C 50.67128753662109 87 56.17134475708008 85.88994598388672 61.34737396240234 83.70066070556641 C 66.34834289550781 81.58542633056641 70.84031677246094 78.55665588378906 74.698486328125 74.698486328125 C 78.55665588378906 70.84031677246094 81.58542633056641 66.34834289550781 83.70066070556641 61.34737396240234 C 85.88994598388672 56.17134475708008 87 50.67128753662109 87 45 C 87 39.32871246337891 85.88994598388672 33.82865524291992 83.70066070556641 28.65262985229492 C 81.58542633056641 23.65165710449219 78.55665588378906 19.15968322753906 74.698486328125 15.301513671875 C 70.84031677246094 11.44334411621094 66.34834289550781 8.414573669433594 61.34737396240234 6.299339294433594 C 56.17134475708008 4.110054016113281 50.67128753662109 3 45 3 M 45 0 C 69.85281372070312 0 90 20.14718627929688 90 45 C 90 69.85281372070312 69.85281372070312 90 45 90 C 20.14718627929688 90 0 69.85281372070312 0 45 C 0 20.14718627929688 20.14718627929688 0 45 0 Z" stroke="none" fill="#edae3b"/>
                  </g>
                </g>
              </g>
            </g>
          </g>
        </g>
      </g>
    </g>
    <g id="administracion-de-empresas_2_" data-name="administracion-de-empresas (2)" transform="translate(163.144 315.003)">
      <g id="Grupo_1160831" data-name="Grupo 1160831" transform="translate(32.937 14.907)">
        <g id="Grupo_1160828" data-name="Grupo 1160828" transform="translate(9.94 0)">
          <path id="Trazado_1013741" data-name="Trazado 1013741" d="M139,62.691a18.186,18.186,0,0,1,5.325,2.207l3.46-1.537,4.078,4.078L150.329,70.9a18.183,18.183,0,0,1,2.208,5.326l3.53,1.359v5.767l-3.531,1.359a18.189,18.189,0,0,1-2.207,5.325l1.537,3.46-4.078,4.078-3.459-1.536A18.183,18.183,0,0,1,139,98.244l-1.359,3.53h-5.767l-1.359-3.531a18.186,18.186,0,0,1-5.325-2.207l-3.46,1.537-4.078-4.078,1.536-3.459a18.184,18.184,0,0,1-2.208-5.326l-3.53-1.359V77.583l3.531-1.359a18.181,18.181,0,0,1,2.208-5.325l-1.537-3.46,4.078-4.078,3.46,1.537a18.186,18.186,0,0,1,5.325-2.207l1.359-3.531h5.767Z" transform="translate(-113.453 -59.16)" fill="#ffe177" fill-rule="evenodd"/>
          <path id="Trazado_1013742" data-name="Trazado 1013742" d="M174.8,96.036l-3.46,1.537-.533-.533,3.244-1.441Q174.425,95.827,174.8,96.036Zm13.81-33.345a18.187,18.187,0,0,1,5.325,2.207l-.984.437a23.984,23.984,0,0,0-6.073-2.644l-1.359-3.531h1.732Zm5.326,33.345a18.183,18.183,0,0,1-5.326,2.208l-1.359,3.53h-1.732l1.359-3.53a23.979,23.979,0,0,0,6.075-2.645ZM170.812,63.9l.533-.533L174.8,64.9q-.379.209-.749.437Zm25.388,0,1.2-.533,4.078,4.078L199.941,70.9a18.182,18.182,0,0,1,2.208,5.326l3.53,1.359v5.767l-3.531,1.359a18.188,18.188,0,0,1-2.207,5.325l1.537,3.46L197.4,97.573l-1.2-.533,3.545-3.545-1.537-3.46a18.185,18.185,0,0,0,2.208-5.325l3.531-1.359V77.584l-3.53-1.359a18.18,18.18,0,0,0-2.208-5.326l1.536-3.459Z" transform="translate(-163.065 -59.161)" fill="#ffd064" fill-rule="evenodd"/>
          <ellipse id="Elipse_11803" data-name="Elipse 11803" cx="14.089" cy="14.089" rx="14.089" ry="14.089" transform="translate(1.379 21.308) rotate(-45)" fill="#eceff1"/>
          <path id="Trazado_1013743" data-name="Trazado 1013743" d="M180.988,112.606a14.089,14.089,0,0,0,0,28.177c.285,0,.568-.01.849-.026a14.088,14.088,0,0,1,0-28.125C181.556,112.616,181.273,112.606,180.988,112.606Z" transform="translate(-159.681 -105.388)" fill="#d1d1d6" fill-rule="evenodd"/>
        </g>
        <g id="Grupo_1160829" data-name="Grupo 1160829" transform="translate(0 36.391)">
          <path id="Trazado_1013744" data-name="Trazado 1013744" d="M67.077,336.132,77.483,330.1c1.953-1.132,3.939-1.934,6.086-1.237,2.393.776,6.3,2.443,10.287,3.162a2.891,2.891,0,0,1,2,3.463,2.8,2.8,0,0,1-3.463,2l1.393.223a6.488,6.488,0,0,0,4.46-.777l10.005-5.827c7.777-4.529,8.919,2.439,6.334,4.031L96.427,346.32a6.658,6.658,0,0,1-5.392.76l-13.17-3.529-4.877,2.816a1.97,1.97,0,0,1-2.686-.72l-3.944-6.831A1.97,1.97,0,0,1,67.077,336.132Z" transform="translate(-62.553 -328.606)" fill="#f6dccd" fill-rule="evenodd"/>
          <path id="Trazado_1013745" data-name="Trazado 1013745" d="M217.456,368.284a2.855,2.855,0,0,1-3.225,1.377c-2.157-.571-4.312-1.155-6.468-1.733a1.082,1.082,0,1,1,.56-2.091Z" transform="translate(-184.391 -360.777)" fill="#f1cbbc" fill-rule="evenodd"/>
          <path id="Trazado_1013746" data-name="Trazado 1013746" d="M67.076,336.132,77.483,330.1c1.953-1.132,3.939-1.934,6.086-1.237,1.28.415,2.995,1.085,4.922,1.729L68.332,342.233l-1.973-3.417A1.97,1.97,0,0,1,67.076,336.132Z" transform="translate(-62.553 -328.606)" fill="#f1cbbc" fill-rule="evenodd"/>
          <path id="Trazado_1013747" data-name="Trazado 1013747" d="M45.418,355.238l8.253,14.582a1.478,1.478,0,0,1-.556,2.008l-2.807,1.589a1.477,1.477,0,0,1-2.008-.556l-8.253-14.582a1.477,1.477,0,0,1,.556-2.008l2.807-1.589A1.477,1.477,0,0,1,45.418,355.238Z" transform="translate(-39.857 -350.996)" fill="#d1d1d6" fill-rule="evenodd"/>
          <path id="Trazado_1013748" data-name="Trazado 1013748" d="M74.386,365.258l1.461,2.581,1.444,2.552a1.477,1.477,0,0,1-.552,2.005l1-.567a1.477,1.477,0,0,0,.556-2.008l-1.449-2.561-2.91-5.142-2.914-5.148-.98-1.731a1.479,1.479,0,0,0-1.716-.682l1.7,3,2.91,5.142,1.449,2.561Z" transform="translate(-64.484 -350.996)" fill="#b1b1b5" fill-rule="evenodd"/>
        </g>
        <g id="Grupo_1160830" data-name="Grupo 1160830" transform="translate(22.263 15.511)">
          <path id="Trazado_1013749" data-name="Trazado 1013749" d="M205.509,232h2.19a.812.812,0,0,1,.81.81v2.76a.812.812,0,0,1-.81.81h-2.19a.812.812,0,0,1-.81-.81v-2.76A.812.812,0,0,1,205.509,232Z" transform="translate(-204.699 -224.166)" fill="#fe646f" fill-rule="evenodd"/>
          <path id="Trazado_1013750" data-name="Trazado 1013750" d="M218.261,232h1.169a.812.812,0,0,1,.81.81v2.76a.812.812,0,0,1-.81.81h-1.169a.812.812,0,0,0,.81-.81v-2.76A.812.812,0,0,0,218.261,232Z" transform="translate(-216.429 -224.166)" fill="#fd4755" fill-rule="evenodd"/>
          <path id="Trazado_1013751" data-name="Trazado 1013751" d="M257.915,203.63h2.19a.812.812,0,0,1,.81.81v6.591a.812.812,0,0,1-.81.81h-2.19a.812.812,0,0,1-.81-.81V204.44A.812.812,0,0,1,257.915,203.63Z" transform="translate(-250.027 -199.629)" fill="#6cf5c2" fill-rule="evenodd"/>
          <path id="Trazado_1013752" data-name="Trazado 1013752" d="M270.666,203.63h1.169a.812.812,0,0,1,.81.81v6.591a.812.812,0,0,1-.81.81h-1.169a.812.812,0,0,0,.81-.81V204.44A.812.812,0,0,0,270.666,203.63Z" transform="translate(-261.757 -199.629)" fill="#00e499" fill-rule="evenodd"/>
          <path id="Trazado_1013753" data-name="Trazado 1013753" d="M310.32,174.005h2.19a.812.812,0,0,1,.81.81v10.593a.812.812,0,0,1-.81.81h-2.19a.812.812,0,0,1-.81-.81V174.815A.812.812,0,0,1,310.32,174.005Z" transform="translate(-295.354 -174.005)" fill="#8ac9fe" fill-rule="evenodd"/>
          <path id="Trazado_1013754" data-name="Trazado 1013754" d="M323.072,174.005h1.169a.812.812,0,0,1,.81.81v10.593a.812.812,0,0,1-.81.81h-1.169a.812.812,0,0,0,.81-.81V174.815A.812.812,0,0,0,323.072,174.005Z" transform="translate(-307.085 -174.005)" fill="#60b7ff" fill-rule="evenodd"/>
        </g>
      </g>
      <path id="Trazado_1013755" data-name="Trazado 1013755" d="M70.437,41.552h1.65V31.5h-1.65Zm-2.161,1.08V30.418a1.08,1.08,0,0,1,1.081-1.08h3.811a1.08,1.08,0,0,1,1.08,1.08V42.632a1.08,1.08,0,0,1-1.08,1.081H69.357A1.08,1.08,0,0,1,68.276,42.632ZM65.008,35.5H63.359v6.051h1.649ZM67.17,34.42v8.212a1.081,1.081,0,0,1-1.081,1.081h-3.81A1.081,1.081,0,0,1,61.2,42.632V34.42a1.081,1.081,0,0,1,1.081-1.081h3.81A1.081,1.081,0,0,1,67.17,34.42ZM56.281,41.551h1.65V39.332h-1.65ZM55.2,43.712a1.081,1.081,0,0,1-1.081-1.081V38.251A1.081,1.081,0,0,1,55.2,37.17h3.812a1.08,1.08,0,0,1,1.08,1.081v4.381a1.08,1.08,0,0,1-1.08,1.081Zm1.938-8.2a1.08,1.08,0,0,1-.664-1.933l6.372-4.958a1.08,1.08,0,0,1,.359-2.1h0l2.7,0a1.08,1.08,0,0,1,1.045,1.344L66.3,30.491a1.08,1.08,0,0,1-1.046.817,1.05,1.05,0,0,1-.264-.033,1.079,1.079,0,0,1-.812-.95L57.8,35.284a1.077,1.077,0,0,1-.663.227ZM36.606,57.721a1,1,0,1,0,1.137.847A1,1,0,0,0,36.606,57.721Zm14.57-21.507A13.008,13.008,0,1,1,64.183,49.223,13.023,13.023,0,0,1,51.176,36.215Zm-2.161,0A15.169,15.169,0,1,1,64.183,51.384,15.186,15.186,0,0,1,49.015,36.215Zm35.832,18c-.772-1.29-2.892-1.094-5.669.524L69.171,60.564a7.53,7.53,0,0,1-5.175.91l-1.244-.2-.022,0-.022,0c-1.561-.319-3.006-.732-4.538-1.17-.694-.2-1.414-.4-2.145-.6a1.08,1.08,0,1,1,.559-2.087c.748.2,1.476.408,2.18.609,1.474.421,2.866.818,4.329,1.12a1.688,1.688,0,0,0,2.1-1.231,1.8,1.8,0,0,0-1.228-2.135,52.071,52.071,0,0,1-8.234-2.441c-.81-.293-1.51-.546-2.116-.743-1.821-.591-3.58.2-5.211,1.145L41.11,57.954l4.762,8.414,1.834-1.058a1.076,1.076,0,0,1,.819-.108L61.7,68.731a5.6,5.6,0,0,0,4.546-.637L84.4,56.914a2.131,2.131,0,0,0,.444-2.7ZM45.813,70.652a.4.4,0,0,1-.148.535l-2.808,1.589a.39.39,0,0,1-.3.035.4.4,0,0,1-.238-.183L34.068,58.043a.4.4,0,0,1,.147-.535l2.808-1.589a.38.38,0,0,1,.189-.05.433.433,0,0,1,.109.015.386.386,0,0,1,.236.184Zm4.168-20.035L48.368,49,49.6,46.222a1.083,1.083,0,0,0-.068-1.006,17.084,17.084,0,0,1-2.077-5.009,1.078,1.078,0,0,0-.662-.758l-2.839-1.092V34.073L46.8,32.981a1.078,1.078,0,0,0,.663-.758,17.1,17.1,0,0,1,2.076-5.009,1.078,1.078,0,0,0,.068-1.005l-1.235-2.782L51.4,20.4l2.782,1.236a1.08,1.08,0,0,0,1-.067,17.084,17.084,0,0,1,5.008-2.076,1.081,1.081,0,0,0,.759-.663l1.093-2.838h4.283l1.093,2.838a1.082,1.082,0,0,0,.759.663,17.085,17.085,0,0,1,5.008,2.076,1.079,1.079,0,0,0,1,.067L76.973,20.4,80,23.427l-1.236,2.781a1.083,1.083,0,0,0,.067,1,17.087,17.087,0,0,1,2.077,5.01,1.079,1.079,0,0,0,.662.758l2.839,1.092v4.283l-2.839,1.093a1.078,1.078,0,0,0-.663.758,17.084,17.084,0,0,1-2.076,5.009,1.08,1.08,0,0,0-.067,1L80,49l-3.029,3.029L74.191,50.8a1.078,1.078,0,0,0-1,.067,17.083,17.083,0,0,1-5.011,2.077,1.081,1.081,0,0,0-.757.663l-.667,1.733a4.139,4.139,0,0,0-2.181-1.644,1,1,0,0,0-.14-.036A49.945,49.945,0,0,1,56.467,51.3c-.795-.287-1.545-.558-2.184-.765A6.758,6.758,0,0,0,49.981,50.616Zm17.041,8.56a4.132,4.132,0,0,0,.219-.588,1.079,1.079,0,0,0,.835-.678L69.235,54.9A19.247,19.247,0,0,0,73.826,53l2.292,1.018L68.084,58.7a5.444,5.444,0,0,1-1.062.48Zm19.717-6a4.283,4.283,0,0,1-1.2,5.582L67.376,69.935a7.726,7.726,0,0,1-4.086,1.174,8.31,8.31,0,0,1-2.153-.291L48.4,67.405l-1.463.844.756,1.337a2.556,2.556,0,0,1-.964,3.48l-2.808,1.589a2.531,2.531,0,0,1-1.25.331,2.586,2.586,0,0,1-.689-.094,2.544,2.544,0,0,1-1.541-1.2L32.187,59.107a2.557,2.557,0,0,1,.964-3.48l2.808-1.589a2.56,2.56,0,0,1,3.48.964l.606,1.071,7.276-4.213c.179-.1.36-.2.543-.305l-1.549-1.55a1.079,1.079,0,0,1-.224-1.2l1.31-2.948a19.156,19.156,0,0,1-1.9-4.591l-3.009-1.158A1.08,1.08,0,0,1,41.8,39.1V33.331a1.08,1.08,0,0,1,.693-1.008L45.5,31.165a19.207,19.207,0,0,1,1.9-4.59l-1.31-2.949a1.079,1.079,0,0,1,.224-1.2l4.077-4.079a1.083,1.083,0,0,1,1.2-.223l2.948,1.31a19.242,19.242,0,0,1,4.589-1.9l1.159-3.009a1.08,1.08,0,0,1,1.008-.692h5.766a1.082,1.082,0,0,1,1.009.692l1.159,3.009a19.245,19.245,0,0,1,4.589,1.9l2.948-1.31a1.083,1.083,0,0,1,1.2.223l4.077,4.078a1.082,1.082,0,0,1,.224,1.2l-1.31,2.948a19.156,19.156,0,0,1,1.9,4.591l3.009,1.158a1.08,1.08,0,0,1,.693,1.008V39.1a1.08,1.08,0,0,1-.693,1.008L82.87,41.265a19.213,19.213,0,0,1-1.9,4.589l1.31,2.95a1.081,1.081,0,0,1-.224,1.2l-1.807,1.807c2.319-.9,3.891-.666,4.916-.14A25.757,25.757,0,0,0,90.24,36.215a26.026,26.026,0,0,0-3.526-13.1,1.081,1.081,0,0,1,1.868-1.088A28.205,28.205,0,0,1,92.4,36.215a27.9,27.9,0,0,1-5.662,16.956ZM39.973,50.712A28.218,28.218,0,0,1,80.438,13.149l-.446-1.563a1.081,1.081,0,0,1,2.079-.593l1.373,4.814a1.081,1.081,0,0,1-1,1.376l-5,.18H77.4a1.08,1.08,0,0,1-.038-2.16l2.128-.077A26.06,26.06,0,0,0,41.825,49.6a1.08,1.08,0,1,1-1.852,1.112Z" transform="translate(0)" fill="#242222" fill-rule="evenodd"/>
    </g>
  </g>
</svg>
