<svg xmlns="http://www.w3.org/2000/svg" xmlns:xlink="http://www.w3.org/1999/xlink" width="108" height="108" viewBox="0 0 108 108">
  <defs>
    <filter id="Trazado_982547" x="0" y="0" width="108" height="108" filterUnits="userSpaceOnUse">
      <feOffset dy="3" input="SourceAlpha"/>
      <feGaussianBlur stdDeviation="3" result="blur"/>
      <feFlood flood-opacity="0.161"/>
      <feComposite operator="in" in2="blur"/>
      <feComposite in="SourceGraphic"/>
    </filter>
  </defs>
  <g id="Grupo_1160955" data-name="Grupo 1160955" transform="translate(-196 -4186)">
    <g id="Grupo_1159235" data-name="Grupo 1159235" transform="translate(-420 2343)">
      <g id="Grupo_1154366" data-name="Grupo 1154366" transform="translate(0 -2067)">
        <g id="Grupo_1153177" data-name="Grupo 1153177" transform="translate(362 3397)">
          <g id="Grupo_1149598" data-name="Grupo 1149598" transform="translate(80 315)">
            <g id="Grupo_1148770" data-name="Grupo 1148770" transform="translate(-27 -2583)">
              <g id="Grupo_1146954" data-name="Grupo 1146954" transform="translate(-415 -1202)">
                <g transform="matrix(1, 0, 0, 1, 616, 3983)" filter="url(#Trazado_982547)">
                  <g id="Trazado_982547-2" data-name="Trazado 982547" transform="translate(9 6)" fill="#f1f0f2">
                    <path d="M 45 88.5 C 39.12687683105469 88.5 33.43022537231445 87.35007476806641 28.06830024719238 85.08217620849609 C 22.88852500915527 82.89131164550781 18.23629951477051 79.75458526611328 14.2408504486084 75.75914764404297 C 10.24541282653809 71.76370239257812 7.108687400817871 67.11147308349609 4.917825222015381 61.93170166015625 C 2.649924993515015 56.56977462768555 1.5 50.87312316894531 1.5 45 C 1.5 39.12687683105469 2.649924993515015 33.43022537231445 4.917825222015381 28.06830024719238 C 7.108687400817871 22.88852500915527 10.24541282653809 18.23629951477051 14.2408504486084 14.2408504486084 C 18.23629951477051 10.24541282653809 22.88852500915527 7.108687400817871 28.06830024719238 4.917825222015381 C 33.43022537231445 2.649924993515015 39.12687683105469 1.5 45 1.5 C 50.87312316894531 1.5 56.56977462768555 2.649924993515015 61.93170166015625 4.917825222015381 C 67.11147308349609 7.108687400817871 71.76370239257812 10.24541282653809 75.75914764404297 14.2408504486084 C 79.75458526611328 18.23629951477051 82.89131164550781 22.88852500915527 85.08217620849609 28.06830024719238 C 87.35007476806641 33.43022537231445 88.5 39.12687683105469 88.5 45 C 88.5 50.87312316894531 87.35007476806641 56.56977462768555 85.08217620849609 61.93170166015625 C 82.89131164550781 67.11147308349609 79.75458526611328 71.76370239257812 75.75914764404297 75.75914764404297 C 71.76370239257812 79.75458526611328 67.11147308349609 82.89131164550781 61.93170166015625 85.08217620849609 C 56.56977462768555 87.35007476806641 50.87312316894531 88.5 45 88.5 Z" stroke="none"/>
                    <path d="M 45 3 C 39.32871246337891 3 33.82865524291992 4.110054016113281 28.65262985229492 6.299339294433594 C 23.65165710449219 8.414573669433594 19.15968322753906 11.44334411621094 15.301513671875 15.301513671875 C 11.44334411621094 19.15968322753906 8.414573669433594 23.65165710449219 6.299339294433594 28.65262985229492 C 4.110054016113281 33.82865524291992 3 39.32871246337891 3 45 C 3 50.67128753662109 4.110054016113281 56.17134475708008 6.299339294433594 61.34737396240234 C 8.414573669433594 66.34834289550781 11.44334411621094 70.84031677246094 15.301513671875 74.698486328125 C 19.15968322753906 78.55665588378906 23.65165710449219 81.58542633056641 28.65262985229492 83.70066070556641 C 33.82865524291992 85.88994598388672 39.32871246337891 87 45 87 C 50.67128753662109 87 56.17134475708008 85.88994598388672 61.34737396240234 83.70066070556641 C 66.34834289550781 81.58542633056641 70.84031677246094 78.55665588378906 74.698486328125 74.698486328125 C 78.55665588378906 70.84031677246094 81.58542633056641 66.34834289550781 83.70066070556641 61.34737396240234 C 85.88994598388672 56.17134475708008 87 50.67128753662109 87 45 C 87 39.32871246337891 85.88994598388672 33.82865524291992 83.70066070556641 28.65262985229492 C 81.58542633056641 23.65165710449219 78.55665588378906 19.15968322753906 74.698486328125 15.301513671875 C 70.84031677246094 11.44334411621094 66.34834289550781 8.414573669433594 61.34737396240234 6.299339294433594 C 56.17134475708008 4.110054016113281 50.67128753662109 3 45 3 M 45 0 C 69.85281372070312 0 90 20.14718627929688 90 45 C 90 69.85281372070312 69.85281372070312 90 45 90 C 20.14718627929688 90 0 69.85281372070312 0 45 C 0 20.14718627929688 20.14718627929688 0 45 0 Z" stroke="none" fill="#817489"/>
                  </g>
                </g>
              </g>
            </g>
          </g>
        </g>
      </g>
    </g>
    <g id="presupuesto" transform="translate(221 4208)">
      <g id="Grupo_1160953" data-name="Grupo 1160953" transform="translate(1.904 1.904)">
        <g id="Grupo_1160939" data-name="Grupo 1160939" transform="translate(9.037 0)">
          <path id="Trazado_1013874" data-name="Trazado 1013874" d="M51.762,3.807V17.363l-.036.036-6.29,6.29H40.918A4.527,4.527,0,0,0,37.3,25.5H24.652V47.184H44.533V50.8h-23.5V23.688A9.04,9.04,0,0,0,12,14.652V11.787a1.778,1.778,0,0,1,.163-.75h7.067a1.813,1.813,0,0,0,1.807-1.807V2.163A1.778,1.778,0,0,1,21.787,2H49.955a1.813,1.813,0,0,1,1.807,1.807Z" transform="translate(-12 -2)" fill="#e6e9ed"/>
        </g>
        <g id="Grupo_1160940" data-name="Grupo 1160940" transform="translate(21.688 23.496)">
          <path id="Trazado_1013875" data-name="Trazado 1013875" d="M43.4,43.182a4.925,4.925,0,0,1-1.093-1.2,5.093,5.093,0,0,1-.723-1.536H41.57l-3.823,3.823-.9.361L33.5,45.965a1.52,1.52,0,0,1-2.051-1.7A1.546,1.546,0,0,1,31.531,44l1.7-4.247.9-.9,5.422-5.422a1.813,1.813,0,0,1-1.807-1.807v-.9a4.465,4.465,0,0,1,.9-2.711H26V49.688H45.881V45.17Z" transform="translate(-26 -28)" fill="#ffeaa7"/>
        </g>
        <g id="Grupo_1160941" data-name="Grupo 1160941" transform="translate(21.688 3.615)">
          <path id="Trazado_1013876" data-name="Trazado 1013876" d="M26,6H49.5V9.615H26Z" transform="translate(-26 -6)" fill="#ff826e"/>
        </g>
        <g id="Grupo_1160942" data-name="Grupo 1160942" transform="translate(9.199 0.163)">
          <path id="Trazado_1013877" data-name="Trazado 1013877" d="M21.054,2.18V9.247a1.813,1.813,0,0,1-1.807,1.807H12.18a1.822,1.822,0,0,1,.371-.533l7.97-7.97A1.822,1.822,0,0,1,21.054,2.18Z" transform="translate(-12.18 -2.18)" fill="#b4dd7f"/>
        </g>
        <g id="Grupo_1160943" data-name="Grupo 1160943" transform="translate(28.918 27.11)">
          <path id="Trazado_1013878" data-name="Trazado 1013878" d="M42.133,32v7.338a5.131,5.131,0,0,0,.217,1.491h-.009l-3.823,3.823L34,40.133l.9-.9,5.422-5.422A1.821,1.821,0,0,0,42.133,32Z" transform="translate(-34 -32)" fill="#ff826e"/>
        </g>
        <g id="Grupo_1160944" data-name="Grupo 1160944" transform="translate(38.741 14.459)">
          <path id="Trazado_1013879" data-name="Trazado 1013879" d="M54.928,18.9a3.2,3.2,0,0,1,4.482,4.555l-5.278,5.278-7.338,7.338V31.555a2.7,2.7,0,0,0-.8-1.916,2.764,2.764,0,0,0-1.13-.678L48.6,25.229l6.29-6.29Z" transform="translate(-44.87 -18)" fill="#ff826e"/>
        </g>
        <g id="Grupo_1160945" data-name="Grupo 1160945" transform="translate(27.11 35.244)">
          <path id="Trazado_1013880" data-name="Trazado 1013880" d="M38.326,45.518l-.9.361-3.344,1.337a1.52,1.52,0,0,1-2.051-1.7,1.545,1.545,0,0,1,.081-.271L33.807,41Z" transform="translate(-32 -41)" fill="#aab2bd"/>
        </g>
        <g id="Grupo_1160946" data-name="Grupo 1160946" transform="translate(41.569 37.955)">
          <path id="Trazado_1013881" data-name="Trazado 1013881" d="M57.941,44l1.807,10.844H48V46.711Z" transform="translate(-48 -44)" fill="#b4dd7f"/>
        </g>
        <g id="Grupo_1160947" data-name="Grupo 1160947" transform="translate(33.436 21.688)">
          <path id="Trazado_1013882" data-name="Trazado 1013882" d="M42.082,32.7a1.767,1.767,0,0,1-1.274.533A1.813,1.813,0,0,1,39,31.422v-.9a4.465,4.465,0,0,1,.9-2.711A4.527,4.527,0,0,1,43.518,26h4.518L44.3,29.732a2.8,2.8,0,0,0-.786-.117.906.906,0,0,0-.9.9v.9A1.767,1.767,0,0,1,42.082,32.7Z" transform="translate(-39 -26)" fill="#f0d0b4"/>
        </g>
        <g id="Grupo_1160948" data-name="Grupo 1160948" transform="translate(37.051 25.195)">
          <path id="Trazado_1013883" data-name="Trazado 1013883" d="M54.432,30.757A24.845,24.845,0,0,1,57.459,42.64l-9.941,2.711-2.485-1.988a4.925,4.925,0,0,1-1.093-1.2A5.444,5.444,0,0,1,43,39.134V30.892a.906.906,0,0,1,.9-.9,2.8,2.8,0,0,1,.786.117,2.764,2.764,0,0,1,1.13.678,2.7,2.7,0,0,1,.8,1.916v4.518l7.338-7.338Z" transform="translate(-43 -29.88)" fill="#f0d0b4"/>
        </g>
        <g id="Grupo_1160949" data-name="Grupo 1160949" transform="translate(0 21.688)">
          <path id="Trazado_1013884" data-name="Trazado 1013884" d="M20.074,26V54.918a3.614,3.614,0,0,1-3.615,3.615H5.615A3.614,3.614,0,0,1,2,54.918V26a9.028,9.028,0,0,0,3.615,7.229v6.326a.906.906,0,0,0,.9.9h9.037a.906.906,0,0,0,.9-.9V33.229A9.028,9.028,0,0,0,20.074,26Z" transform="translate(-2 -26)" fill="#969faa"/>
        </g>
        <g id="Grupo_1160950" data-name="Grupo 1160950" transform="translate(3.637 39.767)">
          <path id="Trazado_1013885" data-name="Trazado 1013885" d="M16.013,56.814H6.929a.9.9,0,0,1-.9-.9v-9a.9.9,0,0,1,.9-.9h9.084a.9.9,0,0,1,.9.9v9A.9.9,0,0,1,16.013,56.814Z" transform="translate(-6.025 -46.006)" fill="#ff826e"/>
        </g>
        <g id="Grupo_1160951" data-name="Grupo 1160951" transform="translate(3.615 28.918)">
          <path id="Trazado_1013886" data-name="Trazado 1013886" d="M16.844,34v6.326a.906.906,0,0,1-.9.9H6.9a.906.906,0,0,1-.9-.9V34a9.037,9.037,0,0,0,10.844,0Z" transform="translate(-6 -34)" fill="#69d6f4"/>
        </g>
        <g id="Grupo_1160952" data-name="Grupo 1160952" transform="translate(0 12.652)">
          <path id="Trazado_1013887" data-name="Trazado 1013887" d="M20.074,25.037A9.037,9.037,0,1,1,11.037,16,9.028,9.028,0,0,1,20.074,25.037Z" transform="translate(-2 -16)" fill="#fcd770"/>
        </g>
      </g>
      <g id="Grupo_1160954" data-name="Grupo 1160954" transform="translate(1 1)">
        <path id="Trazado_1013888" data-name="Trazado 1013888" d="M51.178,27.547l-.155-.286,4.806-4.806a4.081,4.081,0,0,0-4.222-6.761V3.711A2.714,2.714,0,0,0,48.9,1H20.726a2.7,2.7,0,0,0-1.918.794L10.831,9.772a2.692,2.692,0,0,0-.794,1.918V13.7A9.95,9.95,0,0,0,1,23.592V52.51a4.524,4.524,0,0,0,4.518,4.518H16.363a4.524,4.524,0,0,0,4.518-4.518v-.9H56.288L54.315,39.764A25.791,25.791,0,0,0,51.178,27.547Zm1.31,11.628-8.81,2.4-2.125-1.7a4.5,4.5,0,0,1-1.7-3.529V28.11a1.809,1.809,0,0,1,1.807,1.807v6.326h1.807V34.81L49.685,28.6A23.96,23.96,0,0,1,52.488,39.174ZM39.858,26.3a1.809,1.809,0,0,0-1.807,1.807v.9a.9.9,0,0,1-1.807,0v-.9A3.618,3.618,0,0,1,39.858,24.5H42.2l-1.856,1.856a3.522,3.522,0,0,0-.481-.049Zm-9.9,15.428,1.189-2.975,2.58,2.58-2.976,1.19a.626.626,0,0,1-.838-.568A.59.59,0,0,1,29.962,41.731Zm5.378-1.343L32.1,37.147l5.465-5.465a2.637,2.637,0,0,0,.487-.125v4.79a6.357,6.357,0,0,0,.123,1.206ZM34.6,29.918H24.5V26.3H34.753a5.4,5.4,0,0,0-.316,1.807v.9A2.681,2.681,0,0,0,34.6,29.918ZM24.5,31.725h10.47L31.351,35.34H24.5Zm0,5.422h5.353L28.4,40.762H24.5Zm0,5.422h3.7a2.411,2.411,0,0,0,3.23,1.635l2.1-.842v2.822H24.5Zm10.844.07.508-.2,3.009-3.009c.033.059.062.118.1.176v6.582H35.34Zm5.422-1.082L42.569,43v3.181H40.762Zm14.459-22a2.277,2.277,0,0,1-.671,1.62L43.473,32.255V29.918a3.593,3.593,0,0,0-1.35-2.794l9.186-9.186a2.291,2.291,0,0,1,3.912,1.62ZM19.074,4.085V9.133a.905.905,0,0,1-.9.9H13.122ZM10.941,15.459a8.133,8.133,0,1,1-8.133,8.133,8.143,8.143,0,0,1,8.133-8.133ZM6.422,32.436a9.853,9.853,0,0,0,9.037,0v4.712H6.422Zm9.941,22.785H5.518A2.714,2.714,0,0,1,2.807,52.51V29.29a10.033,10.033,0,0,0,1.807,1.965v5.893a1.809,1.809,0,0,0,1.807,1.807h9.037a1.809,1.809,0,0,0,1.807-1.807V31.254a10.033,10.033,0,0,0,1.807-1.965V52.51A2.714,2.714,0,0,1,16.363,55.221ZM20.881,49.8V23.592A9.95,9.95,0,0,0,11.844,13.7V11.844H18.17a2.714,2.714,0,0,0,2.711-2.711V2.807H48.9a.905.905,0,0,1,.9.9V16.892l-5.8,5.8H39.858a5.407,5.407,0,0,0-4.03,1.807H22.688v23.5H42.569V49.8Zm23.5,0V43.26l8.309-2.266L54.154,49.8Z" transform="translate(-1 -1)"/>
        <path id="Trazado_1013889" data-name="Trazado 1013889" d="M10.807,29.713v1.938h1.807V29.713A2.57,2.57,0,0,0,13,24.958l-1.762-.88a.772.772,0,0,1,.345-1.463h.264a.772.772,0,0,1,.772.772v1.036h1.807V23.386a2.574,2.574,0,0,0-1.807-2.448V19H10.807v1.938a2.57,2.57,0,0,0-.381,4.755l1.762.88a.772.772,0,0,1-.345,1.463h-.264a.772.772,0,0,1-.772-.772V26.229H9v1.036A2.574,2.574,0,0,0,10.807,29.713Z" transform="translate(-1.771 -2.734)"/>
        <path id="Trazado_1013890" data-name="Trazado 1013890" d="M15.844,45H6.807A1.809,1.809,0,0,0,5,46.807v9.037a1.809,1.809,0,0,0,1.807,1.807h9.037a1.809,1.809,0,0,0,1.807-1.807V46.807A1.809,1.809,0,0,0,15.844,45Zm0,3.615H14.037V46.807h1.807Zm-3.615,7.229H10.422V54.037h1.807Zm0-3.615H10.422V50.422h1.807Zm-3.615,0H6.807V50.422H8.615Zm1.807-3.615V46.807h1.807v1.807ZM8.615,46.807v1.807H6.807V46.807ZM6.807,54.037H8.615v1.807H6.807Zm7.229,1.807V50.422h1.808v5.422Z" transform="translate(-1.385 -5.238)"/>
        <path id="Trazado_1013891" data-name="Trazado 1013891" d="M50.3,5H25v5.422H50.3ZM48.5,8.615H26.807V6.807H48.5Z" transform="translate(-3.312 -1.385)"/>
        <path id="Trazado_1013892" data-name="Trazado 1013892" d="M25,13H50.3v1.807H25Z" transform="translate(-3.312 -2.156)"/>
        <path id="Trazado_1013893" data-name="Trazado 1013893" d="M25,17H50.3v1.807H25Z" transform="translate(-3.312 -2.541)"/>
        <path id="Trazado_1013894" data-name="Trazado 1013894" d="M25,21H39.459v1.807H25Z" transform="translate(-3.312 -2.926)"/>
      </g>
    </g>
  </g>
</svg>
