<svg xmlns="http://www.w3.org/2000/svg" xmlns:xlink="http://www.w3.org/1999/xlink" width="610" height="489" viewBox="0 0 610 489">
  <defs>
    <clipPath id="clip-path">
      <rect id="Rectángulo_409856" data-name="Rectángulo 409856" width="610" height="489" transform="translate(179.819 278)" fill="#fff" stroke="#707070" stroke-width="1" opacity="0.44"/>
    </clipPath>
    <filter id="Trazado_1013682" x="-8.819" y="7.963" width="628" height="539.785" filterUnits="userSpaceOnUse">
      <feOffset dy="3" input="SourceAlpha"/>
      <feGaussianBlur stdDeviation="3" result="blur"/>
      <feFlood flood-opacity="0.161"/>
      <feComposite operator="in" in2="blur"/>
      <feComposite in="SourceGraphic"/>
    </filter>
  </defs>
  <g id="Enmascarar_grupo_1098788" data-name="Enmascarar grupo 1098788" transform="translate(-179.819 -278)" clip-path="url(#clip-path)">
    <g id="Grupo_1160784" data-name="Grupo 1160784" transform="translate(0 -28.855)">
      <g transform="matrix(1, 0, 0, 1, 179.82, 306.86)" filter="url(#Trazado_1013682)">
        <path id="Trazado_1013682-2" data-name="Trazado 1013682" d="M349.045,75.845C286.582,67.22,220.6,69.329,163.76,96.63,84.936,134.489,33.166,220.329,31.181,307.751S74.74,481.079,145.1,533.007s163.146,70.334,249.189,54.742c86.762-15.72,168.2-66.7,213.454-142.371,29.02-48.526,42.586-108.446,26.552-162.668-9.679-32.729-29.466-61.725-52.74-86.689A389.667,389.667,0,0,0,349.045,75.845Z" transform="translate(-30.94 -57.37)" fill="#fff"/>
      </g>
      <g id="Grupo_1160783" data-name="Grupo 1160783" transform="translate(198.595 312.108)">
        <path id="Trazado_1013573" data-name="Trazado 1013573" d="M314.951,75.361c-55.764-7.7-114.67-5.817-165.415,18.556C79.164,127.716,32.946,204.351,31.175,282.4s38.887,154.74,101.7,201.1,145.65,62.791,222.466,48.871C432.8,518.334,505.5,472.825,545.9,405.266c25.908-43.322,38.019-96.816,23.7-145.224-8.641-29.219-26.306-55.106-47.085-77.392A347.88,347.88,0,0,0,314.951,75.361Z" transform="translate(-31.119 -32.621)" fill="#f2d3e8"/>
        <g id="OBJECTS" transform="translate(0 0)">
          <g id="Grupo_1160747" data-name="Grupo 1160747" transform="translate(0 141.598)">
            <g id="Grupo_1160741" data-name="Grupo 1160741">
              <g id="Grupo_1160740" data-name="Grupo 1160740">
                <g id="Grupo_1160734" data-name="Grupo 1160734" transform="translate(0 20.842)">
                  <path id="Trazado_1013574" data-name="Trazado 1013574" d="M46.013,235.451c2.642-15.713-7.278-30.624-9.776-46.361-.93-5.855-.59-12.477,3.442-16.824,5.006-5.4,14.17-5.061,20.233-.886s9.535,11.19,11.782,18.2a81.06,81.06,0,0,1,2.618,38.638Z" transform="translate(-26.351 -168.106)" fill="#2e2854" opacity="0.15"/>
                  <path id="Trazado_1013575" data-name="Trazado 1013575" d="M44.106,235.456c.91-15.908-10.579-29.646-14.779-45.015-1.563-5.719-1.95-12.337,1.583-17.1,4.386-5.913,13.532-6.577,20.015-3.091s10.7,10.082,13.7,16.8a81.075,81.075,0,0,1,6.823,38.121Z" transform="translate(-28.18 -168.13)" fill="#76c9bf"/>
                  <path id="Trazado_1013576" data-name="Trazado 1013576" d="M45.6,195.97a66.817,66.817,0,0,1,7.5,29.6" transform="translate(-24.003 -161.455)" fill="none" stroke="#2e2854" stroke-linecap="round" stroke-linejoin="round" stroke-miterlimit="10" stroke-width="1.5"/>
                </g>
                <g id="Grupo_1160735" data-name="Grupo 1160735" transform="translate(112.367)">
                  <path id="Trazado_1013577" data-name="Trazado 1013577" d="M141.962,243.2c2.142-9.895.922-20.24-1.482-30.075s-5.973-19.348-8.61-29.123c-1.273-4.722-2.336-9.574-2.113-14.46s1.858-9.863,5.331-13.307c3.852-3.825,9.606-5.347,15.008-4.813s10.475,2.938,14.932,6.037c11.72,8.153,19.533,21.107,23.452,34.837s4.218,28.25,3.173,42.489Z" transform="translate(-116.197 -151.319)" fill="#2e2854" opacity="0.15"/>
                  <path id="Trazado_1013578" data-name="Trazado 1013578" d="M137.92,244.534c1.2-10.052-.984-20.237-4.3-29.8s-7.766-18.7-11.311-28.184c-1.712-4.582-3.226-9.312-3.463-14.2s.924-9.993,4.055-13.749c3.475-4.169,9.06-6.226,14.489-6.2s10.706,1.94,15.433,4.606c12.435,7.015,21.431,19.177,26.623,32.477s6.855,27.728,7.154,42Z" transform="translate(-118.814 -151.061)" fill="#49ad9f"/>
                  <path id="Trazado_1013579" data-name="Trazado 1013579" d="M135.3,170.081a87.687,87.687,0,0,1,18.508,71.748" transform="translate(-114.862 -146.821)" fill="none" stroke="#2e2854" stroke-linecap="round" stroke-linejoin="round" stroke-miterlimit="10" stroke-width="1.5"/>
                </g>
                <g id="Grupo_1160736" data-name="Grupo 1160736" transform="translate(89.238 44.535)">
                  <path id="Trazado_1013580" data-name="Trazado 1013580" d="M123.364,241.006c-.405-6.368-4.652-11.8-9.145-16.334s-9.534-8.781-12.311-14.527-2.491-13.631,2.618-17.452c3.624-2.711,8.648-2.675,13.03-1.544,9.391,2.429,17.24,9.282,22.324,17.545s7.635,17.853,9.008,27.456Z" transform="translate(-100.159 -186.478)" fill="#2e2854" opacity="0.15"/>
                  <path id="Trazado_1013581" data-name="Trazado 1013581" d="M123.285,238.717c.187-6.379-3.537-12.183-7.589-17.112s-8.679-9.627-10.91-15.605-1.216-13.8,4.226-17.134c3.859-2.363,8.858-1.861,13.117-.329,9.126,3.289,16.306,10.842,20.6,19.54s5.946,18.484,6.422,28.173Z" transform="translate(-99.314 -187.241)" fill="#76c9bf"/>
                  <path id="Trazado_1013582" data-name="Trazado 1013582" d="M114.994,196.943c6.149,5.466,9.808,13.3,11.644,21.318s2,16.317,2.15,24.545" transform="translate(-96.601 -184.914)" fill="none" stroke="#2e2854" stroke-linecap="round" stroke-linejoin="round" stroke-miterlimit="10" stroke-width="1.5"/>
                </g>
                <g id="Grupo_1160737" data-name="Grupo 1160737" transform="translate(378.297 56.657)">
                  <path id="Trazado_1013583" data-name="Trazado 1013583" d="M338.623,245.371c-1.178-5.357,1.853-10.668,4.969-15.182,6.058-8.781,13.1-17.161,22.217-22.7s20.633-7.907,30.646-4.231c4.447,1.633,8.728,4.757,10.029,9.313,1.291,4.517-.662,9.414-3.634,13.052s-6.886,6.365-10.388,9.5a57.555,57.555,0,0,0-17.837,30.9Z" transform="translate(-332.1 -195.946)" fill="#2e2854" opacity="0.15"/>
                  <path id="Trazado_1013584" data-name="Trazado 1013584" d="M333.906,246.016c-1.754-5.2.679-10.807,3.283-15.634,5.065-9.389,11.151-18.488,19.61-24.985s19.647-10.11,30-7.549c4.6,1.138,9.2,3.778,10.984,8.164,1.775,4.349.368,9.43-2.189,13.371s-6.151,7.078-9.291,10.573a57.55,57.55,0,0,0-14.36,32.662Z" transform="translate(-333.311 -197.018)" fill="#76c9bf"/>
                  <path id="Trazado_1013585" data-name="Trazado 1013585" d="M348.949,253.4a45.9,45.9,0,0,1,23.53-37.97" transform="translate(-329.561 -192.604)" fill="none" stroke="#2e2854" stroke-linecap="round" stroke-linejoin="round" stroke-miterlimit="10" stroke-width="1.5"/>
                </g>
                <g id="Grupo_1160738" data-name="Grupo 1160738" transform="translate(354.543 6.176)">
                  <path id="Trazado_1013586" data-name="Trazado 1013586" d="M316.308,240.126c10.592-17.357,13.3-38.214,16.295-58.326,1.224-8.22,3.35-17.615,10.746-21.4,7.482-3.831,17.159.541,21.669,7.635s4.968,16.006,4.4,24.392a120.466,120.466,0,0,1-25.788,66.506Z" transform="translate(-313.634 -155.66)" fill="#2e2854" opacity="0.15"/>
                  <path id="Trazado_1013587" data-name="Trazado 1013587" d="M314.151,240.289c8.9-18.282,9.621-39.3,10.691-59.608.439-8.3,1.664-17.853,8.669-22.326,7.084-4.523,17.133-1.089,22.3,5.546s6.463,15.463,6.7,23.863a120.469,120.469,0,0,1-19.365,68.651Z" transform="translate(-314.151 -156.301)" fill="#49ad9f"/>
                  <path id="Trazado_1013588" data-name="Trazado 1013588" d="M342.211,175.941a153.25,153.25,0,0,1-20.046,69.37" transform="translate(-312.229 -151.592)" fill="none" stroke="#2e2854" stroke-linecap="round" stroke-linejoin="round" stroke-miterlimit="10" stroke-width="1.5"/>
                </g>
                <g id="Grupo_1160739" data-name="Grupo 1160739" transform="translate(499.221 45.586)">
                  <path id="Trazado_1013589" data-name="Trazado 1013589" d="M437.331,241.9a76.948,76.948,0,0,1,38.724-45.07c6.227-3.078,13.189-5.33,20.058-4.3s13.49,6.08,14.514,12.95c.838,5.629-2.078,11.143-5.568,15.637-5.371,6.919-12.242,12.5-18.437,18.686s-11.9,13.339-14.012,21.84Z" transform="translate(-429.292 -187.085)" fill="#2e2854" opacity="0.15"/>
                  <path id="Trazado_1013590" data-name="Trazado 1013590" d="M430.847,240.728a76.946,76.946,0,0,1,36.177-47.138c6.049-3.418,12.874-6.05,19.791-5.4s13.8,5.326,15.206,12.129c1.148,5.574-1.459,11.241-4.7,15.92-4.98,7.2-11.533,13.152-17.378,19.674s-11.148,13.975-12.785,22.58Z" transform="translate(-430.847 -188.089)" fill="#49ad9f"/>
                  <path id="Trazado_1013591" data-name="Trazado 1013591" d="M442.6,249.7a74.649,74.649,0,0,1,32.225-41.954" transform="translate(-428.029 -183.375)" fill="none" stroke="#2e2854" stroke-linecap="round" stroke-linejoin="round" stroke-miterlimit="10" stroke-width="1.5"/>
                </g>
              </g>
              <path id="Trazado_1013592" data-name="Trazado 1013592" d="M545.9,375.937c21.327-35.663,33.288-78.216,28.873-119.151-21.573-19.051-52.747-27.073-80.731-19.987-21.137,5.353-42.044,18.6-63.111,12.981-10.5-2.8-19.326-10.042-29.7-13.288-15.284-4.784-31.922-.382-47.794-2.533-34.352-4.657-60.095-38.881-94.733-40.271-32.692-1.313-59.625,27.124-92.075,31.313-16.3,2.105-32.682-2.1-48.566-6.318s-32.212-8.541-48.541-6.673c-14.384,1.645-28.939,9.251-37.008,21.964-.729,6.342-1.2,12.712-1.345,19.094-1.773,78.048,38.887,154.74,101.7,201.1s145.65,62.791,222.466,48.871C432.8,489.006,505.5,443.5,545.9,375.937Z" transform="translate(-27.475 -141.171)" fill="#f2a5d9"/>
            </g>
            <g id="Grupo_1160744" data-name="Grupo 1160744" transform="translate(62.541 106.327)">
              <path id="Trazado_1013593" data-name="Trazado 1013593" d="M205.387,372.945q-53.709,1.125-107.394-2a15.7,15.7,0,0,1-14.638-13.6,542.188,542.188,0,0,1-4.688-79.139,15.669,15.669,0,0,1,14.3-15.478c35.5-2.98,75.451-3.36,112.194-2.408a15.687,15.687,0,0,1,15.22,14.626,578.938,578.938,0,0,1,.31,83.48A15.681,15.681,0,0,1,205.387,372.945Z" transform="translate(-78.625 -231.621)" fill="#33a1bd"/>
              <g id="Grupo_1160742" data-name="Grupo 1160742" transform="translate(4.143 120.551)">
                <path id="Trazado_1013594" data-name="Trazado 1013594" d="M182.061,354.646A15.673,15.673,0,0,0,196.239,340.2c.1-1.3.159-2.584.244-3.878a12.539,12.539,0,0,0-13.7,4.808A13.51,13.51,0,0,0,182.061,354.646Z" transform="translate(-58.318 -333.95)" fill="#42c2e3"/>
                <path id="Trazado_1013595" data-name="Trazado 1013595" d="M81.967,334.771c.2,1.574.374,3.139.586,4.72A15.693,15.693,0,0,0,96.373,353a13.506,13.506,0,0,0-.78-13.4A12.539,12.539,0,0,0,81.967,334.771Z" transform="translate(-81.967 -334.318)" fill="#42c2e3"/>
              </g>
              <g id="Grupo_1160743" data-name="Grupo 1160743" transform="translate(29.783 71.832)">
                <path id="Trazado_1013596" data-name="Trazado 1013596" d="M111.8,295.087a21.011,21.011,0,0,0-8.987,1.1,31.181,31.181,0,0,0,1.61,13.509c.513,1.456,1.284,3.018,2.737,3.535a3.833,3.833,0,0,0,4.269-1.841,9.7,9.7,0,0,0,1.12-4.839A63.087,63.087,0,0,0,111.8,295.087Z" transform="translate(-102.648 -295.021)" fill="#f7a145"/>
                <path id="Trazado_1013597" data-name="Trazado 1013597" d="M166.759,295.087a21.011,21.011,0,0,0-8.987,1.1,31.181,31.181,0,0,0,1.61,13.509c.513,1.456,1.284,3.018,2.737,3.535a3.833,3.833,0,0,0,4.269-1.841,9.7,9.7,0,0,0,1.12-4.839A62.863,62.863,0,0,0,166.759,295.087Z" transform="translate(-89.468 -295.021)" fill="#f7a145"/>
              </g>
              <path id="Trazado_1013598" data-name="Trazado 1013598" d="M128.517,281.583a5.51,5.51,0,0,1-5.493-5.151c-.572-8.757-.712-17.388-.779-25.409a12.416,12.416,0,0,1,10.9-12.442,201.692,201.692,0,0,1,31.725-1.369,5.511,5.511,0,0,1-.4,11.016,189.564,189.564,0,0,0-29.981,1.294,1.4,1.4,0,0,0-1.219,1.41c.066,7.86.2,16.3.755,24.785a5.511,5.511,0,0,1-5.14,5.858C128.759,281.58,128.637,281.583,128.517,281.583Z" transform="translate(-68.166 -237.082)" fill="#2e2854"/>
              <path id="Trazado_1013599" data-name="Trazado 1013599" d="M211.188,306.527a24.044,24.044,0,0,0,10.459-7.495q-.43-12.077-1.267-24.085a15.687,15.687,0,0,0-15.22-14.626c-36.744-.952-76.693-.573-112.194,2.408a15.669,15.669,0,0,0-14.3,15.477c-.1,8.312,0,16.593.255,24.89a28.083,28.083,0,0,0,6.488,3.862c4.68,1.918,9.822,2.346,14.869,2.667,30.3,1.93,60.7.858,91.034-.215C198.034,309.173,204.9,308.909,211.188,306.527Z" transform="translate(-78.625 -231.621)" fill="#2289a3"/>
              <path id="Trazado_1013600" data-name="Trazado 1013600" d="M190.166,260.321c-14.2-.368-28.885-.534-43.6-.431-4.529,14.936-20.041,77.478,36.332,81.716l-3.257,31.512c3.584-.047,7.168-.1,10.753-.172a15.683,15.683,0,0,0,15.3-14.519,578.756,578.756,0,0,0-.31-83.48A15.687,15.687,0,0,0,190.166,260.321Z" transform="translate(-63.63 -231.62)" fill="#2e2854" opacity="0.15"/>
            </g>
            <path id="Trazado_1013601" data-name="Trazado 1013601" d="M61.972,348.561a254.412,254.412,0,0,0,63.506,68.462c62.813,46.358,145.65,62.791,222.466,48.871,73.657-13.348,142.991-55.17,184.362-117.335H61.972Z" transform="translate(-20.077 -104.024)" fill="#e082c2"/>
            <g id="Grupo_1160745" data-name="Grupo 1160745" transform="translate(390.092 145.915)">
              <path id="Trazado_1013602" data-name="Trazado 1013602" d="M376.309,367.635H345.694a2.869,2.869,0,0,1-2.869-2.869V271.882a2.869,2.869,0,0,1,2.869-2.869h30.615a2.869,2.869,0,0,1,2.869,2.869v92.885A2.869,2.869,0,0,1,376.309,367.635Z" transform="translate(-342.825 -269.013)" fill="#5767bf"/>
              <rect id="Rectángulo_409849" data-name="Rectángulo 409849" width="20.331" height="59.296" transform="translate(8.011 14.067)" fill="#fff"/>
              <path id="Trazado_1013603" data-name="Trazado 1013603" d="M363.73,341.331a5.232,5.232,0,1,0-5.232,5.232A5.231,5.231,0,0,0,363.73,341.331Z" transform="translate(-340.321 -252.927)" fill="none" stroke="#2e2854" stroke-linecap="round" stroke-linejoin="round" stroke-miterlimit="10" stroke-width="1.5"/>
            </g>
            <g id="Grupo_1160746" data-name="Grupo 1160746" transform="translate(428.289 145.915)">
              <path id="Trazado_1013604" data-name="Trazado 1013604" d="M407.118,367.635H376.5a2.869,2.869,0,0,1-2.869-2.869V271.882a2.869,2.869,0,0,1,2.869-2.869h30.615a2.869,2.869,0,0,1,2.869,2.869v92.885A2.869,2.869,0,0,1,407.118,367.635Z" transform="translate(-373.634 -269.013)" fill="#5767bf"/>
              <rect id="Rectángulo_409850" data-name="Rectángulo 409850" width="20.331" height="59.296" transform="translate(8.01 14.067)" fill="#fff"/>
              <path id="Trazado_1013605" data-name="Trazado 1013605" d="M394.539,341.331a5.232,5.232,0,1,0-5.232,5.232A5.231,5.231,0,0,0,394.539,341.331Z" transform="translate(-371.13 -252.927)" fill="none" stroke="#2e2854" stroke-linecap="round" stroke-linejoin="round" stroke-miterlimit="10" stroke-width="1.5"/>
            </g>
          </g>
          <g id="Grupo_1160748" data-name="Grupo 1160748" transform="translate(466.485 287.513)">
            <path id="Trazado_1013606" data-name="Trazado 1013606" d="M437.927,367.635H407.312a2.869,2.869,0,0,1-2.869-2.869V271.882a2.869,2.869,0,0,1,2.869-2.869h30.615a2.869,2.869,0,0,1,2.869,2.869v92.885A2.869,2.869,0,0,1,437.927,367.635Z" transform="translate(-404.443 -269.013)" fill="#5767bf"/>
            <rect id="Rectángulo_409851" data-name="Rectángulo 409851" width="20.331" height="59.296" transform="translate(8.01 14.067)" fill="#fff"/>
            <path id="Trazado_1013607" data-name="Trazado 1013607" d="M425.347,341.331a5.232,5.232,0,1,0-5.232,5.232A5.231,5.231,0,0,0,425.347,341.331Z" transform="translate(-401.94 -252.927)" fill="none" stroke="#2e2854" stroke-linecap="round" stroke-linejoin="round" stroke-miterlimit="10" stroke-width="1.5"/>
          </g>
          <g id="Grupo_1160775" data-name="Grupo 1160775" transform="translate(146.507 22.67)">
            <path id="Trazado_1013608" data-name="Trazado 1013608" d="M250.59,71.83c-.433.476-.872.946-1.287,1.438-8.68,10.313-13.01,23.49-15.781,36.758a21.827,21.827,0,0,0-4.963.224c-6.7,1.095-12.9,5.8-14.969,12.261a18.529,18.529,0,0,0,3.919,17.384,22.508,22.508,0,0,0,10.468,6.606c0,.043-.011.088-.015.131a91.266,91.266,0,0,1-6.525,10.98c-6.58,9.686-14.067,19.715-14.6,31.412-.443,9.663,3.971,18.552,10.134,26.251-2.8,1.765-5.534,3.619-8.178,5.6h0a120.848,120.848,0,0,0-12.15,10.441c-24.688,24.26-38.8,58.289-41.374,92.805-1.189,15.94.73,33.762,12.5,44.577,7.314,6.718,17.064,9.469,27.113,10.529q-1.968,47.623-3.936,95.247s5.04.795,12.219,1.612q-1.482,26.153-3.169,52.193a301.649,301.649,0,0,0,125.649,3.965q9.949-1.8,19.775-4.309.093-24.734-.156-49.117a111.276,111.276,0,0,0,20.7-4.857l3.028-92.169c10.412-1.448,20.28-4.957,27.723-12.188,7.069-6.871,11.094-16.437,12.661-26.169s.85-19.693-.457-29.465c-4.085-30.53-14.369-61.064-34.725-84.182a103,103,0,0,0-11.668-11.3l-.007.124c-1.473-1.217-2.992-2.379-4.53-3.514a48.488,48.488,0,0,0-8.261-61.712,3.715,3.715,0,0,0,.581-.788,4.27,4.27,0,0,0,.275-3.144,22.187,22.187,0,0,0,9.451-5.469,18.529,18.529,0,0,0,5.145-17.063c-1.608-6.593-7.459-11.726-14.06-13.292a23.03,23.03,0,0,0-9.791-.1,53.851,53.851,0,0,0-3.79-27.011,354.537,354.537,0,0,0-52.286-11.282C273.8,73.66,262.213,72.492,250.59,71.83Z" transform="translate(-144.287 -51.452)" fill="#2e2854" opacity="0.15"/>
            <g id="Grupo_1160774" data-name="Grupo 1160774">
              <g id="Grupo_1160749" data-name="Grupo 1160749" transform="translate(52.064 361.01)">
                <path id="Trazado_1013609" data-name="Trazado 1013609" d="M328.789,346.581c-47.5,1.087-92.965,1.446-138.359,3.486-.139,37.424-1.064,74.444-2.084,111.415A301.5,301.5,0,0,0,317.64,466.37c5.422-.982,10.817-2.136,16.183-3.423C332.656,423.6,330.727,385.083,328.789,346.581Z" transform="translate(-188.346 -346.581)" fill="#5767bf"/>
                <path id="Trazado_1013610" data-name="Trazado 1013610" d="M259.227,378.183q1.22,9.417,1.534,18.924a8.324,8.324,0,0,1-.577,4.109,5.742,5.742,0,0,1-4.432,2.775c-1.8.237-3.614-.108-5.9.391q-.108,27.354-.217,54.708" transform="translate(-173.649 -339.003)" fill="none" stroke="#2e2854" stroke-linecap="round" stroke-linejoin="round" stroke-miterlimit="10" stroke-width="1.5"/>
                <path id="Trazado_1013611" data-name="Trazado 1013611" d="M308.727,346.581q-17.987.411-35.615.723c-1.012,37.755-1.1,65.712-1.1,65.712,12.81,1.408,29.787-.015,39.854-1.146C310.909,390.007,309.819,368.292,308.727,346.581Z" transform="translate(-168.284 -346.581)" fill="#2e2854" opacity="0.15"/>
                <path id="Trazado_1013612" data-name="Trazado 1013612" d="M190.213,349.712c-.083,22.589-.457,45.028-.962,67.4,7.1.234,27.49.672,43.422-1.32,0,0,3.954-27.247,6.375-67.729C222.7,348.472,206.451,348.982,190.213,349.712Z" transform="translate(-188.129 -346.226)" fill="#2e2854" opacity="0.15"/>
              </g>
              <g id="Grupo_1160760" data-name="Grupo 1160760" transform="translate(46.819)">
                <path id="Trazado_1013613" data-name="Trazado 1013613" d="M204.444,227.723c-10.578-9.1-20.469-21.086-20.326-35.036.12-11.709,7.247-22,13.478-31.912s12.017-21.535,9.142-32.887c0,0,1.49-10.13.524-10.632,2.2-14.819,5.95-29.964,15.185-41.763a52.392,52.392,0,0,1,91.957,45.5s3.709,22.273,3.766,25.662a48.822,48.822,0,0,1,6.6,80.2Z" transform="translate(-184.116 -55.394)" fill="#5767bf"/>
                <g id="Grupo_1160750" data-name="Grupo 1160750" transform="translate(71.416 117.946)">
                  <path id="Trazado_1013614" data-name="Trazado 1013614" d="M242.829,153.036q-.554,14.411-1.11,28.823s20.919.376,21.684.625q-.312-15.978-.622-31.955Z" transform="translate(-241.719 -150.528)" fill="#e8614e"/>
                  <path id="Trazado_1013615" data-name="Trazado 1013615" d="M262.913,164.6q-.138-7.039-.274-14.075l-19.951,2.508q-.193,5.006-.386,10.013C247.005,164.546,254.9,166.281,262.913,164.6Z" transform="translate(-241.579 -150.528)" fill="#d15046"/>
                </g>
                <g id="Grupo_1160755" data-name="Grupo 1160755" transform="translate(33.561 35.763)">
                  <path id="Trazado_1013616" data-name="Trazado 1013616" d="M301.42,102.537c1.189,10.144,2.378,20.393,1.245,30.543s-4.82,20.341-12.114,27.491a40.189,40.189,0,0,1-19.843,10.189,50.131,50.131,0,0,1-45.9-14.277c-11.516-12.149-16.145-30.429-12.3-46.5,7.7-.191,14.982-3.847,20.888-8.784s10.621-11.117,16.5-16.963a27.12,27.12,0,0,0,18.427,9.972c7.144.673,14.524-1.674,21.173-6.035C290.512,94.484,295.944,99.825,301.42,102.537Z" transform="translate(-211.186 -84.24)" fill="#e8614e"/>
                  <g id="Grupo_1160751" data-name="Grupo 1160751" transform="translate(6.744 53.563)">
                    <path id="Trazado_1013617" data-name="Trazado 1013617" d="M223.507,145.7a47.931,47.931,0,0,0,11.44,8.821,13.167,13.167,0,0,0,3.872-3.093,13.023,13.023,0,0,0,3.049-9.539,13.379,13.379,0,0,0-20.057-10.973,13.537,13.537,0,0,0-5.184,5.407A47.722,47.722,0,0,0,223.507,145.7Z" transform="translate(-216.626 -127.019)" fill="#d15046"/>
                    <path id="Trazado_1013618" data-name="Trazado 1013618" d="M288.081,129.818a13.5,13.5,0,1,0-13.975,23.045,34.265,34.265,0,0,0,3.1-2.653C282.788,144.735,286.252,137.477,288.081,129.818Z" transform="translate(-204.584 -127.443)" fill="#d15046"/>
                  </g>
                  <g id="Grupo_1160754" data-name="Grupo 1160754" transform="translate(18.382 22.15)">
                    <g id="Grupo_1160752" data-name="Grupo 1160752" transform="translate(0 0.885)">
                      <path id="Trazado_1013619" data-name="Trazado 1013619" d="M226.013,103.223a32.857,32.857,0,0,0,3.509,6.2,15.511,15.511,0,0,1,14.726-2.059" transform="translate(-226.013 -102.723)" fill="none" stroke="#2e2854" stroke-linecap="round" stroke-linejoin="round" stroke-miterlimit="10" stroke-width="1.5"/>
                      <path id="Trazado_1013620" data-name="Trazado 1013620" d="M231.533,107.747c-.408-1.653-.816-3.284-1.224-4.927" transform="translate(-224.983 -102.82)" fill="none" stroke="#2e2854" stroke-linecap="round" stroke-linejoin="round" stroke-miterlimit="10" stroke-width="1.5"/>
                      <path id="Trazado_1013621" data-name="Trazado 1013621" d="M234.707,106.6c-.11-1.256-.2-2.513-.309-3.78" transform="translate(-224.002 -102.82)" fill="none" stroke="#2e2854" stroke-linecap="round" stroke-linejoin="round" stroke-miterlimit="10" stroke-width="1.5"/>
                    </g>
                    <g id="Grupo_1160753" data-name="Grupo 1160753" transform="translate(49.872)">
                      <path id="Trazado_1013622" data-name="Trazado 1013622" d="M284.474,102.508a32.9,32.9,0,0,1-3.51,6.2,15.508,15.508,0,0,0-14.725-2.059" transform="translate(-266.239 -102.01)" fill="none" stroke="#2e2854" stroke-linecap="round" stroke-linejoin="round" stroke-miterlimit="10" stroke-width="1.5"/>
                      <path id="Trazado_1013623" data-name="Trazado 1013623" d="M275.664,107.033c.408-1.654.816-3.284,1.224-4.927" transform="translate(-263.979 -102.106)" fill="none" stroke="#2e2854" stroke-linecap="round" stroke-linejoin="round" stroke-miterlimit="10" stroke-width="1.5"/>
                      <path id="Trazado_1013624" data-name="Trazado 1013624" d="M272.312,105.886c.11-1.256.2-2.513.309-3.78" transform="translate(-264.783 -102.106)" fill="none" stroke="#2e2854" stroke-linecap="round" stroke-linejoin="round" stroke-miterlimit="10" stroke-width="1.5"/>
                    </g>
                    <path id="Trazado_1013625" data-name="Trazado 1013625" d="M256.446,104.337a22.581,22.581,0,0,1,5.335,6.489l-5.206,2.069" transform="translate(-218.716 -101.571)" fill="none" stroke="#2e2854" stroke-linecap="round" stroke-linejoin="round" stroke-miterlimit="10" stroke-width="1.5"/>
                    <path id="Trazado_1013626" data-name="Trazado 1013626" d="M235.819,120.643a32.2,32.2,0,0,0,31.72.227" transform="translate(-223.662 -97.661)" fill="none" stroke="#2e2854" stroke-linecap="round" stroke-linejoin="round" stroke-miterlimit="10" stroke-width="1.5"/>
                  </g>
                </g>
                <g id="Grupo_1160757" data-name="Grupo 1160757" transform="translate(3.792 57.38)">
                  <path id="Trazado_1013627" data-name="Trazado 1013627" d="M221.588,106.608c-5.572-3.877-12.636-5.848-19.291-4.518s-12.683,6.252-14.524,12.785a18.532,18.532,0,0,0,4.534,17.234,23.7,23.7,0,0,0,16.683,7.119c5.523.136,11.4-1.671,14.776-6.048Z" transform="translate(-187.175 -101.676)" fill="#e8614e"/>
                  <g id="Grupo_1160756" data-name="Grupo 1160756" transform="translate(10.376 12.029)">
                    <path id="Trazado_1013628" data-name="Trazado 1013628" d="M195.544,118.128a13.086,13.086,0,0,1,12.129-6.723" transform="translate(-195.544 -111.379)" fill="none" stroke="#2e2854" stroke-linecap="round" stroke-linejoin="round" stroke-miterlimit="10" stroke-width="1.5"/>
                    <path id="Trazado_1013629" data-name="Trazado 1013629" d="M199.986,112.529a19.767,19.767,0,0,0,5.114,8.707" transform="translate(-194.479 -111.103)" fill="none" stroke="#2e2854" stroke-linecap="round" stroke-linejoin="round" stroke-miterlimit="10" stroke-width="1.5"/>
                  </g>
                  <path id="Trazado_1013630" data-name="Trazado 1013630" d="M205.5,128.471a4.168,4.168,0,1,0,2.308,5.734A4.226,4.226,0,0,0,205.5,128.471Z" transform="translate(-184.119 -95.306)" fill="#fff"/>
                </g>
                <g id="Grupo_1160759" data-name="Grupo 1160759" transform="translate(120.049 56.408)">
                  <path id="Trazado_1013631" data-name="Trazado 1013631" d="M283.124,105.824c5.57-3.877,12.636-5.848,19.291-4.518s12.683,6.252,14.524,12.783a18.533,18.533,0,0,1-4.535,17.235,23.692,23.692,0,0,1-16.683,7.119c-5.523.136-11.4-1.671-14.776-6.049Z" transform="translate(-280.946 -100.892)" fill="#e8614e"/>
                  <g id="Grupo_1160758" data-name="Grupo 1160758" transform="translate(14.085 12.028)">
                    <path id="Trazado_1013632" data-name="Trazado 1013632" d="M304.436,117.345a13.089,13.089,0,0,0-12.129-6.725" transform="translate(-292.307 -110.594)" fill="none" stroke="#2e2854" stroke-linecap="round" stroke-linejoin="round" stroke-miterlimit="10" stroke-width="1.5"/>
                    <path id="Trazado_1013633" data-name="Trazado 1013633" d="M298.638,111.744a19.755,19.755,0,0,1-5.114,8.707" transform="translate(-292.015 -110.318)" fill="none" stroke="#2e2854" stroke-linecap="round" stroke-linejoin="round" stroke-miterlimit="10" stroke-width="1.5"/>
                  </g>
                  <path id="Trazado_1013634" data-name="Trazado 1013634" d="M297.944,128.08a4.168,4.168,0,1,0,2.308,5.734A4.226,4.226,0,0,0,297.944,128.08Z" transform="translate(-278.208 -94.428)" fill="#fff"/>
                </g>
              </g>
              <g id="Grupo_1160773" data-name="Grupo 1160773" transform="translate(0 141.211)">
                <g id="Grupo_1160763" data-name="Grupo 1160763" transform="translate(82.548)">
                  <g id="Grupo_1160761" data-name="Grupo 1160761">
                    <path id="Trazado_1013635" data-name="Trazado 1013635" d="M302.029,172.787a87.2,87.2,0,0,0-12.906-2.844l-27.9,21.445-28.386-19.018a113.774,113.774,0,0,0-11.961,2.953l-7.94,211.715,91.553,3.724Z" transform="translate(-212.934 -169.137)" fill="#fff"/>
                    <path id="Trazado_1013636" data-name="Trazado 1013636" d="M257.148,206.144c21.4.93,29.978-25.341,32.48-35.434a77.4,77.4,0,0,0-30.33.167l-.717.03a106.429,106.429,0,0,0-32.21,2.285C229.926,185.2,238.625,205.34,257.148,206.144Z" transform="translate(-209.712 -169.293)" fill="#e8614e"/>
                    <path id="Trazado_1013637" data-name="Trazado 1013637" d="M230.757,191.052c3.657,6.039,8.644,11.43,14.941,14.622,10.72,5.436,24.525,3.557,33.871-4,8.976-7.258,13.664-19.208,12.8-30.721q-2.853-.6-5.734-1.008c-1.224,8.563-3.075,17.384-8.685,23.9a25.062,25.062,0,0,1-35.877,2.18c-5.49-5-8.488-12.188-10.319-19.385a20.326,20.326,0,0,0-1.41-4.271c-2.364.455-4.72.96-7.053,1.565A83.215,83.215,0,0,0,230.757,191.052Z" transform="translate(-210.449 -169.137)" fill="#f5c4d8"/>
                    <path id="Trazado_1013638" data-name="Trazado 1013638" d="M304.487,384.519l-2.059-182.551c-5.992,22.853-9.779,64.442-12.17,107.077l-55.112,4.67c-.445-37.792-3.334-79-10.986-117.744l-4.373,2.109L212.935,380.8l20.606.838c.56-9.82,1.027-20.375,1.322-31.479a178.117,178.117,0,0,0,26.359-7.947,255.2,255.2,0,0,0,27.167,6.88c-.465,12.113-.831,23.832-1.122,34.733Z" transform="translate(-212.934 -162.896)" fill="#2e2854" opacity="0.15"/>
                  </g>
                  <g id="Grupo_1160762" data-name="Grupo 1160762" transform="translate(2.362 208.439)">
                    <path id="Trazado_1013639" data-name="Trazado 1013639" d="M215.621,342.543q42.278-.374,84.548.9s.992,12.455.662,12.891q-43-.117-85.993-.238A112.961,112.961,0,0,0,215.621,342.543Z" transform="translate(-214.839 -336.209)" fill="#2e2854"/>
                    <path id="Trazado_1013640" data-name="Trazado 1013640" d="M262.429,339.3c-4.753-1.841-10.163-2.7-14.917-.869a13.939,13.939,0,0,0-8.376,9.3,13.13,13.13,0,0,0,3.023,12.079,15.857,15.857,0,0,0,7.317,4.207,17.835,17.835,0,0,0,13.359-1.248,13.366,13.366,0,0,0,7-11.12C269.9,346.682,267.25,341.173,262.429,339.3Zm-.031,17.828a11.468,11.468,0,0,1-6.165,1.856,14.65,14.65,0,0,1-7.7-1.335c-3.85-2.046-5.5-6.794-3.615-10.4s7.481-5.06,11.857-4.3c5.908,1.029,8.133,4.56,8.3,8.324A6.92,6.92,0,0,1,262.4,357.133Z" transform="translate(-209.11 -337.418)" fill="#f7a145"/>
                  </g>
                </g>
                <g id="Grupo_1160764" data-name="Grupo 1160764" transform="translate(160.679 3.65)">
                  <path id="Trazado_1013641" data-name="Trazado 1013641" d="M318.737,188.711a99.727,99.727,0,0,0-31.819-16.474c-4.1,92.488-8.185,184.979-10.963,278.114,18.093,1.783,36.479.542,55.294-6.575q-.231-84.984-.459-169.971Z" transform="translate(-275.954 -172.237)" fill="#d24d84"/>
                  <path id="Trazado_1013642" data-name="Trazado 1013642" d="M278.533,327.436c9.927,3.176,31,8.416,51.875,4.151q-.05-18.266-.1-36.529c-12.58-.038-30.628-.083-50.514-.1Q279.147,311.188,278.533,327.436Z" transform="translate(-275.336 -142.811)" fill="#2e2854" opacity="0.15"/>
                </g>
                <g id="Grupo_1160765" data-name="Grupo 1160765" transform="translate(41.081 6.184)">
                  <path id="Trazado_1013643" data-name="Trazado 1013643" d="M228.894,174.281a121.807,121.807,0,0,0-40.581,21.664L180.5,274.561q-.508,87.728-1.013,175.457s33.9,4.127,51.212.759C242.26,358.424,241.176,265.6,228.894,174.281Z" transform="translate(-179.487 -174.281)" fill="#d24d84"/>
                  <path id="Trazado_1013644" data-name="Trazado 1013644" d="M179.9,332.776c12.242.217,37.65-.062,58.156-5.1q.556-16.347.6-32.681c-25.406.087-47.507.271-58.544.62Q180.006,314.2,179.9,332.776Z" transform="translate(-179.388 -145.334)" fill="#2e2854" opacity="0.15"/>
                </g>
                <g id="Grupo_1160772" data-name="Grupo 1160772" transform="translate(0 19.999)">
                  <g id="Grupo_1160766" data-name="Grupo 1160766" transform="translate(118.234)">
                    <path id="Trazado_1013645" data-name="Trazado 1013645" d="M241.718,333.381A204.309,204.309,0,0,0,319.7,349.8c16.81.179,35.147-2.436,46.778-14.571,6.821-7.118,10.5-16.821,11.723-26.6s.15-19.711-1.5-29.43c-5.167-30.366-16.529-60.516-37.693-82.9a103.028,103.028,0,0,0-12.061-10.878l-1.059,46.067c6.231,16.425,7.405,34.268,8.382,51.809.276,4.958.45,10.237-.894,14.918l-89.951,18.964Z" transform="translate(-241.718 -185.424)" fill="#d24d84"/>
                    <path id="Trazado_1013646" data-name="Trazado 1013646" d="M309.608,222.682c6.231,16.425,7.405,34.268,8.382,51.809.276,4.958.45,10.237-.894,14.918" transform="translate(-225.439 -176.49)" fill="none" stroke="#2e2854" stroke-linecap="round" stroke-linejoin="round" stroke-miterlimit="10" stroke-width="1.5"/>
                    <path id="Trazado_1013647" data-name="Trazado 1013647" d="M358.216,285.142a30.762,30.762,0,0,0-25.722,11.136,33.939,33.939,0,0,0-7.206,26.911c8.066-2.155,15.49-5.828,21.26-11.849C353.275,304.32,356.944,294.786,358.216,285.142Z" transform="translate(-221.785 -161.534)" fill="#d66b97"/>
                    <path id="Trazado_1013648" data-name="Trazado 1013648" d="M246.757,312.208a204.374,204.374,0,0,0,71.738,13.883c16.81.179,35.147-2.436,46.778-14.571a42.438,42.438,0,0,0,9.584-16.731c-7.237,6.515-22.383,16.12-49.119,16.609-40.641.745-51.431-5.47-51.431-5.47v-3.1s20.186-11.448,24.623-17.557l-13.237-.962-36.26,7.645Z" transform="translate(-240.51 -161.714)" fill="#2e2854" opacity="0.15"/>
                    <path id="Trazado_1013649" data-name="Trazado 1013649" d="M241.718,307.424a204.308,204.308,0,0,0,77.985,16.42c16.81.179,35.147-2.436,46.778-14.571a41.729,41.729,0,0,0,9.038-15.075" transform="translate(-241.718 -159.341)" fill="none" stroke="#2e2854" stroke-linecap="round" stroke-linejoin="round" stroke-miterlimit="10" stroke-width="1.5"/>
                  </g>
                  <path id="Trazado_1013650" data-name="Trazado 1013650" d="M279.268,276.3c-8.9.152-17.5-3.077-25.636-6.687s-16.2-7.69-24.931-9.417a47.336,47.336,0,0,0-6.332-.811l-7.985,28.366Z" transform="translate(-130.038 -167.69)" fill="#e8614e"/>
                  <g id="Grupo_1160769" data-name="Grupo 1160769" transform="translate(0 7.848)">
                    <g id="Grupo_1160767" data-name="Grupo 1160767" transform="translate(141.086 95.239)">
                      <path id="Trazado_1013651" data-name="Trazado 1013651" d="M260.15,302.51a108.946,108.946,0,0,0,35.568-13.47c6.315,1.577,11.562,2.746,16.776,2.251s10.406-2.811,13.576-6.98a17.694,17.694,0,0,0,2.886-5.905h0c-9.5-6.846-21.756-9.628-33.592-9.819-11.193-.181-22.274,1.69-33.356,3.4Z" transform="translate(-260.15 -268.573)" fill="#e8614e"/>
                      <path id="Trazado_1013652" data-name="Trazado 1013652" d="M260.15,300.608a108.945,108.945,0,0,0,35.568-13.47c6.315,1.577,11.562,2.746,16.776,2.251s10.406-2.811,13.576-6.98a17.694,17.694,0,0,0,2.886-5.905h0" transform="translate(-260.15 -266.672)" fill="none" stroke="#2e2854" stroke-linecap="round" stroke-linejoin="round" stroke-miterlimit="10" stroke-width="1.5"/>
                    </g>
                    <g id="Grupo_1160768" data-name="Grupo 1160768">
                      <path id="Trazado_1013653" data-name="Trazado 1013653" d="M210.444,237.047a154.315,154.315,0,0,0-10.794,43.779c-.348,3.659-.529,7.526,1.085,10.828,2.126,4.353,7.015,6.8,11.824,7.367s9.652-.4,14.427-1.215c18.038-3.06,36.393-3.76,54.52-6.247,2.6-.356,5.193-.749,7.79-1.151a325.489,325.489,0,0,1,3.615,43.149c-29.46,9.722-60.865,16.107-92.446,17.109-14.028.446-29.283-.6-39.95-9.725-12.147-10.389-14.7-28.132-14.077-44.105,1.345-34.586,14.24-69.095,38.05-94.216a120.879,120.879,0,0,1,11.771-10.867Z" transform="translate(-146.351 -191.754)" fill="#d24d84"/>
                      <path id="Trazado_1013654" data-name="Trazado 1013654" d="M171.549,298.485c-5.195-7.79-14.411-12.622-24.993-12.907.912,12.538,4.567,24.876,13.909,32.867a37.093,37.093,0,0,0,13.692,7.22A29.783,29.783,0,0,0,171.549,298.485Z" transform="translate(-146.303 -169.256)" fill="#d66b97"/>
                      <path id="Trazado_1013655" data-name="Trazado 1013655" d="M205.654,320.678c-37.332-.559-53.465-31.586-59.05-46.406-.052.926-.13,1.852-.166,2.778-.621,15.972,1.929,33.715,14.077,44.105,10.668,9.122,25.921,10.171,39.95,9.725,31.582-1,62.987-7.387,92.446-17.109-.046-2.724-.138-5.445-.253-8.166C277.647,310.787,242.639,321.234,205.654,320.678Z" transform="translate(-146.352 -171.967)" fill="#2e2854" opacity="0.15"/>
                      <path id="Trazado_1013656" data-name="Trazado 1013656" d="M207.7,228.287a154.318,154.318,0,0,0-10.794,43.779c-.348,3.659-.529,7.526,1.085,10.828,2.126,4.353,7.015,6.8,11.824,7.367s9.652-.4,14.427-1.215c18.038-3.06,36.393-3.76,54.52-6.247,2.6-.356,5.193-.749,7.79-1.151a325.494,325.494,0,0,1,3.615,43.149c-29.46,9.722-60.865,16.107-92.446,17.109-14.028.446-29.282-.6-39.95-9.725" transform="translate(-143.612 -182.994)" fill="none" stroke="#2e2854" stroke-linecap="round" stroke-linejoin="round" stroke-miterlimit="10" stroke-width="1.5"/>
                    </g>
                  </g>
                  <g id="Grupo_1160771" data-name="Grupo 1160771" transform="translate(51.34 91.601)">
                    <path id="Trazado_1013657" data-name="Trazado 1013657" d="M228.753,259.4a49.092,49.092,0,0,0-27.847,6.692c-4.208,2.506-9.544,5.775-12.452,10.958a4.467,4.467,0,0,0-.692,2.059,1.829,1.829,0,0,0,1.056,1.765,2.8,2.8,0,0,0,2.27-.547l4.538-2.648a30.384,30.384,0,0,0-3.3,4.517,5.042,5.042,0,0,0-.808,2.017,1.918,1.918,0,0,0,.847,1.886c1.038.569,2.253-.281,3.161-1.04a37.634,37.634,0,0,1,3.872-2.833,32.755,32.755,0,0,0-2.979,4.065c-.548.883-1.036,2.089-.368,2.885a1.765,1.765,0,0,0,1.768.454,5.2,5.2,0,0,0,1.686-.9c2.772-1.958,5.546-3.915,8.4-5.759l-.012-.009a19.308,19.308,0,0,0-2.016,3.717,2.123,2.123,0,0,0-.056,2.034c.591.791,1.836.456,2.713,0a26.909,26.909,0,0,0,6.622-4.87,19.565,19.565,0,0,0,14.89-9.168Z" transform="translate(-187.762 -259.309)" fill="#e8614e"/>
                    <g id="Grupo_1160770" data-name="Grupo 1160770" transform="translate(0 6.781)">
                      <path id="Trazado_1013658" data-name="Trazado 1013658" d="M203.995,279.222A19.4,19.4,0,0,1,208.1,274.9" transform="translate(-183.869 -262.351)" fill="none" stroke="#2e2854" stroke-linecap="round" stroke-linejoin="round" stroke-miterlimit="10" stroke-width="1.5"/>
                      <path id="Trazado_1013659" data-name="Trazado 1013659" d="M205.479,272.168a33.033,33.033,0,0,0-8.334,6.973" transform="translate(-185.512 -263.006)" fill="none" stroke="#2e2854" stroke-linecap="round" stroke-linejoin="round" stroke-miterlimit="10" stroke-width="1.5"/>
                      <path id="Trazado_1013660" data-name="Trazado 1013660" d="M201.9,269.013a30.564,30.564,0,0,0-7.792,6.339" transform="translate(-186.241 -263.763)" fill="none" stroke="#2e2854" stroke-linecap="round" stroke-linejoin="round" stroke-miterlimit="10" stroke-width="1.5"/>
                      <path id="Trazado_1013661" data-name="Trazado 1013661" d="M200.906,264.778c-4.208,2.506-9.544,5.775-12.452,10.958a4.467,4.467,0,0,0-.692,2.059,1.829,1.829,0,0,0,1.056,1.765,2.8,2.8,0,0,0,2.27-.547l4.538-2.648a30.383,30.383,0,0,0-3.3,4.517,5.042,5.042,0,0,0-.808,2.017,1.918,1.918,0,0,0,.847,1.886c1.038.569,2.253-.281,3.161-1.04a37.634,37.634,0,0,1,3.872-2.833,32.755,32.755,0,0,0-2.979,4.065c-.548.883-1.036,2.089-.368,2.885a1.765,1.765,0,0,0,1.768.454,5.2,5.2,0,0,0,1.686-.9c2.772-1.958,5.546-3.915,8.4-5.759l-.012-.009a19.308,19.308,0,0,0-2.016,3.717,2.123,2.123,0,0,0-.056,2.034c.591.791,1.836.456,2.713,0a26.909,26.909,0,0,0,6.622-4.87,19.565,19.565,0,0,0,14.89-9.168" transform="translate(-187.762 -264.778)" fill="none" stroke="#2e2854" stroke-linecap="round" stroke-linejoin="round" stroke-miterlimit="10" stroke-width="1.5"/>
                    </g>
                  </g>
                </g>
              </g>
            </g>
          </g>
          <g id="Grupo_1160778" data-name="Grupo 1160778" transform="translate(13.446 28.82)">
            <g id="Grupo_1160776" data-name="Grupo 1160776">
              <path id="Trazado_1013662" data-name="Trazado 1013662" d="M194.05,149.087a647.268,647.268,0,0,0-2.7-68.325,15.248,15.248,0,0,0-14.6-13.8c-38.7-1.459-76.786.13-114.655,3.576A15.33,15.33,0,0,0,48.2,85.083c-1.082,21.933-1.21,44.622-.591,68.709a15.331,15.331,0,0,0,14.975,14.927,895.83,895.83,0,0,0,117.742-4.7A15.285,15.285,0,0,0,194.05,149.087Z" transform="translate(-37.056 -58.9)" fill="#2e2854" opacity="0.15"/>
              <path id="Trazado_1013663" data-name="Trazado 1013663" d="M185.835,143.024a647.268,647.268,0,0,0-2.7-68.325,15.248,15.248,0,0,0-14.6-13.8c-38.7-1.459-76.786.13-114.655,3.576A15.33,15.33,0,0,0,39.988,79.02c-1.082,21.933-1.21,44.622-.591,68.709a15.329,15.329,0,0,0,14.977,14.926,895.825,895.825,0,0,0,117.742-4.7A15.285,15.285,0,0,0,185.835,143.024Z" transform="translate(-39.026 -60.354)" fill="#fff"/>
              <path id="Trazado_1013664" data-name="Trazado 1013664" d="M185.835,143.024a647.268,647.268,0,0,0-2.7-68.325,15.248,15.248,0,0,0-14.6-13.8c-38.7-1.459-76.786.13-114.655,3.576A15.33,15.33,0,0,0,39.988,79.02c-1.082,21.933-1.21,44.622-.591,68.709a15.329,15.329,0,0,0,14.977,14.926,895.825,895.825,0,0,0,117.742-4.7A15.285,15.285,0,0,0,185.835,143.024Z" transform="translate(-39.026 -60.354)" fill="none" stroke="#2e2854" stroke-linecap="round" stroke-linejoin="round" stroke-miterlimit="10" stroke-width="1.5"/>
            </g>
            <g id="Grupo_1160777" data-name="Grupo 1160777" transform="translate(15.549 21.897)">
              <path id="Trazado_1013665" data-name="Trazado 1013665" d="M100.5,96.276q-11.476,8.248-23.562,15.6c.678-9.823,1.131-19.113,1.1-28.7a25.694,25.694,0,0,0-11.98,2.616,26.229,26.229,0,0,0,7.132,49.288,26.176,26.176,0,0,0,27.314-38.8Z" transform="translate(-51.568 -76.78)" fill="#d24d84"/>
              <path id="Trazado_1013666" data-name="Trazado 1013666" d="M76.366,78.016c.035,9.592-.418,18.883-1.1,28.7q12.086-7.329,23.562-15.6A25.174,25.174,0,0,0,94.7,85.6,26.725,26.725,0,0,0,76.366,78.016Z" transform="translate(-45.884 -78.016)" fill="#2e2854"/>
            </g>
            <rect id="Rectángulo_409852" data-name="Rectángulo 409852" width="46.512" height="6.508" transform="translate(83.62 23.408)" fill="#5767bf"/>
            <rect id="Rectángulo_409853" data-name="Rectángulo 409853" width="21.743" height="6.508" transform="translate(83.62 36.046)" fill="#5767bf"/>
            <line id="Línea_972" data-name="Línea 972" x2="32.212" transform="translate(83.62 66.006)" fill="none" stroke="#2e2854" stroke-linecap="round" stroke-linejoin="round" stroke-miterlimit="10" stroke-width="1.5"/>
            <line id="Línea_973" data-name="Línea 973" x2="46.512" transform="translate(83.62 57.42)" fill="none" stroke="#2e2854" stroke-linecap="round" stroke-linejoin="round" stroke-miterlimit="10" stroke-width="1.5"/>
            <line id="Línea_974" data-name="Línea 974" x2="41.853" transform="translate(83.62 74.591)" fill="none" stroke="#2e2854" stroke-linecap="round" stroke-linejoin="round" stroke-miterlimit="10" stroke-width="1.5"/>
          </g>
          <g id="Grupo_1160781" data-name="Grupo 1160781" transform="translate(378.073 29.408)">
            <g id="Grupo_1160779" data-name="Grupo 1160779">
              <path id="Trazado_1013667" data-name="Trazado 1013667" d="M503.333,85.68c-.386-8.815-7.566-16.04-16.849-16.919a682.771,682.771,0,0,0-112.325-.977c-9.31.642-16.733,7.641-17.374,16.448q-1.186,16.3-1.88,32.74a55.76,55.76,0,0,0-16.014,11.9l15.551.465c-1.033,32.941-.6,66.383,1.315,100.657.481,8.588,7.432,15.63,16.463,16.65,36.819,4.164,74.367,5.093,114.624.477,9.084-1.041,16.011-8.2,16.4-16.852Q506.486,158.019,503.333,85.68Z" transform="translate(-331.749 -59.602)" fill="#2e2854" opacity="0.15"/>
              <path id="Trazado_1013668" data-name="Trazado 1013668" d="M497.573,80.567c-.386-8.815-7.566-16.04-16.849-16.919A682.912,682.912,0,0,0,368.4,62.669c-9.31.642-16.732,7.641-17.374,16.448q-1.186,16.306-1.881,32.74a55.779,55.779,0,0,0-16.014,11.9l15.551.465c-1.033,32.941-.6,66.383,1.314,100.657.481,8.588,7.433,15.63,16.463,16.65,36.819,4.164,74.367,5.093,114.624.477,9.084-1.041,16.011-8.2,16.4-16.852Q500.727,152.907,497.573,80.567Z" transform="translate(-333.13 -60.828)" fill="#fff"/>
              <path id="Trazado_1013669" data-name="Trazado 1013669" d="M497.573,80.567c-.386-8.815-7.566-16.04-16.849-16.919A682.912,682.912,0,0,0,368.4,62.669c-9.31.642-16.732,7.641-17.374,16.448q-1.186,16.306-1.881,32.74a55.779,55.779,0,0,0-16.014,11.9l15.551.465c-1.033,32.941-.6,66.383,1.314,100.657.481,8.588,7.433,15.63,16.463,16.65,36.819,4.164,74.367,5.093,114.624.477,9.084-1.041,16.011-8.2,16.4-16.852Q500.727,152.907,497.573,80.567Z" transform="translate(-333.13 -60.828)" fill="none" stroke="#2e2854" stroke-linecap="round" stroke-linejoin="round" stroke-miterlimit="10" stroke-width="1.5"/>
            </g>
            <g id="Grupo_1160780" data-name="Grupo 1160780" transform="translate(50.505 25.386)">
              <path id="Trazado_1013670" data-name="Trazado 1013670" d="M455.285,115.177,435.728,81.3l-19.556,33.873h12.292v99.551h14.528V115.177Z" transform="translate(-363.723 -81.304)" fill="#76c9bf"/>
              <rect id="Rectángulo_409854" data-name="Rectángulo 409854" width="14.528" height="81.474" transform="translate(32.371 51.951)" fill="#2e2854"/>
              <rect id="Rectángulo_409855" data-name="Rectángulo 409855" width="14.528" height="47.688" transform="translate(0 85.736)" fill="#2e2854"/>
            </g>
          </g>
          <g id="Grupo_1160782" data-name="Grupo 1160782" transform="translate(0.505)">
            <path id="Trazado_1013671" data-name="Trazado 1013671" d="M379.574,95.815a3.151,3.151,0,1,0-.211-4.892A3.132,3.132,0,0,0,379.574,95.815Z" transform="translate(55.265 -24.384)" fill="#fff"/>
            <path id="Trazado_1013672" data-name="Trazado 1013672" d="M150.2,398.358a3.151,3.151,0,1,0-.211-4.892A3.133,3.133,0,0,0,150.2,398.358Z" transform="translate(0.264 48.162)" fill="#fff"/>
            <path id="Trazado_1013673" data-name="Trazado 1013673" d="M417.86,418.809a3.151,3.151,0,1,0-.211-4.892A3.133,3.133,0,0,0,417.86,418.809Z" transform="translate(64.446 53.066)" fill="#f2d3e8"/>
            <path id="Trazado_1013674" data-name="Trazado 1013674" d="M303.9,47.356a3.151,3.151,0,1,0-.211-4.892A3.133,3.133,0,0,0,303.9,47.356Z" transform="translate(37.12 -36.003)" fill="#f2d3e8"/>
            <path id="Trazado_1013675" data-name="Trazado 1013675" d="M29.876,155.531a3.151,3.151,0,1,0-.211-4.892A3.133,3.133,0,0,0,29.876,155.531Z" transform="translate(-28.587 -10.065)" fill="#f2d3e8"/>
            <path id="Trazado_1013676" data-name="Trazado 1013676" d="M105.23,430.674a3.151,3.151,0,1,0-.211-4.892A3.132,3.132,0,0,0,105.23,430.674Z" transform="translate(-10.519 55.911)" fill="#f2d3e8"/>
            <path id="Trazado_1013677" data-name="Trazado 1013677" d="M341.566,410.972a6.87,6.87,0,1,0-3.361-9.8A6.911,6.911,0,0,0,341.566,410.972Z" transform="translate(45.443 49.382)" fill="#fff"/>
            <path id="Trazado_1013678" data-name="Trazado 1013678" d="M392.376,446.565a6.87,6.87,0,1,0-3.36-9.8A6.908,6.908,0,0,0,392.376,446.565Z" transform="translate(57.626 57.916)" fill="#f2d3e8"/>
            <path id="Trazado_1013679" data-name="Trazado 1013679" d="M178.229,62.7a6.871,6.871,0,0,0,5.749-12.465,7.129,7.129,0,0,0-9.11,2.666A6.911,6.911,0,0,0,178.229,62.7Z" transform="translate(6.277 -34.129)" fill="#f2d3e8"/>
            <path id="Trazado_1013680" data-name="Trazado 1013680" d="M55.2,397.51a6.87,6.87,0,1,0-3.36-9.8A6.908,6.908,0,0,0,55.2,397.51Z" transform="translate(-23.224 46.154)" fill="#f2d3e8"/>
            <path id="Trazado_1013681" data-name="Trazado 1013681" d="M323.673,73.533a6.87,6.87,0,1,0-3.36-9.8A6.909,6.909,0,0,0,323.673,73.533Z" transform="translate(41.153 -31.532)" fill="#f2d3e8"/>
            <circle id="Elipse_11794" data-name="Elipse 11794" cx="3.365" cy="3.365" r="3.365" transform="translate(85.369 408.782)" fill="none" stroke="#2e2854" stroke-linecap="round" stroke-linejoin="round" stroke-miterlimit="10" stroke-width="1.5"/>
            <circle id="Elipse_11795" data-name="Elipse 11795" cx="3.365" cy="3.365" r="3.365" transform="translate(161.743 510.938)" fill="none" stroke="#2e2854" stroke-linecap="round" stroke-linejoin="round" stroke-miterlimit="10" stroke-width="1.5"/>
            <circle id="Elipse_11796" data-name="Elipse 11796" cx="3.365" cy="3.365" r="3.365" transform="translate(536.528 385.808)" fill="none" stroke="#2e2854" stroke-linecap="round" stroke-linejoin="round" stroke-miterlimit="10" stroke-width="1.5"/>
            <circle id="Elipse_11797" data-name="Elipse 11797" cx="3.365" cy="3.365" r="3.365" transform="translate(70.723 169.207)" fill="none" stroke="#2e2854" stroke-linecap="round" stroke-linejoin="round" stroke-miterlimit="10" stroke-width="1.5"/>
            <circle id="Elipse_11798" data-name="Elipse 11798" cx="3.365" cy="3.365" r="3.365" transform="translate(457.201 257.704)" fill="none" stroke="#2e2854" stroke-linecap="round" stroke-linejoin="round" stroke-miterlimit="10" stroke-width="1.5"/>
            <circle id="Elipse_11799" data-name="Elipse 11799" cx="3.365" cy="3.365" r="3.365" transform="translate(104.063)" fill="none" stroke="#2e2854" stroke-linecap="round" stroke-linejoin="round" stroke-miterlimit="10" stroke-width="1.5"/>
          </g>
        </g>
      </g>
    </g>
  </g>
</svg>
