<svg xmlns="http://www.w3.org/2000/svg" xmlns:xlink="http://www.w3.org/1999/xlink" width="108" height="108" viewBox="0 0 108 108">
  <defs>
    <filter id="Trazado_982547" x="0" y="0" width="108" height="108" filterUnits="userSpaceOnUse">
      <feOffset dy="3" input="SourceAlpha"/>
      <feGaussianBlur stdDeviation="3" result="blur"/>
      <feFlood flood-opacity="0.161"/>
      <feComposite operator="in" in2="blur"/>
      <feComposite in="SourceGraphic"/>
    </filter>
  </defs>
  <g id="Grupo_1160827" data-name="Grupo 1160827" transform="translate(-165.819 -2812)">
    <g id="Grupo_1158748" data-name="Grupo 1158748" transform="translate(-0.181 1076)">
      <g id="Grupo_1154416" data-name="Grupo 1154416" transform="translate(175 1742)">
        <g id="Grupo_1153134" data-name="Grupo 1153134">
          <g id="Grupo_1149598" data-name="Grupo 1149598">
            <g id="Grupo_1148770" data-name="Grupo 1148770">
              <g id="Grupo_1146954" data-name="Grupo 1146954">
                <g transform="matrix(1, 0, 0, 1, -9, -6)" filter="url(#Trazado_982547)">
                  <g id="Trazado_982547-2" data-name="Trazado 982547" transform="translate(9 6)" fill="#fdf6ea">
                    <path d="M 45 88.5 C 39.12687683105469 88.5 33.43022537231445 87.35007476806641 28.06830024719238 85.08217620849609 C 22.88852500915527 82.89131164550781 18.23629951477051 79.75458526611328 14.2408504486084 75.75914764404297 C 10.24541282653809 71.76370239257812 7.108687400817871 67.11147308349609 4.917825222015381 61.93170166015625 C 2.649924993515015 56.56977462768555 1.5 50.87312316894531 1.5 45 C 1.5 39.12687683105469 2.649924993515015 33.43022537231445 4.917825222015381 28.06830024719238 C 7.108687400817871 22.88852500915527 10.24541282653809 18.23629951477051 14.2408504486084 14.2408504486084 C 18.23629951477051 10.24541282653809 22.88852500915527 7.108687400817871 28.06830024719238 4.917825222015381 C 33.43022537231445 2.649924993515015 39.12687683105469 1.5 45 1.5 C 50.87312316894531 1.5 56.56977462768555 2.649924993515015 61.93170166015625 4.917825222015381 C 67.11147308349609 7.108687400817871 71.76370239257812 10.24541282653809 75.75914764404297 14.2408504486084 C 79.75458526611328 18.23629951477051 82.89131164550781 22.88852500915527 85.08217620849609 28.06830024719238 C 87.35007476806641 33.43022537231445 88.5 39.12687683105469 88.5 45 C 88.5 50.87312316894531 87.35007476806641 56.56977462768555 85.08217620849609 61.93170166015625 C 82.89131164550781 67.11147308349609 79.75458526611328 71.76370239257812 75.75914764404297 75.75914764404297 C 71.76370239257812 79.75458526611328 67.11147308349609 82.89131164550781 61.93170166015625 85.08217620849609 C 56.56977462768555 87.35007476806641 50.87312316894531 88.5 45 88.5 Z" stroke="none"/>
                    <path d="M 45 3 C 39.32871246337891 3 33.82865524291992 4.110054016113281 28.65262985229492 6.299339294433594 C 23.65165710449219 8.414573669433594 19.15968322753906 11.44334411621094 15.301513671875 15.301513671875 C 11.44334411621094 19.15968322753906 8.414573669433594 23.65165710449219 6.299339294433594 28.65262985229492 C 4.110054016113281 33.82865524291992 3 39.32871246337891 3 45 C 3 50.67128753662109 4.110054016113281 56.17134475708008 6.299339294433594 61.34737396240234 C 8.414573669433594 66.34834289550781 11.44334411621094 70.84031677246094 15.301513671875 74.698486328125 C 19.15968322753906 78.55665588378906 23.65165710449219 81.58542633056641 28.65262985229492 83.70066070556641 C 33.82865524291992 85.88994598388672 39.32871246337891 87 45 87 C 50.67128753662109 87 56.17134475708008 85.88994598388672 61.34737396240234 83.70066070556641 C 66.34834289550781 81.58542633056641 70.84031677246094 78.55665588378906 74.698486328125 74.698486328125 C 78.55665588378906 70.84031677246094 81.58542633056641 66.34834289550781 83.70066070556641 61.34737396240234 C 85.88994598388672 56.17134475708008 87 50.67128753662109 87 45 C 87 39.32871246337891 85.88994598388672 33.82865524291992 83.70066070556641 28.65262985229492 C 81.58542633056641 23.65165710449219 78.55665588378906 19.15968322753906 74.698486328125 15.301513671875 C 70.84031677246094 11.44334411621094 66.34834289550781 8.414573669433594 61.34737396240234 6.299339294433594 C 56.17134475708008 4.110054016113281 50.67128753662109 3 45 3 M 45 0 C 69.85281372070312 0 90 20.14718627929688 90 45 C 90 69.85281372070312 69.85281372070312 90 45 90 C 20.14718627929688 90 0 69.85281372070312 0 45 C 0 20.14718627929688 20.14718627929688 0 45 0 Z" stroke="none" fill="#edae3b"/>
                  </g>
                </g>
              </g>
            </g>
          </g>
        </g>
      </g>
    </g>
    <g id="proceso" transform="translate(189.819 2833)">
      <path id="Trazado_1013715" data-name="Trazado 1013715" d="M174.479,182.564l1.892-5.686,2.355.888a3.839,3.839,0,0,1,2.51,3.61v4.083H160v-4.083a3.839,3.839,0,0,1,2.51-3.61l2.355-.888,1.892,5.686,3.861-1.931Zm0,0" transform="translate(-140.695 -155.537)" fill="#48cfad"/>
      <path id="Trazado_1013716" data-name="Trazado 1013716" d="M253.753,169.071l-1.892,5.686L248,172.826,250.9,168Zm0,0" transform="translate(-218.077 -147.729)" fill="#e6e9ed"/>
      <path id="Trazado_1013717" data-name="Trazado 1013717" d="M203.177,168l2.9,4.826-3.861,1.931-1.892-5.686Zm0,0" transform="translate(-176.15 -147.729)" fill="#e6e9ed"/>
      <g id="Grupo_1160826" data-name="Grupo 1160826" transform="translate(22.201 7.722)">
        <path id="Trazado_1013718" data-name="Trazado 1013718" d="M226.9,152.965a6.149,6.149,0,0,0,2.9-.965v1.931l-2.9,4.826-2.9-4.826V152A4.771,4.771,0,0,0,226.9,152.965Zm0,0" transform="translate(-219.174 -141.382)" fill="#f0d0b4"/>
        <path id="Trazado_1013719" data-name="Trazado 1013719" d="M290.192,82.9a2.892,2.892,0,0,1-2.9,2.9l-.1-.009a4.444,4.444,0,0,0,.1-.956V80a2.9,2.9,0,0,1,2.9,2.9Zm0,0" transform="translate(-274.747 -78.069)" fill="#f0d0b4"/>
        <path id="Trazado_1013720" data-name="Trazado 1013720" d="M217.653,65.931v4.826a4.444,4.444,0,0,1-.1.956,4.824,4.824,0,0,1-1.313,2.461,4.548,4.548,0,0,1-.521.444,6.149,6.149,0,0,1-2.9.965,4.771,4.771,0,0,1-2.9-.965,4.84,4.84,0,0,1-1.834-2.905,4.444,4.444,0,0,1-.1-.956V65.931h.164A6.6,6.6,0,0,0,212.826,64a6.6,6.6,0,0,0,4.662,1.931Zm0,0" transform="translate(-205.104 -64)" fill="#f0d0b4"/>
        <path id="Trazado_1013721" data-name="Trazado 1013721" d="M186.9,84.826a4.444,4.444,0,0,0,.1.956l-.1.009a2.9,2.9,0,1,1,0-5.792Zm0,0" transform="translate(-184 -78.069)" fill="#f0d0b4"/>
      </g>
      <path id="Trazado_1013722" data-name="Trazado 1013722" d="M199.444,15.722v3.861a2.9,2.9,0,0,0-2.9-2.9h-.164a6.6,6.6,0,0,1-4.662-1.931,6.6,6.6,0,0,1-4.662,1.931H186.9a2.892,2.892,0,0,0-2.9,2.9V15.722a7.722,7.722,0,0,1,15.444,0Zm0,0" transform="translate(-161.799 -7.035)" fill="#b27946"/>
      <path id="Trazado_1013723" data-name="Trazado 1013723" d="M305.1,289.653v5.792l-2.548.647c-.125.347-.27.685-.425,1.023l1.342,2.259-4.093,4.093-2.259-1.342c-.338.155-.676.3-1.023.425l-.647,2.548h-5.792l-.647-2.548c-.347-.125-.685-.27-1.023-.425l-2.259,1.342-4.093-4.093,1.342-2.259c-.155-.338-.3-.676-.425-1.023L280,295.444v-5.792l2.548-.647c.125-.347.27-.685.425-1.023l-1.342-2.259,4.093-4.093,2.259,1.342c.338-.155.676-.3,1.023-.425l.647-2.548h5.792l.647,2.548c.347.125.685.27,1.023.425l2.259-1.342,4.093,4.093-1.342,2.259c.155.338.3.676.425,1.023Zm-5.792,2.9a6.757,6.757,0,1,0-6.757,6.757A6.752,6.752,0,0,0,299.305,292.548Zm0,0" transform="translate(-246.215 -246.215)" fill="#fcd770"/>
      <path id="Trazado_1013724" data-name="Trazado 1013724" d="M334.757,328A6.757,6.757,0,1,1,328,334.757,6.752,6.752,0,0,1,334.757,328Zm2.9,6.757a2.9,2.9,0,1,0-2.9,2.9A2.892,2.892,0,0,0,337.653,334.757Zm0,0" transform="translate(-288.424 -288.424)" fill="#ffeaa7"/>
      <path id="Trazado_1013725" data-name="Trazado 1013725" d="M8,296H25.375v23.166H8Zm0,0" transform="translate(-7.035 -260.285)" fill="#e6e9ed"/>
      <path id="Trazado_1013726" data-name="Trazado 1013726" d="M299.027,289.158v-7.29l-2.793-.714c-.019-.047-.039-.094-.059-.141l1.47-2.478-5.155-5.155-2.478,1.47-.141-.059L289.158,272h-7.29l-.714,2.793-.141.059-2.478-1.47-5.155,5.155,1.47,2.478-.059.141-2.792.714v7.29l2.793.714c.019.047.039.094.059.141l-1.47,2.478,5.155,5.155,2.478-1.47.141.059.714,2.792h7.29l.714-2.793.141-.059,2.478,1.47,5.155-5.155-1.47-2.478.059-.141Zm-3.806,3.028-3.035,3.035L290.124,294l-.464.222a9.659,9.659,0,0,1-.92.381l-.486.172-.592,2.324h-4.293l-.592-2.324-.486-.172a9.1,9.1,0,0,1-.92-.381L280.9,294l-2.063,1.224-3.035-3.035,1.224-2.063-.222-.464a9.659,9.659,0,0,1-.381-.92l-.172-.486-2.325-.592v-4.293l2.324-.592.173-.486a9.1,9.1,0,0,1,.381-.92l.222-.464-1.224-2.063,3.035-3.035,2.063,1.224.464-.222a9.659,9.659,0,0,1,.92-.381l.486-.172.592-2.325h4.293l.592,2.324.486.173a9.1,9.1,0,0,1,.92.381l.464.222,2.063-1.224,3.035,3.035L294,280.9l.222.464a9.659,9.659,0,0,1,.381.92l.172.486,2.325.592v4.293l-2.324.592-.172.486a9.1,9.1,0,0,1-.381.92l-.222.464Zm0,0" transform="translate(-239.181 -239.181)"/>
      <path id="Trazado_1013727" data-name="Trazado 1013727" d="M327.722,320a7.722,7.722,0,1,0,7.722,7.722A7.731,7.731,0,0,0,327.722,320Zm0,13.514a5.792,5.792,0,1,1,5.792-5.792A5.8,5.8,0,0,1,327.722,333.514Zm0,0" transform="translate(-281.389 -281.389)"/>
      <path id="Trazado_1013728" data-name="Trazado 1013728" d="M355.861,352a3.861,3.861,0,1,0,3.861,3.861A3.865,3.865,0,0,0,355.861,352Zm0,5.792a1.931,1.931,0,1,1,1.931-1.931A1.932,1.932,0,0,1,355.861,357.792Zm0,0" transform="translate(-309.528 -309.528)"/>
      <path id="Trazado_1013729" data-name="Trazado 1013729" d="M158.106,16.344a5.8,5.8,0,0,0,1.617,2.44V19.6l-4.59,1.721A4.847,4.847,0,0,0,152,25.842v5.046h23.166V25.842a4.85,4.85,0,0,0-3.131-4.52L167.445,19.6v-.818a5.79,5.79,0,0,0,1.617-2.44,3.86,3.86,0,0,0,3.21-3.8V8.687a8.687,8.687,0,1,0-17.375,0v3.861a3.86,3.86,0,0,0,3.21,3.8ZM165.514,20l-1.931,3.217L161.653,20v-.071a5.683,5.683,0,0,0,3.861,0Zm-5.241,1.454L162.22,24.7l-1.933.966-1.249-3.745Zm12.963,4.385v3.116H153.931V25.842a2.909,2.909,0,0,1,1.879-2.712l1.419-.532,1.93,5.79,4.425-2.212,4.425,2.212,1.93-5.79,1.42.533a2.907,2.907,0,0,1,1.878,2.711ZM168.13,21.92l-1.249,3.746-1.933-.966,1.946-3.243Zm-4.546-3.58a3.865,3.865,0,0,1-3.861-3.861V10.552a7.472,7.472,0,0,0,3.861-1.541,7.464,7.464,0,0,0,3.861,1.541v3.927A3.865,3.865,0,0,1,163.584,18.34Zm5.792-4.129V10.887a1.913,1.913,0,0,1,0,3.324Zm-5.792-12.28a6.765,6.765,0,0,1,6.757,6.757v.537a3.819,3.819,0,0,0-1.931-.537h-.166a5.586,5.586,0,0,1-3.978-1.648l-.682-.683-.682.683a5.588,5.588,0,0,1-3.978,1.648h-.166a3.819,3.819,0,0,0-1.931.537V8.687a6.765,6.765,0,0,1,6.757-6.757Zm-5.792,8.956V14.21a1.913,1.913,0,0,1,0-3.324Zm0,0" transform="translate(-133.66)"/>
      <path id="Trazado_1013730" data-name="Trazado 1013730" d="M0,313.1H19.305V288H0Zm1.931-23.166H17.375v21.236H1.931Zm0,0" transform="translate(0 -253.25)"/>
      <path id="Trazado_1013731" data-name="Trazado 1013731" d="M32,320H43.583v1.931H32Zm0,0" transform="translate(-28.139 -281.389)"/>
      <path id="Trazado_1013732" data-name="Trazado 1013732" d="M32,352h1.931v1.931H32Zm0,0" transform="translate(-28.139 -309.528)"/>
      <path id="Trazado_1013733" data-name="Trazado 1013733" d="M64,352h7.722v1.931H64Zm0,0" transform="translate(-56.278 -309.528)"/>
      <path id="Trazado_1013734" data-name="Trazado 1013734" d="M32,384H43.583v1.931H32Zm0,0" transform="translate(-28.139 -337.667)"/>
      <path id="Trazado_1013735" data-name="Trazado 1013735" d="M32,416H43.583v1.931H32Zm0,0" transform="translate(-28.139 -365.806)"/>
      <path id="Trazado_1013736" data-name="Trazado 1013736" d="M112,448h1.931v1.931H112Zm0,0" transform="translate(-98.486 -393.945)"/>
      <path id="Trazado_1013737" data-name="Trazado 1013737" d="M32,448h7.722v1.931H32Zm0,0" transform="translate(-28.139 -393.945)"/>
      <path id="Trazado_1013738" data-name="Trazado 1013738" d="M170.6,347.708l-1.365-1.365-4.544,4.544,4.544,4.544,1.365-1.365-2.213-2.213H175.7v-1.931h-7.322Zm0,0" transform="translate(-144.816 -304.554)"/>
      <path id="Trazado_1013739" data-name="Trazado 1013739" d="M73.931,80.818a.967.967,0,0,1,.965-.965h4.427l-2.213,2.213,1.365,1.365,4.544-4.544-4.544-4.544-1.365,1.365,2.213,2.213H74.9a2.9,2.9,0,0,0-2.9,2.9V98.193h1.931Zm0,0" transform="translate(-63.313 -65.373)"/>
      <path id="Trazado_1013740" data-name="Trazado 1013740" d="M341.792,106.9v12.149l-2.213-2.213-1.365,1.365,4.544,4.544L347.3,118.2l-1.365-1.365-2.213,2.213V106.9a2.9,2.9,0,0,0-2.9-2.9H336v1.931h4.826A.967.967,0,0,1,341.792,106.9Zm0,0" transform="translate(-295.459 -91.451)"/>
    </g>
  </g>
</svg>
