<svg xmlns="http://www.w3.org/2000/svg" xmlns:xlink="http://www.w3.org/1999/xlink" width="505" height="422" viewBox="0 0 505 422">
  <defs>
    <clipPath id="clip-path">
      <rect id="Rectángulo_409677" data-name="Rectángulo 409677" width="505" height="422" transform="translate(180 3847)" fill="#fff" stroke="#707070" stroke-width="1" opacity="0.54"/>
    </clipPath>
  </defs>
  <g id="Enmascarar_grupo_1098786" data-name="Enmascarar grupo 1098786" transform="translate(-180 -3847)" clip-path="url(#clip-path)">
    <g id="Grupo_1160656" data-name="Grupo 1160656">
      <g id="Grupo_1160655" data-name="Grupo 1160655" transform="translate(1808.459 -21.392)">
        <path id="Trazado_1013277" data-name="Trazado 1013277" d="M329.585,454.258c-43.4,8.076-89.076-.369-128.553-20.116s-72.951-50.354-99.363-85.721c-32.21-43.129-54.684-95.131-54.894-148.96s24.3-109.1,69.474-138.371C151.8,38.055,196.009,32.759,238.367,33.45c60.342.985,121.375,13.294,174,42.832s96.24,77.4,113.783,135.143,6.411,125.051-34.223,169.669C453.246,423.569,394.555,442.168,329.585,454.258Z" transform="translate(-1658.893 3835)" fill="#f6c2b2"/>
        <g id="OBJECTS" transform="translate(-1628.459 3868.392)">
          <g id="Grupo_1160652" data-name="Grupo 1160652" transform="translate(0 11.839)">
            <g id="Grupo_1160603" data-name="Grupo 1160603" transform="translate(101.116)">
              <g id="Grupo_1160595" data-name="Grupo 1160595" transform="translate(226.159 209.486)">
                <path id="Trazado_1013278" data-name="Trazado 1013278" d="M393.173,375.142Q386,387.309,378.831,399.475a30.1,30.1,0,0,0-3.778,8.192c-.693,2.939-.4,6.264,1.479,8.624,2.571,3.227,7.5,3.775,11.325,2.229s6.728-4.741,9.178-8.059a66.991,66.991,0,0,0,12.342-30.023Z" transform="translate(-374.709 -272.432)" fill="#2e2854" opacity="0.15"/>
                <g id="Grupo_1160592" data-name="Grupo 1160592" transform="translate(27.513 101.346)">
                  <path id="Trazado_1013279" data-name="Trazado 1013279" d="M410.459,377.331c-2.764,7.23-5.362,14.6-6.34,22.278s-.23,15.764,3.4,22.6,10.441,12.217,18.15,12.922c5.2.476,10.963-1.546,13.485-6.123,1.824-3.308,1.7-7.326,1.218-11.074-.881-6.853-2.784-13.544-3.672-20.395s-.686-14.1,2.427-20.273Z" transform="translate(-403.727 -373.889)" fill="#2e2854" opacity="0.15"/>
                  <path id="Trazado_1013280" data-name="Trazado 1013280" d="M412.729,373.769c-2.764,7.23-5.362,14.6-6.34,22.278s-.23,15.764,3.4,22.6,10.441,12.217,18.15,12.922c5.2.476,10.963-1.546,13.485-6.123,1.824-3.308,1.7-7.326,1.218-11.074-.881-6.853-2.784-13.544-3.672-20.395s-.686-14.1,2.427-20.273Z" transform="translate(-403.844 -373.704)" fill="#76c9bf"/>
                  <path id="Trazado_1013281" data-name="Trazado 1013281" d="M428.536,374.307a65.35,65.35,0,0,0-2,43.717" transform="translate(-404.762 -373.735)" fill="none" stroke="#2e2854" stroke-linecap="round" stroke-linejoin="round" stroke-miterlimit="10" stroke-width="1.5"/>
                </g>
                <path id="Trazado_1013282" data-name="Trazado 1013282" d="M398.412,374.71q-7.171,12.167-14.343,24.333a30.1,30.1,0,0,0-3.778,8.192c-.693,2.939-.4,6.264,1.479,8.624,2.571,3.227,7.5,3.775,11.325,2.229s6.728-4.741,9.178-8.059a66.991,66.991,0,0,0,12.342-30.023Z" transform="translate(-374.981 -272.41)" fill="#49ad9f"/>
                <g id="Grupo_1160593" data-name="Grupo 1160593" transform="translate(48.379)">
                  <path id="Trazado_1013283" data-name="Trazado 1013283" d="M432.032,368.129c-.1-11.386.321-22.909,3.388-33.876s9-21.441,18.2-28.161c10.922-7.984,24.967-9.852,38.182-12.751s27.252-7.871,34.821-18.878a84.907,84.907,0,0,1-25.273,71.218C482.406,363.693,454.673,371.989,432.032,368.129Z" transform="translate(-426.059 -267.213)" fill="#2e2854" opacity="0.15"/>
                  <path id="Trazado_1013284" data-name="Trazado 1013284" d="M427.913,365.284c-.694-11.366-.872-22.9,1.618-34.007s7.875-21.881,16.706-29.072c10.491-8.543,24.42-11.14,37.467-14.723s26.8-9.28,33.791-20.666a84.907,84.907,0,0,1-21.528,72.439C477.989,358.231,450.725,367.961,427.913,365.284Z" transform="translate(-425.823 -266.817)" fill="#49ad9f"/>
                  <path id="Trazado_1013285" data-name="Trazado 1013285" d="M492.437,310.337a808.3,808.3,0,0,0-66.7,56.984" transform="translate(-425.733 -269.073)" fill="none" stroke="#2e2854" stroke-linecap="round" stroke-linejoin="round" stroke-miterlimit="10" stroke-width="1.5"/>
                </g>
                <g id="Grupo_1160594" data-name="Grupo 1160594" transform="translate(47.03 57.369)">
                  <path id="Trazado_1013286" data-name="Trazado 1013286" d="M436.655,367.379C451.3,357,466.718,347.44,483.567,341.234s35.292-8.941,52.91-5.477c8.167,1.605,17.373,6.033,18.435,14.288.974,7.554-5.842,14.174-13.131,16.385s-15.1,1.374-22.7,1.892c-16.339,1.116-31.479,8.476-46.849,14.133s-32.547,9.659-47.922,4.016C428.533,380.235,430.39,371.821,436.655,367.379Z" transform="translate(-424.31 -327.681)" fill="#2e2854" opacity="0.15"/>
                  <path id="Trazado_1013287" data-name="Trazado 1013287" d="M437.07,364.889c14.089-11.13,28.988-21.473,45.492-28.545s34.78-10.761,52.555-8.216c8.24,1.179,17.662,5.123,19.152,13.311,1.365,7.493-5.1,14.458-12.263,17.045S527,360.64,519.434,361.552c-16.259,1.963-31,10.1-46.051,16.546s-32,11.335-47.649,6.5C429.627,378.149,431.044,369.651,437.07,364.889Z" transform="translate(-424.384 -327.323)" fill="#76c9bf"/>
                  <path id="Trazado_1013288" data-name="Trazado 1013288" d="M428,374.669c14.767,1.885,29.123-4.959,42.249-11.983s26.842-14.625,41.728-14.421" transform="translate(-424.501 -328.408)" fill="none" stroke="#2e2854" stroke-linecap="round" stroke-linejoin="round" stroke-miterlimit="10" stroke-width="1.5"/>
                </g>
              </g>
              <g id="Grupo_1160597" data-name="Grupo 1160597" transform="translate(152.464 28.074)">
                <path id="Trazado_1013289" data-name="Trazado 1013289" d="M331.4,196.2a56.187,56.187,0,0,1-30.853-23.244c-1.8-2.8-3.376-5.881-3.549-9.2s1.379-6.918,4.408-8.292c3.377-1.529,7.345.058,10.411,2.144,5.042,3.43,9.033,8.158,13.436,12.377s9.538,8.088,15.552,9.1Z" transform="translate(-296.984 -79.601)" fill="#2e2854" opacity="0.15"/>
                <path id="Trazado_1013290" data-name="Trazado 1013290" d="M354.377,153.595A93.835,93.835,0,0,1,339.33,88.788c.454-3.262,1.125-6.609,3.01-9.308s5.273-4.6,8.472-3.815c4.334,1.059,6.228,6.1,7.018,10.49,1.772,9.829,1.5,19.922,2.987,29.8s5.074,20.005,12.8,26.329Z" transform="translate(-299.135 -75.487)" fill="#2e2854" opacity="0.15"/>
                <g id="Grupo_1160596" data-name="Grupo 1160596" transform="translate(2.097 25.513)">
                  <path id="Trazado_1013291" data-name="Trazado 1013291" d="M352,191.717a88.591,88.591,0,0,1-51.866-62.366c-.871-4.111-1.437-8.433-.3-12.481s4.336-7.762,8.5-8.351c5.625-.8,10.372,4,13.711,8.6,5.781,7.953,10.546,16.635,16.728,24.28s14.142,14.379,23.72,16.6Z" transform="translate(-299.196 -102.708)" fill="#2e2854" opacity="0.15"/>
                  <path id="Trazado_1013292" data-name="Trazado 1013292" d="M353.583,188.724a88.59,88.59,0,0,1-46.914-66.171c-.553-4.166-.785-8.518.657-12.466s4.92-7.405,9.115-7.673c5.669-.362,10.033,4.786,13.01,9.624,5.151,8.374,9.235,17.4,14.81,25.5s12.994,15.425,22.374,18.374Z" transform="translate(-299.561 -102.395)" fill="#49ad9f"/>
                  <path id="Trazado_1013293" data-name="Trazado 1013293" d="M320.6,128.972A84.22,84.22,0,0,0,367.99,172.96" transform="translate(-300.306 -103.773)" fill="none" stroke="#2e2854" stroke-linecap="round" stroke-linejoin="round" stroke-miterlimit="10" stroke-width="1.5"/>
                </g>
                <path id="Trazado_1013294" data-name="Trazado 1013294" d="M330.962,194.74a56.193,56.193,0,0,1-26.727-27.89c-1.325-3.051-2.389-6.347-2.027-9.653s2.47-6.608,5.681-7.477c3.578-.968,7.241,1.235,9.932,3.785,4.427,4.195,7.608,9.5,11.278,14.371s8.117,9.513,13.891,11.478Z" transform="translate(-297.251 -79.323)" fill="#76c9bf"/>
                <path id="Trazado_1013295" data-name="Trazado 1013295" d="M349.178,153.57a93.831,93.831,0,0,1-17.291-64.244c.34-3.276.9-6.644,2.684-9.407s5.11-4.777,8.333-4.107c4.368.907,6.435,5.88,7.379,10.24,2.113,9.761,2.2,19.857,4.02,29.676s5.766,19.817,13.71,25.869Z" transform="translate(-298.769 -75.497)" fill="#76c9bf"/>
              </g>
              <g id="Grupo_1160599" data-name="Grupo 1160599" transform="translate(0 293.367)">
                <path id="Trazado_1013296" data-name="Trazado 1013296" d="M227.948,371.052a59.38,59.38,0,0,0-4.875,36.942c.818,4.241,2.2,8.559,5.2,11.666s7.97,4.642,11.784,2.615c4.222-2.245,5.508-7.853,4.7-12.564s-3.186-9-4.492-13.6a31.054,31.054,0,0,1,1.881-21.741A18.686,18.686,0,0,0,227.948,371.052Z" transform="translate(-140.635 -356.086)" fill="#2e2854" opacity="0.15"/>
                <path id="Trazado_1013297" data-name="Trazado 1013297" d="M178.2,359.438a133.624,133.624,0,0,1-30.258,21.069c-4.471,2.269-9.6,4.913-10.721,9.8-1.129,4.922,2.8,9.943,7.594,11.53s10.069.492,14.806-1.261a56.269,56.269,0,0,0,32.182-31.23Z" transform="translate(-136.229 -355.499)" fill="#2e2854" opacity="0.15"/>
                <g id="Grupo_1160598" data-name="Grupo 1160598" transform="translate(6.358 2.157)">
                  <path id="Trazado_1013298" data-name="Trazado 1013298" d="M191.173,359.527a79.271,79.271,0,0,1-23.31,33.586c-4.054,3.428-8.457,6.447-12.3,10.105s-7.184,8.1-8.4,13.265.046,11.138,4.1,14.568c4.46,3.773,11.039,3.7,16.708,2.291,13.69-3.4,25.049-13.158,33.57-24.4a104.52,104.52,0,0,0,18.143-38.06Z" transform="translate(-143.088 -357.661)" fill="#2e2854" opacity="0.15"/>
                  <path id="Trazado_1013299" data-name="Trazado 1013299" d="M191.311,357.559a79.282,79.282,0,0,1-25.481,31.97c-4.272,3.152-8.864,5.874-12.944,9.269s-7.7,7.6-9.262,12.68-.691,11.117,3.125,14.806c4.2,4.06,10.77,4.42,16.52,3.392,13.885-2.483,25.865-11.471,35.11-22.122A104.531,104.531,0,0,0,219,370.777Z" transform="translate(-142.89 -357.559)" fill="#76c9bf"/>
                  <path id="Trazado_1013300" data-name="Trazado 1013300" d="M207.154,359.936a85.618,85.618,0,0,1-31.759,43.71" transform="translate(-144.575 -357.682)" fill="none" stroke="#2e2854" stroke-linecap="round" stroke-linejoin="round" stroke-miterlimit="10" stroke-width="1.5"/>
                </g>
                <path id="Trazado_1013301" data-name="Trazado 1013301" d="M224.131,370.769a59.375,59.375,0,0,0-7.362,36.528c.53,4.287,1.618,8.688,4.4,11.991s7.638,5.17,11.58,3.406c4.364-1.955,6.027-7.462,5.536-12.218s-2.57-9.2-3.562-13.875a31.053,31.053,0,0,1,3.347-21.564A18.694,18.694,0,0,0,224.131,370.769Z" transform="translate(-140.34 -356.081)" fill="#49ad9f"/>
                <path id="Trazado_1013302" data-name="Trazado 1013302" d="M177.359,355.284A133.623,133.623,0,0,1,147.1,376.353c-4.471,2.269-9.6,4.913-10.721,9.8-1.129,4.922,2.8,9.943,7.594,11.53s10.069.492,14.806-1.261a56.269,56.269,0,0,0,32.182-31.23Z" transform="translate(-136.185 -355.284)" fill="#49ad9f"/>
              </g>
              <g id="Grupo_1160602" data-name="Grupo 1160602" transform="translate(49.738)">
                <g id="Grupo_1160600" data-name="Grupo 1160600" transform="translate(0 23.52)">
                  <path id="Trazado_1013303" data-name="Trazado 1013303" d="M208.777,134.788a147.269,147.269,0,0,0-14.846-35.711c-1.821-3.138-3.783-6.262-4.741-9.761s-.769-7.523,1.445-10.4c3.132-4.07,9.443-4.515,14.033-2.215s7.76,6.681,10.325,11.13A83.609,83.609,0,0,1,226.071,126.7Z" transform="translate(-188.642 -70.923)" fill="#2e2854" opacity="0.15"/>
                  <path id="Trazado_1013304" data-name="Trazado 1013304" d="M212.465,130.991a147.287,147.287,0,0,0-10.717-37.159c-1.455-3.324-3.051-6.649-3.608-10.234s.086-7.562,2.61-10.169c3.572-3.689,9.892-3.42,14.193-.615s6.956,7.514,9,12.225a83.6,83.6,0,0,1,6.616,39.869Z" transform="translate(-189.125 -70.683)" fill="#76c9bf"/>
                  <path id="Trazado_1013305" data-name="Trazado 1013305" d="M208.958,87.928a80.887,80.887,0,0,1,14.034,46" transform="translate(-189.695 -71.577)" fill="none" stroke="#2e2854" stroke-linecap="round" stroke-linejoin="round" stroke-miterlimit="10" stroke-width="1.5"/>
                </g>
                <g id="Grupo_1160601" data-name="Grupo 1160601" transform="translate(27.1)">
                  <path id="Trazado_1013306" data-name="Trazado 1013306" d="M246.941,152.944c2.543-13.233,10.218-24.851,18.2-35.706s16.562-21.558,21.4-34.133c2.085-5.414,3.448-11.291,2.511-17.017s-4.545-11.259-9.988-13.27c-4.042-1.493-8.634-.91-12.588.8a39.129,39.129,0,0,0-10.544,7.37,112.824,112.824,0,0,0-36.058,74.22Z" transform="translate(-217.362 -46.193)" fill="#2e2854" opacity="0.15"/>
                  <path id="Trazado_1013307" data-name="Trazado 1013307" d="M245.476,148.572c1.6-13.38,8.428-25.514,15.62-36.908s14.99-22.68,18.927-35.566c1.7-5.549,2.639-11.507,1.3-17.152s-5.332-10.909-10.9-12.527c-4.138-1.2-8.677-.295-12.5,1.692a39.13,39.13,0,0,0-9.995,8.1,112.82,112.82,0,0,0-30.7,76.592Z" transform="translate(-217.224 -45.878)" fill="#49ad9f"/>
                  <path id="Trazado_1013308" data-name="Trazado 1013308" d="M263.175,71.686a158.161,158.161,0,0,0-31.957,73.281" transform="translate(-217.949 -47.216)" fill="none" stroke="#2e2854" stroke-linecap="round" stroke-linejoin="round" stroke-miterlimit="10" stroke-width="1.5"/>
                </g>
              </g>
            </g>
            <g id="Grupo_1160616" data-name="Grupo 1160616" transform="translate(0 46.806)">
              <g id="Grupo_1160607" data-name="Grupo 1160607" transform="translate(296.859)">
                <g id="Grupo_1160604" data-name="Grupo 1160604">
                  <path id="Trazado_1013309" data-name="Trazado 1013309" d="M489.421,220.981q-62.1,1.862-124.237-.123A14.058,14.058,0,0,1,351.6,207.595c-1.755-30.831-1.988-59.85-1.111-88.6a14.047,14.047,0,0,1,12.986-13.539,669.965,669.965,0,0,1,124.985,1.826,14,14,0,0,1,12.419,12.466,554.183,554.183,0,0,1,2.162,87.983A14.054,14.054,0,0,1,489.421,220.981Z" transform="translate(-343.012 -95.664)" fill="#2e2854" opacity="0.15"/>
                  <path id="Trazado_1013310" data-name="Trazado 1013310" d="M482.061,212.849q-62.1,1.863-124.237-.123a14.058,14.058,0,0,1-13.586-13.263c-1.755-30.831-1.988-59.85-1.111-88.6a14.047,14.047,0,0,1,12.986-13.539A669.965,669.965,0,0,1,481.1,99.148a14,14,0,0,1,12.419,12.466,554.19,554.19,0,0,1,2.162,87.983A14.055,14.055,0,0,1,482.061,212.849Z" transform="translate(-342.63 -95.243)" fill="#fff"/>
                  <path id="Trazado_1013311" data-name="Trazado 1013311" d="M482.061,212.849q-62.1,1.863-124.237-.123a14.058,14.058,0,0,1-13.586-13.263c-1.755-30.831-1.988-59.85-1.111-88.6a14.047,14.047,0,0,1,12.986-13.539A669.965,669.965,0,0,1,481.1,99.148a14,14,0,0,1,12.419,12.466,554.19,554.19,0,0,1,2.162,87.983A14.055,14.055,0,0,1,482.061,212.849Z" transform="translate(-342.63 -95.243)" fill="none" stroke="#2e2854" stroke-linecap="round" stroke-linejoin="round" stroke-miterlimit="10" stroke-width="1.5"/>
                </g>
                <g id="Grupo_1160605" data-name="Grupo 1160605" transform="translate(17.18 15.103)">
                  <path id="Trazado_1013312" data-name="Trazado 1013312" d="M402.156,125.937q-8.7,9.324-18.1,17.964c-1.131-8.813-2.369-17.115-4.092-25.6a23.193,23.193,0,0,0-10.142,4.427,23.693,23.693,0,1,0,32.336,3.208Z" transform="translate(-360.749 -111.541)" fill="#d24d84"/>
                  <path id="Trazado_1013313" data-name="Trazado 1013313" d="M383.575,111.564c1.722,8.483,2.96,16.785,4.092,25.6q9.4-8.617,18.1-17.964a22.67,22.67,0,0,0-4.631-4.157A24.117,24.117,0,0,0,383.575,111.564Z" transform="translate(-361.932 -111.171)" fill="#2e2854"/>
                </g>
                <g id="Grupo_1160606" data-name="Grupo 1160606" transform="translate(89.43 15.675)">
                  <rect id="Rectángulo_409801" data-name="Rectángulo 409801" width="9.651" height="30.06" fill="#76c9bf"/>
                  <rect id="Rectángulo_409802" data-name="Rectángulo 409802" width="9.651" height="24.397" transform="translate(17.102 5.661)" fill="#2e2854"/>
                  <rect id="Rectángulo_409803" data-name="Rectángulo 409803" width="9.651" height="18.736" transform="translate(34.204 11.324)" fill="#2e2854"/>
                </g>
                <rect id="Rectángulo_409804" data-name="Rectángulo 409804" width="62.866" height="5.931" transform="translate(79.614 53.323)" fill="#d24d84"/>
                <rect id="Rectángulo_409805" data-name="Rectángulo 409805" width="32.732" height="5.931" transform="translate(79.614 63.999)" fill="#d24d84"/>
                <line id="Línea_929" data-name="Línea 929" x2="62.866" transform="translate(79.614 78.697)" fill="none" stroke="#2e2854" stroke-linecap="round" stroke-linejoin="round" stroke-miterlimit="10" stroke-width="1.5"/>
                <line id="Línea_930" data-name="Línea 930" x2="62.866" transform="translate(79.614 88.07)" fill="none" stroke="#2e2854" stroke-linecap="round" stroke-linejoin="round" stroke-miterlimit="10" stroke-width="1.5"/>
                <line id="Línea_931" data-name="Línea 931" x2="29.485" transform="translate(79.614 97.444)" fill="none" stroke="#2e2854" stroke-linecap="round" stroke-linejoin="round" stroke-miterlimit="10" stroke-width="1.5"/>
              </g>
              <g id="Grupo_1160611" data-name="Grupo 1160611" transform="translate(57.404 10.4)">
                <g id="Grupo_1160608" data-name="Grupo 1160608">
                  <path id="Trazado_1013314" data-name="Trazado 1013314" d="M246.529,291.668a1430.28,1430.28,0,0,0,4.607-167.286,12.124,12.124,0,0,0-11.4-11.743c-42.2-2.439-85-1.814-127.711.912a12.114,12.114,0,0,0-11.339,12.176c.375,52.5.557,104.721.229,157.017A12.1,12.1,0,0,0,112.221,294.9c39.326,2.573,78.954,4.312,121.236,7.8A12.119,12.119,0,0,0,246.529,291.668Z" transform="translate(-90.633 -106.466)" fill="#2e2854" opacity="0.15"/>
                  <path id="Trazado_1013315" data-name="Trazado 1013315" d="M235.931,286.764a1430.277,1430.277,0,0,0,4.607-167.286,12.123,12.123,0,0,0-11.4-11.743c-42.2-2.439-85-1.814-127.711.912a12.114,12.114,0,0,0-11.339,12.176c.375,52.5.556,104.721.229,157.017A12.1,12.1,0,0,0,101.623,290c39.326,2.573,78.954,4.312,121.237,7.8A12.119,12.119,0,0,0,235.931,286.764Z" transform="translate(-90.084 -106.212)" fill="#fff"/>
                  <path id="Trazado_1013316" data-name="Trazado 1013316" d="M235.931,286.764a1430.277,1430.277,0,0,0,4.607-167.286,12.123,12.123,0,0,0-11.4-11.743c-42.2-2.439-85-1.814-127.711.912a12.114,12.114,0,0,0-11.339,12.176c.375,52.5.556,104.721.229,157.017A12.1,12.1,0,0,0,101.623,290c39.326,2.573,78.954,4.312,121.237,7.8A12.119,12.119,0,0,0,235.931,286.764Z" transform="translate(-90.084 -106.212)" fill="none" stroke="#2e2854" stroke-linecap="round" stroke-linejoin="round" stroke-miterlimit="10" stroke-width="1.5"/>
                </g>
                <g id="Grupo_1160610" data-name="Grupo 1160610" transform="translate(16.197 23.222)">
                  <rect id="Rectángulo_409806" data-name="Rectángulo 409806" width="119.551" height="54.761" fill="#f7a145"/>
                  <g id="Grupo_1160609" data-name="Grupo 1160609" transform="translate(8.861 8.201)">
                    <line id="Línea_932" data-name="Línea 932" x2="101.123" transform="translate(0 38.134)" fill="none" stroke="#2e2854" stroke-linecap="round" stroke-linejoin="round" stroke-miterlimit="10" stroke-width="1.5"/>
                    <rect id="Rectángulo_409807" data-name="Rectángulo 409807" width="19.295" height="25.757" transform="translate(41.268 12.378)" fill="#2e2854"/>
                    <rect id="Rectángulo_409808" data-name="Rectángulo 409808" width="19.295" height="38.135" transform="translate(9.259)" fill="#2e2854"/>
                    <rect id="Rectángulo_409809" data-name="Rectángulo 409809" width="19.295" height="9.127" transform="translate(73.276 29.007)" fill="#2e2854"/>
                  </g>
                </g>
                <rect id="Rectángulo_409810" data-name="Rectángulo 409810" width="119.693" height="5.931" transform="translate(16.055 89.086)" fill="#d24d84"/>
                <rect id="Rectángulo_409811" data-name="Rectángulo 409811" width="72.252" height="5.931" transform="translate(16.055 100.464)" fill="#d24d84"/>
                <rect id="Rectángulo_409812" data-name="Rectángulo 409812" width="37.354" height="5.931" transform="translate(98.395 100.464)" fill="#d24d84"/>
                <line id="Línea_933" data-name="Línea 933" x2="92.379" transform="translate(16.197 118.618)" fill="none" stroke="#2e2854" stroke-linecap="round" stroke-linejoin="round" stroke-miterlimit="10" stroke-width="1.5"/>
                <line id="Línea_934" data-name="Línea 934" x2="92.379" transform="translate(16.197 132.198)" fill="none" stroke="#2e2854" stroke-linecap="round" stroke-linejoin="round" stroke-miterlimit="10" stroke-width="1.5"/>
                <line id="Línea_935" data-name="Línea 935" x2="55.09" transform="translate(16.197 145.778)" fill="none" stroke="#2e2854" stroke-linecap="round" stroke-linejoin="round" stroke-miterlimit="10" stroke-width="1.5"/>
              </g>
              <g id="Grupo_1160615" data-name="Grupo 1160615" transform="translate(0 162.015)">
                <g id="Grupo_1160612" data-name="Grupo 1160612">
                  <path id="Trazado_1013317" data-name="Trazado 1013317" d="M187.6,273.349c-45.444-.264-90.968-.417-137.413.7A12.626,12.626,0,0,0,37.843,286.7c.081,25.473.219,51.037.775,77.255A12.643,12.643,0,0,0,50.5,376.3q68.147,4.126,136.479,2.543a12.629,12.629,0,0,0,12.346-12.492l.814-80.252A12.618,12.618,0,0,0,187.6,273.349Z" transform="translate(-29.971 -266.481)" fill="#2e2854" opacity="0.15"/>
                  <path id="Trazado_1013318" data-name="Trazado 1013318" d="M179.294,266.306c-45.444-.264-90.968-.417-137.413.7a12.626,12.626,0,0,0-12.34,12.652c.081,25.473.219,51.037.775,77.255A12.642,12.642,0,0,0,42.2,369.253q68.147,4.126,136.479,2.542A12.629,12.629,0,0,0,191.022,359.3l.814-80.252A12.618,12.618,0,0,0,179.294,266.306Z" transform="translate(-29.541 -266.116)" fill="#fff"/>
                  <path id="Trazado_1013319" data-name="Trazado 1013319" d="M179.294,266.306c-45.444-.264-90.968-.417-137.413.7a12.626,12.626,0,0,0-12.34,12.652c.081,25.473.219,51.037.775,77.255A12.642,12.642,0,0,0,42.2,369.253q68.147,4.126,136.479,2.542A12.629,12.629,0,0,0,191.022,359.3l.814-80.252A12.618,12.618,0,0,0,179.294,266.306Z" transform="translate(-29.541 -266.116)" fill="none" stroke="#2e2854" stroke-linecap="round" stroke-linejoin="round" stroke-miterlimit="10" stroke-width="1.5"/>
                </g>
                <g id="Grupo_1160613" data-name="Grupo 1160613" transform="translate(13.27 17.349)">
                  <rect id="Rectángulo_409813" data-name="Rectángulo 409813" width="134.35" height="45.098" fill="#f7a145"/>
                  <rect id="Rectángulo_409814" data-name="Rectángulo 409814" width="5.272" height="27.036" transform="translate(8.474 18.063)" fill="#2e2854"/>
                  <rect id="Rectángulo_409815" data-name="Rectángulo 409815" width="5.272" height="15.94" transform="translate(19.562 29.158)" fill="#2e2854"/>
                  <rect id="Rectángulo_409816" data-name="Rectángulo 409816" width="5.272" height="32.342" transform="translate(30.652 12.757)" fill="#2e2854"/>
                  <rect id="Rectángulo_409817" data-name="Rectángulo 409817" width="5.272" height="34.754" transform="translate(41.742 10.344)" fill="#2e2854"/>
                  <rect id="Rectángulo_409818" data-name="Rectángulo 409818" width="5.272" height="9.669" transform="translate(52.831 35.429)" fill="#2e2854"/>
                  <rect id="Rectángulo_409819" data-name="Rectángulo 409819" width="5.272" height="21.488" transform="translate(63.92 23.61)" fill="#2e2854"/>
                  <rect id="Rectángulo_409820" data-name="Rectángulo 409820" width="5.272" height="27.036" transform="translate(75.01 18.063)" fill="#2e2854"/>
                  <rect id="Rectángulo_409821" data-name="Rectángulo 409821" width="5.272" height="27.036" transform="translate(86.1 18.063)" fill="#2e2854"/>
                  <rect id="Rectángulo_409822" data-name="Rectángulo 409822" width="5.272" height="21.488" transform="translate(97.188 23.61)" fill="#2e2854"/>
                  <rect id="Rectángulo_409823" data-name="Rectángulo 409823" width="5.272" height="32.342" transform="translate(108.278 12.757)" fill="#2e2854"/>
                  <rect id="Rectángulo_409824" data-name="Rectángulo 409824" width="5.272" height="28" transform="translate(119.368 17.098)" fill="#2e2854"/>
                </g>
                <g id="Grupo_1160614" data-name="Grupo 1160614" transform="translate(13.27 69.09)">
                  <rect id="Rectángulo_409825" data-name="Rectángulo 409825" width="44.378" height="8.478" fill="#6d7fe3"/>
                  <rect id="Rectángulo_409826" data-name="Rectángulo 409826" width="83.295" height="8.478" transform="translate(51.055)" fill="#6d7fe3"/>
                  <rect id="Rectángulo_409827" data-name="Rectángulo 409827" width="116.034" height="8.478" transform="translate(0 13.619)" fill="#6d7fe3"/>
                </g>
              </g>
            </g>
            <g id="Grupo_1160650" data-name="Grupo 1160650" transform="translate(96.035 120.297)">
              <path id="Trazado_1013320" data-name="Trazado 1013320" d="M200.184,379.048q46.024,3.581,91.332,5.36l-.481,37.606q-19.131.024-38.237,1.146c-.158,1.39-.231,2.85-.265,4.344H363.3l-.009-1.637q-19.057-2.069-38.212-3.021.125-18.663.249-37.326,44.867,1.168,89.458.744a16.66,16.66,0,0,0,16.411-14.75,1302.228,1302.228,0,0,0,8.376-170.231,16.631,16.631,0,0,0-15-16.264,1529.042,1529.042,0,0,0-223.464-5.281,16.667,16.667,0,0,0-15.835,15.918c-2.426,55.57-2.431,111.481-.472,167.347A16.676,16.676,0,0,0,200.184,379.048Z" transform="translate(-133.551 -173.018)" fill="#2e2854" opacity="0.15"/>
              <path id="Trazado_1013321" data-name="Trazado 1013321" d="M291.867,432.235q-.531-25.6-1.061-51.207s31.787-.808,33.772-.272q.68,25.341,1.361,50.683Z" transform="translate(-139.119 -183.525)" fill="#5160b8"/>
              <g id="Grupo_1160634" data-name="Grupo 1160634" transform="translate(39.28)">
                <g id="Grupo_1160617" data-name="Grupo 1160617">
                  <path id="Trazado_1013322" data-name="Trazado 1013322" d="M408.121,377.28c-70.874,3.027-141.982,3.192-214.729-.022a16.676,16.676,0,0,1-15.905-15.52c-3.829-55.769-5.7-111.649-5.134-167.269a16.667,16.667,0,0,1,15.293-16.44,1529.02,1529.02,0,0,1,223.516-2.209A16.632,16.632,0,0,1,426.7,191.573a1302.082,1302.082,0,0,1-2.668,170.416A16.66,16.66,0,0,1,408.121,377.28Z" transform="translate(-172.254 -172.752)" fill="#6d7fe3"/>
                  <path id="Trazado_1013323" data-name="Trazado 1013323" d="M408.121,377.28c-70.874,3.027-141.982,3.192-214.729-.022a16.676,16.676,0,0,1-15.905-15.52c-3.829-55.769-5.7-111.649-5.134-167.269a16.667,16.667,0,0,1,15.293-16.44,1529.02,1529.02,0,0,1,223.516-2.209A16.632,16.632,0,0,1,426.7,191.573a1302.082,1302.082,0,0,1-2.668,170.416A16.66,16.66,0,0,1,408.121,377.28Z" transform="translate(-172.254 -172.752)" fill="none" stroke="#2e2854" stroke-linecap="round" stroke-linejoin="round" stroke-miterlimit="10" stroke-width="1.5"/>
                </g>
                <path id="Trazado_1013324" data-name="Trazado 1013324" d="M405.175,187.514q-106.988-.62-213.869,5.615a9.636,9.636,0,0,0-9.051,10.118c2.326,45.729,3.995,92.52,5.909,139.49a9.647,9.647,0,0,0,9.506,9.252c69.369.88,138.741.011,207.634-2.371a9.651,9.651,0,0,0,9.262-8.729c4.583-47.575,5.674-95.549.136-144.8A9.655,9.655,0,0,0,405.175,187.514Z" transform="translate(-172.772 -173.514)" fill="#f7a145"/>
                <path id="Trazado_1013325" data-name="Trazado 1013325" d="M415.209,201.7H182.419a9.676,9.676,0,0,0-.164,2.282q.994,19.542,1.845,39.329H418.065Q417.362,222.64,415.209,201.7Z" transform="translate(-172.772 -174.253)" fill="#f1d070"/>
                <g id="Grupo_1160618" data-name="Grupo 1160618" transform="translate(76.075 39.289)">
                  <path id="Trazado_1013326" data-name="Trazado 1013326" d="M252.488,224.476c0-6.043,4.637-10.287,10.96-10.287,3.851,0,6.887,1.405,8.826,3.935l-4.188,3.738a5.318,5.318,0,0,0-4.3-2.3c-2.753,0-4.609,1.911-4.609,4.918s1.856,4.918,4.609,4.918a5.315,5.315,0,0,0,4.3-2.3l4.188,3.738c-1.94,2.53-4.975,3.935-8.826,3.935C257.124,234.761,252.488,230.517,252.488,224.476Z" transform="translate(-252.488 -214.189)" fill="#2e2854"/>
                  <path id="Trazado_1013327" data-name="Trazado 1013327" d="M286.769,229.39h-1.8v4.947h-6.632V214.663h9.472c5.479,0,8.965,2.866,8.965,7.419a6.588,6.588,0,0,1-3.71,6.183l4.132,6.07h-7.083Zm.62-9.612H284.97v4.609h2.419c1.826,0,2.7-.871,2.7-2.3S289.215,219.778,287.389,219.778Z" transform="translate(-253.828 -214.214)" fill="#2e2854"/>
                  <path id="Trazado_1013328" data-name="Trazado 1013328" d="M319.747,229.334v5H303.391V214.663h15.991v5h-9.47v2.3h8.319v4.778h-8.319v2.586Z" transform="translate(-255.127 -214.214)" fill="#2e2854"/>
                  <path id="Trazado_1013329" data-name="Trazado 1013329" d="M326.307,214.663H336c6.576,0,11.1,3.738,11.1,9.836s-4.526,9.836-11.1,9.836h-9.695V214.663Zm9.414,14.5a4.665,4.665,0,1,0,0-9.33h-2.782v9.331h2.782Z" transform="translate(-256.315 -214.214)" fill="#2e2854"/>
                  <path id="Trazado_1013330" data-name="Trazado 1013330" d="M353.759,214.663h6.632v19.673h-6.632Z" transform="translate(-257.738 -214.214)" fill="#2e2854"/>
                  <path id="Trazado_1013331" data-name="Trazado 1013331" d="M371.289,219.806h-5.761v-5.143h18.155v5.143h-5.762v14.53h-6.632v-14.53Z" transform="translate(-258.348 -214.214)" fill="#2e2854"/>
                </g>
                <g id="Grupo_1160621" data-name="Grupo 1160621" transform="translate(32.546 80.863)">
                  <g id="Grupo_1160619" data-name="Grupo 1160619">
                    <path id="Trazado_1013332" data-name="Trazado 1013332" d="M220.715,261.983a63.143,63.143,0,0,0-14.1.044,123.146,123.146,0,0,0,.521,13.626c4.624-.156,9.248-.313,13.985-.454C220.936,271.056,220.755,266.911,220.715,261.983Z" transform="translate(-206.579 -258.221)" fill="#fff" stroke="#2e2854" stroke-linecap="round" stroke-linejoin="round" stroke-miterlimit="10" stroke-width="1.5"/>
                    <path id="Trazado_1013333" data-name="Trazado 1013333" d="M206.861,261.181a42.43,42.43,0,0,1,6.6,9.316q1.377-6.232,2.752-12.461" transform="translate(-206.594 -258.036)" fill="none" stroke="#d14b56" stroke-linecap="round" stroke-linejoin="round" stroke-miterlimit="10" stroke-width="3"/>
                  </g>
                  <g id="Grupo_1160620" data-name="Grupo 1160620" transform="translate(27.09 3.388)">
                    <line id="Línea_936" data-name="Línea 936" x2="92.215" fill="none" stroke="#2e2854" stroke-linecap="round" stroke-linejoin="round" stroke-miterlimit="10" stroke-width="1.5"/>
                    <line id="Línea_937" data-name="Línea 937" x2="92.215" transform="translate(0 9.073)" fill="none" stroke="#2e2854" stroke-linecap="round" stroke-linejoin="round" stroke-miterlimit="10" stroke-width="1.5"/>
                    <line id="Línea_938" data-name="Línea 938" x2="33.041" transform="translate(0 18.147)" fill="none" stroke="#2e2854" stroke-linecap="round" stroke-linejoin="round" stroke-miterlimit="10" stroke-width="1.5"/>
                  </g>
                </g>
                <g id="Grupo_1160624" data-name="Grupo 1160624" transform="translate(32.546 113.652)">
                  <g id="Grupo_1160622" data-name="Grupo 1160622">
                    <path id="Trazado_1013334" data-name="Trazado 1013334" d="M220.715,296.565a63.143,63.143,0,0,0-14.1.044,123.146,123.146,0,0,0,.521,13.626c4.624-.156,9.248-.313,13.985-.454C220.936,305.637,220.755,301.493,220.715,296.565Z" transform="translate(-206.579 -292.803)" fill="#fff" stroke="#2e2854" stroke-linecap="round" stroke-linejoin="round" stroke-miterlimit="10" stroke-width="1.5"/>
                    <path id="Trazado_1013335" data-name="Trazado 1013335" d="M206.861,295.763a42.43,42.43,0,0,1,6.6,9.316q1.377-6.232,2.752-12.461" transform="translate(-206.594 -292.618)" fill="none" stroke="#d14b56" stroke-linecap="round" stroke-linejoin="round" stroke-miterlimit="10" stroke-width="3"/>
                  </g>
                  <g id="Grupo_1160623" data-name="Grupo 1160623" transform="translate(27.09 3.388)">
                    <line id="Línea_939" data-name="Línea 939" x2="92.215" fill="none" stroke="#2e2854" stroke-linecap="round" stroke-linejoin="round" stroke-miterlimit="10" stroke-width="1.5"/>
                    <line id="Línea_940" data-name="Línea 940" x2="92.215" transform="translate(0 9.073)" fill="none" stroke="#2e2854" stroke-linecap="round" stroke-linejoin="round" stroke-miterlimit="10" stroke-width="1.5"/>
                    <line id="Línea_941" data-name="Línea 941" x2="46.323" transform="translate(0 18.146)" fill="none" stroke="#2e2854" stroke-linecap="round" stroke-linejoin="round" stroke-miterlimit="10" stroke-width="1.5"/>
                  </g>
                </g>
                <g id="Grupo_1160627" data-name="Grupo 1160627" transform="translate(32.546 147.389)">
                  <g id="Grupo_1160625" data-name="Grupo 1160625">
                    <path id="Trazado_1013336" data-name="Trazado 1013336" d="M220.715,332.146a63.143,63.143,0,0,0-14.1.044,123.146,123.146,0,0,0,.521,13.626c4.624-.156,9.248-.313,13.985-.454C220.936,341.218,220.755,337.074,220.715,332.146Z" transform="translate(-206.579 -328.384)" fill="#fff" stroke="#2e2854" stroke-linecap="round" stroke-linejoin="round" stroke-miterlimit="10" stroke-width="1.5"/>
                    <path id="Trazado_1013337" data-name="Trazado 1013337" d="M206.861,331.344a42.43,42.43,0,0,1,6.6,9.316q1.377-6.232,2.752-12.461" transform="translate(-206.594 -328.199)" fill="none" stroke="#d14b56" stroke-linecap="round" stroke-linejoin="round" stroke-miterlimit="10" stroke-width="3"/>
                  </g>
                  <g id="Grupo_1160626" data-name="Grupo 1160626" transform="translate(27.09 3.388)">
                    <line id="Línea_942" data-name="Línea 942" x2="92.215" fill="none" stroke="#2e2854" stroke-linecap="round" stroke-linejoin="round" stroke-miterlimit="10" stroke-width="1.5"/>
                    <line id="Línea_943" data-name="Línea 943" x2="92.215" transform="translate(0 9.073)" fill="none" stroke="#2e2854" stroke-linecap="round" stroke-linejoin="round" stroke-miterlimit="10" stroke-width="1.5"/>
                    <line id="Línea_944" data-name="Línea 944" x2="33.041" transform="translate(0 18.146)" fill="none" stroke="#2e2854" stroke-linecap="round" stroke-linejoin="round" stroke-miterlimit="10" stroke-width="1.5"/>
                  </g>
                </g>
                <g id="Grupo_1160628" data-name="Grupo 1160628" transform="translate(163.92 79.345)">
                  <path id="Trazado_1013338" data-name="Trazado 1013338" d="M367.666,259.472a13.814,13.814,0,1,0,3.785,16.517A13.88,13.88,0,0,0,367.666,259.472Z" transform="translate(-345.136 -256.435)" fill="#2e2854"/>
                  <path id="Trazado_1013339" data-name="Trazado 1013339" d="M363.488,266.488a4.03,4.03,0,1,0-4.03,4.03A4.03,4.03,0,0,0,363.488,266.488Z" transform="translate(-345.669 -256.747)" fill="#fff"/>
                  <path id="Trazado_1013340" data-name="Trazado 1013340" d="M359.13,273.557a10.777,10.777,0,0,0-10.037,6.867,14,14,0,0,0,8.59,4.369,14.217,14.217,0,0,0,11.5-4.335A10.777,10.777,0,0,0,359.13,273.557Z" transform="translate(-345.341 -257.322)" fill="#fff"/>
                </g>
                <rect id="Rectángulo_409828" data-name="Rectángulo 409828" width="38.617" height="5.931" transform="translate(199.265 81.536)" fill="#d24d84"/>
                <g id="Grupo_1160629" data-name="Grupo 1160629" transform="translate(200.015 95.579)">
                  <line id="Línea_945" data-name="Línea 945" x2="37.867" fill="none" stroke="#2e2854" stroke-linecap="round" stroke-linejoin="round" stroke-miterlimit="10" stroke-width="1.5"/>
                  <line id="Línea_946" data-name="Línea 946" x2="18.558" transform="translate(0 6.156)" fill="none" stroke="#2e2854" stroke-linecap="round" stroke-linejoin="round" stroke-miterlimit="10" stroke-width="1.5"/>
                </g>
                <g id="Grupo_1160630" data-name="Grupo 1160630" transform="translate(160.377 120.247)">
                  <path id="Trazado_1013341" data-name="Trazado 1013341" d="M362.713,299.573a21.313,21.313,0,1,0,21.313,21.313A21.313,21.313,0,0,0,362.713,299.573Zm0,35.3A13.983,13.983,0,1,1,376.7,320.886,13.984,13.984,0,0,1,362.713,334.869Z" transform="translate(-341.399 -299.573)" fill="#49ad9f"/>
                  <path id="Trazado_1013342" data-name="Trazado 1013342" d="M385.558,325.071a21.411,21.411,0,0,0,.318-3.537,21.186,21.186,0,0,0-2.242-9.473l-6.566,3.244a13.627,13.627,0,0,1,1.272,8.532Z" transform="translate(-343.248 -300.22)" fill="#2e2854"/>
                  <path id="Trazado_1013343" data-name="Trazado 1013343" d="M348.729,321.759a13.951,13.951,0,0,1,.465-3.521l-7.087-1.845a21.239,21.239,0,0,0,20.6,26.678v-7.33A13.983,13.983,0,0,1,348.729,321.759Z" transform="translate(-341.399 -300.445)" fill="#2e2854"/>
                </g>
                <g id="Grupo_1160631" data-name="Grupo 1160631" transform="translate(187.628 153.735)">
                  <rect id="Rectángulo_409829" data-name="Rectángulo 409829" width="27.339" height="5.518" transform="translate(22.433)" fill="#2e2854"/>
                  <line id="Línea_947" data-name="Línea 947" x2="23.888" transform="translate(1.139 2.759)" fill="none" stroke="#2e2854" stroke-linecap="round" stroke-linejoin="round" stroke-miterlimit="10" stroke-width="1.5"/>
                  <circle id="Elipse_11785" data-name="Elipse 11785" cx="1.139" cy="1.139" r="1.139" transform="translate(0 1.62)" fill="none" stroke="#2e2854" stroke-linecap="round" stroke-linejoin="round" stroke-miterlimit="10" stroke-width="1.5"/>
                </g>
                <g id="Grupo_1160632" data-name="Grupo 1160632" transform="translate(198.646 137.993)">
                  <rect id="Rectángulo_409830" data-name="Rectángulo 409830" width="27.339" height="5.518" transform="translate(11.414)" fill="#2e2854"/>
                  <line id="Línea_948" data-name="Línea 948" x2="12.868" transform="translate(1.14 2.759)" fill="none" stroke="#2e2854" stroke-linecap="round" stroke-linejoin="round" stroke-miterlimit="10" stroke-width="1.5"/>
                  <path id="Trazado_1013344" data-name="Trazado 1013344" d="M384.038,321.137a1.139,1.139,0,1,0-1.139,1.139A1.139,1.139,0,0,0,384.038,321.137Z" transform="translate(-381.761 -318.378)" fill="none" stroke="#2e2854" stroke-linecap="round" stroke-linejoin="round" stroke-miterlimit="10" stroke-width="1.5"/>
                </g>
                <g id="Grupo_1160633" data-name="Grupo 1160633" transform="translate(186.626 122.25)">
                  <rect id="Rectángulo_409831" data-name="Rectángulo 409831" width="27.339" height="5.518" transform="translate(23.435)" fill="#2e2854"/>
                  <line id="Línea_949" data-name="Línea 949" x2="24.89" transform="translate(1.139 2.759)" fill="none" stroke="#2e2854" stroke-linecap="round" stroke-linejoin="round" stroke-miterlimit="10" stroke-width="1.5"/>
                  <path id="Trazado_1013345" data-name="Trazado 1013345" d="M371.36,304.534a1.139,1.139,0,1,0-1.139,1.139A1.139,1.139,0,0,0,371.36,304.534Z" transform="translate(-369.083 -301.775)" fill="none" stroke="#2e2854" stroke-linecap="round" stroke-linejoin="round" stroke-miterlimit="10" stroke-width="1.5"/>
                </g>
              </g>
              <g id="Grupo_1160638" data-name="Grupo 1160638" transform="translate(9.023 16.803)">
                <path id="Trazado_1013346" data-name="Trazado 1013346" d="M246.086,190.474q-28.057,3.4-56.054,7.265c-.054.008-.105.02-.158.028a301.683,301.683,0,0,0-22.082,37.76h0c-2.971,3.666-6.631,7.277-9.879,11.191s-6.175,8.349-6.928,13.38c-1.208,8.073,3.327,15.771,7.294,23.631q-4.267,11.527-7.867,23.288c-.525,1.714-.859,3.975.648,4.948a2.849,2.849,0,0,0,3.02-.2,8.217,8.217,0,0,0,2.127-2.365q7.49-10.95,13.9-22.59c3.673.273,7.441.649,10.68-.987a12.611,12.611,0,0,0,5.043-5.093,29.656,29.656,0,0,0,2.628-6.575l13.8-21.6c2.1.674,4.232,1.325,6.413,1.951A430.124,430.124,0,0,0,246.086,190.474Z" transform="translate(-140.841 -190.474)" fill="#2e2854" opacity="0.15"/>
                <g id="Grupo_1160637" data-name="Grupo 1160637">
                  <g id="Grupo_1160636" data-name="Grupo 1160636" transform="translate(0 38.723)">
                    <path id="Trazado_1013347" data-name="Trazado 1013347" d="M160.674,282.355c4.194.544,8.606,1.723,12.52.12a12.607,12.607,0,0,0,5.43-4.678,29.7,29.7,0,0,0,3.14-6.346l19.746-26.1-37.289-14.036c-3.25,3.42-7.186,6.73-10.732,10.376s-6.816,7.835-7.965,12.79c-1.842,7.952,2.07,15.985,5.4,24.134Z" transform="translate(-140.586 -231.314)" fill="#e8614e"/>
                    <g id="Grupo_1160635" data-name="Grupo 1160635" transform="translate(0 41.744)">
                      <path id="Trazado_1013348" data-name="Trazado 1013348" d="M150.683,280.9q-5.166,11.155-9.684,22.593c-.659,1.668-1.17,3.9.254,4.984a2.848,2.848,0,0,0,3.027.035,8.212,8.212,0,0,0,2.307-2.189,275.751,275.751,0,0,0,21.674-30.979" transform="translate(-140.342 -275.34)" fill="#e8614e"/>
                      <path id="Trazado_1013349" data-name="Trazado 1013349" d="M150.683,280.9q-5.166,11.155-9.684,22.593c-.659,1.668-1.17,3.9.254,4.984a2.848,2.848,0,0,0,3.027.035,8.212,8.212,0,0,0,2.307-2.189,275.751,275.751,0,0,0,21.674-30.979" transform="translate(-140.342 -275.34)" fill="none" stroke="#2e2854" stroke-linecap="round" stroke-linejoin="round" stroke-miterlimit="10" stroke-width="1.5"/>
                    </g>
                  </g>
                  <path id="Trazado_1013350" data-name="Trazado 1013350" d="M190.427,193.285c-.054,0-.106.011-.16.016a301.739,301.739,0,0,0-25,35.9c11.935,10.334,24.494,16.612,39.246,22.148a430.038,430.038,0,0,0,42.365-60.872Q218.641,191.642,190.427,193.285Z" transform="translate(-141.634 -190.474)" fill="#654687"/>
                </g>
              </g>
              <g id="Grupo_1160648" data-name="Grupo 1160648" transform="translate(174.665 12.422)">
                <path id="Trazado_1013351" data-name="Trazado 1013351" d="M493.106,235.79q-3.359,3.453-6.758,6.868-25.866,26.117-53.46,50.444l0,0q-1.887,1.664-3.784,3.319-3.56,3.115-7.146,6.2-2.088-1.911-4.114-3.853c-.426-.4-.853-.81-1.276-1.216-.371-.357-.732-.72-1.1-1.079a213.706,213.706,0,0,1-27.041,27.064q1.644,2.121,3.186,4.345-8.782,11.921-18.62,23.012c-19.232-.427-35.14.676-54.409,0,13.029-18.054,23.146-37.856,38.957-53.183a157.146,157.146,0,0,1,27.58-21.659c2.044-2.1,4.161-4.125,6.309-6.117-.134-.163-.27-.325-.4-.489q-.613-.755-1.218-1.515-1.678-2.091-3.318-4.211l.035-.036c-.308-.39-.624-.773-.928-1.165l.076-.077c-.864-.975-1.735-1.944-2.586-2.931,21.133-23.876,42.973-47.166,64.668-70.057,13.656,11.1,26.782,22.862,39.539,34.757-.384.454-.775.9-1.159,1.356q2.195,2.162,4.373,4.328c-.254.282-.512.558-.766.839.564.578,1.133,1.155,1.7,1.734-.111.119-.225.237-.337.356.465.483.935.963,1.4,1.447-.137.144-.275.286-.411.43C492.427,235.067,492.769,235.428,493.106,235.79Z" transform="translate(-315.225 -186.04)" fill="#2e2854" opacity="0.15"/>
                <g id="Grupo_1160647" data-name="Grupo 1160647">
                  <path id="Trazado_1013352" data-name="Trazado 1013352" d="M420.231,291.247a213.764,213.764,0,0,1-34.758,39.109l-28.489-27.579a157.194,157.194,0,0,1,26.5-22.964l19.043-8.262Z" transform="translate(-317.215 -190.296)" fill="#e8614e"/>
                  <g id="Grupo_1160645" data-name="Grupo 1160645" transform="translate(63.444)">
                    <path id="Trazado_1013353" data-name="Trazado 1013353" d="M433.526,290.557h0q26.37-25.607,50.966-52.963,3.224-3.58,6.419-7.185-2.85-2.778-5.731-5.543l-.36-.345q-2.825-2.714-5.679-5.409l-.009-.009h0q-7.7-7.28-15.624-14.386h0l0,0q-2.662-2.381-5.35-4.733l-.377-.332q-2.8-2.445-5.631-4.857-6.175,6.235-12.363,12.519l-.017.017h0c-13.909,14.123-27.81,28.416-41.509,42.93h0l0,0q-2.872,3.044-5.733,6.1-3.3,3.517-6.572,7.054c1.136,1.379,2.293,2.741,3.457,4.1.422.492.843.984,1.269,1.473q1.32,1.513,2.663,3.009a276.515,276.515,0,0,0,20.888,20.947q1.59,1.436,3.208,2.858c.442.386.888.77,1.333,1.154,1.416,1.226,2.843,2.444,4.3,3.65q3.438-3.25,6.839-6.539,1.813-1.745,3.62-3.5Z" transform="translate(-382.161 -186.316)" fill="#2f9c8d"/>
                    <path id="Trazado_1013354" data-name="Trazado 1013354" d="M433.717,289.853h0q25.994-25.989,50.189-53.7,3.172-3.627,6.313-7.278-2.89-2.736-5.81-5.459l-.366-.34q-2.864-2.672-5.757-5.326l-.009-.009h0q-7.808-7.168-15.832-14.157h0l0,0q-2.7-2.341-5.419-4.655c-.128-.108-.254-.218-.382-.326q-2.836-2.4-5.7-4.775-6.084,6.325-12.179,12.7l-.017.017h0c-13.7,14.324-27.394,28.818-40.879,43.529h0l0,0q-2.827,3.085-5.643,6.179-3.244,3.566-6.468,7.149,1.734,2.042,3.517,4.046c.429.485.857.972,1.289,1.454q1.341,1.493,2.707,2.97a276.444,276.444,0,0,0,21.191,20.641q1.611,1.414,3.249,2.811c.448.379.9.757,1.349,1.134,1.434,1.205,2.878,2.4,4.347,3.588q3.391-3.3,6.742-6.638,1.788-1.771,3.569-3.549Z" transform="translate(-382.151 -186.266)" fill="#2f9c8d"/>
                    <path id="Trazado_1013355" data-name="Trazado 1013355" d="M432.865,288.34h0q25.846-26.137,49.884-53.983,3.15-3.644,6.272-7.314-2.906-2.719-5.842-5.425l-.368-.338q-2.88-2.655-5.788-5.294l-.009-.009h0q-7.849-7.124-15.912-14.067h0l0,0q-2.709-2.327-5.445-4.624l-.384-.324q-2.85-2.388-5.728-4.743-6.049,6.36-12.107,12.766a.146.146,0,0,0-.016.018h0c-13.62,14.4-27.23,28.974-40.632,43.76h0l0,0q-2.81,3.1-5.607,6.211-3.224,3.584-6.428,7.185,1.745,2.032,3.539,4.026.647.725,1.3,1.448,1.35,1.486,2.723,2.954a276.181,276.181,0,0,0,21.308,20.519q1.62,1.4,3.265,2.792c.449.377.9.752,1.356,1.126,1.44,1.2,2.892,2.387,4.368,3.562q3.371-3.32,6.705-6.676,1.778-1.781,3.549-3.57S432.864,288.341,432.865,288.34Z" transform="translate(-382.099 -186.183)" fill="#39ad9e"/>
                    <g id="Grupo_1160641" data-name="Grupo 1160641" transform="translate(2.228 4.201)">
                      <path id="Trazado_1013356" data-name="Trazado 1013356" d="M487.945,224.417q-30.92,37.787-65.153,72.694A277.355,277.355,0,0,1,384.3,261.348c20.754-24.2,42.227-47.835,63.561-71.064C461.695,201.175,475,212.724,487.945,224.417Z" transform="translate(-384.304 -190.284)" fill="#61c9bb"/>
                      <path id="Trazado_1013357" data-name="Trazado 1013357" d="M395.906,254.921q23.635-25.947,47.271-51.891l11.346-1.151q11.846,10.159,23.691,20.318l-.245,8.712q-24.1,28.53-49.952,55.515l-10.247,1.656a242.955,242.955,0,0,1-21.652-20.047Z" transform="translate(-384.905 -190.885)" fill="#39ad9e"/>
                      <g id="Grupo_1160639" data-name="Grupo 1160639" transform="translate(29.552 32.549)">
                        <path id="Trazado_1013358" data-name="Trazado 1013358" d="M448.743,245.109a11.584,11.584,0,1,0-6.905,12.372A11.661,11.661,0,0,0,448.743,245.109Z" transform="translate(-416.006 -225.164)" fill="#8cded3"/>
                        <path id="Trazado_1013359" data-name="Trazado 1013359" d="M459.421,228.191a4.37,4.37,0,1,1-5.107-3.513A4.542,4.542,0,0,1,459.421,228.191Z" transform="translate(-417.301 -224.612)" fill="#8cded3"/>
                        <path id="Trazado_1013360" data-name="Trazado 1013360" d="M424.132,268.167a4.37,4.37,0,1,1-5.106-3.512A4.541,4.541,0,0,1,424.132,268.167Z" transform="translate(-415.472 -226.685)" fill="#8cded3"/>
                      </g>
                      <g id="Grupo_1160640" data-name="Grupo 1160640" transform="translate(0 0.001)">
                        <path id="Trazado_1013361" data-name="Trazado 1013361" d="M438.792,203.279a17.458,17.458,0,0,0,23.626-3.5q-5.806-4.811-11.727-9.49Q444.745,196.759,438.792,203.279Z" transform="translate(-387.129 -190.285)" fill="#8cded3"/>
                        <path id="Trazado_1013362" data-name="Trazado 1013362" d="M396.106,250.883q-5.929,6.777-11.8,13.606,4.924,5.535,10.162,10.8a15.422,15.422,0,0,0,1.639-24.409Z" transform="translate(-384.304 -193.426)" fill="#8cded3"/>
                        <path id="Trazado_1013363" data-name="Trazado 1013363" d="M424.264,302.174Q429.34,297,434.34,291.748a15.721,15.721,0,0,0-21.629,1.047Q418.322,297.589,424.264,302.174Z" transform="translate(-385.777 -195.347)" fill="#61c9bb"/>
                        <path id="Trazado_1013364" data-name="Trazado 1013364" d="M478.6,227.269a13.416,13.416,0,0,0,5.24,9.25q4.527-5.389,8.99-10.829-6.04-5.457-12.2-10.855C479.141,218.824,478.069,223.058,478.6,227.269Z" transform="translate(-389.185 -191.558)" fill="#61c9bb"/>
                      </g>
                    </g>
                    <g id="Grupo_1160644" data-name="Grupo 1160644">
                      <path id="Trazado_1013365" data-name="Trazado 1013365" d="M484.338,218.664q-29.674,38.773-62.753,74.775a277.408,277.408,0,0,1-39.631-34.491c19.956-24.867,40.649-49.183,61.216-73.094C457.346,196.288,471.022,207.4,484.338,218.664Z" transform="translate(-381.954 -185.853)" fill="#8cded3"/>
                      <path id="Trazado_1013366" data-name="Trazado 1013366" d="M393.308,252.154q22.779-26.7,45.558-53.4l11.3-1.52,24.339,19.537.039,8.715q-23.158,29.3-48.119,57.111l-10.187,1.989a243.2,243.2,0,0,1-22.293-19.332Z" transform="translate(-382.543 -186.443)" fill="#61c9bb"/>
                      <g id="Grupo_1160642" data-name="Grupo 1160642" transform="translate(29.66 32.407)">
                        <path id="Trazado_1013367" data-name="Trazado 1013367" d="M445.724,240.712a11.584,11.584,0,1,0-6.5,12.59A11.662,11.662,0,0,0,445.724,240.712Z" transform="translate(-413.732 -220.612)" fill="#8cded3"/>
                        <path id="Trazado_1013368" data-name="Trazado 1013368" d="M455.833,223.469a4.37,4.37,0,1,1-5.218-3.346A4.54,4.54,0,0,1,455.833,223.469Z" transform="translate(-414.996 -220.032)" fill="#8cded3"/>
                        <path id="Trazado_1013369" data-name="Trazado 1013369" d="M421.865,264.572a4.37,4.37,0,1,1-5.218-3.345A4.54,4.54,0,0,1,421.865,264.572Z" transform="translate(-413.236 -222.163)" fill="#8cded3"/>
                      </g>
                      <g id="Grupo_1160643" data-name="Grupo 1160643">
                        <path id="Trazado_1013370" data-name="Trazado 1013370" d="M434.42,199.228a17.457,17.457,0,0,0,23.5-4.271q-5.959-4.619-12.029-9.1Q440.158,192.518,434.42,199.228Z" transform="translate(-384.674 -185.853)" fill="#8cded3"/>
                        <path id="Trazado_1013371" data-name="Trazado 1013371" d="M393.306,248.2q-5.706,6.966-11.352,13.983,5.1,5.372,10.508,10.467a15.423,15.423,0,0,0,.844-24.45Z" transform="translate(-381.954 -189.085)" fill="#8cded3"/>
                        <path id="Trazado_1013372" data-name="Trazado 1013372" d="M423.1,298.543q4.905-5.338,9.731-10.748a15.72,15.72,0,0,0-21.583,1.75Q417.015,294.153,423.1,298.543Z" transform="translate(-383.473 -190.957)" fill="#8cded3"/>
                        <path id="Trazado_1013373" data-name="Trazado 1013373" d="M474.978,221.928A13.415,13.415,0,0,0,480.516,231q4.349-5.533,8.633-11.116-6.215-5.258-12.544-10.453C475.248,213.469,474.315,217.737,474.978,221.928Z" transform="translate(-386.765 -187.075)" fill="#8cded3"/>
                      </g>
                    </g>
                  </g>
                  <g id="Grupo_1160646" data-name="Grupo 1160646" transform="translate(66.274 69.823)">
                    <path id="Trazado_1013374" data-name="Trazado 1013374" d="M384.938,279.187a174.2,174.2,0,0,1,18.1-17.685c1.62-1.368,3.944-2.754,5.687-1.546,1.651,1.146,1.318,3.655.672,5.56-2.626,7.741-7.35,14.568-12.017,21.281" transform="translate(-384.938 -259.494)" fill="#e8614e"/>
                    <path id="Trazado_1013375" data-name="Trazado 1013375" d="M384.938,279.187a174.2,174.2,0,0,1,18.1-17.685c1.62-1.368,3.944-2.754,5.687-1.546,1.651,1.146,1.318,3.655.672,5.56-2.626,7.741-7.35,14.568-12.017,21.281" transform="translate(-384.938 -259.494)" fill="none" stroke="#2e2854" stroke-linecap="round" stroke-linejoin="round" stroke-miterlimit="10" stroke-width="1.5"/>
                  </g>
                  <path id="Trazado_1013376" data-name="Trazado 1013376" d="M372.809,356.859q9.274-11.541,17.489-23.882a94.079,94.079,0,0,0-35.487-28.494c-15.054,16.071-27.627,34.853-39.77,53.515Q343.959,357.617,372.809,356.859Z" transform="translate(-315.041 -192.003)" fill="#654687"/>
                </g>
              </g>
              <g id="Grupo_1160649" data-name="Grupo 1160649" transform="translate(114.351 243.994)">
                <path id="Trazado_1013377" data-name="Trazado 1013377" d="M362.42,440.579l-.335-8.654a661.8,661.8,0,0,0-110.527,1,63.458,63.458,0,0,0-.027,7.656Z" transform="translate(-251.429 -430.086)" fill="#6d7fe3"/>
                <path id="Trazado_1013378" data-name="Trazado 1013378" d="M362.42,440.579l-.335-8.654a661.8,661.8,0,0,0-110.527,1,63.458,63.458,0,0,0-.027,7.656Z" transform="translate(-251.429 -430.086)" fill="none" stroke="#2e2854" stroke-linecap="round" stroke-linejoin="round" stroke-miterlimit="10" stroke-width="1.5"/>
              </g>
              <line id="Línea_950" data-name="Línea 950" x2="339.441" transform="translate(0 254.487)" fill="none" stroke="#2e2854" stroke-linecap="round" stroke-linejoin="round" stroke-miterlimit="10" stroke-width="1.5"/>
            </g>
            <g id="CALCULATOR_1_" transform="translate(356.878 259.9)">
              <path id="Trazado_1013379" data-name="Trazado 1013379" d="M467.222,324.619l-47.767-.435-4.434,4.156a6.721,6.721,0,0,0-2.094,4.725l-1.577,70.027c-.106,4.71,2.651,8.6,7.362,8.654l41.827.487c2.527.029,4.609-1.042,6.868-2.553l5.748-4.075,1.023-73.866A7.02,7.02,0,0,0,467.222,324.619Z" transform="translate(-406.212 -320.206)" fill="#2e2854" opacity="0.15"/>
              <path id="Trazado_1013380" data-name="Trazado 1013380" d="M414.382,319.988l-1.811,75.163a5.242,5.242,0,0,0,5.149,5.368l50.364.889,1.023-73.866a7.022,7.022,0,0,0-6.958-7.119Z" transform="translate(-406.275 -319.988)" fill="#d24d84"/>
              <path id="Trazado_1013381" data-name="Trazado 1013381" d="M414.038,319.988l-4.434,4.156a6.721,6.721,0,0,0-2.094,4.725L405.934,398.9c-.106,4.71,2.651,8.6,7.362,8.654l41.827.487c2.527.029,4.609-1.042,6.868-2.553l5.748-4.075-50.364-.889a5.242,5.242,0,0,1-5.148-5.368Z" transform="translate(-405.931 -319.988)" fill="#ad3b6a"/>
              <path id="Trazado_1013382" data-name="Trazado 1013382" d="M421.456,329.746l.188,12.316,41.028.429.025-13.6Z" transform="translate(-406.736 -320.45)" fill="#49ad9f"/>
              <path id="Trazado_1013383" data-name="Trazado 1013383" d="M421.507,333.077l38.327-1.426.243,10.814,2.594.027.025-13.6-41.24.85Z" transform="translate(-406.736 -320.45)" fill="#2e2854" opacity="0.15"/>
              <g id="Grupo_1160651" data-name="Grupo 1160651" transform="translate(14.632 31.744)">
                <path id="Trazado_1013384" data-name="Trazado 1013384" d="M423.5,353.863l8.094,0-.364,9.588-8.02.022Z" transform="translate(-421.459 -353.488)" fill="#fff" stroke="#2e2854" stroke-linecap="round" stroke-linejoin="round" stroke-miterlimit="10" stroke-width="1.5"/>
                <path id="Trazado_1013385" data-name="Trazado 1013385" d="M437.907,353.737l8.843-.1-.277,9.293-8.821.024Z" transform="translate(-422.207 -353.477)" fill="#fff" stroke="#2e2854" stroke-linecap="round" stroke-linejoin="round" stroke-miterlimit="10" stroke-width="1.5"/>
                <path id="Trazado_1013386" data-name="Trazado 1013386" d="M452.378,353.713l.113,9.329,8.852.145-.078-9.719Z" transform="translate(-422.971 -353.468)" fill="#fff" stroke="#2e2854" stroke-linecap="round" stroke-linejoin="round" stroke-miterlimit="10" stroke-width="1.5"/>
                <path id="Trazado_1013387" data-name="Trazado 1013387" d="M422.434,371.076l-.277,9.293,8.057.391L430.6,370.3Z" transform="translate(-421.404 -354.34)" fill="#fff" stroke="#2e2854" stroke-linecap="round" stroke-linejoin="round" stroke-miterlimit="10" stroke-width="1.5"/>
                <path id="Trazado_1013388" data-name="Trazado 1013388" d="M436.774,370.645l8.838.462-.392,10.22s-8.418-.257-8.617-.4S436.774,370.645,436.774,370.645Z" transform="translate(-422.15 -354.358)" fill="#fff" stroke="#2e2854" stroke-linecap="round" stroke-linejoin="round" stroke-miterlimit="10" stroke-width="1.5"/>
                <path id="Trazado_1013389" data-name="Trazado 1013389" d="M452.035,370.466l.047,9.551,8.55-.185-.418-10.462Z" transform="translate(-422.953 -354.292)" fill="#fff" stroke="#2e2854" stroke-linecap="round" stroke-linejoin="round" stroke-miterlimit="10" stroke-width="1.5"/>
                <path id="Trazado_1013390" data-name="Trazado 1013390" d="M421.809,387.394l-.446,9.323,8.5-.038-.247-9.689Z" transform="translate(-421.363 -355.206)" fill="#fff" stroke="#2e2854" stroke-linecap="round" stroke-linejoin="round" stroke-miterlimit="10" stroke-width="1.5"/>
                <path id="Trazado_1013391" data-name="Trazado 1013391" d="M436.2,386.275l.233,10.006,8.983-.3-.356-9.321Z" transform="translate(-422.132 -355.169)" fill="#fff" stroke="#2e2854" stroke-linecap="round" stroke-linejoin="round" stroke-miterlimit="10" stroke-width="1.5"/>
                <path id="Trazado_1013392" data-name="Trazado 1013392" d="M452.519,385.963l.247,9.689,8.41.014-.3-9.785Z" transform="translate(-422.978 -355.148)" fill="#fff" stroke="#2e2854" stroke-linecap="round" stroke-linejoin="round" stroke-miterlimit="10" stroke-width="1.5"/>
              </g>
              <path id="Trazado_1013393" data-name="Trazado 1013393" d="M421.456,329.746l.188,12.316,41.028.429.025-13.6Z" transform="translate(-406.736 -320.45)" fill="none" stroke="#2e2854" stroke-linecap="round" stroke-linejoin="round" stroke-miterlimit="10" stroke-width="1.5"/>
              <path id="Trazado_1013394" data-name="Trazado 1013394" d="M414.382,319.988l-1.811,75.163a5.242,5.242,0,0,0,5.149,5.368l50.364.889,1.023-73.866a7.022,7.022,0,0,0-6.958-7.119Z" transform="translate(-406.275 -319.988)" fill="none" stroke="#2e2854" stroke-linecap="round" stroke-linejoin="round" stroke-miterlimit="10" stroke-width="1.5"/>
            </g>
          </g>
          <g id="Grupo_1160653" data-name="Grupo 1160653" transform="translate(3.117 0)">
            <path id="Trazado_1013395" data-name="Trazado 1013395" d="M437.045,460.713a5.146,5.146,0,0,0-6.708,1.006,5.072,5.072,0,0,0,.633,6.732,5.005,5.005,0,0,0,6.73-.414C439.364,466.184,439.628,462.487,437.045,460.713Z" transform="translate(-53.384 -55.502)" fill="#f2d3e8"/>
            <path id="Trazado_1013396" data-name="Trazado 1013396" d="M67.227,404.259a5.147,5.147,0,0,0-6.708,1.006A5.072,5.072,0,0,0,61.152,412a5.005,5.005,0,0,0,6.73-.414C69.546,409.729,69.81,406.033,67.227,404.259Z" transform="translate(-34.213 -52.575)" fill="#f2d3e8"/>
            <path id="Trazado_1013397" data-name="Trazado 1013397" d="M478.25,66.406a5.146,5.146,0,0,0-6.708,1.006,5.072,5.072,0,0,0,.633,6.732,5,5,0,0,0,6.73-.414C480.569,71.877,480.833,68.18,478.25,66.406Z" transform="translate(-55.52 -35.061)" fill="#f2d3e8"/>
            <path id="Trazado_1013398" data-name="Trazado 1013398" d="M86.128,67.011a8.5,8.5,0,1,0,2.277,8.7A8.628,8.628,0,0,0,86.128,67.011Z" transform="translate(-34.85 -35.017)" fill="#f2d3e8"/>
            <path id="Trazado_1013399" data-name="Trazado 1013399" d="M370.166,33.415a2.946,2.946,0,1,0,2.353,3.994A2.916,2.916,0,0,0,370.166,33.415Z" transform="translate(-50.143 -33.392)" fill="#f2d3e8"/>
            <path id="Trazado_1013400" data-name="Trazado 1013400" d="M281.667,141.745a2.946,2.946,0,1,0,2.353,3.994A2.916,2.916,0,0,0,281.667,141.745Z" transform="translate(-45.556 -39.008)" fill="#fff"/>
            <path id="Trazado_1013401" data-name="Trazado 1013401" d="M381.943,76.414a2.946,2.946,0,1,0,2.353,3.994A2.916,2.916,0,0,0,381.943,76.414Z" transform="translate(-50.754 -35.621)" fill="#fff"/>
            <path id="Trazado_1013402" data-name="Trazado 1013402" d="M55.516,116.447a2.946,2.946,0,1,0,2.353,3.994A2.916,2.916,0,0,0,55.516,116.447Z" transform="translate(-33.832 -37.696)" fill="#f2d3e8"/>
            <path id="Trazado_1013403" data-name="Trazado 1013403" d="M96.125,434.038a2.946,2.946,0,1,0,2.353,3.994A2.916,2.916,0,0,0,96.125,434.038Z" transform="translate(-35.937 -54.16)" fill="#f2d3e8"/>
            <path id="Trazado_1013404" data-name="Trazado 1013404" d="M463.94,50.612a2.946,2.946,0,1,0,2.353,3.994A2.917,2.917,0,0,0,463.94,50.612Z" transform="translate(-55.005 -34.283)" fill="#f2d3e8"/>
            <path id="Trazado_1013405" data-name="Trazado 1013405" d="M535.813,144.844a2.946,2.946,0,1,0,2.353,3.994A2.916,2.916,0,0,0,535.813,144.844Z" transform="translate(-58.731 -39.168)" fill="#f2d3e8"/>
            <path id="Trazado_1013406" data-name="Trazado 1013406" d="M527.116,413.8a2.946,2.946,0,1,0,2.353,3.994A2.916,2.916,0,0,0,527.116,413.8Z" transform="translate(-58.28 -53.111)" fill="#f2d3e8"/>
            <path id="Trazado_1013407" data-name="Trazado 1013407" d="M36.158,234.629a2.946,2.946,0,1,0,2.353,3.994A2.916,2.916,0,0,0,36.158,234.629Z" transform="translate(-32.829 -43.823)" fill="#f2d3e8"/>
            <path id="Trazado_1013408" data-name="Trazado 1013408" d="M212.025,423.219a2.946,2.946,0,1,0,2.353,3.994A2.916,2.916,0,0,0,212.025,423.219Z" transform="translate(-41.945 -53.599)" fill="#fff"/>
            <path id="Trazado_1013409" data-name="Trazado 1013409" d="M524.018,215.348a2.946,2.946,0,1,0,2.353,3.995A2.917,2.917,0,0,0,524.018,215.348Z" transform="translate(-58.119 -42.823)" fill="#fff"/>
            <path id="Trazado_1013410" data-name="Trazado 1013410" d="M544.97,273.341a2.946,2.946,0,1,0,2.353,3.995A2.917,2.917,0,0,0,544.97,273.341Z" transform="translate(-59.205 -45.83)" fill="#fff"/>
            <path id="Trazado_1013411" data-name="Trazado 1013411" d="M183.258,62.513a2.946,2.946,0,1,0,2.353,3.995A2.917,2.917,0,0,0,183.258,62.513Z" transform="translate(-40.454 -34.9)" fill="#fff"/>
            <path id="Trazado_1013412" data-name="Trazado 1013412" d="M113.384,404.865a2.573,2.573,0,1,0-2.573,2.573A2.573,2.573,0,0,0,113.384,404.865Z" transform="translate(-36.738 -52.516)" fill="none" stroke="#2e2854" stroke-linecap="round" stroke-linejoin="round" stroke-miterlimit="10" stroke-width="1.5"/>
            <circle id="Elipse_11786" data-name="Elipse 11786" cx="2.573" cy="2.573" r="2.573" transform="translate(36.349 180.468)" fill="none" stroke="#2e2854" stroke-linecap="round" stroke-linejoin="round" stroke-miterlimit="10" stroke-width="1.5"/>
            <circle id="Elipse_11787" data-name="Elipse 11787" cx="2.573" cy="2.573" r="2.573" transform="translate(436.523 341.255)" fill="none" stroke="#2e2854" stroke-linecap="round" stroke-linejoin="round" stroke-miterlimit="10" stroke-width="1.5"/>
            <circle id="Elipse_11788" data-name="Elipse 11788" cx="2.573" cy="2.573" r="2.573" transform="translate(275.691 35.623)" fill="none" stroke="#2e2854" stroke-linecap="round" stroke-linejoin="round" stroke-miterlimit="10" stroke-width="1.5"/>
          </g>
        </g>
      </g>
      <circle id="Elipse_11579" data-name="Elipse 11579" cx="48.563" cy="48.563" r="48.563" transform="translate(136 3872.944)" fill="#88bba9"/>
      <circle id="Elipse_11584" data-name="Elipse 11584" cx="32.063" cy="32.063" r="32.063" transform="translate(594.812 3863.874)" fill="#edae3b"/>
      <circle id="Elipse_11587" data-name="Elipse 11587" cx="12.063" cy="12.063" r="12.063" transform="translate(570.686 3865.028)" fill="#817489"/>
      <circle id="Elipse_11588" data-name="Elipse 11588" cx="21.563" cy="21.563" r="21.563" transform="translate(641.874 3852.812)" fill="#817489"/>
      <circle id="Elipse_11585" data-name="Elipse 11585" cx="32.063" cy="32.063" r="32.063" transform="translate(619.874 4192.99)" fill="#88bba9"/>
      <circle id="Elipse_11586" data-name="Elipse 11586" cx="40.063" cy="40.063" r="40.063" transform="translate(170 4213.5)" fill="#e89076"/>
      <circle id="Elipse_11789" data-name="Elipse 11789" cx="12.063" cy="12.063" r="12.063" transform="translate(609.812 4238.99)" fill="#817489"/>
    </g>
  </g>
</svg>
