<svg xmlns="http://www.w3.org/2000/svg" xmlns:xlink="http://www.w3.org/1999/xlink" width="108" height="108" viewBox="0 0 108 108">
  <defs>
    <filter id="Trazado_982547" x="0" y="0" width="108" height="108" filterUnits="userSpaceOnUse">
      <feOffset dy="3" input="SourceAlpha"/>
      <feGaussianBlur stdDeviation="3" result="blur"/>
      <feFlood flood-opacity="0.161"/>
      <feComposite operator="in" in2="blur"/>
      <feComposite in="SourceGraphic"/>
    </filter>
  </defs>
  <g id="Grupo_1160973" data-name="Grupo 1160973" transform="translate(-150 -6949)">
    <g id="Grupo_1159290" data-name="Grupo 1159290" transform="translate(-16 5213)">
      <g id="Grupo_1154416" data-name="Grupo 1154416" transform="translate(175 1742)">
        <g id="Grupo_1153134" data-name="Grupo 1153134">
          <g id="Grupo_1149598" data-name="Grupo 1149598">
            <g id="Grupo_1148770" data-name="Grupo 1148770">
              <g id="Grupo_1146954" data-name="Grupo 1146954">
                <g transform="matrix(1, 0, 0, 1, -9, -6)" filter="url(#Trazado_982547)">
                  <g id="Trazado_982547-2" data-name="Trazado 982547" transform="translate(9 6)" fill="#fdf6ea">
                    <path d="M 45 88.5 C 39.12687683105469 88.5 33.43022537231445 87.35007476806641 28.06830024719238 85.08217620849609 C 22.88852500915527 82.89131164550781 18.23629951477051 79.75458526611328 14.2408504486084 75.75914764404297 C 10.24541282653809 71.76370239257812 7.108687400817871 67.11147308349609 4.917825222015381 61.93170166015625 C 2.649924993515015 56.56977462768555 1.5 50.87312316894531 1.5 45 C 1.5 39.12687683105469 2.649924993515015 33.43022537231445 4.917825222015381 28.06830024719238 C 7.108687400817871 22.88852500915527 10.24541282653809 18.23629951477051 14.2408504486084 14.2408504486084 C 18.23629951477051 10.24541282653809 22.88852500915527 7.108687400817871 28.06830024719238 4.917825222015381 C 33.43022537231445 2.649924993515015 39.12687683105469 1.5 45 1.5 C 50.87312316894531 1.5 56.56977462768555 2.649924993515015 61.93170166015625 4.917825222015381 C 67.11147308349609 7.108687400817871 71.76370239257812 10.24541282653809 75.75914764404297 14.2408504486084 C 79.75458526611328 18.23629951477051 82.89131164550781 22.88852500915527 85.08217620849609 28.06830024719238 C 87.35007476806641 33.43022537231445 88.5 39.12687683105469 88.5 45 C 88.5 50.87312316894531 87.35007476806641 56.56977462768555 85.08217620849609 61.93170166015625 C 82.89131164550781 67.11147308349609 79.75458526611328 71.76370239257812 75.75914764404297 75.75914764404297 C 71.76370239257812 79.75458526611328 67.11147308349609 82.89131164550781 61.93170166015625 85.08217620849609 C 56.56977462768555 87.35007476806641 50.87312316894531 88.5 45 88.5 Z" stroke="none"/>
                    <path d="M 45 3 C 39.32871246337891 3 33.82865524291992 4.110054016113281 28.65262985229492 6.299339294433594 C 23.65165710449219 8.414573669433594 19.15968322753906 11.44334411621094 15.301513671875 15.301513671875 C 11.44334411621094 19.15968322753906 8.414573669433594 23.65165710449219 6.299339294433594 28.65262985229492 C 4.110054016113281 33.82865524291992 3 39.32871246337891 3 45 C 3 50.67128753662109 4.110054016113281 56.17134475708008 6.299339294433594 61.34737396240234 C 8.414573669433594 66.34834289550781 11.44334411621094 70.84031677246094 15.301513671875 74.698486328125 C 19.15968322753906 78.55665588378906 23.65165710449219 81.58542633056641 28.65262985229492 83.70066070556641 C 33.82865524291992 85.88994598388672 39.32871246337891 87 45 87 C 50.67128753662109 87 56.17134475708008 85.88994598388672 61.34737396240234 83.70066070556641 C 66.34834289550781 81.58542633056641 70.84031677246094 78.55665588378906 74.698486328125 74.698486328125 C 78.55665588378906 70.84031677246094 81.58542633056641 66.34834289550781 83.70066070556641 61.34737396240234 C 85.88994598388672 56.17134475708008 87 50.67128753662109 87 45 C 87 39.32871246337891 85.88994598388672 33.82865524291992 83.70066070556641 28.65262985229492 C 81.58542633056641 23.65165710449219 78.55665588378906 19.15968322753906 74.698486328125 15.301513671875 C 70.84031677246094 11.44334411621094 66.34834289550781 8.414573669433594 61.34737396240234 6.299339294433594 C 56.17134475708008 4.110054016113281 50.67128753662109 3 45 3 M 45 0 C 69.85281372070312 0 90 20.14718627929688 90 45 C 90 69.85281372070312 69.85281372070312 90 45 90 C 20.14718627929688 90 0 69.85281372070312 0 45 C 0 20.14718627929688 20.14718627929688 0 45 0 Z" stroke="none" fill="#edae3b"/>
                  </g>
                </g>
              </g>
            </g>
          </g>
        </g>
      </g>
    </g>
    <g id="organizacion" transform="translate(174 6970)">
      <g id="Grupo_1160971" data-name="Grupo 1160971" transform="translate(1.923 1.923)">
        <g id="Grupo_1160956" data-name="Grupo 1160956" transform="translate(9.229 29.532)">
          <path id="Trazado_1013895" data-name="Trazado 1013895" d="M15.692,34l1.846,9.229H12L13.846,34Z" transform="translate(-12 -34)" fill="#ffeaa7"/>
        </g>
        <g id="Grupo_1160957" data-name="Grupo 1160957" transform="translate(10.382 25.841)">
          <path id="Trazado_1013896" data-name="Trazado 1013896" d="M16.48,31.615l-.692,2.076H13.942l-.692-2.076L14.865,30Z" transform="translate(-13.25 -30)" fill="#fcd770"/>
        </g>
        <g id="Grupo_1160958" data-name="Grupo 1160958" transform="translate(12.92 23.441)">
          <path id="Trazado_1013897" data-name="Trazado 1013897" d="M17.846,32.568,19.572,27.4a10.054,10.054,0,0,1,7.5,9.718v5.6H17.846L16,33.491l.692-2.076Z" transform="translate(-16 -27.4)" fill="#b4dd7f"/>
        </g>
        <g id="Grupo_1160959" data-name="Grupo 1160959" transform="translate(0 23.441)">
          <path id="Trazado_1013898" data-name="Trazado 1013898" d="M11.229,32.568l1.154-1.154.692,2.076L11.229,42.72H2v-5.6A10.057,10.057,0,0,1,9.5,27.4Z" transform="translate(-2 -27.4)" fill="#b4dd7f"/>
        </g>
        <g id="Grupo_1160960" data-name="Grupo 1160960" transform="translate(7.503 22.73)">
          <path id="Trazado_1013899" data-name="Trazado 1013899" d="M14.624,28.817l2.907-2.187a1.812,1.812,0,0,0,1.006.572q.291.055.581.138l-1.726,5.168-1.154-1.154L14.624,29.74l-1.615,1.615-1.154,1.154L10.13,27.341q.291-.083.581-.138a1.812,1.812,0,0,0,1.006-.572Z" transform="translate(-10.13 -26.63)" fill="#a0d468"/>
        </g>
        <g id="Grupo_1160961" data-name="Grupo 1160961" transform="translate(25.841 0)">
          <path id="Trazado_1013900" data-name="Trazado 1013900" d="M48.458,11.229v1.846h-.314a1.845,1.845,0,0,0-1.31,3.147l.231.231-2.612,2.612-.231-.231a1.845,1.845,0,0,0-3.147,1.31v.314H37.383v-.314a1.845,1.845,0,0,0-3.147-1.31l-.231.231-2.612-2.612.231-.231a1.845,1.845,0,0,0-1.31-3.147H30V9.383h.314a1.845,1.845,0,0,0,1.31-3.147l-.231-.231,2.612-2.612.231.231a1.845,1.845,0,0,0,3.147-1.31V2h3.691v.314a1.845,1.845,0,0,0,3.147,1.31l.231-.231,2.612,2.612-.231.231a1.845,1.845,0,0,0,1.31,3.147h.314Zm-5.537,0a3.692,3.692,0,1,0-3.692,3.692A3.69,3.69,0,0,0,42.92,11.229Z" transform="translate(-30 -2)" fill="#fcd770"/>
        </g>
        <g id="Grupo_1160962" data-name="Grupo 1160962" transform="translate(36.915 20.303)">
          <ellipse id="Elipse_11817" data-name="Elipse 11817" cx="9" cy="9.5" rx="9" ry="9.5" transform="translate(0.162 -0.226)" fill="#69d6f4"/>
        </g>
        <g id="Grupo_1160963" data-name="Grupo 1160963" transform="translate(42.452 44.298)">
          <path id="Trazado_1013901" data-name="Trazado 1013901" d="M59,50.563a.929.929,0,0,1,.074.36v9.229a.926.926,0,0,1-.923.923H48.923A.926.926,0,0,1,48,60.152V50.923A.926.926,0,0,1,48.923,50h9.229a.938.938,0,0,1,.849.554Z" transform="translate(-48 -50)" fill="#ff826e"/>
        </g>
        <g id="Grupo_1160964" data-name="Grupo 1160964" transform="translate(23.995 44.298)">
          <path id="Trazado_1013902" data-name="Trazado 1013902" d="M39,50.563a.929.929,0,0,1,.074.36v9.229a.926.926,0,0,1-.923.923H28.923A.926.926,0,0,1,28,60.152V50.923A.926.926,0,0,1,28.923,50h9.229a.938.938,0,0,1,.849.554Z" transform="translate(-28 -50)" fill="#ff826e"/>
        </g>
        <g id="Grupo_1160965" data-name="Grupo 1160965" transform="translate(5.537 44.298)">
          <path id="Trazado_1013903" data-name="Trazado 1013903" d="M19,50.563a.929.929,0,0,1,.074.36v9.229a.926.926,0,0,1-.923.923H8.923A.926.926,0,0,1,8,60.152V50.923A.926.926,0,0,1,8.923,50h9.229a.938.938,0,0,1,.849.554Z" transform="translate(-8 -50)" fill="#ff826e"/>
        </g>
        <g id="Grupo_1160966" data-name="Grupo 1160966" transform="translate(3.692)">
          <path id="Trazado_1013904" data-name="Trazado 1013904" d="M14.306,9.383H11.537L8.87,10.721a1.846,1.846,0,0,0-1.024,1.652v.7H6.923L6.2,10.906A3.737,3.737,0,0,1,6,9.669,3.911,3.911,0,0,1,8.962,5.876l.729-.185A6.814,6.814,0,0,1,12.156,3a6.684,6.684,0,0,1,3.507-1h.378a6.582,6.582,0,0,1,6.377,8.167l-.268,1.061-.461,1.846h-.923v-1.08a1.851,1.851,0,0,0-.544-1.31l-1.3-1.3Z" transform="translate(-6 -2)" fill="#656d78"/>
        </g>
        <g id="Grupo_1160967" data-name="Grupo 1160967" transform="translate(18.384 11.075)">
          <path id="Trazado_1013905" data-name="Trazado 1013905" d="M25.141,17.147a1.8,1.8,0,0,1-1.3.544H21.994l-.074-.009a4.951,4.951,0,0,0,.074-.914V14H23.84a1.851,1.851,0,0,1,1.846,1.846A1.8,1.8,0,0,1,25.141,17.147Z" transform="translate(-21.92 -14)" fill="#f0d0b4"/>
        </g>
        <g id="Grupo_1160968" data-name="Grupo 1160968" transform="translate(9.09 19.989)">
          <path id="Trazado_1013906" data-name="Trazado 1013906" d="M17.664,26.4l-2.907,2.187L11.85,26.4a1.792,1.792,0,0,0,.425-.794l.489-1.947a6.489,6.489,0,0,0,3.987,0l.489,1.947a1.792,1.792,0,0,0,.425.794Z" transform="translate(-11.85 -23.66)" fill="#f0d0b4"/>
        </g>
        <g id="Grupo_1160969" data-name="Grupo 1160969" transform="translate(5.537 7.383)">
          <path id="Trazado_1013907" data-name="Trazado 1013907" d="M14.46,10h4.614l1.3,1.3a1.851,1.851,0,0,1,.544,1.31V16.46a4.951,4.951,0,0,1-.074.914A6.453,6.453,0,0,1,9.892,21.028a6.369,6.369,0,0,1-1.818-3.655A4.951,4.951,0,0,1,8,16.46V12.99a1.846,1.846,0,0,1,1.024-1.652L11.692,10Z" transform="translate(-8 -10)" fill="#f0d0b4"/>
        </g>
        <g id="Grupo_1160970" data-name="Grupo 1160970" transform="translate(1.846 11.075)">
          <path id="Trazado_1013908" data-name="Trazado 1013908" d="M7.692,16.769a4.951,4.951,0,0,0,.074.914l-.074.009H5.846A1.859,1.859,0,0,1,4,15.846,1.851,1.851,0,0,1,5.846,14H7.692Z" transform="translate(-4 -14)" fill="#f0d0b4"/>
        </g>
      </g>
      <g id="Grupo_1160972" data-name="Grupo 1160972" transform="translate(1 1)">
        <circle id="Elipse_11818" data-name="Elipse 11818" cx="1" cy="1" r="1" transform="translate(9 11)"/>
        <circle id="Elipse_11819" data-name="Elipse 11819" cx="1" cy="1" r="1" transform="translate(15 11)"/>
        <path id="Trazado_1013909" data-name="Trazado 1013909" d="M16.545,17.748a2.064,2.064,0,0,1-3.692,0l-.1-.195-1.651.826.1.194a3.909,3.909,0,0,0,6.994,0l.1-.195-1.651-.826Z" transform="translate(-1.779 -2.277)"/>
        <path id="Trazado_1013910" data-name="Trazado 1013910" d="M0,0H1.846V5.221H0Z" transform="translate(10.42 7.114) rotate(-45)"/>
        <path id="Trazado_1013911" data-name="Trazado 1013911" d="M56.575,43.8l-1.32,1.65a1.845,1.845,0,0,0-.728-.15H50.835V41.213a10.141,10.141,0,0,0,0-19.517V13a2.772,2.772,0,0,0-2.769-2.769h-.923V8.383H45.9a.923.923,0,0,1-.654-1.574l.879-.877L42.214,2.016l-.878.876a.923.923,0,0,1-1.575-.652V1H34.224V2.239a.923.923,0,0,1-1.576.652l-.877-.875L27.856,5.932l.878.876a.923.923,0,0,1-.653,1.575H26.841v1.846h-3.9A7.475,7.475,0,0,0,15.652,1h-.374A7.555,7.555,0,0,0,8.686,4.818L8.356,4.9a4.835,4.835,0,0,0-3.416,6.223l.329.987a2.761,2.761,0,0,0,.345,5.5H6.78a7.4,7.4,0,0,0,4.053,4.852l-.293,1.174a.927.927,0,0,1-.714.681A11.008,11.008,0,0,0,1,35.085v6.522H26.841V35.085a11.007,11.007,0,0,0-8.825-10.765.926.926,0,0,1-.714-.681l-.293-1.174a7.406,7.406,0,0,0,4.053-4.852h1.166a2.761,2.761,0,0,0,.252-5.511l.006-.027h4.356V13.92H28.08a.923.923,0,0,1,.654,1.574l-.879.877,3.915,3.916.878-.876a.923.923,0,0,1,1.575.652V21.3h5.537V20.064a.923.923,0,0,1,1.576-.652l.877.875,3.915-3.916-.878-.876A.923.923,0,0,1,45.9,13.92h1.239V12.075h.923A.924.924,0,0,1,48.99,13V21.35c-.3-.028-.611-.047-.923-.047a10.152,10.152,0,1,0,0,20.3c.312,0,.618-.019.923-.047V45.3H45.3a1.848,1.848,0,0,0-1.846,1.846v3.692H37.915V47.144c0-.042-.009-.08-.012-.122l1.657-2.07L38.117,43.8l-1.32,1.65a1.845,1.845,0,0,0-.728-.15H26.841a1.848,1.848,0,0,0-1.846,1.846v3.692H19.458V47.144c0-.042-.009-.08-.012-.122l1.657-2.07L19.66,43.8l-1.32,1.65a1.845,1.845,0,0,0-.728-.15H8.383a1.848,1.848,0,0,0-1.846,1.846v9.229a1.848,1.848,0,0,0,1.846,1.846h9.229a1.848,1.848,0,0,0,1.846-1.846V52.681h5.537v3.691a1.848,1.848,0,0,0,1.846,1.846h9.229a1.848,1.848,0,0,0,1.846-1.846V52.681h5.537v3.691A1.848,1.848,0,0,0,45.3,58.218h9.229a1.848,1.848,0,0,0,1.846-1.846V47.144c0-.042-.009-.08-.012-.122l1.657-2.07ZM6.537,15.766H5.614a.923.923,0,0,1,0-1.846h.923Zm4.476,10.047,2.029,1.523-1.489,1.488L10.614,26a2.784,2.784,0,0,0,.4-.19Zm2.907-.126-1.7-1.274a2.835,2.835,0,0,0,.108-.328l.266-1.062a7.054,7.054,0,0,0,2.65,0l.266,1.062a2.682,2.682,0,0,0,.108.329Zm.559,3.941-.3.9h-.516l-.3-.9.56-.559ZM10.395,39.761H8.383v-7A4.046,4.046,0,0,0,7.19,29.88l-1.3,1.3a2.214,2.214,0,0,1,.652,1.575v7H2.846V35.085a9.161,9.161,0,0,1,5.994-8.57l1.909,5.726L11.9,31.088l.142.427Zm1.883,0,1.477-7.383h.333l1.477,7.383ZM19,26.515a9.159,9.159,0,0,1,5.994,8.57v4.676H21.3v-7a2.213,2.213,0,0,1,.652-1.575l-1.3-1.3a4.046,4.046,0,0,0-1.193,2.88v7H17.446L15.8,31.514l.142-.427,1.154,1.154ZM17.226,26l-.94,2.82L14.8,27.336l2.03-1.523a2.869,2.869,0,0,0,.4.19Zm3.727-15.41a2.778,2.778,0,0,0-.461-.635L17.341,6.808l-1.3,1.3,3.151,3.151a.919.919,0,0,1,.27.653v3.849a5.537,5.537,0,0,1-11.075,0V12.292a.917.917,0,0,1,.51-.825l2.672-1.335-.826-1.651L8.067,9.816a2.751,2.751,0,0,0-1.216,1.2l-.161-.482A2.992,2.992,0,0,1,8.8,6.691l1.138-.285.19-.379a5.725,5.725,0,0,1,5.148-3.181h.374a5.65,5.65,0,0,1,5.482,7.021Zm2.2,4.25a.924.924,0,0,1-.923.923H21.3V13.92h.923A.924.924,0,0,1,23.149,14.843Zm22.149-2.7a2.776,2.776,0,0,0-1.735,4.189l-1.4,1.4a2.776,2.776,0,0,0-4.189,1.735H36a2.776,2.776,0,0,0-4.189-1.735l-1.4-1.4a2.776,2.776,0,0,0-1.735-4.189V10.164A2.776,2.776,0,0,0,30.42,5.975l1.4-1.4a2.777,2.777,0,0,0,4.19-1.734H37.98A2.721,2.721,0,0,0,39.624,4.8a2.717,2.717,0,0,0,2.544-.217l1.4,1.4A2.776,2.776,0,0,0,45.3,10.165v1.973ZM8.383,56.373V47.144h8.6l-3.919,4.9-1.145-1.718-1.536,1.023,2.546,3.819,4.682-5.853,0,7.059Zm18.458,0V47.144h8.6l-3.919,4.9-1.145-1.718-1.536,1.023,2.546,3.819,4.682-5.853,0,7.059Zm20.3-20.3v3.637a8.316,8.316,0,0,1-7.329-7.329h3.637V30.532H39.815A8.317,8.317,0,0,1,47.144,23.2v3.637H48.99V23.2a8.317,8.317,0,0,1,7.329,7.329H52.681v1.846h3.637a8.316,8.316,0,0,1-7.329,7.329V36.069ZM45.3,56.373V47.144h8.6l-3.919,4.9-1.145-1.718L47.3,51.347l2.546,3.819,4.682-5.853,0,7.059Z" transform="translate(-1 -1)"/>
        <path id="Trazado_1013912" data-name="Trazado 1013912" d="M55.688,29.293l-4.079,4.079-2.139-1.426-1.024,1.536,3.4,2.266,5.15-5.15Z" transform="translate(-4.659 -3.182)"/>
        <path id="Trazado_1013913" data-name="Trazado 1013913" d="M39.614,7a4.614,4.614,0,1,0,4.614,4.614A4.62,4.62,0,0,0,39.614,7Zm0,7.383a2.769,2.769,0,1,1,2.769-2.769A2.772,2.772,0,0,1,39.614,14.383Z" transform="translate(-3.622 -1.463)"/>
      </g>
    </g>
  </g>
</svg>
