<svg xmlns="http://www.w3.org/2000/svg" xmlns:xlink="http://www.w3.org/1999/xlink" width="110" height="110" viewBox="0 0 110 110">
  <defs>
    <filter id="Trazado_982547" x="0" y="0" width="110" height="110" filterUnits="userSpaceOnUse">
      <feOffset dy="3" input="SourceAlpha"/>
      <feGaussianBlur stdDeviation="3" result="blur"/>
      <feFlood flood-opacity="0.161"/>
      <feComposite operator="in" in2="blur"/>
      <feComposite in="SourceGraphic"/>
    </filter>
  </defs>
  <g id="Grupo_1160663" data-name="Grupo 1160663" transform="translate(-800 -6066)">
    <g id="Grupo_1158637" data-name="Grupo 1158637" transform="translate(-1 2772.334)">
      <g id="Grupo_1155724" data-name="Grupo 1155724" transform="translate(0 -1390)">
        <g id="Grupo_1154703" data-name="Grupo 1154703" transform="translate(0 1465.666)">
          <g id="Grupo_1150789" data-name="Grupo 1150789" transform="translate(3 2320)">
            <g id="Grupo_1154212" data-name="Grupo 1154212" transform="translate(-236 -5809)">
              <g id="Grupo_1152583" data-name="Grupo 1152583" transform="translate(1043 6713)">
                <g id="Grupo_1146973" data-name="Grupo 1146973" transform="translate(0 0)">
                  <g id="Grupo_1146954" data-name="Grupo 1146954">
                    <g transform="matrix(1, 0, 0, 1, -9, -6)" filter="url(#Trazado_982547)">
                      <g id="Trazado_982547-2" data-name="Trazado 982547" transform="translate(9 6)" fill="#fcf3f0">
                        <path d="M 46 90.49987030029297 C 39.99187850952148 90.49987030029297 34.16426849365234 89.32350921630859 28.67905426025391 87.00345611572266 C 23.38019943237305 84.76224517822266 18.62104034423828 81.55341339111328 14.53374671936035 77.46613311767578 C 10.44646644592285 73.37885284423828 7.237639904022217 68.61969757080078 4.996413230895996 63.32085418701172 C 2.676359891891479 57.83565521240234 1.5 52.008056640625 1.5 45.99993515014648 C 1.5 39.99181365966797 2.676359891891479 34.16421508789062 4.996413230895996 28.67901420593262 C 7.237639904022217 23.38017463684082 10.44646644592285 18.62101554870605 14.53374671936035 14.53373527526855 C 18.62104034423828 10.44645500183105 23.38019943237305 7.23762845993042 28.67905426025391 4.996415138244629 C 34.16426849365234 2.676361799240112 39.99187850952148 1.500001788139343 46 1.500001788139343 C 52.00812149047852 1.500001788139343 57.83573150634766 2.676361799240112 63.32094573974609 4.996415138244629 C 68.61979675292969 7.23762845993042 73.37895965576172 10.44645500183105 77.46625518798828 14.53373527526855 C 81.55353546142578 18.62101554870605 84.76235961914062 23.38017463684082 87.00358581542969 28.67901420593262 C 89.32363891601562 34.16421508789062 90.5 39.99181365966797 90.5 45.99993515014648 C 90.5 52.008056640625 89.32363891601562 57.83565521240234 87.00358581542969 63.32085418701172 C 84.76235961914062 68.61969757080078 81.55353546142578 73.37885284423828 77.46625518798828 77.46613311767578 C 73.37895965576172 81.55341339111328 68.61979675292969 84.76224517822266 63.32094573974609 87.00345611572266 C 57.83573150634766 89.32350921630859 52.00812149047852 90.49987030029297 46 90.49987030029297 Z" stroke="none"/>
                        <path d="M 46 2.999992370605469 C 40.1937141418457 2.999992370605469 34.56269836425781 4.136489868164062 29.26337051391602 6.377906799316406 C 24.14332580566406 8.543502807617188 19.54441070556641 11.64437866210938 15.59439849853516 15.59437561035156 C 11.64440155029297 19.54439544677734 8.54351806640625 24.14329528808594 6.377914428710938 29.26333618164062 C 4.136497497558594 34.56264877319336 3 40.19366455078125 3 45.99993515014648 C 3 51.80620574951172 4.136497497558594 57.43720626831055 6.377914428710938 62.73651885986328 C 8.54351806640625 67.8565673828125 11.64440155029297 72.45545959472656 15.59439849853516 76.40547943115234 C 19.54441070556641 80.35547637939453 24.14332580566406 83.45635223388672 29.26337051391602 85.6219482421875 C 34.56269836425781 87.86336517333984 40.1937141418457 88.99986267089844 46 88.99986267089844 C 51.8062858581543 88.99986267089844 57.43730163574219 87.86336517333984 62.73661422729492 85.6219482421875 C 67.85667419433594 83.45635223388672 72.45557403564453 80.35547637939453 76.40558624267578 76.40547943115234 C 80.35559844970703 72.45545959472656 83.45647430419922 67.8565673828125 85.6220703125 62.73651885986328 C 87.86350250244141 57.43720626831055 89 51.80620574951172 89 45.99993515014648 C 89 40.19366455078125 87.86350250244141 34.56264877319336 85.6220703125 29.26333618164062 C 83.45647430419922 24.14329528808594 80.35559844970703 19.54439544677734 76.40558624267578 15.59437561035156 C 72.45557403564453 11.64437866210938 67.85667419433594 8.543502807617188 62.73661422729492 6.377906799316406 C 57.43730163574219 4.136489868164062 51.8062858581543 2.999992370605469 46 2.999992370605469 M 46 -7.62939453125e-06 C 71.40509033203125 -7.62939453125e-06 92 20.59486389160156 92 45.99993515014648 C 92 71.40499114990234 71.40509033203125 91.99986267089844 46 91.99986267089844 C 20.59490203857422 91.99986267089844 0 71.40499114990234 0 45.99993515014648 C 0 20.59486389160156 20.59490203857422 -7.62939453125e-06 46 -7.62939453125e-06 Z" stroke="none" fill="#e89076"/>
                      </g>
                    </g>
                  </g>
                </g>
              </g>
            </g>
          </g>
        </g>
      </g>
    </g>
    <g id="signo-de-interrogacion" transform="translate(824 6086.999)">
      <g id="Grupo_1160657" data-name="Grupo 1160657" transform="translate(1.156 1.148)">
        <path id="Trazado_1013413" data-name="Trazado 1013413" d="M194.035,147.369a2.733,2.733,0,0,0,2.733-2.733c0-1.528.993-2.388,1.984-3.246,1.934-1.674,3.863-3.344,3.863-7.307a8.581,8.581,0,0,0-16.87-2.221,2.734,2.734,0,1,0,5.289,1.388,3.114,3.114,0,0,1,6.115.834c0,1.487-.98,2.335-1.962,3.185-1.94,1.679-3.885,3.363-3.885,7.367A2.733,2.733,0,0,0,194.035,147.369Z" transform="translate(-164.364 -111.478)" fill="#fff" fill-rule="evenodd"/>
        <path id="Trazado_1013414" data-name="Trazado 1013414" d="M237.978,343.018a2.733,2.733,0,1,0-2.733,2.733A2.733,2.733,0,0,0,237.978,343.018Z" transform="translate(-205.573 -300.294)" fill="#fff" fill-rule="evenodd"/>
        <path id="Trazado_1013415" data-name="Trazado 1013415" d="M74.615,84.656a2.733,2.733,0,1,1-2.733,2.733A2.733,2.733,0,0,1,74.615,84.656Zm4.717-10.079c-.991.858-1.984,1.718-1.984,3.246a2.733,2.733,0,1,1-5.466,0c0-4,1.945-5.688,3.885-7.367.982-.85,1.962-1.7,1.962-3.185a3.114,3.114,0,0,0-6.115-.834,2.734,2.734,0,1,1-5.289-1.388A8.581,8.581,0,0,1,83.2,67.271c0,3.963-1.929,5.633-3.863,7.307ZM49.81,74.407a24.9,24.9,0,0,0,24.9,24.9c33-1.221,32.99-48.592,0-49.808A24.9,24.9,0,0,0,49.81,74.407Z" transform="translate(-44.944 -44.666)" fill="#ff7d97" fill-rule="evenodd"/>
        <path id="Trazado_1013416" data-name="Trazado 1013416" d="M64.233,39.231a24.9,24.9,0,0,1-24.9,24.9c-33-1.221-32.99-48.592,0-49.808A24.9,24.9,0,0,1,64.233,39.231ZM23.8,64.6c19.353,12.149,45.5-2.338,45.265-25.369A29.739,29.739,0,0,0,39.329,9.492C16.3,9.256,1.81,35.4,13.959,54.755q-1.285,4.79-2.57,9.584a2.316,2.316,0,0,0,2.862,2.823L23.8,64.6Z" transform="translate(-9.559 -9.49)" fill="#f8e3ee" fill-rule="evenodd"/>
      </g>
      <g id="Grupo_1160658" data-name="Grupo 1160658" transform="translate(0 0.001)">
        <path id="Trazado_1013417" data-name="Trazado 1013417" d="M52.81,9.006C41.289-3,20.562-3,9.042,9.006-.872,18.619-2.885,34.812,4.255,46.6q-1.219,4.542-2.438,9.089a3.535,3.535,0,0,0,4.35,4.3l9.049-2.427C27,64.7,43.194,62.689,52.81,52.773,64.815,41.254,64.816,20.525,52.81,9.006ZM30.926,59.42a28.47,28.47,0,0,1-14.894-4.192,1.209,1.209,0,0,0-.945-.137l-.141.038L5.534,57.653l-.015,0a1.094,1.094,0,0,1-1.075-.283,1.078,1.078,0,0,1-.291-1.064q1.285-4.795,2.57-9.583a1.208,1.208,0,0,0-.137-.945C-5.11,27.23,8.966,2.077,30.926,2.359c37.8,1.433,37.789,55.632,0,57.061Z" transform="translate(0 -0.001)"/>
        <path id="Trazado_1013418" data-name="Trazado 1013418" d="M84.222,47.321a26.216,26.216,0,0,0-32.482-3.57,1.209,1.209,0,0,0,1.3,2.039c15.383-10.084,36.652,1.577,36.412,20A23.721,23.721,0,0,1,65.757,89.48c-18.417.237-30.081-21.028-20-36.412a1.209,1.209,0,0,0-2.039-1.3C32.662,68.949,45.308,92.028,65.758,91.9c23.178-.022,34.838-28.174,18.464-44.577Z" transform="translate(-34.832 -34.897)"/>
        <path id="Trazado_1013419" data-name="Trazado 1013419" d="M190.753,133.512c7.564-5.271,4.671-17.695-5.509-18.01a9.8,9.8,0,0,0-9.457,7.255,3.943,3.943,0,1,0,7.624,2.014,1.907,1.907,0,0,1,3.738.52c0,.891-.558,1.417-1.545,2.271-2.017,1.746-4.3,3.724-4.3,8.281a3.942,3.942,0,0,0,7.884,0C189.187,134.913,189.753,134.378,190.753,133.512Zm-3.984,2.332a1.524,1.524,0,1,1-3.049,0c0-3.452,1.607-4.842,3.467-6.453,1.06-.918,2.38-2.06,2.38-4.1a4.323,4.323,0,0,0-8.488-1.156l-.006.023a1.525,1.525,0,1,1-2.95-.775,7.372,7.372,0,0,1,14.493,1.909c0,3.41-1.6,4.792-3.445,6.393C188.1,132.61,186.769,133.763,186.769,135.844Z" transform="translate(-154.418 -101.539)"/>
        <path id="Trazado_1013420" data-name="Trazado 1013420" d="M226.327,330.285a3.942,3.942,0,1,0,3.942,3.942A3.947,3.947,0,0,0,226.327,330.285Zm0,5.466a1.524,1.524,0,1,1,1.524-1.524A1.526,1.526,0,0,1,226.327,335.751Z" transform="translate(-195.5 -290.356)"/>
        <path id="Trazado_1013421" data-name="Trazado 1013421" d="M101.35,102.258a1.209,1.209,0,1,0-.89-2.026h0a1.209,1.209,0,0,0,.891,2.025Z" transform="translate(-88.035 -87.77)"/>
      </g>
    </g>
  </g>
</svg>
