<svg xmlns="http://www.w3.org/2000/svg" xmlns:xlink="http://www.w3.org/1999/xlink" width="610" height="391" viewBox="0 0 610 391">
  <defs>
    <clipPath id="clip-path">
      <rect id="Rectángulo_409847" data-name="Rectángulo 409847" width="610" height="391" fill="#fff" stroke="#707070" stroke-width="1" opacity="0.63"/>
    </clipPath>
    <filter id="Trazado_1013422" x="26" y="0.75" width="534.532" height="449.586" filterUnits="userSpaceOnUse">
      <feOffset dy="3" input="SourceAlpha"/>
      <feGaussianBlur stdDeviation="3" result="blur"/>
      <feFlood flood-opacity="0.161"/>
      <feComposite operator="in" in2="blur"/>
      <feComposite in="SourceGraphic"/>
    </filter>
    <clipPath id="clip-path-2">
      <path id="Trazado_1013559" data-name="Trazado 1013559" d="M351.079,26.5c-66.08-4.374-134.2,8.088-191.131,41.928S58.346,158.575,44.971,223.435s7.253,137.246,57.287,180.632c42.961,37.255,101.422,50.443,157.76,58.163,53.027,7.267,108.342,10.615,158.884-7,62.694-21.854,112.429-76.41,130.564-140.28s5-135.386-32.8-189.969S417.752,30.908,351.079,26.5Z" transform="translate(-40.99 -25.653)"/>
    </clipPath>
  </defs>
  <g id="Enmascarar_grupo_1098787" data-name="Enmascarar grupo 1098787" clip-path="url(#clip-path)">
    <g id="Grupo_1160730" data-name="Grupo 1160730" transform="translate(35 -4.123)">
      <g transform="matrix(1, 0, 0, 1, -35, 4.12)" filter="url(#Trazado_1013422)">
        <path id="Trazado_1013422-2" data-name="Trazado 1013422" d="M351.079,26.474c-66.08-4.266-134.2,7.89-191.131,40.9s-101.6,87.937-114.977,151.2,7.253,133.874,57.287,176.194c42.961,36.34,101.422,49.2,157.76,56.734,53.027,7.088,108.342,10.354,158.884-6.831,62.694-21.317,112.429-74.533,130.564-136.833s5-132.059-32.8-185.3S417.752,30.779,351.079,26.474Z" transform="translate(-5.99 -18.9)" fill="#88bba9"/>
      </g>
      <g id="OBJECTS" transform="translate(0 0)">
        <g id="Grupo_1160728" data-name="Grupo 1160728">
          <g id="Grupo_1160673" data-name="Grupo 1160673" transform="translate(183.71 29.758)">
            <g id="Grupo_1160664" data-name="Grupo 1160664" transform="translate(54.496 5.925)">
              <path id="Trazado_1013423" data-name="Trazado 1013423" d="M287.555,105.747a49.023,49.023,0,0,1,8.158-32.019c2.7-3.968,6.239-7.7,10.864-8.974,2.631-.725,5.79-.452,7.6,1.592,1.907,2.158,1.673,5.426,1.1,8.247-1.09,5.355-2.994,10.508-4.28,15.818s-1.941,10.934-.507,16.207Z" transform="translate(-283.463 -62.006)" fill="#2e2854" opacity="0.15"/>
              <path id="Trazado_1013424" data-name="Trazado 1013424" d="M283.984,104.564A49.023,49.023,0,0,1,290.2,72.113c2.453-4.123,5.765-8.058,10.305-9.61,2.582-.882,5.752-.8,7.679,1.133,2.033,2.04,2,5.315,1.591,8.166-.766,5.411-2.358,10.669-3.322,16.046s-1.281,11.032.467,16.208Z" transform="translate(-283.395 -61.964)" fill="#f7a145"/>
              <path id="Trazado_1013425" data-name="Trazado 1013425" d="M298.912,75.8a57.875,57.875,0,0,0-2.742,30.943" transform="translate(-283.599 -62.204)" fill="none" stroke="#2e2854" stroke-linecap="round" stroke-linejoin="round" stroke-miterlimit="10" stroke-width="1.5"/>
            </g>
            <g id="Grupo_1160665" data-name="Grupo 1160665" transform="translate(5.513 0.528)">
              <path id="Trazado_1013426" data-name="Trazado 1013426" d="M278.111,164.763c-12.649-6.273-21.909-18.106-27.456-31.09s-7.722-27.143-9.109-41.193c-.664-6.726-1.146-13.623.59-20.154s6.088-12.732,12.466-14.968c8.559-3,18.226,2,23.688,9.246s7.776,16.293,10.466,24.957,6.149,17.583,13.1,23.414Z" transform="translate(-233.676 -56.472)" fill="#2e2854" opacity="0.15"/>
              <path id="Trazado_1013427" data-name="Trazado 1013427" d="M274.221,164.407c-12.9-5.731-22.657-17.161-28.75-29.9S236.6,107.719,234.623,93.74c-.949-6.692-1.723-13.562-.265-20.162S239.9,60.6,246.177,58.1c8.424-3.362,18.295,1.229,24.058,8.234s8.46,15.949,11.514,24.49,6.889,17.307,14.078,22.838Z" transform="translate(-233.548 -56.481)" fill="#49ad9f"/>
              <path id="Trazado_1013428" data-name="Trazado 1013428" d="M249.559,86.669a112.519,112.519,0,0,0,38.006,53.762" transform="translate(-233.825 -56.995)" fill="none" stroke="#2e2854" stroke-linecap="round" stroke-linejoin="round" stroke-miterlimit="10" stroke-width="1.5"/>
            </g>
            <g id="Grupo_1160666" data-name="Grupo 1160666" transform="translate(0 141.496)">
              <path id="Trazado_1013429" data-name="Trazado 1013429" d="M275.576,252.879c-5.9,4.024-14.308,1.582-19.572-3.244s-8.355-11.5-12.183-17.523-9.062-11.878-15.883-13.243a28.3,28.3,0,0,1,49.549,2.922C281.824,230.949,280.947,241.744,275.576,252.879Z" transform="translate(-227.938 -200.023)" fill="#2e2854" opacity="0.15"/>
              <path id="Trazado_1013430" data-name="Trazado 1013430" d="M273.582,249.166c-6.227,3.494-14.391.33-19.215-4.935s-7.322-12.18-10.612-18.518-7.994-12.622-14.67-14.575a28.3,28.3,0,0,1,49.107,7.226C281.715,227.864,279.9,238.54,273.582,249.166Z" transform="translate(-227.958 -199.925)" fill="#f7a145"/>
              <path id="Trazado_1013431" data-name="Trazado 1013431" d="M242.074,210.322c9.7.062,18.265,7.137,22.905,15.66s6.1,18.362,7.486,27.967" transform="translate(-228.183 -200.105)" fill="none" stroke="#2e2854" stroke-linecap="round" stroke-linejoin="round" stroke-miterlimit="10" stroke-width="1.5"/>
            </g>
            <g id="Grupo_1160667" data-name="Grupo 1160667" transform="translate(25.103 311.772)">
              <path id="Trazado_1013432" data-name="Trazado 1013432" d="M316.374,374.825a34.037,34.037,0,0,0-34.361,10.093c-6.613,7.594-9.406,17.666-12.817,27.141s-8.136,19.268-15.712,24.118c17.474,5.259,37.738,2.688,51.786-8.958A43.823,43.823,0,0,0,316.374,374.825Z" transform="translate(-253.483 -373.208)" fill="#2e2854" opacity="0.15"/>
              <path id="Trazado_1013433" data-name="Trazado 1013433" d="M319.17,378.89A34.038,34.038,0,0,0,285.88,392.1c-5.888,8.17-7.744,18.455-10.27,28.2s-6.331,19.934-13.43,25.459c17.883,3.631,37.825-.79,50.744-13.678A43.822,43.822,0,0,0,319.17,378.89Z" transform="translate(-253.634 -373.291)" fill="#49ad9f"/>
              <path id="Trazado_1013434" data-name="Trazado 1013434" d="M321.6,373.2a108.569,108.569,0,0,1-30.755,54.544" transform="translate(-254.13 -373.202)" fill="none" stroke="#2e2854" stroke-linecap="round" stroke-linejoin="round" stroke-miterlimit="10" stroke-width="1.5"/>
            </g>
            <g id="Grupo_1160668" data-name="Grupo 1160668" transform="translate(68.316 344.891)">
              <path id="Trazado_1013435" data-name="Trazado 1013435" d="M324.041,406.9c-18.291,11.058-29,33.473-26.117,54.651a27.374,27.374,0,0,0,3.811,11.458c2.233,3.389,5.824,6.056,9.867,6.415,6.926.612,12.782-5.561,15.1-12.115s2.251-13.706,3.913-20.457,5.906-13.7,12.709-15.131Z" transform="translate(-297.458 -406.905)" fill="#2e2854" opacity="0.15"/>
              <path id="Trazado_1013436" data-name="Trazado 1013436" d="M323.443,412.379c-16.393,13.714-23.567,37.5-17.49,57.991a27.378,27.378,0,0,0,5.512,10.744c2.723,3.01,6.679,5.1,10.729,4.838,6.938-.45,11.786-7.442,13.079-14.273s.138-13.889.752-20.814,3.75-14.44,10.256-16.89Z" transform="translate(-297.568 -407)" fill="#f7a145"/>
              <path id="Trazado_1013437" data-name="Trazado 1013437" d="M335.663,420.241a55.411,55.411,0,0,0-14.815,44.871" transform="translate(-297.856 -407.136)" fill="none" stroke="#2e2854" stroke-linecap="round" stroke-linejoin="round" stroke-miterlimit="10" stroke-width="1.5"/>
            </g>
            <g id="Grupo_1160669" data-name="Grupo 1160669" transform="translate(224.318 244.856)">
              <path id="Trazado_1013438" data-name="Trazado 1013438" d="M457.279,320.308c6.018-6.228,14.669-9.229,23.219-10.618a80.314,80.314,0,0,1,51.407,8.977A55.023,55.023,0,0,1,548.012,331.6a34.075,34.075,0,0,1,7.918,18.861c.347,4.93-.846,10.335-4.653,13.486-4.614,3.82-11.484,3.156-17.124,1.135-9.691-3.47-17.87-10.152-27.082-14.748s-20.781-6.883-29.49-1.394Z" transform="translate(-456.228 -305.169)" fill="#2e2854" opacity="0.15"/>
              <path id="Trazado_1013439" data-name="Trazado 1013439" d="M456.21,319.511c5.55-6.648,13.961-10.269,22.386-12.275a80.314,80.314,0,0,1,51.923,5.224,55.005,55.005,0,0,1,17,11.732,34.078,34.078,0,0,1,9.266,18.236c.7,4.892-.094,10.369-3.662,13.789-4.324,4.144-11.225,3.981-17,2.375-9.918-2.758-18.559-8.829-28.08-12.744s-21.225-5.357-29.514.749Z" transform="translate(-456.21 -305.107)" fill="#49ad9f"/>
              <path id="Trazado_1013440" data-name="Trazado 1013440" d="M467.672,332.584c9.277-3.966,18.749-7.984,28.8-8.862s20.963,1.9,27.512,9.574" transform="translate(-456.408 -305.426)" fill="none" stroke="#2e2854" stroke-linecap="round" stroke-linejoin="round" stroke-miterlimit="10" stroke-width="1.5"/>
            </g>
            <g id="Grupo_1160670" data-name="Grupo 1160670" transform="translate(274.724 202.474)">
              <path id="Trazado_1013441" data-name="Trazado 1013441" d="M528.16,266.552c10.047,9.546,24.757,12,38.563,13.217a52.092,52.092,0,0,1,11.618,1.855c3.738,1.218,7.291,3.486,9.215,6.914,3.082,5.5,1.124,12.814-3.295,17.307s-10.746,6.594-16.978,7.526c-21.43,3.208-44.291-6.681-56.628-24.5Z" transform="translate(-507.559 -262.057)" fill="#2e2854" opacity="0.15"/>
              <path id="Trazado_1013442" data-name="Trazado 1013442" d="M523.733,261.978c10.566,8.969,25.39,10.6,39.241,11.039a52.072,52.072,0,0,1,11.7,1.2c3.8,1.006,7.475,3.072,9.586,6.388,3.384,5.314,1.839,12.731-2.321,17.464s-10.36,7.184-16.53,8.464c-21.217,4.4-44.6-4.194-57.909-21.293Z" transform="translate(-507.504 -261.978)" fill="#f7a145"/>
              <path id="Trazado_1013443" data-name="Trazado 1013443" d="M510.61,271.862a81.838,81.838,0,0,0,44.972,17.668" transform="translate(-507.558 -262.149)" fill="none" stroke="#2e2854" stroke-linecap="round" stroke-linejoin="round" stroke-miterlimit="10" stroke-width="1.5"/>
            </g>
            <g id="Grupo_1160671" data-name="Grupo 1160671" transform="translate(192.235 27.224)">
              <path id="Trazado_1013444" data-name="Trazado 1013444" d="M427.135,153.119c14.722-9.688,23.955-25.549,33.28-40.5,3.851-6.178,7.974-12.468,14.025-16.517s14.558-5.309,20.5-1.108c3.735,2.64,5.945,7.063,6.66,11.58a35.235,35.235,0,0,1-.986,13.6c-6.277,26.385-28.322,48.361-54.725,54.557Z" transform="translate(-423.623 -83.791)" fill="#2e2854" opacity="0.15"/>
              <path id="Trazado_1013445" data-name="Trazado 1013445" d="M423.561,146.626c14.335-10.25,22.949-26.457,31.689-41.761,3.609-6.323,7.486-12.768,13.375-17.048s14.342-5.869,20.445-1.9c3.834,2.494,6.214,6.827,7.1,11.314a35.226,35.226,0,0,1-.459,13.626c-5.251,26.608-26.429,49.421-52.573,56.635Z" transform="translate(-423.561 -83.639)" fill="#49ad9f"/>
              <path id="Trazado_1013446" data-name="Trazado 1013446" d="M470.69,121.2a139.145,139.145,0,0,1-42.414,40.071" transform="translate(-423.643 -84.29)" fill="none" stroke="#2e2854" stroke-linecap="round" stroke-linejoin="round" stroke-miterlimit="10" stroke-width="1.5"/>
            </g>
            <g id="Grupo_1160672" data-name="Grupo 1160672" transform="translate(185.619)">
              <path id="Trazado_1013447" data-name="Trazado 1013447" d="M422.962,137.776a51.309,51.309,0,0,1,11.16-52.093c4.034-4.152,8.752-7.574,12.971-11.537a44.077,44.077,0,0,0,10.923-15.5c4.108,11.12,6.989,22.855,6.742,34.708s-3.82,23.878-11.443,32.957S433.742,141.133,422.962,137.776Z" transform="translate(-416.885 -55.982)" fill="#2e2854" opacity="0.15"/>
              <path id="Trazado_1013448" data-name="Trazado 1013448" d="M420.719,136.912a51.309,51.309,0,0,1,8.211-52.638c3.794-4.372,8.312-8.054,12.3-12.248a44.072,44.072,0,0,0,10.033-16.09c4.727,10.871,8.263,22.425,8.685,34.274s-2.469,24.055-9.57,33.549S431.671,139.656,420.719,136.912Z" transform="translate(-416.829 -55.935)" fill="#f7a145"/>
              <path id="Trazado_1013449" data-name="Trazado 1013449" d="M445.14,88.918a93.924,93.924,0,0,1-25.573,52.319" transform="translate(-416.876 -56.506)" fill="none" stroke="#2e2854" stroke-linecap="round" stroke-linejoin="round" stroke-miterlimit="10" stroke-width="1.5"/>
            </g>
          </g>
          <g id="Grupo_1160695" data-name="Grupo 1160695" transform="translate(219.709 69.821)">
            <g id="Grupo_1160674" data-name="Grupo 1160674" transform="translate(42.11 246.917)">
              <path id="Trazado_1013450" data-name="Trazado 1013450" d="M459.969,370.958l-1.485,66.592a13.568,13.568,0,0,1-13.378,13.261c-39.743.542-78.8-.375-117.788-1.434A13.57,13.57,0,0,1,314.13,436.21c-.649-22.069-.782-43.9-.825-65.773a13.573,13.573,0,0,1,13.1-13.586c39.778-1.422,79.706-1.381,120.545.251A13.567,13.567,0,0,1,459.969,370.958Z" transform="translate(-307.526 -348.109)" fill="#2e2854" opacity="0.15"/>
              <path id="Trazado_1013451" data-name="Trazado 1013451" d="M454.088,363.1,452.6,429.694a13.568,13.568,0,0,1-13.378,13.261c-39.744.542-78.8-.375-117.788-1.434a13.57,13.57,0,0,1-13.188-13.168c-.649-22.069-.782-43.9-.825-65.773a13.573,13.573,0,0,1,13.1-13.586c39.778-1.422,79.706-1.381,120.545.251A13.569,13.569,0,0,1,454.088,363.1Z" transform="translate(-307.424 -347.973)" fill="#fff"/>
              <path id="Trazado_1013452" data-name="Trazado 1013452" d="M454.088,363.1,452.6,429.694a13.568,13.568,0,0,1-13.378,13.261c-39.744.542-78.8-.375-117.788-1.434a13.57,13.57,0,0,1-13.188-13.168c-.649-22.069-.782-43.9-.825-65.773a13.573,13.573,0,0,1,13.1-13.586c39.778-1.422,79.706-1.381,120.545.251A13.569,13.569,0,0,1,454.088,363.1Z" transform="translate(-307.424 -347.973)" fill="none" stroke="#2e2854" stroke-linecap="round" stroke-linejoin="round" stroke-miterlimit="10" stroke-width="1.5"/>
              <rect id="Rectángulo_409833" data-name="Rectángulo 409833" width="90.215" height="5.158" transform="translate(22.366 47.885)" fill="#49ad9f"/>
              <line id="Línea_951" data-name="Línea 951" x2="56.748" transform="translate(22.366 38.083)" fill="none" stroke="#2e2854" stroke-linecap="round" stroke-linejoin="round" stroke-miterlimit="10" stroke-width="1.5"/>
              <line id="Línea_952" data-name="Línea 952" x2="106.582" transform="translate(22.366 26.301)" fill="none" stroke="#2e2854" stroke-linecap="round" stroke-linejoin="round" stroke-miterlimit="10" stroke-width="1.5"/>
              <line id="Línea_953" data-name="Línea 953" x2="25.532" transform="translate(22.366 76.908)" fill="none" stroke="#2e2854" stroke-linecap="round" stroke-linejoin="round" stroke-miterlimit="10" stroke-width="1.5"/>
              <line id="Línea_954" data-name="Línea 954" x2="57.874" transform="translate(54.707 76.908)" fill="none" stroke="#2e2854" stroke-linecap="round" stroke-linejoin="round" stroke-miterlimit="10" stroke-width="1.5"/>
              <line id="Línea_955" data-name="Línea 955" x2="106.582" transform="translate(22.366 65.124)" fill="none" stroke="#2e2854" stroke-linecap="round" stroke-linejoin="round" stroke-miterlimit="10" stroke-width="1.5"/>
            </g>
            <g id="Grupo_1160680" data-name="Grupo 1160680" transform="translate(160.242 55.217)">
              <path id="Trazado_1013453" data-name="Trazado 1013453" d="M449.781,306.927q42.114-.849,84.183-3.158A12.032,12.032,0,0,0,545.3,292.285c1.857-40.736,1.662-80.509-.1-120.132a12.027,12.027,0,0,0-11.067-11.471,678.177,678.177,0,0,0-85.779-1.145,12.014,12.014,0,0,0-11.416,12.11c.347,40.636.663,81.369.617,123.239A12.014,12.014,0,0,0,449.781,306.927Z" transform="translate(-427.798 -152.995)" fill="#2e2854" opacity="0.15"/>
              <path id="Trazado_1013454" data-name="Trazado 1013454" d="M440.486,301.124q42.114-.849,84.183-3.158A12.032,12.032,0,0,0,536,286.483c1.857-40.736,1.662-80.509-.1-120.132a12.027,12.027,0,0,0-11.067-11.471,678.174,678.174,0,0,0-85.779-1.145,12.014,12.014,0,0,0-11.416,12.11c.347,40.636.663,81.369.617,123.239A12.013,12.013,0,0,0,440.486,301.124Z" transform="translate(-427.637 -152.894)" fill="#fff"/>
              <path id="Trazado_1013455" data-name="Trazado 1013455" d="M536.22,174.832H427.711q.1,11.545.186,23.114H536.948Q536.684,186.372,536.22,174.832Z" transform="translate(-427.639 -153.274)" fill="#d24d84"/>
              <path id="Trazado_1013456" data-name="Trazado 1013456" d="M440.486,301.124q42.114-.849,84.183-3.158A12.032,12.032,0,0,0,536,286.483c1.857-40.736,1.662-80.509-.1-120.132a12.027,12.027,0,0,0-11.067-11.471,678.174,678.174,0,0,0-85.779-1.145,12.014,12.014,0,0,0-11.416,12.11c.347,40.636.663,81.369.617,123.239A12.013,12.013,0,0,0,440.486,301.124Z" transform="translate(-427.637 -152.894)" fill="none" stroke="#2e2854" stroke-linecap="round" stroke-linejoin="round" stroke-miterlimit="10" stroke-width="1.5"/>
              <g id="Grupo_1160675" data-name="Grupo 1160675" transform="translate(27.497 26.397)">
                <path id="Trazado_1013457" data-name="Trazado 1013457" d="M455.619,180.061h4.411v13.086h-4.411Z" transform="translate(-455.619 -179.761)" fill="#2e2854"/>
                <path id="Trazado_1013458" data-name="Trazado 1013458" d="M478.027,180.061v13.086H474.4l-4.972-5.944v5.944h-4.3V180.061h3.627l4.972,5.945v-5.945Z" transform="translate(-455.784 -179.761)" fill="#2e2854"/>
                <path id="Trazado_1013459" data-name="Trazado 1013459" d="M487.682,183.388v2.243h5.459v3.327h-5.459v4.187h-4.411V180.06h10.637v3.327h-6.225Z" transform="translate(-456.098 -179.761)" fill="#2e2854"/>
                <path id="Trazado_1013460" data-name="Trazado 1013460" d="M497.742,186.6c0-3.963,3.122-6.842,7.383-6.842s7.384,2.879,7.384,6.842-3.122,6.841-7.384,6.841S497.742,190.562,497.742,186.6Zm10.318,0a2.952,2.952,0,1,0-2.935,3.271A2.976,2.976,0,0,0,508.06,186.6Z" transform="translate(-456.349 -179.756)" fill="#2e2854"/>
              </g>
              <g id="Grupo_1160676" data-name="Grupo 1160676" transform="translate(14.709 57.801)">
                <path id="Trazado_1013461" data-name="Trazado 1013461" d="M464.7,211.714A22.089,22.089,0,1,0,486.784,233.8,22.089,22.089,0,0,0,464.7,211.714Zm0,36.581A14.493,14.493,0,1,1,479.188,233.8,14.493,14.493,0,0,1,464.7,248.3Z" transform="translate(-442.606 -211.714)" fill="#49ad9f"/>
                <path id="Trazado_1013462" data-name="Trazado 1013462" d="M487.074,237.685a22.189,22.189,0,0,0,.329-3.665,21.957,21.957,0,0,0-2.324-9.818l-6.805,3.362a14.126,14.126,0,0,1,1.319,8.844Z" transform="translate(-443.224 -211.93)" fill="#2e2854"/>
                <path id="Trazado_1013463" data-name="Trazado 1013463" d="M450.2,234.095a14.458,14.458,0,0,1,.482-3.649l-7.345-1.912a22.012,22.012,0,0,0,21.355,27.65v-7.6A14.492,14.492,0,0,1,450.2,234.095Z" transform="translate(-442.606 -212.005)" fill="#2e2854"/>
              </g>
              <g id="Grupo_1160677" data-name="Grupo 1160677" transform="translate(42.951 92.508)">
                <rect id="Rectángulo_409834" data-name="Rectángulo 409834" width="30.667" height="5.719" transform="translate(23.25)" fill="#2e2854"/>
                <line id="Línea_956" data-name="Línea 956" x2="24.759" transform="translate(1.18 2.86)" fill="none" stroke="#2e2854" stroke-linecap="round" stroke-linejoin="round" stroke-miterlimit="10" stroke-width="1.5"/>
                <path id="Trazado_1013464" data-name="Trazado 1013464" d="M473.706,249.922a1.18,1.18,0,1,0-1.18,1.18A1.181,1.181,0,0,0,473.706,249.922Z" transform="translate(-471.346 -247.063)" fill="none" stroke="#2e2854" stroke-linecap="round" stroke-linejoin="round" stroke-miterlimit="10" stroke-width="1.5"/>
              </g>
              <g id="Grupo_1160678" data-name="Grupo 1160678" transform="translate(54.372 76.193)">
                <rect id="Rectángulo_409835" data-name="Rectángulo 409835" width="30.667" height="5.719" transform="translate(11.829)" fill="#2e2854"/>
                <line id="Línea_957" data-name="Línea 957" x2="13.338" transform="translate(1.18 2.86)" fill="none" stroke="#2e2854" stroke-linecap="round" stroke-linejoin="round" stroke-miterlimit="10" stroke-width="1.5"/>
                <path id="Trazado_1013465" data-name="Trazado 1013465" d="M485.328,233.319a1.18,1.18,0,1,0-1.18,1.18A1.181,1.181,0,0,0,485.328,233.319Z" transform="translate(-482.968 -230.46)" fill="none" stroke="#2e2854" stroke-linecap="round" stroke-linejoin="round" stroke-miterlimit="10" stroke-width="1.5"/>
              </g>
              <g id="Grupo_1160679" data-name="Grupo 1160679" transform="translate(41.914 59.877)">
                <rect id="Rectángulo_409836" data-name="Rectángulo 409836" width="30.667" height="5.719" transform="translate(24.288)" fill="#2e2854"/>
                <line id="Línea_958" data-name="Línea 958" x2="25.796" transform="translate(1.18 2.86)" fill="none" stroke="#2e2854" stroke-linecap="round" stroke-linejoin="round" stroke-miterlimit="10" stroke-width="1.5"/>
                <path id="Trazado_1013466" data-name="Trazado 1013466" d="M472.65,216.716a1.18,1.18,0,1,0-1.18,1.18A1.181,1.181,0,0,0,472.65,216.716Z" transform="translate(-470.29 -213.857)" fill="none" stroke="#2e2854" stroke-linecap="round" stroke-linejoin="round" stroke-miterlimit="10" stroke-width="1.5"/>
              </g>
              <line id="Línea_959" data-name="Línea 959" x2="79.292" transform="translate(16.362 114.017)" fill="none" stroke="#2e2854" stroke-linecap="round" stroke-linejoin="round" stroke-miterlimit="10" stroke-width="1.5"/>
              <line id="Línea_960" data-name="Línea 960" x2="79.292" transform="translate(16.362 122.134)" fill="none" stroke="#2e2854" stroke-linecap="round" stroke-linejoin="round" stroke-miterlimit="10" stroke-width="1.5"/>
              <line id="Línea_961" data-name="Línea 961" x2="46.824" transform="translate(16.362 130.252)" fill="none" stroke="#2e2854" stroke-linecap="round" stroke-linejoin="round" stroke-miterlimit="10" stroke-width="1.5"/>
            </g>
            <g id="Grupo_1160693" data-name="Grupo 1160693" transform="translate(0)">
              <path id="Trazado_1013467" data-name="Trazado 1013467" d="M293.839,369.486c46.031.007,95.631-2.822,141.746-7.362a13.067,13.067,0,0,0,11.754-12.251c4.669-79.7.882-158.026-5.157-234.9a13.042,13.042,0,0,0-11.5-11.94,545.253,545.253,0,0,0-144.371,2.425,13.065,13.065,0,0,0-11.064,12.477c-2.8,78.094-1.787,159.838,5.611,239.669A13.063,13.063,0,0,0,293.839,369.486Z" transform="translate(-264.731 -96.75)" fill="#2e2854" opacity="0.15"/>
              <path id="Trazado_1013468" data-name="Trazado 1013468" d="M284.6,366.81c46.031.007,95.631-2.821,141.746-7.362A13.067,13.067,0,0,0,438.1,347.2c4.669-79.7.882-158.026-5.157-234.9a13.042,13.042,0,0,0-11.5-11.94,545.252,545.252,0,0,0-144.371,2.425A13.064,13.064,0,0,0,266,115.264c-2.8,78.094-1.788,159.838,5.611,239.669A13.064,13.064,0,0,0,284.6,366.81Z" transform="translate(-264.571 -96.704)" fill="#fff"/>
              <path id="Trazado_1013469" data-name="Trazado 1013469" d="M264.674,174.1H437.135q-1.191-20.927-2.722-41.714H265.48Q264.886,153.106,264.674,174.1Z" transform="translate(-264.573 -97.322)" fill="#d24d84"/>
              <path id="Trazado_1013470" data-name="Trazado 1013470" d="M284.6,366.81c46.031.007,95.631-2.821,141.746-7.362A13.067,13.067,0,0,0,438.1,347.2c4.669-79.7.882-158.026-5.157-234.9a13.042,13.042,0,0,0-11.5-11.94,545.252,545.252,0,0,0-144.371,2.425A13.064,13.064,0,0,0,266,115.264c-2.8,78.094-1.788,159.838,5.611,239.669A13.064,13.064,0,0,0,284.6,366.81Z" transform="translate(-264.571 -96.704)" fill="none" stroke="#2e2854" stroke-linecap="round" stroke-linejoin="round" stroke-miterlimit="10" stroke-width="1.5"/>
              <g id="Grupo_1160681" data-name="Grupo 1160681" transform="translate(17.933 45.799)">
                <path id="Trazado_1013471" data-name="Trazado 1013471" d="M282.822,155.358c-.083-6.275,4.675-10.744,11.24-10.83,4-.053,7.168,1.365,9.216,3.963l-4.3,3.938a5.523,5.523,0,0,0-4.5-2.334c-2.86.037-4.759,2.047-4.718,5.172s1.993,5.08,4.852,5.043a5.525,5.525,0,0,0,4.434-2.452l4.4,3.823c-1.979,2.652-5.111,4.155-9.108,4.208C287.778,165.975,282.9,161.631,282.822,155.358Z" transform="translate(-282.821 -143.331)" fill="#2e2854"/>
                <path id="Trazado_1013472" data-name="Trazado 1013472" d="M319.033,159.968l-1.868.025.068,5.135-6.887.09-.269-20.427,9.835-.13c5.69-.075,9.347,2.855,9.41,7.58a6.84,6.84,0,0,1-3.767,6.471l4.372,6.247-7.352.1Zm.51-9.991-2.509.033.063,4.786,2.509-.033c1.9-.025,2.79-.939,2.77-2.429S321.441,149.953,319.543,149.977Z" transform="translate(-283.293 -143.333)" fill="#2e2854"/>
                <path id="Trazado_1013473" data-name="Trazado 1013473" d="M353.853,159.448l.069,5.194-16.983.224-.269-20.427,16.6-.219.069,5.194-9.834.13.031,2.393,8.637-.114.066,4.962-8.637.114.035,2.685Z" transform="translate(-283.754 -143.326)" fill="#2e2854"/>
                <path id="Trazado_1013474" data-name="Trazado 1013474" d="M361.121,144.118l10.068-.133c6.829-.09,11.577,3.73,11.66,10.063s-4.563,10.274-11.391,10.364l-10.068.133Zm9.973,14.928a4.844,4.844,0,1,0-.128-9.687l-2.888.038.128,9.687Z" transform="translate(-284.177 -143.322)" fill="#2e2854"/>
                <path id="Trazado_1013475" data-name="Trazado 1013475" d="M390.119,143.736l6.887-.09.269,20.427-6.887.09Z" transform="translate(-284.679 -143.316)" fill="#2e2854"/>
                <path id="Trazado_1013476" data-name="Trazado 1013476" d="M409.452,148.821l-5.983.079-.071-5.341,18.852-.249.071,5.341-5.983.079.2,15.085-6.886.09Z" transform="translate(-284.909 -143.31)" fill="#2e2854"/>
              </g>
              <g id="Grupo_1160683" data-name="Grupo 1160683" transform="translate(17.459 87.023)">
                <g id="Grupo_1160682" data-name="Grupo 1160682" transform="translate(9.075)">
                  <rect id="Rectángulo_409837" data-name="Rectángulo 409837" width="6.238" height="22.657" transform="translate(0)" fill="#d24d84"/>
                  <rect id="Rectángulo_409838" data-name="Rectángulo 409838" width="6.238" height="15.815" transform="translate(12.67 6.841)" fill="#2e2854"/>
                  <rect id="Rectángulo_409839" data-name="Rectángulo 409839" width="6.238" height="9.791" transform="translate(25.34 12.866)" fill="#49ad9f"/>
                  <rect id="Rectángulo_409840" data-name="Rectángulo 409840" width="6.238" height="15.815" transform="translate(38.011 6.841)" fill="#2e2854"/>
                  <rect id="Rectángulo_409841" data-name="Rectángulo 409841" width="6.238" height="19.346" transform="translate(50.682 3.311)" fill="#f7a145"/>
                  <rect id="Rectángulo_409842" data-name="Rectángulo 409842" width="6.238" height="9.673" transform="translate(63.351 12.984)" fill="#f7a145"/>
                  <rect id="Rectángulo_409843" data-name="Rectángulo 409843" width="6.238" height="18.148" transform="translate(76.022 4.509)" fill="#d24d84"/>
                  <rect id="Rectángulo_409844" data-name="Rectángulo 409844" width="6.238" height="6.238" transform="translate(88.693 16.419)" fill="#d24d84"/>
                  <rect id="Rectángulo_409845" data-name="Rectángulo 409845" width="6.238" height="15.815" transform="translate(101.363 6.841)" fill="#2e2854"/>
                  <rect id="Rectángulo_409846" data-name="Rectángulo 409846" width="6.238" height="18.875" transform="translate(114.033 3.781)" fill="#49ad9f"/>
                </g>
                <line id="Línea_962" data-name="Línea 962" x2="140.311" transform="translate(0 22.657)" fill="none" stroke="#2e2854" stroke-linecap="round" stroke-linejoin="round" stroke-miterlimit="10" stroke-width="1.5"/>
              </g>
              <g id="Grupo_1160686" data-name="Grupo 1160686" transform="translate(20.038 128.651)">
                <g id="Grupo_1160684" data-name="Grupo 1160684" transform="translate(0)">
                  <path id="Trazado_1013477" data-name="Trazado 1013477" d="M299.613,231.581a65.433,65.433,0,0,0-14.616.045,127.391,127.391,0,0,0,.54,14.122c4.793-.162,9.585-.324,14.495-.471C299.842,240.984,299.654,236.689,299.613,231.581Z" transform="translate(-284.963 -227.684)" fill="none" stroke="#2e2854" stroke-linecap="round" stroke-linejoin="round" stroke-miterlimit="10" stroke-width="1.5"/>
                  <path id="Trazado_1013478" data-name="Trazado 1013478" d="M285.244,230.882a43.976,43.976,0,0,1,6.842,9.655q1.427-6.459,2.852-12.914" transform="translate(-284.968 -227.622)" fill="none" stroke="#d14b56" stroke-linecap="round" stroke-linejoin="round" stroke-miterlimit="10" stroke-width="1.5"/>
                </g>
                <g id="Grupo_1160685" data-name="Grupo 1160685" transform="translate(28.075 3.511)">
                  <line id="Línea_963" data-name="Línea 963" x2="95.573" fill="none" stroke="#2e2854" stroke-linecap="round" stroke-linejoin="round" stroke-miterlimit="10" stroke-width="1.5"/>
                  <line id="Línea_964" data-name="Línea 964" x2="95.573" transform="translate(0 9.403)" fill="none" stroke="#2e2854" stroke-linecap="round" stroke-linejoin="round" stroke-miterlimit="10" stroke-width="1.5"/>
                  <line id="Línea_965" data-name="Línea 965" x2="34.245" transform="translate(0 18.807)" fill="none" stroke="#2e2854" stroke-linecap="round" stroke-linejoin="round" stroke-miterlimit="10" stroke-width="1.5"/>
                </g>
              </g>
              <g id="Grupo_1160689" data-name="Grupo 1160689" transform="translate(20.038 166.564)">
                <g id="Grupo_1160687" data-name="Grupo 1160687" transform="translate(0)">
                  <path id="Trazado_1013479" data-name="Trazado 1013479" d="M299.613,270.163a65.432,65.432,0,0,0-14.616.045,127.391,127.391,0,0,0,.54,14.122c4.793-.162,9.585-.324,14.495-.471C299.842,279.565,299.654,275.271,299.613,270.163Z" transform="translate(-284.963 -266.265)" fill="none" stroke="#2e2854" stroke-linecap="round" stroke-linejoin="round" stroke-miterlimit="10" stroke-width="1.5"/>
                  <path id="Trazado_1013480" data-name="Trazado 1013480" d="M285.244,269.463a43.976,43.976,0,0,1,6.842,9.655q1.427-6.459,2.852-12.914" transform="translate(-284.968 -266.203)" fill="none" stroke="#d14b56" stroke-linecap="round" stroke-linejoin="round" stroke-miterlimit="10" stroke-width="1.5"/>
                </g>
                <g id="Grupo_1160688" data-name="Grupo 1160688" transform="translate(28.075 3.511)">
                  <line id="Línea_966" data-name="Línea 966" x2="95.573" fill="none" stroke="#2e2854" stroke-linecap="round" stroke-linejoin="round" stroke-miterlimit="10" stroke-width="1.5"/>
                  <line id="Línea_967" data-name="Línea 967" x2="95.573" transform="translate(0 9.403)" fill="none" stroke="#2e2854" stroke-linecap="round" stroke-linejoin="round" stroke-miterlimit="10" stroke-width="1.5"/>
                  <line id="Línea_968" data-name="Línea 968" x2="48.01" transform="translate(0 18.807)" fill="none" stroke="#2e2854" stroke-linecap="round" stroke-linejoin="round" stroke-miterlimit="10" stroke-width="1.5"/>
                </g>
              </g>
              <g id="Grupo_1160692" data-name="Grupo 1160692" transform="translate(20.038 204.476)">
                <g id="Grupo_1160690" data-name="Grupo 1160690" transform="translate(0)">
                  <path id="Trazado_1013481" data-name="Trazado 1013481" d="M299.613,308.744a65.432,65.432,0,0,0-14.616.045,127.391,127.391,0,0,0,.54,14.122c4.793-.162,9.585-.324,14.495-.471C299.842,318.146,299.654,313.852,299.613,308.744Z" transform="translate(-284.963 -304.846)" fill="none" stroke="#2e2854" stroke-linecap="round" stroke-linejoin="round" stroke-miterlimit="10" stroke-width="1.5"/>
                  <path id="Trazado_1013482" data-name="Trazado 1013482" d="M285.244,308.044a43.976,43.976,0,0,1,6.842,9.655q1.427-6.459,2.852-12.914" transform="translate(-284.968 -304.784)" fill="none" stroke="#d14b56" stroke-linecap="round" stroke-linejoin="round" stroke-miterlimit="10" stroke-width="1.5"/>
                </g>
                <g id="Grupo_1160691" data-name="Grupo 1160691" transform="translate(28.075 3.511)">
                  <line id="Línea_969" data-name="Línea 969" x2="95.573" fill="none" stroke="#2e2854" stroke-linecap="round" stroke-linejoin="round" stroke-miterlimit="10" stroke-width="1.5"/>
                  <line id="Línea_970" data-name="Línea 970" x2="95.573" transform="translate(0 9.403)" fill="none" stroke="#2e2854" stroke-linecap="round" stroke-linejoin="round" stroke-miterlimit="10" stroke-width="1.5"/>
                  <line id="Línea_971" data-name="Línea 971" x2="34.245" transform="translate(0 18.808)" fill="none" stroke="#2e2854" stroke-linecap="round" stroke-linejoin="round" stroke-miterlimit="10" stroke-width="1.5"/>
                </g>
              </g>
            </g>
            <g id="CALCULATOR" transform="translate(160.153 220.248)">
              <path id="Trazado_1013483" data-name="Trazado 1013483" d="M488.841,325.162l-49.506-.451-4.6,4.307a6.969,6.969,0,0,0-2.17,4.9l-1.634,72.577c-.11,4.881,2.748,8.912,7.63,8.969l43.35.505c2.619.03,4.777-1.079,7.119-2.646l5.957-4.223,1.06-76.556A7.277,7.277,0,0,0,488.841,325.162Z" transform="translate(-427.605 -320.901)" fill="#2e2854" opacity="0.15"/>
              <path id="Trazado_1013484" data-name="Trazado 1013484" d="M436.064,320.834l-1.877,77.9a5.433,5.433,0,0,0,5.336,5.563l52.2.922,1.06-76.556a7.277,7.277,0,0,0-7.211-7.378Z" transform="translate(-427.662 -320.834)" fill="#d24d84"/>
              <path id="Trazado_1013485" data-name="Trazado 1013485" d="M435.949,320.834l-4.6,4.307a6.965,6.965,0,0,0-2.17,4.9l-1.634,72.577c-.11,4.881,2.748,8.912,7.63,8.969l43.35.505c2.619.03,4.777-1.08,7.119-2.646l5.957-4.224-52.2-.922a5.433,5.433,0,0,1-5.336-5.563Z" transform="translate(-427.547 -320.834)" fill="#ad3b6a"/>
              <path id="Trazado_1013486" data-name="Trazado 1013486" d="M443.073,330.623l.195,12.764,42.521.445.026-14.092Z" transform="translate(-427.816 -320.988)" fill="#49ad9f"/>
              <path id="Trazado_1013487" data-name="Trazado 1013487" d="M443.125,334.075l39.723-1.477L483.1,343.8l2.689.029.026-14.092-42.741.882Z" transform="translate(-427.816 -320.988)" fill="#2e2854" opacity="0.15"/>
              <g id="Grupo_1160694" data-name="Grupo 1160694" transform="translate(15.165 32.9)">
                <path id="Trazado_1013488" data-name="Trazado 1013488" d="M445.129,354.708l8.39,0-.377,9.937-8.312.023Z" transform="translate(-443.011 -354.321)" fill="#fff" stroke="#2e2854" stroke-linecap="round" stroke-linejoin="round" stroke-miterlimit="10" stroke-width="1.5"/>
                <path id="Trazado_1013489" data-name="Trazado 1013489" d="M459.532,354.585l9.166-.1-.287,9.631-9.143.025Z" transform="translate(-443.261 -354.317)" fill="#fff" stroke="#2e2854" stroke-linecap="round" stroke-linejoin="round" stroke-miterlimit="10" stroke-width="1.5"/>
                <path id="Trazado_1013490" data-name="Trazado 1013490" d="M473.994,354.568l.118,9.669,9.173.15-.081-10.072Z" transform="translate(-443.516 -354.314)" fill="#fff" stroke="#2e2854" stroke-linecap="round" stroke-linejoin="round" stroke-miterlimit="10" stroke-width="1.5"/>
                <path id="Trazado_1013491" data-name="Trazado 1013491" d="M444.06,371.951l-.287,9.631,8.351.4.4-10.844Z" transform="translate(-442.993 -354.605)" fill="#fff" stroke="#2e2854" stroke-linecap="round" stroke-linejoin="round" stroke-miterlimit="10" stroke-width="1.5"/>
                <path id="Trazado_1013492" data-name="Trazado 1013492" d="M458.4,371.491l9.16.479-.406,10.592s-8.724-.266-8.931-.411S458.4,371.491,458.4,371.491Z" transform="translate(-443.242 -354.612)" fill="#fff" stroke="#2e2854" stroke-linecap="round" stroke-linejoin="round" stroke-miterlimit="10" stroke-width="1.5"/>
                <path id="Trazado_1013493" data-name="Trazado 1013493" d="M473.651,371.352l.05,9.9,8.86-.192-.433-10.842Z" transform="translate(-443.51 -354.589)" fill="#fff" stroke="#2e2854" stroke-linecap="round" stroke-linejoin="round" stroke-miterlimit="10" stroke-width="1.5"/>
                <path id="Trazado_1013494" data-name="Trazado 1013494" d="M443.441,388.255l-.462,9.663,8.816-.039-.256-10.042Z" transform="translate(-442.979 -354.895)" fill="#fff" stroke="#2e2854" stroke-linecap="round" stroke-linejoin="round" stroke-miterlimit="10" stroke-width="1.5"/>
                <path id="Trazado_1013495" data-name="Trazado 1013495" d="M457.817,387.121l.242,10.369,9.31-.307L467,387.523Z" transform="translate(-443.236 -354.882)" fill="#fff" stroke="#2e2854" stroke-linecap="round" stroke-linejoin="round" stroke-miterlimit="10" stroke-width="1.5"/>
                <path id="Trazado_1013496" data-name="Trazado 1013496" d="M474.135,386.811l.256,10.042,8.715.015-.31-10.141Z" transform="translate(-443.519 -354.875)" fill="#fff" stroke="#2e2854" stroke-linecap="round" stroke-linejoin="round" stroke-miterlimit="10" stroke-width="1.5"/>
              </g>
              <path id="Trazado_1013497" data-name="Trazado 1013497" d="M443.073,330.623l.195,12.764,42.521.445.026-14.092Z" transform="translate(-427.816 -320.988)" fill="none" stroke="#2e2854" stroke-linecap="round" stroke-linejoin="round" stroke-miterlimit="10" stroke-width="1.5"/>
              <path id="Trazado_1013498" data-name="Trazado 1013498" d="M436.064,320.834l-1.877,77.9a5.433,5.433,0,0,0,5.336,5.563l52.2.922,1.06-76.556a7.277,7.277,0,0,0-7.211-7.378Z" transform="translate(-427.662 -320.834)" fill="none" stroke="#2e2854" stroke-linecap="round" stroke-linejoin="round" stroke-miterlimit="10" stroke-width="1.5"/>
            </g>
          </g>
          <g id="Grupo_1160727" data-name="Grupo 1160727">
            <g id="Grupo_1160726" data-name="Grupo 1160726" clip-path="url(#clip-path-2)">
              <path id="Trazado_1013499" data-name="Trazado 1013499" d="M420.568,285.76a1.927,1.927,0,0,0-1.89-.416,5.535,5.535,0,0,0-1.768.978c-3.227,2.354-6.638,5.029-9.665,7.637a161.932,161.932,0,0,0,12.349-19.386c.568-1.1,1.059-2.6.155-3.446a1.993,1.993,0,0,0-2.221-.162,5.847,5.847,0,0,0-1.74,1.587c-4.161,4.983-8.885,10.228-13.047,15.211,3.756-7.34,7.742-14.118,10.621-20.865a6.689,6.689,0,0,0,.716-2.689,2.363,2.363,0,0,0-1.391-2.233c-1.453-.509-2.78.97-3.617,2.265-3.812,5.9-7.914,12.291-11.726,18.191,2.355-7.28,5.193-14.654,7.36-21.655.338-1.09.605-2.441-.215-3.233a2.153,2.153,0,0,0-2.675.026,6.271,6.271,0,0,0-1.706,2.318q-6.21,11.937-12.419,23.871a110.391,110.391,0,0,0-.165-12.766c-.052-1.213-.3-2.641-1.393-3.159a2.383,2.383,0,0,0-2.555.59,6.911,6.911,0,0,0-1.427,2.371q-4.543,10.592-8.352,21.478c-4.367,7.134-9.2,14.249-14.4,21.2-3.868,5.165-7.944,10.24-12.193,15.166-5.092,5.9-10.847,11.845-18.373,13.867-9.194,2.467-19.214-1.69-25.9-8.472s-10.557-15.81-13.574-24.839-5.353-18.35-9.633-26.853a65.03,65.03,0,0,0-25.42-26.862q-2.274-1.313-4.653-2.435a63.415,63.415,0,0,0-7.727-3.029,65.354,65.354,0,0,0-25.45-2.836q-.043-8.48-.086-16.96A37.073,37.073,0,0,0,231.1,225.44a33.674,33.674,0,0,0,11.837-12.749,11.987,11.987,0,0,0,11.787-1.763,17.17,17.17,0,0,0,6.1-11.608,14.941,14.941,0,0,0-.888-7.667,9.245,9.245,0,0,0-4.856-4.948,23.275,23.275,0,0,0-2.163-12.712,37.5,37.5,0,0,0-9.637-29.879,42.754,42.754,0,0,0-28.063-13.25,50.062,50.062,0,0,0-30.229,7.871,52.347,52.347,0,0,0-8.207,6.439c-.559-.719-1.13-1.43-1.721-2.124a4.513,4.513,0,0,0-3.719-1.565c-1.6-10.207-11.354-18.346-21.769-19.8-11.266-1.578-22.637,3.261-31.545,10.336A68.2,68.2,0,0,0,93.073,191.3c.684,6.63,2.355,13.128,3.039,19.758s.3,13.619-2.857,19.487c-3.027,5.622-8.332,9.729-11.513,15.266-6.386,11.116-2.208,26.539,8.013,34.278,6.687,5.063,15.305,6.939,23.682,6.048a143.405,143.405,0,0,0-24.848,38.715c-5.245,12.016-8.985,25.182-7.148,38.164,2.22,15.7,12.665,29.571,26.127,37.955a94.1,94.1,0,0,0,24.809,11.005q.23,11.994.689,23.972c4.057,7.235,12.493,10.627,20.354,13.277A400.85,400.85,0,0,0,261.359,470.2l.811-106.831c6.508,10.009,14.1,19.2,24.5,24.737,16.227,8.633,36.42,6.484,53.287-.822A97.658,97.658,0,0,0,385.481,346.6q-1.766-3.633-3.868-7.093a279.274,279.274,0,0,1,17.966-24.75,124.639,124.639,0,0,0,10.479-14.377,63.522,63.522,0,0,0,10.024-11.216C420.782,288.138,421.421,286.666,420.568,285.76Zm-272.61-26.546a58.794,58.794,0,0,0,2.282-5.535c4.249-12.095,4.747-25.235,3.482-37.993-.01-.1-.024-.2-.034-.294a16.371,16.371,0,0,0,5,.782,17.84,17.84,0,0,0,13.4-6.488,35.238,35.238,0,0,0,13.3,15.516,37.465,37.465,0,0,0,14.065,4.839q-.475,8.785-.948,17.571a95.43,95.43,0,0,0-26.948,2.7,103.777,103.777,0,0,0-11.547,3.553A109.7,109.7,0,0,0,147.957,259.214Zm-2.414-95.737c.465-4.809,2.481-9.676,6.366-12.55a11.418,11.418,0,0,1,10.544-1.594,4.537,4.537,0,0,0,1.226,3.822,39.145,39.145,0,0,0,4.114,3.681c-.492.9-.961,1.808-1.392,2.738a42.9,42.9,0,0,0-3.591,24.326,20.837,20.837,0,0,0-5.2-.25,18.3,18.3,0,0,0-8.82,3.105c-.621-2.97-1.246-5.937-1.847-8.909C145.982,173.112,145.079,168.285,145.543,163.477Z" transform="translate(-41.643 -27.311)" fill="#2e2854" opacity="0.15"/>
              <g id="Grupo_1160725" data-name="Grupo 1160725" transform="translate(27.851 93.511)">
                <g id="Grupo_1160707" data-name="Grupo 1160707" transform="translate(0)">
                  <g id="Grupo_1160696" data-name="Grupo 1160696" transform="translate(119.383 99.146)">
                    <path id="Trazado_1013500" data-name="Trazado 1013500" d="M191.474,222.063q-.327,13.941-.655,27.886s18.188.482,18.164.41q-.509-14.326-1.018-28.652Z" transform="translate(-190.819 -221.705)" fill="#ff98aa"/>
                    <path id="Trazado_1013501" data-name="Trazado 1013501" d="M208.405,233.931q-.217-6.113-.434-12.226l-16.49.358-.3,12.812C195.158,235.461,201.944,235.936,208.405,233.931Z" transform="translate(-190.825 -221.705)" fill="#ff8095"/>
                  </g>
                  <g id="Grupo_1160697" data-name="Grupo 1160697" transform="translate(0)">
                    <path id="Trazado_1013502" data-name="Trazado 1013502" d="M158.707,142.662c-.572-11.363-11.36-20.433-22.669-21.668s-22.527,3.947-31.216,11.291A68.2,68.2,0,0,0,81.685,192.3c.885,6.606,2.752,13.05,3.639,19.657s.719,13.6-2.262,19.565c-2.855,5.712-8.032,9.978-11.043,15.609-6.045,11.306-1.4,26.593,9.052,34.017s25.19,7.313,36.5,1.271,19.278-17.288,23.157-29.507,3.978-25.368,2.324-38.082-5-25.132-7.928-37.614c-1.1-4.7-2.152-9.5-1.834-14.322s2.185-9.747,5.981-12.738,9.708-3.483,13.379-.251C153.747,147.6,155.524,145.627,158.707,142.662Z" transform="translate(-69.332 -120.811)" fill="#5767bf"/>
                    <path id="Trazado_1013503" data-name="Trazado 1013503" d="M158.671,157.236a37.948,37.948,0,0,1-6.154-4.873,4.5,4.5,0,0,1-.579-5.812,19.083,19.083,0,0,1,6.091-5.538,4.51,4.51,0,0,1,5.553.907q1.608,1.776,3.074,3.674Z" transform="translate(-70.749 -121.151)" fill="#d24d84"/>
                    <path id="Trazado_1013504" data-name="Trazado 1013504" d="M153.344,186.177a42.452,42.452,0,0,1,2.1-27.692,51.057,51.057,0,0,1,47.915-30.179,42.757,42.757,0,0,1,28.454,12.39,37.5,37.5,0,0,1,10.542,29.573c2.791,5.427,3.65,11.825,1.112,19.873a102.956,102.956,0,0,1-62.66,11.933C171.467,200.857,157.132,199.913,153.344,186.177Z" transform="translate(-70.763 -120.941)" fill="#5767bf"/>
                  </g>
                  <g id="Grupo_1160706" data-name="Grupo 1160706" transform="translate(61.516 34.73)">
                    <path id="Trazado_1013505" data-name="Trazado 1013505" d="M238.724,185.961a6.561,6.561,0,0,1,6.955-2.317,9.067,9.067,0,0,1,5.655,5.018,14.935,14.935,0,0,1,1.121,7.636,17.172,17.172,0,0,1-5.74,11.788c-3.463,2.854-8.608,3.8-12.589,1.73Z" transform="translate(-133.702 -156.626)" fill="#ff98aa"/>
                    <g id="Grupo_1160703" data-name="Grupo 1160703" transform="translate(25.379)">
                      <path id="Trazado_1013506" data-name="Trazado 1013506" d="M238.245,176.323c.847,8.593.8,17.4-1.561,25.7s-7.221,16.116-14.465,20.814c-6.573,4.263-14.606,5.7-22.435,5.926-8.015.228-16.3-.8-23.266-4.775A35.663,35.663,0,0,1,162.1,207.547a53.108,53.108,0,0,1-4.338-21.691c5.042-4.083,7.9-10.716,7.642-16.063a37.247,37.247,0,0,0,24.5,1.238c7.992-2.369,15.124-7.536,21.241-14.878C216.637,165.981,226.634,173.166,238.245,176.323Z" transform="translate(-157.758 -156.154)" fill="#ff98aa"/>
                      <g id="Grupo_1160698" data-name="Grupo 1160698" transform="translate(5.328 46.551)">
                        <path id="Trazado_1013507" data-name="Trazado 1013507" d="M236.938,205.335a12.639,12.639,0,0,0-11.544-.758,12.442,12.442,0,0,0-7.026,12.189,12.144,12.144,0,0,0,3.824,7.553c.364-.214.724-.431,1.079-.662C229.784,219.434,234.363,212.69,236.938,205.335Z" transform="translate(-164.135 -203.525)" fill="#ff8095"/>
                        <path id="Trazado_1013508" data-name="Trazado 1013508" d="M183.988,221.771c2.458-4.358,2.319-10.83-1.231-14.433a12.605,12.605,0,0,0-13.859-2.566,12.27,12.27,0,0,0-5.718,5.6,35.055,35.055,0,0,0,13.435,14.439c.906.516,1.835.98,2.781,1.4A11.633,11.633,0,0,0,183.988,221.771Z" transform="translate(-163.18 -203.529)" fill="#ff8095"/>
                      </g>
                      <g id="Grupo_1160702" data-name="Grupo 1160702" transform="translate(16.604 20.922)">
                        <g id="Grupo_1160699" data-name="Grupo 1160699">
                          <path id="Trazado_1013509" data-name="Trazado 1013509" d="M174.655,177.445c.9,2,1.794,4,2.936,6.262a10.429,10.429,0,0,1,13.4-.767" transform="translate(-174.655 -177.445)" fill="none" stroke="#2e2854" stroke-linecap="round" stroke-linejoin="round" stroke-miterlimit="10" stroke-width="1.5"/>
                          <path id="Trazado_1013510" data-name="Trazado 1013510" d="M181.066,181.6c-.237-1.2-.482-2.409-.729-3.6" transform="translate(-174.753 -177.454)" fill="none" stroke="#2e2854" stroke-linecap="round" stroke-linejoin="round" stroke-miterlimit="10" stroke-width="1.5"/>
                          <path id="Trazado_1013511" data-name="Trazado 1013511" d="M184.868,180.891c-.055-.738-.11-1.476-.164-2.224" transform="translate(-174.829 -177.466)" fill="none" stroke="#2e2854" stroke-linecap="round" stroke-linejoin="round" stroke-miterlimit="10" stroke-width="1.5"/>
                        </g>
                        <g id="Grupo_1160700" data-name="Grupo 1160700" transform="translate(43.406 0.062)">
                          <path id="Trazado_1013512" data-name="Trazado 1013512" d="M235.324,177.508c-.957,1.97-1.916,3.941-3.127,6.168a10.426,10.426,0,0,0-13.371-1.177" transform="translate(-218.826 -177.508)" fill="none" stroke="#2e2854" stroke-linecap="round" stroke-linejoin="round" stroke-miterlimit="10" stroke-width="1.5"/>
                          <path id="Trazado_1013513" data-name="Trazado 1013513" d="M229.064,181.46c.273-1.2.556-2.393.839-3.579" transform="translate(-219.003 -177.514)" fill="none" stroke="#2e2854" stroke-linecap="round" stroke-linejoin="round" stroke-miterlimit="10" stroke-width="1.5"/>
                          <path id="Trazado_1013514" data-name="Trazado 1013514" d="M225.3,180.637c.078-.736.155-1.472.233-2.218" transform="translate(-218.938 -177.524)" fill="none" stroke="#2e2854" stroke-linecap="round" stroke-linejoin="round" stroke-miterlimit="10" stroke-width="1.5"/>
                        </g>
                        <path id="Trazado_1013515" data-name="Trazado 1013515" d="M209.268,179.627a44.831,44.831,0,0,1,3.263,6.272,16.776,16.776,0,0,1-5.25,1.375" transform="translate(-175.22 -177.483)" fill="none" stroke="#2e2854" stroke-linecap="round" stroke-linejoin="round" stroke-miterlimit="10" stroke-width="1.5"/>
                        <g id="Grupo_1160701" data-name="Grupo 1160701" transform="translate(12.745 12.092)">
                          <path id="Trazado_1013516" data-name="Trazado 1013516" d="M220.012,189.75c-10.817,1.331-21.635,2.66-32.387,4.863a16.684,16.684,0,0,0,25.594,8.01A16.536,16.536,0,0,0,220.012,189.75Z" transform="translate(-187.625 -189.75)" fill="#2e2854"/>
                          <path id="Trazado_1013517" data-name="Trazado 1013517" d="M220.012,189.75c-10.817,1.331-21.635,2.66-32.387,4.863a16.265,16.265,0,0,0,1.814,3.642q14.989-3.2,30.19-5.283A13.915,13.915,0,0,0,220.012,189.75Z" transform="translate(-187.625 -189.75)" fill="#fff"/>
                          <path id="Trazado_1013518" data-name="Trazado 1013518" d="M205.355,200.145a8.586,8.586,0,0,0-6.706,5.115,16.96,16.96,0,0,0,14.64-2.375A9.444,9.444,0,0,0,205.355,200.145Z" transform="translate(-187.816 -189.929)" fill="#d14b56"/>
                        </g>
                      </g>
                    </g>
                    <g id="Grupo_1160705" data-name="Grupo 1160705" transform="translate(0 27.022)">
                      <path id="Trazado_1013519" data-name="Trazado 1013519" d="M159.823,186.245a23.058,23.058,0,0,0-12.78-2.468,17.653,17.653,0,0,0-11.457,5.893,16.345,16.345,0,0,0-1.914,17.645,17.073,17.073,0,0,0,15.442,8.936,17.873,17.873,0,0,0,15.022-9.787Z" transform="translate(-131.932 -183.653)" fill="#ff98aa"/>
                      <g id="Grupo_1160704" data-name="Grupo 1160704" transform="translate(8.019 11.129)">
                        <path id="Trazado_1013520" data-name="Trazado 1013520" d="M140.092,200.756a11.477,11.477,0,0,1,10.849-5.734" transform="translate(-140.092 -194.977)" fill="none" stroke="#2e2854" stroke-linecap="round" stroke-linejoin="round" stroke-miterlimit="10" stroke-width="1.5"/>
                        <path id="Trazado_1013521" data-name="Trazado 1013521" d="M144.927,196.265a11.4,11.4,0,0,0,5.015,7.11" transform="translate(-140.176 -195)" fill="none" stroke="#2e2854" stroke-linecap="round" stroke-linejoin="round" stroke-miterlimit="10" stroke-width="1.5"/>
                      </g>
                    </g>
                  </g>
                </g>
                <g id="Grupo_1160724" data-name="Grupo 1160724" transform="translate(5.246 123.144)">
                  <g id="Grupo_1160712" data-name="Grupo 1160712" transform="translate(170.219 4.663)">
                    <g id="Grupo_1160710" data-name="Grupo 1160710" transform="translate(106.803)">
                      <path id="Trazado_1013522" data-name="Trazado 1013522" d="M378.622,335.46a279.086,279.086,0,0,1,18.158-26.833,124.645,124.645,0,0,0,10.037-14.689,63.44,63.44,0,0,0,9.677-11.516c.67-1.049,1.264-2.539.384-3.42a1.931,1.931,0,0,0-1.9-.359,5.573,5.573,0,0,0-1.737,1.031c-3.154,2.451-6.483,5.23-9.428,7.928a162.017,162.017,0,0,0,11.754-19.753c.535-1.118.98-2.63.05-3.449a1.993,1.993,0,0,0-2.225-.094,5.828,5.828,0,0,0-1.691,1.64c-4.007,5.107-8.57,10.494-12.578,15.6,3.531-7.451,7.308-14.347,9.981-21.179a6.688,6.688,0,0,0,.634-2.709,2.363,2.363,0,0,0-1.459-2.189c-1.468-.465-2.75,1.054-3.547,2.374-3.631,6.013-7.536,12.526-11.167,18.54,2.133-7.348,4.744-14.805,6.7-21.87.3-1.1.531-2.458-.313-3.225a2.155,2.155,0,0,0-2.673.106,6.277,6.277,0,0,0-1.635,2.369q-6.6,13.682-13.193,27.363l-12.12,5.808c-4.148,7.264-8.759,14.522-13.751,21.63Z" transform="translate(-356.575 -250.871)" fill="#ff98aa"/>
                      <g id="Grupo_1160708" data-name="Grupo 1160708" transform="translate(25.871)">
                        <path id="Trazado_1013523" data-name="Trazado 1013523" d="M391.275,274.714a46.123,46.123,0,0,1,14.093,14.87" transform="translate(-383.047 -251.284)" fill="none" stroke="#2e2854" stroke-linecap="round" stroke-linejoin="round" stroke-miterlimit="10" stroke-width="1.5"/>
                        <path id="Trazado_1013524" data-name="Trazado 1013524" d="M397.236,308.627a124.645,124.645,0,0,0,10.037-14.689,63.44,63.44,0,0,0,9.677-11.516c.67-1.049,1.264-2.539.384-3.42a1.931,1.931,0,0,0-1.9-.359,5.573,5.573,0,0,0-1.737,1.031c-3.154,2.451-6.483,5.23-9.428,7.928a162.017,162.017,0,0,0,11.754-19.753c.535-1.118.98-2.63.05-3.449a1.993,1.993,0,0,0-2.225-.094,5.828,5.828,0,0,0-1.691,1.64c-4.007,5.107-8.57,10.494-12.578,15.6,3.531-7.451,7.308-14.347,9.981-21.179a6.688,6.688,0,0,0,.634-2.709,2.363,2.363,0,0,0-1.459-2.189c-1.468-.465-2.75,1.054-3.547,2.374-3.631,6.013-7.536,12.526-11.167,18.54,2.133-7.348,4.744-14.805,6.7-21.87.3-1.1.531-2.458-.313-3.225a2.155,2.155,0,0,0-2.673.106,6.277,6.277,0,0,0-1.635,2.369q-6.6,13.682-13.193,27.363" transform="translate(-382.902 -250.871)" fill="none" stroke="#2e2854" stroke-linecap="round" stroke-linejoin="round" stroke-miterlimit="10" stroke-width="1.5"/>
                      </g>
                      <g id="Grupo_1160709" data-name="Grupo 1160709" transform="translate(13.753 11.116)">
                        <path id="Trazado_1013525" data-name="Trazado 1013525" d="M370.57,287.132q3.473-10.989,7.694-21.722A6.891,6.891,0,0,1,379.618,263a2.382,2.382,0,0,1,2.536-.667c1.11.485,1.4,1.905,1.489,3.116a102.95,102.95,0,0,1,.531,13.365,13.3,13.3,0,0,1,7.327,5.364,15.7,15.7,0,0,1,3.1,9.393" transform="translate(-370.57 -262.183)" fill="#ff98aa"/>
                        <path id="Trazado_1013526" data-name="Trazado 1013526" d="M370.57,287.132q3.473-10.989,7.694-21.722A6.891,6.891,0,0,1,379.618,263a2.382,2.382,0,0,1,2.536-.667c1.11.485,1.4,1.905,1.489,3.116a102.95,102.95,0,0,1,.531,13.365,13.3,13.3,0,0,1,7.327,5.364,15.7,15.7,0,0,1,3.1,9.393" transform="translate(-370.57 -262.183)" fill="none" stroke="#2e2854" stroke-linecap="round" stroke-linejoin="round" stroke-miterlimit="10" stroke-width="1.5"/>
                      </g>
                    </g>
                    <g id="Grupo_1160711" data-name="Grupo 1160711" transform="translate(0 2.927)">
                      <path id="Trazado_1013527" data-name="Trazado 1013527" d="M247.889,253.85a65.03,65.03,0,0,1,26.226,26.075c4.537,8.368,7.156,17.613,10.446,26.547s7.439,17.841,14.324,24.415,17.028,10.426,26.143,7.68c7.461-2.249,13.032-8.367,17.943-14.42,4.1-5.053,8.018-10.249,11.726-15.529,10.984,9.132,20.569,19.9,27.08,32.318a97.645,97.645,0,0,1-44.262,42.052c-16.636,7.815-36.755,10.578-53.237,2.443-14.952-7.38-24.506-22.239-33.293-36.41Z" transform="translate(-247.889 -253.85)" fill="#d24d84"/>
                      <path id="Trazado_1013528" data-name="Trazado 1013528" d="M309.613,372.452c-31.409-6.019-52.548-47.843-59.981-64.975l1.381,42.472c8.787,14.171,18.341,29.03,33.293,36.41,16.482,8.135,36.6,5.372,53.237-2.443a97.232,97.232,0,0,0,27.927-19.875C350.148,370.6,329.683,376.3,309.613,372.452Z" transform="translate(-247.919 -254.779)" fill="#2e2854" opacity="0.15"/>
                      <path id="Trazado_1013529" data-name="Trazado 1013529" d="M354.749,309.583c10.984,9.132,20.569,19.9,27.08,32.318a97.645,97.645,0,0,1-44.262,42.052c-16.636,7.815-36.755,10.578-53.237,2.443-14.952-7.38-24.506-22.239-33.293-36.41" transform="translate(-247.944 -254.815)" fill="none" stroke="#2e2854" stroke-linecap="round" stroke-linejoin="round" stroke-miterlimit="10" stroke-width="1.5"/>
                    </g>
                  </g>
                  <g id="Grupo_1160716" data-name="Grupo 1160716" transform="translate(51.16)">
                    <path id="Trazado_1013530" data-name="Trazado 1013530" d="M255.808,312.149,245.791,253.76q-2.313-1.244-4.725-2.293a63.16,63.16,0,0,0-7.816-2.792h0l-33.06,15.155-37.266-12.723a103.644,103.644,0,0,0-11.434,3.9l-24.717,52.18c-.2,43.634.312,87.271,3.326,130.637,4.275,7.109,12.81,10.242,20.748,12.652a400.834,400.834,0,0,0,108.526,17.687Q257.59,390.158,255.808,312.149Z" transform="translate(-126.732 -246.17)" fill="#d24d84"/>
                    <path id="Trazado_1013531" data-name="Trazado 1013531" d="M237.509,424.408V402.177c16.587-17.859,5.054-25.813,5.054-25.813l-5.817-1.517-2.1-50.056-6.024-1.128v32.1s-59.132,20.108-75.858,5.229,0-58.188,0-58.188L132.12,296.73l-5.35,11.293c-.178,38.65.208,77.3,2.393,115.766a103.372,103.372,0,0,0,34.354-1.292v5.491A296.89,296.89,0,0,0,237.509,424.408Z" transform="translate(-126.732 -247.002)" fill="#2e2854" opacity="0.15"/>
                    <path id="Trazado_1013532" data-name="Trazado 1013532" d="M185.449,271.658c9.99,4.5,22.05,4.5,31.748-.6a32.571,32.571,0,0,0,16.689-22.424,65,65,0,0,0-34.041-.462,94.051,94.051,0,0,0-36.285,2.894C168.969,259.841,176.308,267.537,185.449,271.658Z" transform="translate(-127.37 -246.126)" fill="#ff98aa"/>
                    <g id="Grupo_1160715" data-name="Grupo 1160715" transform="translate(93.591 42.884)">
                      <g id="Grupo_1160714" data-name="Grupo 1160714" transform="translate(0 4.655)">
                        <path id="Trazado_1013533" data-name="Trazado 1013533" d="M244.869,316.741a83.992,83.992,0,0,1-19.126-.96,3.965,3.965,0,0,1-3.288-3.525,98.642,98.642,0,0,1-.408-13.585,3.932,3.932,0,0,1,3.477-3.755,57.291,57.291,0,0,1,20.555,1.195,3.938,3.938,0,0,1,2.934,3.552,63.8,63.8,0,0,1-.5,13.748A3.933,3.933,0,0,1,244.869,316.741Z" transform="translate(-221.972 -294.503)" fill="#fff"/>
                        <path id="Trazado_1013534" data-name="Trazado 1013534" d="M228.164,300.555h4.171a1.419,1.419,0,0,1,1.419,1.419v7.677a1.419,1.419,0,0,1-1.419,1.419h-4.171a1.419,1.419,0,0,1-1.419-1.419v-7.676A1.42,1.42,0,0,1,228.164,300.555Z" transform="translate(-222.055 -294.608)" fill="#33a1bd"/>
                        <g id="Grupo_1160713" data-name="Grupo 1160713" transform="translate(15.535 8.552)">
                          <path id="Trazado_1013535" data-name="Trazado 1013535" d="M238.122,303.206l7.576.144" transform="translate(-237.787 -303.206)" fill="none" stroke="#2e2854" stroke-linecap="round" stroke-linejoin="round" stroke-miterlimit="10" stroke-width="1.5"/>
                          <path id="Trazado_1013536" data-name="Trazado 1013536" d="M237.781,307.5l7.816-.087" transform="translate(-237.781 -303.279)" fill="none" stroke="#2e2854" stroke-linecap="round" stroke-linejoin="round" stroke-miterlimit="10" stroke-width="1.5"/>
                        </g>
                        <path id="Trazado_1013537" data-name="Trazado 1013537" d="M244.869,316.741a83.992,83.992,0,0,1-19.126-.96,3.965,3.965,0,0,1-3.288-3.525,98.642,98.642,0,0,1-.408-13.585,3.932,3.932,0,0,1,3.477-3.755,57.291,57.291,0,0,1,20.555,1.195,3.938,3.938,0,0,1,2.934,3.552,63.8,63.8,0,0,1-.5,13.748A3.933,3.933,0,0,1,244.869,316.741Z" transform="translate(-221.972 -294.503)" fill="none" stroke="#2e2854" stroke-linecap="round" stroke-linejoin="round" stroke-miterlimit="10" stroke-width="1.5"/>
                      </g>
                      <path id="Trazado_1013538" data-name="Trazado 1013538" d="M233.281,289.853q-.068,3.109-.134,6.218l3.717.235q.094-3.131.188-6.262A10.264,10.264,0,0,0,233.281,289.853Z" transform="translate(-222.166 -289.766)" fill="#2e2854" stroke="#2e2854" stroke-linecap="round" stroke-linejoin="round" stroke-miterlimit="10" stroke-width="1.5"/>
                    </g>
                  </g>
                  <g id="Grupo_1160723" data-name="Grupo 1160723" transform="translate(0 8.842)">
                    <g id="Grupo_1160720" data-name="Grupo 1160720" transform="translate(87.947 64.279)">
                      <path id="Trazado_1013539" data-name="Trazado 1013539" d="M232.411,321.6c2.246,33.054,3,66.209,1.017,100.458a598.069,598.069,0,0,1-65.6,2.693c-1.126-33.786-2.251-67.57-3.659-102.324A407.239,407.239,0,0,1,232.411,321.6Z" transform="translate(-164.167 -320.536)" fill="#fff"/>
                      <g id="Grupo_1160717" data-name="Grupo 1160717" transform="translate(8.55 25.571)">
                        <path id="Trazado_1013540" data-name="Trazado 1013540" d="M186.735,350.307a61.913,61.913,0,0,0-13.835.043,120.782,120.782,0,0,0,.51,13.366c4.536-.153,9.072-.307,13.719-.445C186.951,359.206,186.774,355.141,186.735,350.307Z" transform="translate(-172.868 -346.617)" fill="none" stroke="#2e2854" stroke-linecap="round" stroke-linejoin="round" stroke-miterlimit="10" stroke-width="1.5"/>
                        <path id="Trazado_1013541" data-name="Trazado 1013541" d="M173.134,349.644a41.7,41.7,0,0,1,6.477,9.138q1.35-6.113,2.7-12.224" transform="translate(-172.872 -346.558)" fill="none" stroke="#d14b56" stroke-linecap="round" stroke-linejoin="round" stroke-miterlimit="10" stroke-width="3"/>
                      </g>
                      <g id="Grupo_1160718" data-name="Grupo 1160718" transform="translate(8.55 10.142)">
                        <path id="Trazado_1013542" data-name="Trazado 1013542" d="M172.869,336.037a4.135,4.135,0,0,1,4.323-4.244,4.282,4.282,0,0,1,3.591,1.5l-1.653,1.544a2.141,2.141,0,0,0-1.754-.889,1.987,1.987,0,0,0,.089,3.964,2.143,2.143,0,0,0,1.712-.967l1.721,1.467a4.281,4.281,0,0,1-3.519,1.666A4.134,4.134,0,0,1,172.869,336.037Z" transform="translate(-172.868 -330.873)" fill="#2e2854"/>
                        <path id="Trazado_1013543" data-name="Trazado 1013543" d="M186.938,337.7l-.724.017.045,1.993-2.672.06-.178-7.926,3.816-.085c2.208-.05,3.638,1.074,3.679,2.908a2.654,2.654,0,0,1-1.439,2.525l1.72,2.409-2.853.064Zm.162-3.879-.974.022.041,1.857.974-.022c.736-.017,1.079-.374,1.066-.953S187.836,333.8,187.1,333.817Z" transform="translate(-173.05 -330.872)" fill="#2e2854"/>
                        <path id="Trazado_1013544" data-name="Trazado 1013544" d="M200.449,337.368l.045,2.015-6.59.148-.179-7.926,6.442-.145.045,2.015-3.816.085.021.929,3.352-.076.043,1.925-3.352.076.024,1.042Z" transform="translate(-173.229 -330.867)" fill="#2e2854"/>
                        <path id="Trazado_1013545" data-name="Trazado 1013545" d="M203.214,331.392l3.906-.087c2.65-.06,4.507,1.406,4.562,3.863s-1.733,4-4.384,4.063l-3.906.088Zm3.925,5.758a1.88,1.88,0,1,0-.085-3.759l-1.12.026.085,3.759Z" transform="translate(-173.393 -330.865)" fill="#2e2854"/>
                        <path id="Trazado_1013546" data-name="Trazado 1013546" d="M214.467,331.14l2.672-.06.179,7.926-2.673.06Z" transform="translate(-173.588 -330.861)" fill="#2e2854"/>
                        <path id="Trazado_1013547" data-name="Trazado 1013547" d="M221.988,333.042l-2.322.052-.047-2.072,7.315-.165.046,2.072-2.322.052.132,5.854-2.672.06Z" transform="translate(-173.677 -330.857)" fill="#2e2854"/>
                      </g>
                      <g id="Grupo_1160719" data-name="Grupo 1160719" transform="translate(9.673 28.155)">
                        <path id="Trazado_1013548" data-name="Trazado 1013548" d="M194.221,350.1s24.824-.62,31.142-.912" transform="translate(-174.36 -349.187)" fill="none" stroke="#2e2854" stroke-linecap="round" stroke-linejoin="round" stroke-miterlimit="10" stroke-width="1.5"/>
                        <path id="Trazado_1013549" data-name="Trazado 1013549" d="M194.221,357.776s19.413-.187,31.142-.827" transform="translate(-174.36 -349.321)" fill="none" stroke="#2e2854" stroke-linecap="round" stroke-linejoin="round" stroke-miterlimit="10" stroke-width="1.5"/>
                        <path id="Trazado_1013550" data-name="Trazado 1013550" d="M194.221,365.4s8.595-.389,16.758-.68" transform="translate(-174.36 -349.456)" fill="none" stroke="#2e2854" stroke-linecap="round" stroke-linejoin="round" stroke-miterlimit="10" stroke-width="1.5"/>
                        <path id="Trazado_1013551" data-name="Trazado 1013551" d="M174.978,409.184s38.292-1.026,52.287-2.041" transform="translate(-174.027 -350.191)" fill="none" stroke="#2e2854" stroke-linecap="round" stroke-linejoin="round" stroke-miterlimit="10" stroke-width="1.5"/>
                        <path id="Trazado_1013552" data-name="Trazado 1013552" d="M174.01,374.689s38.292-1.026,52.287-2.041" transform="translate(-174.01 -349.593)" fill="none" stroke="#2e2854" stroke-linecap="round" stroke-linejoin="round" stroke-miterlimit="10" stroke-width="1.5"/>
                        <path id="Trazado_1013553" data-name="Trazado 1013553" d="M174.978,417.707s23.891-.615,33.521-1" transform="translate(-174.027 -350.356)" fill="none" stroke="#2e2854" stroke-linecap="round" stroke-linejoin="round" stroke-miterlimit="10" stroke-width="1.5"/>
                      </g>
                    </g>
                    <g id="Grupo_1160721" data-name="Grupo 1160721" transform="translate(101.81 104.354)">
                      <path id="Trazado_1013554" data-name="Trazado 1013554" d="M181.151,376.649c14.212-1.048,30.09-4.733,45.033-14.4,1.139-.737,2.809-1.444,3.683-.406.682.812.251,2.039-.237,2.98a52.147,52.147,0,0,1-5.764,8.826c4.181-.059,7.275-1.951,10.53-2.993s7.5-.883,9.264,2.046c1.16,1.928.811,4.369.426,6.588a63.487,63.487,0,0,1-2.895,11.984,21.348,21.348,0,0,1-7.126,9.871c-4.2,3.011-9.566,3.789-14.711,4.329a126.4,126.4,0,0,1-21.782.728c-4.574,1.413-14.769,4.3-19.3,5.5Z" transform="translate(-178.274 -361.317)" fill="#ff98aa"/>
                      <path id="Trazado_1013555" data-name="Trazado 1013555" d="M219.352,406.141c5.144-.539,10.506-1.317,14.711-4.329a16.667,16.667,0,0,0,2.1-1.8c-21.4,3.976-42.214,1.081-42.214,1.081-5.149.8-10.1,1.348-14.884,1.687l-.787,9.587c4.527-1.2,14.722-4.083,19.3-5.5A126.5,126.5,0,0,0,219.352,406.141Z" transform="translate(-178.274 -361.987)" fill="#ff8095"/>
                    </g>
                    <g id="Grupo_1160722" data-name="Grupo 1160722" transform="translate(0)">
                      <path id="Trazado_1013556" data-name="Trazado 1013556" d="M155.492,297.926c-5.862,6.665-11.757,13.376-16.355,20.969s-7.874,16.2-8,25.072,3.206,18.029,9.992,23.752a31.715,31.715,0,0,0,18.346,7.095,144.882,144.882,0,0,0,19.882,0,126.815,126.815,0,0,1,2.593,36.437,158.6,158.6,0,0,1-33.978,4.829c-15.846.655-31.616-4.348-45.326-12.319s-24.573-21.514-27.269-37.143c-2.23-12.92,1.107-26.193,5.984-38.364,9.4-23.453,24.834-44.673,45.2-59.624a112.254,112.254,0,0,1,24.027-13.5Z" transform="translate(-74.67 -255.124)" fill="#d24d84"/>
                      <path id="Trazado_1013557" data-name="Trazado 1013557" d="M182.254,401.682c-61.624,6.184-94.323-23.6-107.562-40.3a49.046,49.046,0,0,0,.684,7.074c2.7,15.63,13.559,29.172,27.269,37.142s29.48,12.975,45.326,12.319a158.484,158.484,0,0,0,33.978-4.829C182.231,409.293,182.318,405.486,182.254,401.682Z" transform="translate(-74.67 -256.964)" fill="#2e2854" opacity="0.15"/>
                      <path id="Trazado_1013558" data-name="Trazado 1013558" d="M179.357,376.176a126.815,126.815,0,0,1,2.593,36.437,158.6,158.6,0,0,1-33.978,4.829c-15.846.655-31.616-4.348-45.326-12.319S78.073,383.609,75.377,367.98c-1.962-11.368.386-23.008,4.3-33.931" transform="translate(-74.67 -256.491)" fill="none" stroke="#2e2854" stroke-linecap="round" stroke-linejoin="round" stroke-miterlimit="10" stroke-width="1.5"/>
                    </g>
                  </g>
                </g>
              </g>
            </g>
          </g>
        </g>
        <g id="Grupo_1160729" data-name="Grupo 1160729" transform="translate(8.271 24.624)">
          <path id="Trazado_1013560" data-name="Trazado 1013560" d="M362.531,458.567a2.5,2.5,0,1,0,.167,3.878A2.482,2.482,0,0,0,362.531,458.567Z" transform="translate(-54.761 -57.767)" fill="#fff"/>
          <path id="Trazado_1013561" data-name="Trazado 1013561" d="M67.862,293.034a2.5,2.5,0,1,0,.167,3.878A2.483,2.483,0,0,0,67.862,293.034Z" transform="translate(-49.657 -54.9)" fill="#fff"/>
          <path id="Trazado_1013562" data-name="Trazado 1013562" d="M189.941,105.313a2.5,2.5,0,1,0,.167,3.878A2.483,2.483,0,0,0,189.941,105.313Z" transform="translate(-51.772 -51.649)" fill="#fff"/>
          <path id="Trazado_1013563" data-name="Trazado 1013563" d="M389.354,78.54a2.5,2.5,0,1,0,.167,3.879A2.485,2.485,0,0,0,389.354,78.54Z" transform="translate(-55.225 -51.185)" fill="#fff"/>
          <path id="Trazado_1013564" data-name="Trazado 1013564" d="M78.693,97.331a2.5,2.5,0,1,0,.167,3.879A2.484,2.484,0,0,0,78.693,97.331Z" transform="translate(-49.845 -51.51)" fill="#9acedb"/>
          <path id="Trazado_1013565" data-name="Trazado 1013565" d="M117.042,450.6a2.5,2.5,0,1,0,.167,3.878A2.482,2.482,0,0,0,117.042,450.6Z" transform="translate(-50.509 -57.629)" fill="#9acedb"/>
          <path id="Trazado_1013566" data-name="Trazado 1013566" d="M540.3,413.921a2.5,2.5,0,1,0,.167,3.878A2.482,2.482,0,0,0,540.3,413.921Z" transform="translate(-57.84 -56.994)" fill="#9acedb"/>
          <path id="Trazado_1013567" data-name="Trazado 1013567" d="M501.055,51.376a2.5,2.5,0,1,0,.167,3.879A2.485,2.485,0,0,0,501.055,51.376Z" transform="translate(-57.16 -50.715)" fill="#9acedb"/>
          <path id="Trazado_1013568" data-name="Trazado 1013568" d="M345.124,59.258a5.446,5.446,0,1,0,2.664,7.767A5.478,5.478,0,0,0,345.124,59.258Z" transform="translate(-54.399 -50.853)" fill="#fff"/>
          <path id="Trazado_1013569" data-name="Trazado 1013569" d="M116.873,59.258a5.446,5.446,0,1,0,2.663,7.767A5.477,5.477,0,0,0,116.873,59.258Z" transform="translate(-50.445 -50.853)" fill="#9acedb"/>
          <path id="Trazado_1013570" data-name="Trazado 1013570" d="M541.192,450.1a5.446,5.446,0,1,0,2.663,7.766A5.476,5.476,0,0,0,541.192,450.1Z" transform="translate(-57.795 -57.622)" fill="#9acedb"/>
          <path id="Trazado_1013571" data-name="Trazado 1013571" d="M528.164,70.671a5.446,5.446,0,1,0,2.663,7.767A5.477,5.477,0,0,0,528.164,70.671Z" transform="translate(-57.569 -51.05)" fill="#9acedb"/>
          <path id="Trazado_1013572" data-name="Trazado 1013572" d="M76.689,432.176a5.446,5.446,0,1,0,2.663,7.767A5.477,5.477,0,0,0,76.689,432.176Z" transform="translate(-49.749 -57.312)" fill="#9acedb"/>
          <circle id="Elipse_11790" data-name="Elipse 11790" cx="2.667" cy="2.667" r="2.667" transform="translate(0 87.196)" fill="none" stroke="#2e2854" stroke-linecap="round" stroke-linejoin="round" stroke-miterlimit="10" stroke-width="1.5"/>
          <circle id="Elipse_11791" data-name="Elipse 11791" cx="2.667" cy="2.667" r="2.667" transform="translate(339.301)" fill="none" stroke="#2e2854" stroke-linecap="round" stroke-linejoin="round" stroke-miterlimit="10" stroke-width="1.5"/>
          <circle id="Elipse_11792" data-name="Elipse 11792" cx="2.667" cy="2.667" r="2.667" transform="translate(452.599 371.834)" fill="none" stroke="#2e2854" stroke-linecap="round" stroke-linejoin="round" stroke-miterlimit="10" stroke-width="1.5"/>
          <circle id="Elipse_11793" data-name="Elipse 11793" cx="2.667" cy="2.667" r="2.667" transform="translate(452.599 319.275)" fill="none" stroke="#2e2854" stroke-linecap="round" stroke-linejoin="round" stroke-miterlimit="10" stroke-width="1.5"/>
        </g>
      </g>
    </g>
  </g>
</svg>
