<svg xmlns="http://www.w3.org/2000/svg" xmlns:xlink="http://www.w3.org/1999/xlink" width="108" height="108" viewBox="0 0 108 108">
  <defs>
    <filter id="Trazado_982547" x="0" y="0" width="108" height="108" filterUnits="userSpaceOnUse">
      <feOffset dy="3" input="SourceAlpha"/>
      <feGaussianBlur stdDeviation="3" result="blur"/>
      <feFlood flood-opacity="0.161"/>
      <feComposite operator="in" in2="blur"/>
      <feComposite in="SourceGraphic"/>
    </filter>
  </defs>
  <g id="Grupo_1160733" data-name="Grupo 1160733" transform="translate(-611 -7943)">
    <g id="Grupo_1158647" data-name="Grupo 1158647" transform="translate(0 7479)">
      <g id="Grupo_1155790" data-name="Grupo 1155790" transform="translate(-5 -3446)">
        <g id="Grupo_1153177" data-name="Grupo 1153177" transform="translate(362 3397)">
          <g id="Grupo_1149598" data-name="Grupo 1149598" transform="translate(80 315)">
            <g id="Grupo_1148770" data-name="Grupo 1148770" transform="translate(-27 -2583)">
              <g id="Grupo_1146954" data-name="Grupo 1146954" transform="translate(-415 -1202)">
                <g transform="matrix(1, 0, 0, 1, 616, 3983)" filter="url(#Trazado_982547)">
                  <g id="Trazado_982547-2" data-name="Trazado 982547" transform="translate(9 6)" fill="#f2f7f5">
                    <path d="M 45 88.5 C 39.12687683105469 88.5 33.43022537231445 87.35007476806641 28.06830024719238 85.08217620849609 C 22.88852500915527 82.89131164550781 18.23629951477051 79.75458526611328 14.2408504486084 75.75914764404297 C 10.24541282653809 71.76370239257812 7.108687400817871 67.11147308349609 4.917825222015381 61.93170166015625 C 2.649924993515015 56.56977462768555 1.5 50.87312316894531 1.5 45 C 1.5 39.12687683105469 2.649924993515015 33.43022537231445 4.917825222015381 28.06830024719238 C 7.108687400817871 22.88852500915527 10.24541282653809 18.23629951477051 14.2408504486084 14.2408504486084 C 18.23629951477051 10.24541282653809 22.88852500915527 7.108687400817871 28.06830024719238 4.917825222015381 C 33.43022537231445 2.649924993515015 39.12687683105469 1.5 45 1.5 C 50.87312316894531 1.5 56.56977462768555 2.649924993515015 61.93170166015625 4.917825222015381 C 67.11147308349609 7.108687400817871 71.76370239257812 10.24541282653809 75.75914764404297 14.2408504486084 C 79.75458526611328 18.23629951477051 82.89131164550781 22.88852500915527 85.08217620849609 28.06830024719238 C 87.35007476806641 33.43022537231445 88.5 39.12687683105469 88.5 45 C 88.5 50.87312316894531 87.35007476806641 56.56977462768555 85.08217620849609 61.93170166015625 C 82.89131164550781 67.11147308349609 79.75458526611328 71.76370239257812 75.75914764404297 75.75914764404297 C 71.76370239257812 79.75458526611328 67.11147308349609 82.89131164550781 61.93170166015625 85.08217620849609 C 56.56977462768555 87.35007476806641 50.87312316894531 88.5 45 88.5 Z" stroke="none"/>
                    <path d="M 45 3 C 39.32871246337891 3 33.82865524291992 4.110054016113281 28.65262985229492 6.299339294433594 C 23.65165710449219 8.414573669433594 19.15968322753906 11.44334411621094 15.301513671875 15.301513671875 C 11.44334411621094 19.15968322753906 8.414573669433594 23.65165710449219 6.299339294433594 28.65262985229492 C 4.110054016113281 33.82865524291992 3 39.32871246337891 3 45 C 3 50.67128753662109 4.110054016113281 56.17134475708008 6.299339294433594 61.34737396240234 C 8.414573669433594 66.34834289550781 11.44334411621094 70.84031677246094 15.301513671875 74.698486328125 C 19.15968322753906 78.55665588378906 23.65165710449219 81.58542633056641 28.65262985229492 83.70066070556641 C 33.82865524291992 85.88994598388672 39.32871246337891 87 45 87 C 50.67128753662109 87 56.17134475708008 85.88994598388672 61.34737396240234 83.70066070556641 C 66.34834289550781 81.58542633056641 70.84031677246094 78.55665588378906 74.698486328125 74.698486328125 C 78.55665588378906 70.84031677246094 81.58542633056641 66.34834289550781 83.70066070556641 61.34737396240234 C 85.88994598388672 56.17134475708008 87 50.67128753662109 87 45 C 87 39.32871246337891 85.88994598388672 33.82865524291992 83.70066070556641 28.65262985229492 C 81.58542633056641 23.65165710449219 78.55665588378906 19.15968322753906 74.698486328125 15.301513671875 C 70.84031677246094 11.44334411621094 66.34834289550781 8.414573669433594 61.34737396240234 6.299339294433594 C 56.17134475708008 4.110054016113281 50.67128753662109 3 45 3 M 45 0 C 69.85281372070312 0 90 20.14718627929688 90 45 C 90 69.85281372070312 69.85281372070312 90 45 90 C 20.14718627929688 90 0 69.85281372070312 0 45 C 0 20.14718627929688 20.14718627929688 0 45 0 Z" stroke="none" fill="#4a665c"/>
                  </g>
                </g>
              </g>
            </g>
          </g>
        </g>
      </g>
    </g>
    <g id="layer1-0" transform="translate(637.853 7963.412)">
      <path id="path7922" d="M32.067,21.248c-1.458,3.592,1.627,2.829-1.1,5.592s-2.013-.323-5.595,1.191-.857,3.146-4.748,3.179-1.195-1.646-4.8-3.1-2.84,1.621-5.614-1.1.324-2.005-1.2-5.572-3.159-.854-3.192-4.913c.033-4.058,1.673-1.346,3.192-4.913s-1.579-2.856,1.2-5.572,2.008.357,5.614-1.1.911-3.131,4.8-3.1,1.166,1.666,4.748,3.179S28.24,3.46,30.967,6.223s-.358,2,1.1,5.592,3.144.908,3.111,4.716c.033,3.809-1.653,1.124-3.111,4.716Z" transform="translate(20.707 0.714)" fill="#ff5151"/>
      <path id="ellipse7924" d="M9.78,4.89A4.89,4.89,0,1,0,4.89,9.78,4.89,4.89,0,0,0,9.78,4.89Z" transform="translate(46.099 22.136) rotate(180)" fill="#e4eff8"/>
      <path id="ellipse7954" d="M13.357,4.5a4.887,4.887,0,0,0-2.341,9.178A4.884,4.884,0,0,1,17.657,7.06a4.89,4.89,0,0,0-4.3-2.561Z" transform="translate(27.851 7.856)" fill="#c4dcf0"/>
      <g id="Grupo_1160732" data-name="Grupo 1160732" transform="translate(26.528 2.566)">
        <path id="path7935" d="M9.056,4.951a6.81,6.81,0,0,1-.728.247,3.468,3.468,0,0,0,2.687-.247c3.182-1.281,1.474-2.734,3.7-3.037a7.567,7.567,0,0,0-.854-.061C9.967,1.82,12.663,3.5,9.056,4.951Z" transform="translate(0.946 -1.852)" fill="#f5f9fb"/>
        <path id="path7938" d="M12.013,2.674c-.417.033-.937.315-1.8,1.164-2.774,2.716.323,2.006-1.2,5.573s-3.159.854-3.192,4.912c.033,4.059,1.672,1.345,3.192,4.912s-1.578,2.857,1.2,5.573c1.716,1.681,2.079,1.144,2.959.835a6.745,6.745,0,0,1-1-.835c-2.774-2.716.323-2.006-1.2-5.573s-3.159-.854-3.192-4.912c.033-4.058,1.672-1.345,3.192-4.912s-1.578-2.857,1.2-5.573a6.754,6.754,0,0,1,1-.835,2.84,2.84,0,0,0-1.154-.329Z" transform="translate(-5.821 0.356)" fill="#f5f9fb"/>
        <path id="path7940" d="M8.328,9.006a6.8,6.8,0,0,1,.728.247c3.607,1.452.911,3.132,4.8,3.1a7.5,7.5,0,0,0,.854-.061c-2.222-.3-.514-1.756-3.7-3.037A5.086,5.086,0,0,0,9.4,8.845,2.589,2.589,0,0,0,8.328,9.006Z" transform="translate(0.946 17.008)" fill="#f5f9fb"/>
      </g>
      <path id="path7944" d="M9.411,1.991c1.752.424.336,1.774,3.339,3.043a3.4,3.4,0,0,0,3.205.1c-.092-.035-.175-.06-.273-.1-3.581-1.513-.857-3.147-4.748-3.18a5.886,5.886,0,0,0-1.523.138Z" transform="translate(30.396 0.714)" fill="#ff2929"/>
      <path id="path7946" d="M13.593,2.715c-.623-.06-1.029.439-2,.442a7.634,7.634,0,0,1,.847.755c2.727,2.763-.359,2,1.1,5.591s3.145.908,3.112,4.717c.033,3.809-1.654,1.125-3.112,4.717s1.628,2.827-1.1,5.591a7.626,7.626,0,0,1-.847.755c1.612,0,1.653,1.4,3.781-.755,2.727-2.763-.359-2,1.1-5.591s3.145-.908,3.112-4.717c.033-3.809-1.654-1.125-3.112-4.717s1.628-2.828-1.1-5.591c-.852-.863-1.369-1.157-1.785-1.2Z" transform="translate(36.297 3.027)" fill="#ff2929"/>
      <path id="path7948" d="M12.75,9.253c-3,1.269-1.587,2.619-3.339,3.043a5.883,5.883,0,0,0,1.523.138c3.89-.033,1.166-1.667,4.748-3.18.1-.041.182-.067.273-.1a3.909,3.909,0,0,0-1.2-.334A4.374,4.374,0,0,0,12.75,9.253Z" transform="translate(30.396 19.491)" fill="#ff2929"/>
      <path id="path7785" d="M31.658,28.272c-1.847,4.55,2.061,3.583-1.393,7.083s-2.55-.409-7.087,1.508-1.086,3.985-6.014,4.027-1.513-2.085-6.082-3.924-3.6,2.053-7.112-1.388.41-2.54-1.514-7.058-4-1.082-4.044-6.223c.042-5.141,2.119-1.7,4.044-6.223s-2-3.618,1.514-7.058,2.543.452,7.112-1.388,1.154-3.966,6.082-3.924,1.477,2.11,6.014,4.027,3.632-1.992,7.087,1.508-.454,2.533,1.393,7.083,3.983,1.15,3.94,5.974c.042,4.825-2.093,1.424-3.94,5.974Z" transform="translate(0.714 5.712)" fill="#a0bf05"/>
      <path id="path7799" d="M18.673,15.158A8.807,8.807,0,1,1,9.865,6.351,8.807,8.807,0,0,1,18.673,15.158Z" transform="translate(7.854 12.852)" fill="#e4eff8"/>
      <path id="path7831" d="M10.21,9.525v5.21a1.632,1.632,0,0,1-1.631,1.64H4.013a1.632,1.632,0,0,1-1.631-1.64V9.525Z" transform="translate(11.426 21.42)" fill="#38668c"/>
      <path id="circle7803" d="M9.865,6.351A8.8,8.8,0,0,0,4.7,22.285a8.8,8.8,0,0,1,12.28-12.3,8.807,8.807,0,0,0-7.12-3.639Z" transform="translate(7.854 12.852)" fill="#c4dcf0"/>
      <path id="path966" d="M6.256,4.745c-.528.042-1.188.4-2.286,1.477-3.514,3.441.411,2.538-1.514,7.057s-4,1.083-4.044,6.223c.042,5.141,2.12,1.705,4.044,6.223s-2,3.616,1.514,7.057C5.918,34.689,6.5,34.343,7.4,33.969a7.562,7.562,0,0,1-1.472-1.187c-3.514-3.441.411-2.538-1.514-7.057S.411,24.643.369,19.5c.042-5.141,2.12-1.705,4.044-6.223s-2-3.616,1.514-7.057A7.562,7.562,0,0,1,7.4,5.035a2.432,2.432,0,0,0-1.143-.291Z" transform="translate(0.714 8.508)" fill="#f5f9fb"/>
      <path id="path7795" d="M2.632,12.562a3.231,3.231,0,0,0-1.124.132,7.917,7.917,0,0,1,1.219.384C7.3,14.917,3.881,17.045,8.809,17c.339,0,.631-.019.9-.04-3.329-.281-.838-2.2-5.021-3.886a6.455,6.455,0,0,0-2.053-.516Z" transform="translate(9.069 29.6)" fill="#f5f9fb"/>
      <path id="path970" d="M7.75,4.8c-.623-.06-1.071.325-1.833.491a9.25,9.25,0,0,1,1.16,1.024c3.455,3.5-.455,2.531,1.391,7.081s3.983,1.15,3.941,5.975c.042,4.825-2.094,1.425-3.941,5.975s2.063,3.582-1.391,7.081a9.25,9.25,0,0,1-1.16,1.024c1.408.307,1.739,1.361,4.094-1.024,3.455-3.5-.453-2.531,1.393-7.081s3.983-1.15,3.941-5.975c.042-4.824-2.094-1.425-3.941-5.975s2.061-3.581-1.393-7.081C8.931,5.218,8.277,4.847,7.75,4.8Z" transform="translate(20.967 8.642)" fill="#809804"/>
      <path id="path7789" d="M7.693,13.08c-4.014,1.7-1.787,3.507-4.631,3.932a9.229,9.229,0,0,0,1.552.1c4.928-.042,1.477-2.11,6.013-4.027.26-.11.5-.2.724-.269a3.4,3.4,0,0,0-1.617-.283,6.453,6.453,0,0,0-2.041.552Z" transform="translate(13.264 29.497)" fill="#809804"/>
      <path id="path7433" d="M39.328,11.384V26.063H37.371c-2.936,0-8.807,6.85-11.743,6.85H2.141a2.936,2.936,0,1,1,0-5.872H14.3L14.4,27a2.939,2.939,0,0,1-1.273-5.273l10.126-7.412c4.434-3.246,7.269-2.936,16.076-2.936Z" transform="translate(2.856 26.412)" fill="#ffd1b5"/>
      <path id="path7569" d="M30.052,11.119c-8.807,0-11.642-.31-16.076,2.936L3.849,21.467a2.924,2.924,0,0,0,.912,5.18,2.922,2.922,0,0,1,.826-3.784L15.713,15.45c4.09-2.994,7.026-2.959,14.339-2.936Z" transform="translate(12.133 25.699)" fill="#f5f9fb"/>
      <path id="rect7437" d="M11.112,31.134H20.9V10.584H11.112Z" transform="translate(34.987 24.276)" fill="#38668c"/>
      <path id="path7873" d="M18.429,10.584c0,12.722-.2,18.715-7.053,20.551h8.807V10.584Z" transform="translate(35.701 24.276)" fill="#2c5170"/>
      <path id="path7443" d="M11.112,10.584V31.134h1.957V10.584Z" transform="translate(34.987 24.276)" fill="#f5f9fb"/>
      <path id="path7457" d="M13.968,29.177H10.054V10.584h3.914Z" transform="translate(32.131 24.276)" fill="#e4eff8"/>
      <path id="path7466" d="M12.54,29.177V10.584H10.583V29.177Z" transform="translate(33.559 24.276)" fill="#c4dcf0"/>
      <path id="path7853" d="M2.381,9.526v5.21a1.633,1.633,0,0,0,1.632,1.64H5.969a1.633,1.633,0,0,1-1.632-1.64V9.526Z" transform="translate(11.426 21.42)" fill="#f5f9fb"/>
      <path id="path7857" d="M7.724,9.526c.051,4.946-3.379,6.322-5.086,6.7a1.618,1.618,0,0,0,.682.153H7.887a1.631,1.631,0,0,0,1.63-1.64V9.526Z" transform="translate(12.119 21.42)" fill="#2c5170"/>
      <path id="path7342" d="M8.518,7.409,5.579,10.276,2.646,7.409" transform="translate(12.14 15.708)" fill="none" stroke="#333" stroke-linecap="round" stroke-linejoin="round" stroke-width="0.529"/>
      <path id="path7957" d="M14.51,25.04c0-3.723,5.877-4.7,5.877-11.593a9.8,9.8,0,0,0-19.6,0c0,6.892,5.877,7.87,5.877,11.593Z" transform="translate(7.131 5.712)" fill="#ffca28"/>
      <path id="path7959" d="M.79,13.447c0,6.892,5.877,7.869,5.877,11.592H8.554c-1.638-2.631-5.8-4.522-5.8-10.608a10.791,10.791,0,0,1,9.335-10.6,10.123,10.123,0,0,0-1.5-.122,9.8,9.8,0,0,0-9.8,9.742Z" transform="translate(7.132 5.712)" fill="#f5f9fb"/>
      <path id="path7961" d="M2.295,22.9a3.383,3.383,0,0,1,.311,1.4h7.842c0-3.723,5.877-4.7,5.877-11.592A9.909,9.909,0,0,0,10.89,3.98c3.3,13.2-4.333,17.542-8.6,18.916Z" transform="translate(11.193 6.455)" fill="#ecb200"/>
      <path id="path972" d="M38.378,11.642c-1.944,7.152-11.021,22.372-39.1,18.815a2.926,2.926,0,0,0,2.676,1.735H25.438c2.936,0,8.807-6.85,11.743-6.85H39.03v-13.7h-.652Z" transform="translate(3.046 27.133)" fill="#ffb98d"/>
      <path id="path8298" d="M39,1.958a2.291,2.291,0,0,0-1.076,1.206,2.591,2.591,0,0,1-.413.759,3.377,3.377,0,0,1-1.351.837,3.393,3.393,0,0,1-1.56.333,2.636,2.636,0,0,1-.831-.26,2.2,2.2,0,0,0-1.609-.115,4.956,4.956,0,0,0-1.936,1.344,4.955,4.955,0,0,0-1.388,1.907,2.227,2.227,0,0,0,.094,1.617,2.345,2.345,0,0,1,.247.824,3.338,3.338,0,0,1-.361,1.539,4.614,4.614,0,0,1-.275.533,3.287,3.287,0,0,0-1.061.212,4.075,4.075,0,0,1-.994.3,10.724,10.724,0,0,0-17.414-.176,5,5,0,0,1-.858-.289,3.042,3.042,0,0,0-1.328-.237,2.328,2.328,0,0,0-.541.1A6.089,6.089,0,0,0,4,14.029a6.068,6.068,0,0,0-1.69,2.311,2.783,2.783,0,0,0,.107,1.871,3.494,3.494,0,0,1,.333,1.12A4.493,4.493,0,0,1,2.272,21.4,4.559,4.559,0,0,1,1.1,23.2a4.029,4.029,0,0,1-1.063.577,2.889,2.889,0,0,0-1.416,1.3,6.729,6.729,0,0,0-.476,2.936,6.729,6.729,0,0,0,.476,2.936,2.889,2.889,0,0,0,1.416,1.3,4.029,4.029,0,0,1,1.063.577,4.559,4.559,0,0,1,1.17,1.791,4.493,4.493,0,0,1,.476,2.074,3.494,3.494,0,0,1-.333,1.12,2.783,2.783,0,0,0-.107,1.871A6.069,6.069,0,0,0,4,41.992a6.089,6.089,0,0,0,2.349,1.64,2.8,2.8,0,0,0,1.869-.138,3.506,3.506,0,0,1,1.12-.346,4.558,4.558,0,0,1,2.095.44,4.559,4.559,0,0,1,1.814,1.128,3.5,3.5,0,0,1,.564,1.026,2.78,2.78,0,0,0,1.242,1.4,3.3,3.3,0,0,0,.432.153l-.078.057a3.914,3.914,0,0,0-1.086,5.12H5A3.915,3.915,0,1,0,5,60.3H28.487a6.412,6.412,0,0,0,3.186-1.219c1.07-.681,2.185-1.558,3.286-2.414s2.188-1.694,3.136-2.3a4.737,4.737,0,0,1,2.129-.917h.98v.986a.98.98,0,0,0,.982.98H45.12a.98.98,0,0,0,.982.979H55.88a.98.98,0,0,0,.982-.98V34.851a.98.98,0,0,0-.982-.98H46.1a.98.98,0,0,0-.982.979H42.188a.98.98,0,0,0-.982.98v.99a80.007,80.007,0,0,0-8.236.2,2.232,2.232,0,0,1-.134-.585,4.525,4.525,0,0,1,.442-2.089,4.487,4.487,0,0,1,1.133-1.8A3.343,3.343,0,0,1,35.429,32a2.773,2.773,0,0,0,1.416-1.214,3.253,3.253,0,0,0,.227-.581,2.263,2.263,0,0,1,.443.363,2.592,2.592,0,0,1,.413.759A2.286,2.286,0,0,0,39,32.534a5.006,5.006,0,0,0,2.336.369,4.987,4.987,0,0,0,2.326-.413,2.216,2.216,0,0,0,1.053-1.219,2.6,2.6,0,0,1,.4-.766,4.669,4.669,0,0,1,2.89-1.221,2.615,2.615,0,0,1,.831.247,2.443,2.443,0,0,0,1.611.094,4.971,4.971,0,0,0,1.913-1.38,4.966,4.966,0,0,0,1.359-1.928A2.455,2.455,0,0,0,53.6,24.7a2.56,2.56,0,0,1-.262-.816,3.356,3.356,0,0,1,.333-1.552,3.352,3.352,0,0,1,.839-1.344,2.307,2.307,0,0,1,.751-.4,2.194,2.194,0,0,0,1.221-1.055,4.756,4.756,0,0,0,.377-2.286,4.777,4.777,0,0,0-.378-2.286,2.194,2.194,0,0,0-1.221-1.055,2.306,2.306,0,0,1-.751-.4,3.356,3.356,0,0,1-.837-1.344,3.356,3.356,0,0,1-.333-1.552A2.551,2.551,0,0,1,53.6,9.8a2.455,2.455,0,0,0,.122-1.619,4.957,4.957,0,0,0-1.357-1.928,4.975,4.975,0,0,0-1.915-1.38,2.443,2.443,0,0,0-1.611.094,2.6,2.6,0,0,1-.83.247,3.4,3.4,0,0,1-1.554-.361,3.372,3.372,0,0,1-1.336-.86,2.6,2.6,0,0,1-.405-.766A2.216,2.216,0,0,0,43.663,2a4.987,4.987,0,0,0-2.326-.413A5,5,0,0,0,39,1.958Zm3.748,1.778c.108.056.115.156.166.245a4.293,4.293,0,0,0,.7,1.265,5.357,5.357,0,0,0,2.074,1.4,5.394,5.394,0,0,0,2.456.512,4.349,4.349,0,0,0,1.4-.375c.255-.1.18-.1.3-.059a4,4,0,0,1,1.126.9,3.94,3.94,0,0,1,.883,1.133c.036.113.039.038-.065.291a4.34,4.34,0,0,0-.4,1.393,5.29,5.29,0,0,0,.468,2.448,5.343,5.343,0,0,0,1.372,2.095,4.237,4.237,0,0,0,1.273.715c.255.108.212.117.237.153a3.709,3.709,0,0,1,.159,1.39,3.734,3.734,0,0,1-.157,1.39c-.025.036.018.045-.237.153a4.237,4.237,0,0,0-1.273.715A5.343,5.343,0,0,0,51.863,21.6a5.289,5.289,0,0,0-.468,2.448,4.341,4.341,0,0,0,.4,1.393c.1.252.1.177.065.291a3.939,3.939,0,0,1-.883,1.133,4,4,0,0,1-1.126.9c-.116.038-.043.04-.3-.059a4.349,4.349,0,0,0-1.4-.375,6.49,6.49,0,0,0-4.53,1.913,4.293,4.293,0,0,0-.7,1.265c-.051.089-.057.188-.164.245a3.86,3.86,0,0,1-1.43.187,3.948,3.948,0,0,1-1.437-.159c-.109-.054-.111-.149-.166-.245a4.366,4.366,0,0,0-.73-1.258,5.008,5.008,0,0,0-1.7-1.185c0-.031,0-.056,0-.088a5.854,5.854,0,0,0-.447-2.777,2.774,2.774,0,0,0-1.416-1.214,3.343,3.343,0,0,1-1.019-.549,4.487,4.487,0,0,1-1.133-1.8,4.525,4.525,0,0,1-.442-2.089,3.463,3.463,0,0,1,.346-1.112,2.787,2.787,0,0,0,.145-1.871,6.067,6.067,0,0,0-1.653-2.332,10.4,10.4,0,0,0-1.265-1.124c.07-.14.141-.272.208-.43a5.306,5.306,0,0,0,.512-2.443,4.343,4.343,0,0,0-.375-1.4c-.038-.143-.1-.176-.059-.289a3.961,3.961,0,0,1,.9-1.12,3.95,3.95,0,0,1,1.141-.881c.116-.036.194.034.3.065a4.345,4.345,0,0,0,1.393.4,5.391,5.391,0,0,0,2.464-.47,5.345,5.345,0,0,0,2.095-1.365,4.367,4.367,0,0,0,.73-1.258c.055-.1.058-.19.166-.245a3.95,3.95,0,0,1,1.437-.159,3.861,3.861,0,0,1,1.43.187Zm-.273,6.38,1.26,1.263H41.2a5.869,5.869,0,1,0,5.873,5.864.979.979,0,1,0-1.957,0A3.914,3.914,0,1,1,41.2,13.336H43.73l-1.252,1.256a.976.976,0,1,0,1.38,1.38l2.94-2.932a.983.983,0,0,0,0-1.372l-2.94-2.932a.976.976,0,1,0-1.38,1.38ZM26.525,19.159a7.623,7.623,0,0,1-2.651,5.952,17.213,17.213,0,0,0-2.123,2.341,6.034,6.034,0,0,0-1.015,2.515H18.7V26.392l2.622-2.563a.981.981,0,1,0-1.372-1.4l-2.232,2.181-2.23-2.181a.981.981,0,1,0-1.372,1.4L16.741,26.4v3.568H14.7a6.033,6.033,0,0,0-1.013-2.515,17.213,17.213,0,0,0-2.123-2.341,7.623,7.623,0,0,1-2.651-5.952,8.805,8.805,0,0,1,17.611,0Zm-8.805-6.808a6.857,6.857,0,0,0-5.128,2.311.979.979,0,1,0,1.466,1.294,4.89,4.89,0,0,1,3.662-1.648.979.979,0,1,0,0-1.957ZM7.153,14.22a2.093,2.093,0,0,1,.319.119c.139.057.337.14.558.22a10.676,10.676,0,0,0-1.074,4.6A9.116,9.116,0,0,0,8.549,24.6q-.007.018-.013.036a9.793,9.793,0,0,0,4.381,11.892A2.925,2.925,0,0,0,14.791,38.6c0,.259,0,.51,0,1.158a2.93,2.93,0,1,0,5.86,0V38.6a2.918,2.918,0,0,0,1.871-2.068A9.788,9.788,0,0,0,26.89,24.6a9.117,9.117,0,0,0,1.592-5.44,10.649,10.649,0,0,0-.973-4.381c.289-.091.52-.192.69-.258.337-.131.333-.151.549-.08a4.956,4.956,0,0,1,1.531,1.2,5.016,5.016,0,0,1,1.185,1.552c.067.213.043.2-.094.535a5.273,5.273,0,0,0-.484,1.69,6.453,6.453,0,0,0,.577,2.984,6.483,6.483,0,0,0,1.669,2.55,5.155,5.155,0,0,0,1.539.868c.335.142.339.128.434.312a4.7,4.7,0,0,1,.231,1.881,4.7,4.7,0,0,1-.231,1.881c-.1.184-.1.17-.434.312a5.155,5.155,0,0,0-1.539.868,6.483,6.483,0,0,0-1.669,2.55,6.453,6.453,0,0,0-.577,2.984,4.076,4.076,0,0,0,.136.724,14.108,14.108,0,0,0-5.489,2.613l-7.764,5.682a4.852,4.852,0,0,1-1.837-.229c-.2-.1-.188-.11-.333-.44a5.275,5.275,0,0,0-.881-1.525,6.52,6.52,0,0,0-2.557-1.661,6.53,6.53,0,0,0-3-.571,5.283,5.283,0,0,0-1.692.485c-.334.136-.332.153-.549.086A4.991,4.991,0,0,1,5.37,40.591a4.965,4.965,0,0,1-1.206-1.525c-.07-.212-.051-.206.08-.541a5.267,5.267,0,0,0,.455-1.7,6.464,6.464,0,0,0-.629-2.976,6.555,6.555,0,0,0-1.7-2.521,5.659,5.659,0,0,0-1.518-.868c-.323-.147-.344-.135-.463-.377A5.559,5.559,0,0,1,.1,28.01a5.559,5.559,0,0,1,.281-2.076c.118-.242.139-.229.463-.377a5.658,5.658,0,0,0,1.518-.868,6.555,6.555,0,0,0,1.7-2.521A6.464,6.464,0,0,0,4.7,19.194a5.267,5.267,0,0,0-.455-1.7c-.131-.335-.151-.329-.08-.541A4.964,4.964,0,0,1,5.37,15.43a4.991,4.991,0,0,1,1.554-1.177.441.441,0,0,1,.229-.033Zm4.692,3.972a.979.979,0,1,0,.979.979A.979.979,0,0,0,11.846,18.192ZM10.068,26.38l.109.111a16.841,16.841,0,0,1,1.9,2.074,3.844,3.844,0,0,1,.744,2.376h.006v.984c0,.675,0,1.423,0,2.19a7.8,7.8,0,0,1-2.758-7.735Zm15.3,0a7.812,7.812,0,0,1-2.758,7.741v-3.18h.006a3.844,3.844,0,0,1,.743-2.376,16.84,16.84,0,0,1,1.9-2.074l.109-.111ZM14.783,31.925h5.872v3.914a.963.963,0,0,1-.975.975H15.758a.968.968,0,0,1-.975-.975c0-1.219,0-2.663,0-3.914Zm32.293,3.914h7.829V54.432H47.077Zm-3.914.979H45.12V53.454H43.162ZM16.748,38.773h1.946v.982a.973.973,0,1,1-1.946,0C16.748,39.144,16.748,38.955,16.748,38.773Zm24.457,0V51.5h-.98a6.3,6.3,0,0,0-3.184,1.221c-1.07.681-2.187,1.548-3.287,2.4s-2.186,1.7-3.135,2.305a4.828,4.828,0,0,1-2.131.917H5A1.958,1.958,0,1,1,5,54.43H17.333a3.929,3.929,0,0,0,2.695-.761l5.692-4.331a.979.979,0,1,0-1.185-1.554L18.858,52.1a1.955,1.955,0,0,1-2.3-3.165l10.128-7.412a12.115,12.115,0,0,1,5.952-2.506,70.365,70.365,0,0,1,8.565-.239Zm9.786,11.741a.979.979,0,1,0,.979.979A.979.979,0,0,0,50.991,50.518Z" transform="translate(0 0)" fill="#333"/>
    </g>
  </g>
</svg>
