<svg xmlns="http://www.w3.org/2000/svg" xmlns:xlink="http://www.w3.org/1999/xlink" width="400" height="408" viewBox="0 0 400 408">
  <defs>
    <clipPath id="clip-path">
      <rect id="Rect치ngulo_409890" data-name="Rect치ngulo 409890" width="400" height="408" transform="translate(1020 564)" fill="#fff" stroke="#707070" stroke-width="1" opacity="0.54"/>
    </clipPath>
  </defs>
  <g id="Enmascarar_grupo_1098789" data-name="Enmascarar grupo 1098789" transform="translate(-1020 -564)" clip-path="url(#clip-path)">
    <g id="Grupo_1160936" data-name="Grupo 1160936">
      <g id="Grupo_1160872" data-name="Grupo 1160872" transform="translate(-5883.478 -216.313)">
        <path id="Trazado_1013756" data-name="Trazado 1013756" d="M348.027,188.348c6.082,34.294,1.025,72.988-23.5,97.722-20.875,21.055-52,28.376-81.611,29.81-39.748,1.927-81.141-5.667-113.635-28.64C89.19,258.893,66.751,207.449,73.253,158.777c2.5-18.749,9.21-37.324,21.634-51.587C107.248,93,124.505,83.877,142.3,77.745c41.735-14.381,89.346-13.238,128.764,6.632S340.1,143.622,348.027,188.348Z" transform="translate(6872.475 770.573)" fill="#f0c87e"/>
        <g id="OBJECTS" transform="translate(6916.478 795.313)">
          <g id="Grupo_1160870" data-name="Grupo 1160870" transform="translate(45.873)">
            <path id="Trazado_1013757" data-name="Trazado 1013757" d="M165.348,307.995a9.635,9.635,0,0,1,2.086-12.512c11.5-9.391,23.5-18.3,35.833-26.758a14.512,14.512,0,0,0,4.315-19.368c-25.361-42.773-49.877-85.789-72.6-129.717q9.279-5.157,18.461-10.4A221.824,221.824,0,0,0,97.743,77c-2.139,21.168-1.818,42.167-.524,63.106q9.308-4.928,18.422-9.862,34.5,59.227,65.982,120.147a6.01,6.01,0,0,1-1.945,7.713,342.035,342.035,0,0,0-34.908,27.508,21.064,21.064,0,0,0-2.558,28.618c22.423,28.862,45.409,57.774,70.211,85.034,4.982-1.831,10.2-2.025,15.42-2.22A903.687,903.687,0,0,1,165.348,307.995Z" transform="translate(-92.555 -25.736)" fill="#d24d84"/>
            <g id="Grupo_1160837" data-name="Grupo 1160837" transform="translate(0 267.669)">
              <g id="Grupo_1160836" data-name="Grupo 1160836">
                <path id="Trazado_1013758" data-name="Trazado 1013758" d="M160.142,468.379c-11.95-1.576-24.1-3.205-35.1-8.125s-20.9-13.69-24.261-25.268a17.4,17.4,0,0,1-.535-8.915,9.3,9.3,0,0,1,5.556-6.654c4.2-1.49,8.679.989,12.445,3.372l39.327,24.889Z" transform="translate(-92.965 -331.48)" fill="#2e2854" opacity="0.15"/>
                <path id="Trazado_1013759" data-name="Trazado 1013759" d="M194.751,386.334a347.615,347.615,0,0,1-17.392-33.464c-2.09-4.618-4.116-9.457-4.043-14.526s2.8-10.443,7.6-12.064a12.206,12.206,0,0,1,10.069,1.568,28.261,28.261,0,0,1,7.449,7.344,85.779,85.779,0,0,1,15.852,35.977Z" transform="translate(-101.141 -321.104)" fill="#2e2854" opacity="0.15"/>
                <g id="Grupo_1160833" data-name="Grupo 1160833" transform="translate(0 1.815)">
                  <path id="Trazado_1013760" data-name="Trazado 1013760" d="M161.406,443.529a141.184,141.184,0,0,1-64.3-68.884c-2.785-6.453-5.113-13.292-5-20.32S95.131,340,100.983,336.1c6.62-4.407,15.783-3.563,22.6.531s11.59,10.913,15.063,18.066,5.846,14.793,9.118,22.041a97.6,97.6,0,0,0,48.6,48.431Z" transform="translate(-92.099 -323.741)" fill="#2e2854" opacity="0.15"/>
                  <path id="Trazado_1013761" data-name="Trazado 1013761" d="M156.949,437.821A141.182,141.182,0,0,1,100.457,362.4c-2.072-6.716-3.65-13.765-2.782-20.74s4.557-13.916,10.794-17.157c7.057-3.667,16.076-1.839,22.413,2.966s10.344,12.1,13.026,19.586,4.215,15.336,6.686,22.9a97.6,97.6,0,0,0,43.094,53.392Z" transform="translate(-92.693 -322.561)" fill="#76c9bf"/>
                  <path id="Trazado_1013762" data-name="Trazado 1013762" d="M125.8,360.59a189.533,189.533,0,0,0,53.521,76.765" transform="translate(-95.851 -326.796)" fill="none" stroke="#2e2854" stroke-linecap="round" stroke-linejoin="round" stroke-miterlimit="10" stroke-width="1"/>
                </g>
                <path id="Trazado_1013763" data-name="Trazado 1013763" d="M162.621,465.352c-11.875-2.069-23.942-4.2-34.733-9.57s-20.321-14.543-23.195-26.25a17.4,17.4,0,0,1-.166-8.929,9.3,9.3,0,0,1,5.826-6.419c4.259-1.315,8.63,1.347,12.295,3.884l38.264,26.495Z" transform="translate(-93.425 -330.909)" fill="#f7a145"/>
                <g id="Grupo_1160834" data-name="Grupo 1160834" transform="translate(166.008)">
                  <path id="Trazado_1013764" data-name="Trazado 1013764" d="M282.907,395.323c25.644-12.29,41.11-38.637,62.587-57.275,3.539-3.071,7.343-5.99,11.772-7.518s9.616-1.486,13.519,1.108c6.607,4.391,7.141,13.892,5.7,21.692-3.391,18.3-13.752,34.821-26.991,47.909s-29.276,23.007-45.785,31.611Z" transform="translate(-279.352 -321.52)" fill="#2e2854" opacity="0.15"/>
                  <path id="Trazado_1013765" data-name="Trazado 1013765" d="M278.906,393.215c24.462-14.5,37.548-42.107,57.3-62.564,3.255-3.371,6.787-6.613,11.064-8.526s9.448-2.327,13.564-.087c6.968,3.792,8.337,13.209,7.585,21.107-1.766,18.532-10.632,35.9-22.667,50.1s-27.136,25.5-42.823,35.522Z" transform="translate(-278.906 -320.519)" fill="#f7a145"/>
                  <path id="Trazado_1013766" data-name="Trazado 1013766" d="M287.895,419.727A132.355,132.355,0,0,0,337.624,368.8" transform="translate(-279.907 -325.894)" fill="none" stroke="#2e2854" stroke-linecap="round" stroke-linejoin="round" stroke-miterlimit="10" stroke-width="1"/>
                </g>
                <g id="Grupo_1160835" data-name="Grupo 1160835" transform="translate(202.7 59.252)">
                  <path id="Trazado_1013767" data-name="Trazado 1013767" d="M320.482,420.534a84.367,84.367,0,0,1,48.349-24.021c7.89-1.052,16.256-.895,23.366,2.687s12.575,11.269,11.6,19.169c-1,8.106-8.249,14.157-15.892,17.04s-15.949,3.439-23.839,5.551-15.911,6.356-19.247,13.812Z" transform="translate(-320.227 -388.168)" fill="#2e2854" opacity="0.15"/>
                  <path id="Trazado_1013768" data-name="Trazado 1013768" d="M320.2,419.758a84.363,84.363,0,0,1,44.567-30.471c7.669-2.132,15.977-3.133,23.513-.567s14.012,9.423,14.137,17.383c.126,8.167-6.214,15.161-13.385,19.072s-15.32,5.61-22.844,8.792-14.881,8.493-17.155,16.338Z" transform="translate(-320.195 -387.194)" fill="#76c9bf"/>
                  <path id="Trazado_1013769" data-name="Trazado 1013769" d="M330.137,442.173a90.128,90.128,0,0,1,43.6-30.39" transform="translate(-321.302 -389.932)" fill="none" stroke="#2e2854" stroke-linecap="round" stroke-linejoin="round" stroke-miterlimit="10" stroke-width="1"/>
                </g>
                <path id="Trazado_1013770" data-name="Trazado 1013770" d="M196.219,382.115a347.529,347.529,0,0,1-15.174-34.527c-1.784-4.745-3.491-9.705-3.088-14.759s3.473-10.238,8.37-11.542a12.2,12.2,0,0,1,9.945,2.221,28.249,28.249,0,0,1,6.954,7.814A85.785,85.785,0,0,1,216.7,368.256Z" transform="translate(-101.652 -320.569)" fill="#f7a145"/>
              </g>
              <path id="Trazado_1013771" data-name="Trazado 1013771" d="M157.688,463.215a17.666,17.666,0,0,1-17.316-21.335c2.934-13.535,7.444-26.678,14.345-38.645,10.492-18.2,26.988-33.521,47.1-39.562s43.8-1.6,58.323,13.567c6.493,6.782,11.5,15.731,20.244,19.153,10.969,4.295,23.262-1.829,34.991-.722,13.909,1.313,25.153,12.964,29.964,26.08a72.636,72.636,0,0,1,3.977,23.482,17.649,17.649,0,0,1-17.691,17.97Z" transform="translate(-97.429 -325.033)" fill="#49ad9f"/>
            </g>
            <g id="Grupo_1160839" data-name="Grupo 1160839" transform="translate(83.399 27.699)">
              <path id="Trazado_1013772" data-name="Trazado 1013772" d="M420.969,183.251c-3.041-9.437-8.41-18.156-10.02-27.939-2.23-13.553,3.029-27.251,2.677-40.981a50.269,50.269,0,0,0-38.969-47.706c.384-.725.765-1.445,1.15-2.17a3.513,3.513,0,1,0-6.207-3.291q-8.163,15.4-16.224,30.637c-54.458,102.894-105.9,200.081-166.561,298.7a3.513,3.513,0,1,0,5.984,3.682c48.139-78.261,90.45-155.564,133.049-235.5,1.969,9.984,7.961,19.314,12.476,28.706a111.084,111.084,0,0,1,4.72,83.681c23.56-1.3,48.4-6.922,70.6-17.913C422.129,228.921,428.013,205.109,420.969,183.251Z" transform="translate(-185.985 -51.463)" fill="#2e2854" opacity="0.15"/>
              <g id="Grupo_1160838" data-name="Grupo 1160838">
                <path id="Trazado_1013773" data-name="Trazado 1013773" d="M366.633,58.183a50.291,50.291,0,0,1,44.358,45.541c1.208,13.682-3.187,27.681-.116,41.069,2.216,9.662,8.119,18.031,11.742,27.26,8.393,21.377,4.005,45.51-2.954,70.228-21.472,12.354-45.91,19.51-69.343,22.28a111.082,111.082,0,0,0-9.928-83.223c-6.5-11.6-15.386-22.949-15.363-36.243Z" transform="translate(-201.432 -51.339)" fill="#d24d84"/>
                <path id="Trazado_1013774" data-name="Trazado 1013774" d="M419.664,252.874c4.3-15.276,7.615-30.328,7.541-44.645-46.466,12.115-82.229-28.451-101.05-54.894l-1.126,2.353c-.023,13.294,8.868,24.643,15.363,36.243a111.079,111.079,0,0,1,9.928,83.223C373.754,272.384,398.192,265.228,419.664,252.874Z" transform="translate(-201.432 -61.934)" fill="#2e2854" opacity="0.15"/>
                <path id="Trazado_1013775" data-name="Trazado 1013775" d="M189.457,397.812a3.514,3.514,0,0,1-3.1-5.164c54.4-102.215,99.673-202.421,147.609-308.51q7.1-15.713,14.283-31.59a3.513,3.513,0,1,1,6.4,2.9q-7.185,15.877-14.28,31.586c-47.983,106.2-93.307,206.5-147.809,308.918A3.512,3.512,0,0,1,189.457,397.812Z" transform="translate(-185.946 -50.482)" fill="#2e2854" stroke="#2e2854" stroke-linecap="round" stroke-linejoin="round" stroke-miterlimit="10" stroke-width="1"/>
              </g>
            </g>
            <g id="Grupo_1160869" data-name="Grupo 1160869" transform="translate(36.834)">
              <path id="Trazado_1013776" data-name="Trazado 1013776" d="M337.149,267.457a6.679,6.679,0,0,0-6.094-6.66Q317.123,259.56,303.136,259c.148-2.421.188-4.864.1-7.286a5.875,5.875,0,0,0-4.8-5.839h0q-.3-8.367-.6-16.736-.071-1.985-.143-3.971c1.388-.152,2.773-.332,4.15-.561,2.885-18.691,2.421-37.293.085-55.659-1.354-10.65-3.36-21.3-7.348-31.267s-10.069-19.276-18.529-25.888a44.161,44.161,0,0,0-15.4-7.8,38.847,38.847,0,0,0-4.836-.989l.009-.016L251.9,98.776q-.093-3.26-.188-6.522a22.051,22.051,0,0,0,2.327-.624,26.108,26.108,0,0,0,14.145-11.776c.336-.579.64-1.176.933-1.776a11.443,11.443,0,0,0,10.732,2.689,10.583,10.583,0,0,0,7.458-8.462,9.845,9.845,0,0,0-5.135-9.926,6.628,6.628,0,0,0-.9-.358c.118-.465.228-.932.306-1.4a17.785,17.785,0,0,0-2.788-12.761,6,6,0,0,0-1.759-1.838,2.621,2.621,0,0,0-2.447-.235c1.176-3.874,1.2-7.882-.557-11.137s-5.5-5.53-9.154-4.958c-1.226.192-2.454.682-3.674.445-1.712-.333-2.806-1.949-4.072-3.149A10.285,10.285,0,0,0,246,25.161c-3,1.393-5.1,4.138-7.3,6.6s-4.9,4.867-8.2,5.138c-1.863.153-3.8-.395-5.576.172-2.4.762-3.757,3.3-4.434,5.719a23.29,23.29,0,0,0,.77,14.271,7.442,7.442,0,0,0-4.179,3.442,11.168,11.168,0,0,0-1.313,6.007,11.01,11.01,0,0,0,3.475,7.96,7.383,7.383,0,0,0,6.954,1.462,23.539,23.539,0,0,0,9.729,13.713,19.758,19.758,0,0,0,4.648,2.119q-.091,3.536-.182,7.073l-.122-.178L235.2,103.48c-2.377.195-4.742.435-7.088.737h0a156.44,156.44,0,0,0-20.993,4.17,153.8,153.8,0,0,0-39.359,16.832c-8.629,5.216-16.93,11.444-22.459,19.875-2.851,4.347-4.942,9.75-3.336,14.695,1.381,4.256,5.176,7.219,8.914,9.677a110.1,110.1,0,0,0,35.1,15.123c.58-1.594,1.074-3.2,1.514-4.813l4.634.522a16.634,16.634,0,0,0,9.18.745c-.58,12.782-1.173,25.426-1.862,37.061-.344,5.817-.652,11.865,1.559,17.256a16.085,16.085,0,0,0,4.419,6.072c-2.058,43.4-4.008,86.392-6.122,130.012q-.211,4.335-.422,8.679-.073,1.513-.148,3.026c-3.823,3.081-6.671,5.144-9.63,7.629l30.986.307.43-10.78.315-7.87h0q4.635-.233,9.229-.9,2.827-65.644,9.366-131.057c1.326.8,3.276,1.217,5.638,2.418q.824,8.281,1.572,16.57a6.671,6.671,0,0,0-4.908,6.227,360.9,360.9,0,0,0,1.547,46.371,11.792,11.792,0,0,0,8.113,10.047q1.693,26.705,3,53.872a67.892,67.892,0,0,0,11.118,1.177q.008,2.163.017,4.328h0q.02,5.023.04,10.046l27.123.269c-3.586-3.307-7.11-6.769-7.11-6.769q-.013-1.951-.031-3.9-.024-3.215-.052-6.431-.237-25.21-.832-50.414,20.185.339,40.339-1.273a11.8,11.8,0,0,0,10.844-11.128C336.62,297.089,337.135,282.272,337.149,267.457ZM193.334,162.072s-.008.045-.02.111v-.111h.02a35.438,35.438,0,0,1-3.556-.106,34.835,34.835,0,0,1-14.166-4.243c-2.037-1.136-4.134-2.745-4.466-5.055a5.767,5.767,0,0,1,1.768-4.658,16.5,16.5,0,0,1,4.249-2.889c8.339-4.45,17.05-8.587,26.375-10.031-.467,8.2-.891,16.833-1.3,25.636a34.027,34.027,0,0,1-3.83.874A35.023,35.023,0,0,1,193.334,162.072Zm89.108,93.358a14.157,14.157,0,0,0,5.4,1.116,20.331,20.331,0,0,0,5.187-.146,6.843,6.843,0,0,0,4.353-2.611,7.731,7.731,0,0,0,1.133-4.235,2.7,2.7,0,0,1,1.217,2.285c.082,2.332.043,4.684-.1,7.013-5.678-.2-11.365-.3-17.059-.343Q282.5,256.971,282.442,255.43Z" transform="translate(-134.423 -19.865)" fill="#2e2854" opacity="0.15"/>
              <rect id="Rect치ngulo_409858" data-name="Rect치ngulo 409858" width="166.528" height="47.078" transform="translate(19.763 367.092)" fill="#d24d84"/>
              <g id="Grupo_1160868" data-name="Grupo 1160868">
                <g id="Grupo_1160844" data-name="Grupo 1160844" transform="translate(50.019 179.238)">
                  <g id="Grupo_1160841" data-name="Grupo 1160841">
                    <path id="Trazado_1013777" data-name="Trazado 1013777" d="M222.356,418.795l.351-11.72-21.654,3.069q-.167,4.337-.337,8.683l11,4.3Z" transform="translate(-191.046 -241.724)" fill="#fff"/>
                    <g id="Grupo_1160840" data-name="Grupo 1160840" transform="translate(10.006)">
                      <path id="Trazado_1013778" data-name="Trazado 1013778" d="M240.32,253.512q-6.214,67.708-8.468,135.7-4.582.718-9.219.991a117.273,117.273,0,0,1-21.539-.778c2.175-56.439,4.083-111.807,6.3-168.406,0,0,17.8-.1,35.809.216Z" transform="translate(-201.094 -221.007)" fill="#4352a3"/>
                      <path id="Trazado_1013779" data-name="Trazado 1013779" d="M219.859,267.127c10.821-3.395,13.1-28.347,13.234-46.033-13.756-.135-25.125-.072-25.125-.072q-.874,22.36-1.7,44.5C208.441,267.567,212.53,269.426,219.859,267.127Z" transform="translate(-201.671 -221.007)" fill="#2e2854" opacity="0.15"/>
                      <path id="Trazado_1013780" data-name="Trazado 1013780" d="M240.32,257.584q-6.214,67.708-8.468,135.7-4.582.719-9.219.991a117.271,117.271,0,0,1-21.539-.778" transform="translate(-201.094 -225.08)" fill="none" stroke="#2e2854" stroke-linecap="round" stroke-linejoin="round" stroke-miterlimit="10" stroke-width="1"/>
                    </g>
                    <path id="Trazado_1013781" data-name="Trazado 1013781" d="M220.821,431.047l.323-10.784h0l-21.638.032q-.059,1.513-.118,3.027c-3.792,3.118-6.62,5.211-9.553,7.724h30.987Z" transform="translate(-189.834 -243.192)" fill="#2e2854"/>
                  </g>
                  <g id="Grupo_1160843" data-name="Grupo 1160843" transform="translate(46.965 0.231)">
                    <path id="Trazado_1013782" data-name="Trazado 1013782" d="M295.721,419.307h0q-.056-3.215-.116-6.43l-20.038-2.853q.069,4.919.137,9.837h0l6.789,4.653Z" transform="translate(-246.345 -242.283)" fill="#fff"/>
                    <g id="Grupo_1160842" data-name="Grupo 1160842">
                      <path id="Trazado_1013783" data-name="Trazado 1013783" d="M247.831,221.267c18.269.32,36.751,1.068,37.069,2.782q5.419,83.812,7.044,167.813a68.715,68.715,0,0,1-31.091,1.592c-2.667-45.236-5.849-89.2-10.643-132.989-3.333-1.654-5.866-1.766-6.966-3.571a5.986,5.986,0,0,1-.549-3.311q.179-6.68.357-13.36l1.1-17.936Z" transform="translate(-242.683 -221.267)" fill="#4352a3"/>
                      <path id="Trazado_1013784" data-name="Trazado 1013784" d="M287.669,224.1c-.217-1.167-8.855-1.885-20.112-2.327,1.611,20.445,4.8,34.531,8.354,38.166,3.81,3.9,9.526,4.644,14.139,4.464Q288.967,244.25,287.669,224.1Z" transform="translate(-245.453 -221.324)" fill="#2e2854" opacity="0.15"/>
                      <path id="Trazado_1013785" data-name="Trazado 1013785" d="M291.945,394.235a68.716,68.716,0,0,1-31.091,1.592c-2.667-45.236-5.849-89.2-10.643-132.989-3.333-1.654-5.866-1.766-6.966-3.571a5.986,5.986,0,0,1-.549-3.311q.179-6.68.357-13.36" transform="translate(-242.684 -223.642)" fill="none" stroke="#2e2854" stroke-linecap="round" stroke-linejoin="round" stroke-miterlimit="10" stroke-width="1"/>
                    </g>
                    <path id="Trazado_1013786" data-name="Trazado 1013786" d="M302.985,431.07c-3.619-3.271-7.177-6.7-7.177-6.7-.021-1.3-.047-2.6-.07-3.9l-20.017.555q.069,5.023.14,10.045h27.125Z" transform="translate(-246.362 -243.446)" fill="#2e2854"/>
                  </g>
                </g>
                <g id="Grupo_1160853" data-name="Grupo 1160853" transform="translate(73.448)">
                  <g id="Grupo_1160845" data-name="Grupo 1160845" transform="translate(24.836 63.726)">
                    <path id="Trazado_1013787" data-name="Trazado 1013787" d="M244.442,91.023q-.148,9.364-.3,18.727s11.037-.951,11.888-1.227q-.337-8.748-.675-17.5Z" transform="translate(-244.146 -91.023)" fill="#9e4950"/>
                    <path id="Trazado_1013788" data-name="Trazado 1013788" d="M255.668,98.485q-.144-3.731-.288-7.461H244.463q-.06,3.786-.12,7.57A22.2,22.2,0,0,0,255.668,98.485Z" transform="translate(-244.168 -91.023)" fill="#2e2854" opacity="0.15"/>
                  </g>
                  <path id="Trazado_1013789" data-name="Trazado 1013789" d="M275.766,66.574a17.585,17.585,0,0,0,3.755-23.963,6,6,0,0,0-1.776-1.82,2.623,2.623,0,0,0-2.449-.211c1.137-3.885,1.121-7.893-.667-11.13s-5.553-5.475-9.2-4.866c-1.225.2-2.447.706-3.669.482-1.716-.316-2.825-1.921-4.1-3.109a10.283,10.283,0,0,0-11.143-1.713c-2.986,1.422-5.055,4.189-7.235,6.677s-4.856,4.916-8.149,5.219c-1.861.172-3.8-.357-5.575.227-2.391.786-3.724,3.332-4.378,5.762a23.759,23.759,0,0,0,1.942,16.65c1.877,3.113,5.265,4.943,8.542,6.517a81.629,81.629,0,0,0,20.955,7.28C259.919,69.862,268.873,71.86,275.766,66.574Z" transform="translate(-216.671 -19.313)" fill="#654687"/>
                  <g id="Grupo_1160852" data-name="Grupo 1160852" transform="translate(0 22.352)">
                    <path id="Trazado_1013790" data-name="Trazado 1013790" d="M227.753,58.461a5.435,5.435,0,0,0-5.479-2.133,7.277,7.277,0,0,0-4.8,3.655A11.163,11.163,0,0,0,216.216,66a11.014,11.014,0,0,0,3.553,7.925c2.282,1.914,5.826,2.43,8.289.754Z" transform="translate(-216.198 -45.776)" fill="#9e4950"/>
                    <g id="Grupo_1160849" data-name="Grupo 1160849" transform="translate(8.17)">
                      <path id="Trazado_1013791" data-name="Trazado 1013791" d="M264.83,50.264c2.248-1.219,5.216-.113,6.8,1.895s2.06,4.666,2.224,7.219a32.75,32.75,0,0,1-3.923,18.138A26.107,26.107,0,0,1,255.9,89.43a21.747,21.747,0,0,1-18.13-1.8c-5.356-3.291-8.9-9.079-10.282-15.211a39.163,39.163,0,0,1,.866-18.653,14.249,14.249,0,0,1,1.86-4.51,5.75,5.75,0,0,1,3.988-2.582,8.977,8.977,0,0,1,4.51,1.2,8.231,8.231,0,0,0,4.529,1.09,3.6,3.6,0,0,0,3.014-3.132,3.217,3.217,0,0,0,4.536,2.557c1.226-.563,1.96-1.808,2.916-2.76s2.549-1.616,3.606-.78c.982.778.831,2.274,1.155,3.485C258.95,50.126,261.106,52.284,264.83,50.264Z" transform="translate(-225.54 -44.466)" fill="#9e4950"/>
                      <g id="Grupo_1160846" data-name="Grupo 1160846" transform="translate(2.232 28.588)">
                        <path id="Trazado_1013792" data-name="Trazado 1013792" d="M272.379,83.28c-.016-.044-.023-.091-.04-.133a6.775,6.775,0,0,0-6.788-4.184,6.658,6.658,0,0,0-2.9,12.3,6.025,6.025,0,0,0,.664.335A26.53,26.53,0,0,0,272.379,83.28Z" transform="translate(-231.421 -76.892)" fill="#b35b62"/>
                        <path id="Trazado_1013793" data-name="Trazado 1013793" d="M229.751,76.66a6.316,6.316,0,0,0-1.848.471,24.951,24.951,0,0,0,6.551,11.385c.054-.043.116-.075.17-.119a6.659,6.659,0,0,0-4.873-11.737Z" transform="translate(-227.903 -76.635)" fill="#b35b62"/>
                      </g>
                      <g id="Grupo_1160847" data-name="Grupo 1160847" transform="translate(4.493 15.58)">
                        <path id="Trazado_1013794" data-name="Trazado 1013794" d="M247.395,65.51a22.023,22.023,0,0,0-2.835,4.759,7.9,7.9,0,0,0,2.912-.012" transform="translate(-232.018 -62.389)" fill="none" stroke="#2e2854" stroke-linecap="round" stroke-linejoin="round" stroke-miterlimit="10" stroke-width="1"/>
                        <path id="Trazado_1013795" data-name="Trazado 1013795" d="M241.927,75.614a24,24,0,0,0,15.832.166" transform="translate(-231.725 -63.514)" fill="none" stroke="#2e2854" stroke-linecap="round" stroke-linejoin="round" stroke-miterlimit="10" stroke-width="1"/>
                        <path id="Trazado_1013796" data-name="Trazado 1013796" d="M230.447,63.248a4.493,4.493,0,0,1,6.279.058" transform="translate(-230.447 -61.998)" fill="none" stroke="#2e2854" stroke-linecap="round" stroke-linejoin="round" stroke-miterlimit="10" stroke-width="1"/>
                        <path id="Trazado_1013797" data-name="Trazado 1013797" d="M259.649,65.281a5.063,5.063,0,0,1,6.952.473" transform="translate(-233.698 -62.234)" fill="none" stroke="#2e2854" stroke-linecap="round" stroke-linejoin="round" stroke-miterlimit="10" stroke-width="1"/>
                      </g>
                      <g id="Grupo_1160848" data-name="Grupo 1160848" transform="translate(0 8.075)">
                        <path id="Trazado_1013798" data-name="Trazado 1013798" d="M245.354,63.993a5.2,5.2,0,0,1,3.141-.443,5.143,5.143,0,0,1,2.4,1.124" transform="translate(-227.614 -54.657)" fill="none" stroke="#f7a145" stroke-linecap="round" stroke-linejoin="round" stroke-miterlimit="10" stroke-width="2"/>
                        <path id="Trazado_1013799" data-name="Trazado 1013799" d="M281.039,63.749q-4.669.305-9.331.6" transform="translate(-230.548 -54.688)" fill="none" stroke="#f7a145" stroke-linecap="round" stroke-linejoin="round" stroke-miterlimit="10" stroke-width="2"/>
                        <path id="Trazado_1013800" data-name="Trazado 1013800" d="M261.538,56.991c-5.537-.673-9.233.273-9.885,6.155-.613,5.526,1.25,10.364,7.957,11.22,4.744.606,9.087-3.382,9.622-7.809C269.8,61.858,269.965,58.015,261.538,56.991Z" transform="translate(-228.303 -53.915)" fill="none" stroke="#f7a145" stroke-linecap="round" stroke-linejoin="round" stroke-miterlimit="10" stroke-width="2"/>
                        <path id="Trazado_1013801" data-name="Trazado 1013801" d="M235.387,53.74c-5.537-.673-9.233.273-9.885,6.155-.613,5.526,1.25,10.364,7.957,11.22,4.744.606,9.087-3.382,9.621-7.809C243.647,58.606,243.815,54.764,235.387,53.74Z" transform="translate(-225.392 -53.553)" fill="none" stroke="#f7a145" stroke-linecap="round" stroke-linejoin="round" stroke-miterlimit="10" stroke-width="2"/>
                      </g>
                    </g>
                    <g id="Grupo_1160851" data-name="Grupo 1160851" transform="translate(53.212 14.732)">
                      <path id="Trazado_1013802" data-name="Trazado 1013802" d="M278.088,64.751c2.526-3.072,7.575-4.745,11.151-3a9.843,9.843,0,0,1,5.232,9.875,10.58,10.58,0,0,1-7.373,8.536,11.452,11.452,0,0,1-11.021-2.822Z" transform="translate(-276.077 -61.043)" fill="#9e4950"/>
                      <g id="Grupo_1160850" data-name="Grupo 1160850" transform="translate(6.876 5.987)">
                        <path id="Trazado_1013803" data-name="Trazado 1013803" d="M283.814,67.8A6.419,6.419,0,0,1,290.1,71.5" transform="translate(-283.814 -67.78)" fill="none" stroke="#2e2854" stroke-linecap="round" stroke-linejoin="round" stroke-miterlimit="10" stroke-width="1"/>
                        <path id="Trazado_1013804" data-name="Trazado 1013804" d="M284.58,74.541a8.934,8.934,0,0,0,3.563-5.368" transform="translate(-283.899 -67.935)" fill="none" stroke="#2e2854" stroke-linecap="round" stroke-linejoin="round" stroke-miterlimit="10" stroke-width="1"/>
                      </g>
                    </g>
                  </g>
                </g>
                <g id="Grupo_1160857" data-name="Grupo 1160857" transform="translate(78.497 74.484)">
                  <path id="Trazado_1013805" data-name="Trazado 1013805" d="M262.095,108.747a38.343,38.343,0,0,0-8.547-1.254l-6.582,2.69s-3.187-1.291-5.248-2.095q-6.138.379-12.15,1.2l-7.687,99.98s51.907.978,51.507-.349S262.095,108.747,262.095,108.747Z" transform="translate(-221.88 -103.615)" fill="#f7a145"/>
                  <path id="Trazado_1013806" data-name="Trazado 1013806" d="M278.334,211.391c-.29-.962-6.078-53.035-9.252-81.708h0c-3.333,31.449-3.376,60.579-1.62,82.368C273.9,211.978,278.453,211.788,278.334,211.391Z" transform="translate(-226.827 -106.086)" fill="#2e2854" opacity="0.15"/>
                  <path id="Trazado_1013807" data-name="Trazado 1013807" d="M234.713,201.606c-.547-16.429-5.22-71.923-5.22-71.923l-1.321.211-6.293,81.847s5.518.1,12.94.2C234.867,208.093,234.812,204.55,234.713,201.606Z" transform="translate(-221.88 -106.086)" fill="#2e2854" opacity="0.15"/>
                  <g id="Grupo_1160856" data-name="Grupo 1160856" transform="translate(13.924)">
                    <g id="Grupo_1160854" data-name="Grupo 1160854" transform="translate(2.348 6.568)">
                      <path id="Trazado_1013808" data-name="Trazado 1013808" d="M245.115,115.724a36.864,36.864,0,0,0,2.61,5.43c.457.78,1.106,1.639,2.011,1.618.848-.019,1.453-.805,1.886-1.534a24.946,24.946,0,0,0,2.583-6.055l-4.652-4.663Z" transform="translate(-240.739 -110.52)" fill="#2e2854" stroke="#2e2854" stroke-linecap="round" stroke-linejoin="round" stroke-miterlimit="10" stroke-width="1"/>
                      <path id="Trazado_1013809" data-name="Trazado 1013809" d="M259.43,167.854a171.294,171.294,0,0,1-7.9,17.843c-4.521-5.62-7.929-10.7-11.336-15.786q3.834-23.51,8.52-46.538a1.944,1.944,0,0,1,1.765.425C253.158,137.966,255.841,152.134,259.43,167.854Z" transform="translate(-240.191 -111.944)" fill="#2e2854" stroke="#2e2854" stroke-linecap="round" stroke-linejoin="round" stroke-miterlimit="10" stroke-width="1"/>
                    </g>
                    <g id="Grupo_1160855" data-name="Grupo 1160855">
                      <path id="Trazado_1013810" data-name="Trazado 1013810" d="M243.411,103.129l5.126,7.359-4.236,6.784-6.752-8.458Z" transform="translate(-237.549 -103.129)" fill="#f7a145"/>
                      <path id="Trazado_1013811" data-name="Trazado 1013811" d="M256.409,103.129l-6.557,7.492,5.03,6.565,5.49-9.882Z" transform="translate(-238.919 -103.129)" fill="#f7a145"/>
                      <path id="Trazado_1013812" data-name="Trazado 1013812" d="M243.411,103.129l5.126,7.359-4.236,6.784-6.752-8.458Z" transform="translate(-237.549 -103.129)" fill="none" stroke="#2e2854" stroke-linecap="round" stroke-linejoin="round" stroke-miterlimit="10" stroke-width="1"/>
                      <path id="Trazado_1013813" data-name="Trazado 1013813" d="M256.409,103.129l-6.557,7.492,5.03,6.565,5.49-9.882Z" transform="translate(-238.919 -103.129)" fill="none" stroke="#2e2854" stroke-linecap="round" stroke-linejoin="round" stroke-miterlimit="10" stroke-width="1"/>
                    </g>
                  </g>
                </g>
                <path id="Trazado_1013814" data-name="Trazado 1013814" d="M203.126,172.818a33.7,33.7,0,0,1-5.385,1.419l4.1,4.242Z" transform="translate(-140.695 -36.404)" fill="#9e4950"/>
                <g id="Grupo_1160858" data-name="Grupo 1160858" transform="translate(81.876 175.589)">
                  <path id="Trazado_1013815" data-name="Trazado 1013815" d="M225.682,219.258l44.331-.8s.523,5.224.069,5.311a417.064,417.064,0,0,0-43.263,1.029C226.405,223.187,226.388,221.48,225.682,219.258Z" transform="translate(-225.682 -217.074)" fill="#2e2854"/>
                  <path id="Trazado_1013816" data-name="Trazado 1013816" d="M243.039,217.332a62.824,62.824,0,0,0,.289,7.971s12.41-.205,12.71-.252a32.8,32.8,0,0,0-.513-8.15Z" transform="translate(-227.612 -216.901)" fill="#2289a3"/>
                </g>
                <g id="Grupo_1160859" data-name="Grupo 1160859" transform="translate(58.466 80.159)">
                  <path id="Trazado_1013817" data-name="Trazado 1013817" d="M206.107,113.893a156.635,156.635,0,0,1,20.95-4.378c2.63,40.031,2.262,79.37-.406,120.918a33.576,33.576,0,0,1-2.851,11.549c-1.667,3.764-4.921,7.041-8.976,7.753-5.739,1.006-11.307-3.448-13.572-8.816s-2.016-11.419-1.73-17.24c1.326-26.933,2.087-59.269,3.413-86.2Z" transform="translate(-199.339 -109.515)" fill="#5767bf"/>
                  <path id="Trazado_1013818" data-name="Trazado 1013818" d="M230.16,207.788c-3.968-26.965-7.936-53.93-11.921-79.766l10.923-18.505" transform="translate(-201.444 -109.515)" fill="none" stroke="#2e2854" stroke-linecap="round" stroke-linejoin="round" stroke-miterlimit="10" stroke-width="1"/>
                </g>
                <g id="Grupo_1160860" data-name="Grupo 1160860" transform="translate(118.711 79.616)">
                  <path id="Trazado_1013819" data-name="Trazado 1013819" d="M282.613,116.553a44.157,44.157,0,0,0-15.479-7.649q.564,56.356,5.02,112.584c.354,4.466.738,8.988,2.2,13.223s4.14,8.224,8.084,10.351,9.252,2.008,12.564-1.01c3.681-3.356,3.988-8.944,4.037-13.924q.153-15.608.308-31.216Z" transform="translate(-267.133 -108.904)" fill="#5767bf"/>
                  <path id="Trazado_1013820" data-name="Trazado 1013820" d="M267.133,108.9A195.871,195.871,0,0,1,278.7,127.561a460,460,0,0,1-7.936,75.006" transform="translate(-267.133 -108.904)" fill="none" stroke="#2e2854" stroke-linecap="round" stroke-linejoin="round" stroke-miterlimit="10" stroke-width="1"/>
                </g>
                <g id="Grupo_1160862" data-name="Grupo 1160862" transform="translate(0 84.538)">
                  <g id="Grupo_1160861" data-name="Grupo 1160861" transform="translate(50.726 53.295)">
                    <path id="Trazado_1013821" data-name="Trazado 1013821" d="M191.882,174.938a34.972,34.972,0,0,0,5.066-.523l3.7,2.354c3.07-.441,6.5-.987,9.572-1.428a4.735,4.735,0,0,1,1.764-.031,1.613,1.613,0,0,1,1.25,1.125c.232,1.087-1.019,1.855-2.067,2.226a56.8,56.8,0,0,1-9.135,2.408l8.143-.481c.831-.049,1.821-.023,2.281.67a1.625,1.625,0,0,1-.289,1.919,4.378,4.378,0,0,1-1.8,1.028,35.209,35.209,0,0,1-8.566,1.949l7.467-.532c.986-.07,2.284.076,2.5,1.04a1.429,1.429,0,0,1-.664,1.408,4.179,4.179,0,0,1-1.549.546l-8,1.684a40.314,40.314,0,0,1,5.8.526c.661.109,1.458.365,1.576,1.026.153.858-.954,1.337-1.818,1.448a61.3,61.3,0,0,1-6.306.334,16.232,16.232,0,0,1-9.955-.458,48.39,48.39,0,0,1-.2-7.261A88.777,88.777,0,0,1,191.882,174.938Z" transform="translate(-190.63 -174.415)" fill="#9e4950"/>
                    <path id="Trazado_1013822" data-name="Trazado 1013822" d="M200.812,176.872c3.07-.441,6.5-.987,9.572-1.428a4.734,4.734,0,0,1,1.764-.031,1.613,1.613,0,0,1,1.25,1.125c.232,1.087-1.019,1.855-2.067,2.226a56.8,56.8,0,0,1-9.135,2.408l8.143-.481c.831-.049,1.821-.023,2.281.67a1.626,1.626,0,0,1-.289,1.92,4.378,4.378,0,0,1-1.8,1.028,35.21,35.21,0,0,1-8.566,1.949l7.467-.532c.986-.07,2.284.076,2.5,1.04a1.429,1.429,0,0,1-.664,1.408,4.179,4.179,0,0,1-1.549.546l-8,1.684a40.314,40.314,0,0,1,5.8.526c.661.109,1.458.365,1.576,1.026.153.858-.954,1.337-1.818,1.448a61.3,61.3,0,0,1-6.306.334,15.71,15.71,0,0,1-8.893-.129" transform="translate(-190.792 -174.518)" fill="none" stroke="#2e2854" stroke-linecap="round" stroke-linejoin="round" stroke-miterlimit="10" stroke-width="1"/>
                  </g>
                  <path id="Trazado_1013823" data-name="Trazado 1013823" d="M182.712,192.486l7.266.746c1.337-6.453,1.054-11.648,1-18.237H191c-1.185.036-2.374.012-3.557-.07Z" transform="translate(-139.022 -121.177)" fill="#fff"/>
                  <path id="Trazado_1013824" data-name="Trazado 1013824" d="M196.49,141.011c-9.7,1.385-18.7,5.761-27.3,10.46a16.5,16.5,0,0,0-4.219,2.932,5.767,5.767,0,0,0-1.721,4.675c.354,2.306,2.467,3.894,4.515,5.01a34.831,34.831,0,0,0,14.208,4.1A64.955,64.955,0,0,1,178.4,190.85a110.1,110.1,0,0,1-35.248-14.774c-3.762-2.421-7.586-5.346-9.009-9.588-1.655-4.928.383-10.351,3.19-14.727,5.445-8.485,13.684-14.8,22.261-20.1a153.781,153.781,0,0,1,39.19-17.221Z" transform="translate(-133.548 -114.443)" fill="#5767bf"/>
                </g>
                <g id="Grupo_1160867" data-name="Grupo 1160867" transform="translate(101.326 87.265)">
                  <path id="Trazado_1013825" data-name="Trazado 1013825" d="M292.071,271.408a11.376,11.376,0,0,1-3.4-.747,3.837,3.837,0,0,1-2.268-2.5c-.387-1.722.84-3.333,1.787-4.822a17.893,17.893,0,0,0,1.853-3.886s5.544,2.234,3.873,6.616A44.083,44.083,0,0,0,292.071,271.408Z" transform="translate(-251.884 -133.315)" fill="#9e4950"/>
                  <g id="Grupo_1160863" data-name="Grupo 1160863" transform="translate(0 133.268)">
                    <path id="Trazado_1013826" data-name="Trazado 1013826" d="M311.287,284.277c-.043,0-.085,0-.128,0a1.756,1.756,0,0,1-1.626-1.878,72.336,72.336,0,0,0,.111-8.387,2.439,2.439,0,0,0-1.793-2.465,70.361,70.361,0,0,0-17.784.026,2.46,2.46,0,0,0-1.779,2.632c.058,2.362.131,4.9.275,7.459a1.757,1.757,0,0,1-3.508.2c-.148-2.609-.222-5.182-.28-7.572a5.865,5.865,0,0,1,4.857-6.2,73.7,73.7,0,0,1,18.662-.025,5.875,5.875,0,0,1,4.858,5.791,75.809,75.809,0,0,1-.116,8.8A1.754,1.754,0,0,1,311.287,284.277Z" transform="translate(-251.711 -267.476)" fill="#2e2854"/>
                    <path id="Trazado_1013827" data-name="Trazado 1013827" d="M331.481,346.6a413,413,0,0,1-71.016.345,11.816,11.816,0,0,1-10.811-10.483,360.692,360.692,0,0,1-2.007-46.353,6.679,6.679,0,0,1,6.29-6.526,600.966,600.966,0,0,1,82.98.743,6.68,6.68,0,0,1,6.16,6.6c.133,14.815-.235,29.636-.861,44.444A11.8,11.8,0,0,1,331.481,346.6Z" transform="translate(-247.569 -269.149)" fill="#33a1bd"/>
                    <path id="Trazado_1013828" data-name="Trazado 1013828" d="M343.076,290.924a6.68,6.68,0,0,0-6.16-6.6,601.248,601.248,0,0,0-82.98-.743,6.678,6.678,0,0,0-6.29,6.526c-.051,2.516-.067,5.033-.067,7.552a16.7,16.7,0,0,0,2.918,6.966c2.194,2.933,5.457,4.863,8.728,6.516,21.075,10.649,46.867,12.583,68.5,3.117,4.878-2.135,9.609-4.889,13.089-8.919a21.347,21.347,0,0,0,2.272-3.182Q343.124,296.541,343.076,290.924Z" transform="translate(-247.57 -269.149)" fill="#2289a3"/>
                    <path id="Trazado_1013829" data-name="Trazado 1013829" d="M297.82,322.166c-.008,2.174-.012,4.374,0,6.692a1.864,1.864,0,0,0,1.895,1.857c.82-.013,1.673-.039,2.6-.062a1.864,1.864,0,0,0,1.824-1.773c.091-2.3.087-4.61-.006-6.948a1.864,1.864,0,0,0-1.824-1.782,19.189,19.189,0,0,0-2.877.174A1.862,1.862,0,0,0,297.82,322.166Z" transform="translate(-253.163 -273.341)" fill="#2e2854"/>
                  </g>
                  <g id="Grupo_1160866" data-name="Grupo 1160866" transform="translate(32.865)">
                    <g id="Grupo_1160864" data-name="Grupo 1160864" transform="translate(4.961 115.457)">
                      <path id="Trazado_1013830" data-name="Trazado 1013830" d="M308.12,249.1q.421,9.187.843,18.374c.1,2.159.153,4.485-1.053,6.278a6.847,6.847,0,0,1-4.327,2.654,20.318,20.318,0,0,1-5.185.2c-2.769-.132-5.965-.494-7.479-2.817-1.562-2.395-.491-5.562.613-8.2l-1.066-7.466a18.009,18.009,0,0,0,.946-5.926q0-1.253-.012-2.5s4.765-2.341,9.1-2.249A20.466,20.466,0,0,1,308.12,249.1Z" transform="translate(-290.134 -247.434)" fill="#9e4950"/>
                      <path id="Trazado_1013831" data-name="Trazado 1013831" d="M308.418,256.638q.272,5.929.545,11.858c.1,2.159.153,4.485-1.053,6.277a6.847,6.847,0,0,1-4.327,2.654,20.319,20.319,0,0,1-5.185.2c-2.769-.132-5.965-.494-7.479-2.817-1.562-2.395-.491-5.562.613-8.2" transform="translate(-290.134 -248.459)" fill="none" stroke="#2e2854" stroke-linecap="round" stroke-linejoin="round" stroke-miterlimit="10" stroke-width="1"/>
                    </g>
                    <path id="Trazado_1013832" data-name="Trazado 1013832" d="M308,242.523q.139,3.014.276,6.028a40.324,40.324,0,0,1-16.721.588q-.013-2.185-.036-4.365Z" transform="translate(-285.327 -131.43)" fill="#fff"/>
                    <g id="Grupo_1160865" data-name="Grupo 1160865">
                      <path id="Trazado_1013833" data-name="Trazado 1013833" d="M285.857,141.738c2.821,29.439,4.561,58.982,4.882,89.117a76.762,76.762,0,0,0,20.72-.794c2.7-18.719,2.051-37.315-.467-55.656-1.46-10.636-3.572-21.265-7.658-31.192s-10.26-19.176-18.784-25.7Z" transform="translate(-284.551 -117.511)" fill="#5767bf"/>
                      <path id="Trazado_1013834" data-name="Trazado 1013834" d="M285.857,141.738c2.821,29.439,4.561,58.982,4.882,89.117a76.762,76.762,0,0,0,20.72-.794c2.7-18.719,2.051-37.315-.467-55.656-1.46-10.636-3.572-21.265-7.658-31.192s-10.26-19.176-18.784-25.7Z" transform="translate(-284.551 -117.511)" fill="#5767bf"/>
                      <path id="Trazado_1013835" data-name="Trazado 1013835" d="M286.021,144.773c2.821,29.439,4.561,58.982,4.882,89.117a76.763,76.763,0,0,0,20.72-.794c2.7-18.719,2.051-37.315-.467-55.656" transform="translate(-284.715 -120.546)" fill="none" stroke="#2e2854" stroke-linecap="round" stroke-linejoin="round" stroke-miterlimit="10" stroke-width="1"/>
                    </g>
                  </g>
                </g>
              </g>
            </g>
          </g>
          <g id="Grupo_1160871" data-name="Grupo 1160871" transform="translate(0 24.389)">
            <path id="Trazado_1013836" data-name="Trazado 1013836" d="M308.193,111.109a2.346,2.346,0,1,0-.156-3.643A2.332,2.332,0,0,0,308.193,111.109Z" transform="translate(-70.179 -53.455)" fill="#fff"/>
            <path id="Trazado_1013837" data-name="Trazado 1013837" d="M143.142,67.623a2.346,2.346,0,1,0-.156-3.643A2.331,2.331,0,0,0,143.142,67.623Z" transform="translate(-51.802 -48.613)" fill="#fff"/>
            <path id="Trazado_1013838" data-name="Trazado 1013838" d="M336.887,248.883a2.346,2.346,0,1,0-.156-3.643A2.332,2.332,0,0,0,336.887,248.883Z" transform="translate(-73.374 -68.794)" fill="#fff"/>
            <path id="Trazado_1013839" data-name="Trazado 1013839" d="M168.295,97.99a2.346,2.346,0,1,0-.156-3.643A2.332,2.332,0,0,0,168.295,97.99Z" transform="translate(-54.603 -51.994)" fill="#fff"/>
            <path id="Trazado_1013840" data-name="Trazado 1013840" d="M423.472,370.394a2.346,2.346,0,1,0-.156-3.643A2.332,2.332,0,0,0,423.472,370.394Z" transform="translate(-83.014 -82.324)" fill="#f2d3e8"/>
            <path id="Trazado_1013841" data-name="Trazado 1013841" d="M454.778,317.52a2.346,2.346,0,1,0-.156-3.643A2.332,2.332,0,0,0,454.778,317.52Z" transform="translate(-86.5 -76.437)" fill="#f2d3e8"/>
            <path id="Trazado_1013842" data-name="Trazado 1013842" d="M336.887,50.958a2.346,2.346,0,1,0-.156-3.643A2.332,2.332,0,0,0,336.887,50.958Z" transform="translate(-73.374 -46.757)" fill="#f2d3e8"/>
            <path id="Trazado_1013843" data-name="Trazado 1013843" d="M41.438,150.568a2.346,2.346,0,1,0-.156-3.643A2.332,2.332,0,0,0,41.438,150.568Z" transform="translate(-40.478 -57.848)" fill="#f2d3e8"/>
            <path id="Trazado_1013844" data-name="Trazado 1013844" d="M50.653,361.443A2.346,2.346,0,1,0,50.5,357.8,2.331,2.331,0,0,0,50.653,361.443Z" transform="translate(-41.504 -81.327)" fill="#f2d3e8"/>
            <path id="Trazado_1013845" data-name="Trazado 1013845" d="M53.281,307.734a2.346,2.346,0,1,0-.156-3.643A2.333,2.333,0,0,0,53.281,307.734Z" transform="translate(-41.797 -75.347)" fill="#f2d3e8"/>
            <path id="Trazado_1013846" data-name="Trazado 1013846" d="M134.433,267.26a5.114,5.114,0,1,0-2.5-7.294A5.144,5.144,0,0,0,134.433,267.26Z" transform="translate(-50.588 -70.217)" fill="#fff"/>
            <path id="Trazado_1013847" data-name="Trazado 1013847" d="M406.092,345.641a5.114,5.114,0,1,0-2.5-7.294A5.144,5.144,0,0,0,406.092,345.641Z" transform="translate(-80.834 -78.944)" fill="#f2d3e8"/>
            <path id="Trazado_1013848" data-name="Trazado 1013848" d="M50.018,118.537a5.114,5.114,0,1,0-2.5-7.294A5.144,5.144,0,0,0,50.018,118.537Z" transform="translate(-41.189 -53.658)" fill="#f2d3e8"/>
            <path id="Trazado_1013849" data-name="Trazado 1013849" d="M76.979,394.613a5.114,5.114,0,1,0-2.5-7.294A5.144,5.144,0,0,0,76.979,394.613Z" transform="translate(-44.191 -84.396)" fill="#f2d3e8"/>
            <path id="Trazado_1013850" data-name="Trazado 1013850" d="M459.605,153.07a5.114,5.114,0,1,0-2.5-7.294A5.144,5.144,0,0,0,459.605,153.07Z" transform="translate(-86.792 -57.503)" fill="#f2d3e8"/>
            <path id="Trazado_1013851" data-name="Trazado 1013851" d="M405.83,442.771a2.505,2.505,0,1,0,2.505-2.505A2.5,2.5,0,0,0,405.83,442.771Z" transform="translate(-81.157 -90.571)" fill="none" stroke="#2e2854" stroke-linecap="round" stroke-linejoin="round" stroke-miterlimit="10" stroke-width="1"/>
            <path id="Trazado_1013852" data-name="Trazado 1013852" d="M85.721,313.753a2.505,2.505,0,1,0,2.505-2.5A2.5,2.5,0,0,0,85.721,313.753Z" transform="translate(-45.516 -76.206)" fill="none" stroke="#2e2854" stroke-linecap="round" stroke-linejoin="round" stroke-miterlimit="10" stroke-width="1"/>
            <path id="Trazado_1013853" data-name="Trazado 1013853" d="M333.109,85.747a2.505,2.505,0,1,0,2.505-2.5A2.505,2.505,0,0,0,333.109,85.747Z" transform="translate(-73.06 -50.82)" fill="none" stroke="#2e2854" stroke-linecap="round" stroke-linejoin="round" stroke-miterlimit="10" stroke-width="1"/>
            <path id="Trazado_1013854" data-name="Trazado 1013854" d="M108.872,216.587a2.5,2.5,0,1,0,2.505-2.505A2.5,2.5,0,0,0,108.872,216.587Z" transform="translate(-48.093 -65.387)" fill="none" stroke="#2e2854" stroke-linecap="round" stroke-linejoin="round" stroke-miterlimit="10" stroke-width="1"/>
            <path id="Trazado_1013855" data-name="Trazado 1013855" d="M128.457,54.687a2.5,2.5,0,1,0,2.5-2.505A2.5,2.5,0,0,0,128.457,54.687Z" transform="translate(-50.274 -47.361)" fill="none" stroke="#2e2854" stroke-linecap="round" stroke-linejoin="round" stroke-miterlimit="10" stroke-width="1"/>
          </g>
        </g>
      </g>
      <circle id="Elipse_11809" data-name="Elipse 11809" cx="32.063" cy="32.063" r="32.063" transform="translate(1364.812 578.874)" fill="#edae3b"/>
      <circle id="Elipse_11810" data-name="Elipse 11810" cx="12.063" cy="12.063" r="12.063" transform="translate(1340.686 580.028)" fill="#817489"/>
      <circle id="Elipse_11811" data-name="Elipse 11811" cx="25.813" cy="25.813" r="25.813" transform="translate(1007.312 819.812)" fill="#817489"/>
      <circle id="Elipse_11813" data-name="Elipse 11813" cx="40.063" cy="40.063" r="40.063" transform="translate(1006 931.5)" fill="#e89076"/>
      <circle id="Elipse_11815" data-name="Elipse 11815" cx="20.063" cy="20.063" r="20.063" transform="translate(1084.875 976.107)" fill="#edae3b"/>
      <circle id="Elipse_11808" data-name="Elipse 11808" cx="48.563" cy="48.563" r="48.563" transform="translate(1368 855.944)" fill="#88bba9"/>
      <circle id="Elipse_11812" data-name="Elipse 11812" cx="32.063" cy="32.063" r="32.063" transform="translate(1026.875 572.99)" fill="#88bba9"/>
      <circle id="Elipse_11814" data-name="Elipse 11814" cx="12.063" cy="12.063" r="12.063" transform="translate(1016.812 618.99)" fill="#817489"/>
      <circle id="Elipse_11816" data-name="Elipse 11816" cx="20.063" cy="20.063" r="20.063" transform="translate(1033.125 855.944)" fill="#edae3b"/>
    </g>
  </g>
</svg>
