<svg xmlns="http://www.w3.org/2000/svg" xmlns:xlink="http://www.w3.org/1999/xlink" width="108" height="108" viewBox="0 0 108 108">
  <defs>
    <filter id="Trazado_982547" x="0" y="0" width="108" height="108" filterUnits="userSpaceOnUse">
      <feOffset dy="3" input="SourceAlpha"/>
      <feGaussianBlur stdDeviation="3" result="blur"/>
      <feFlood flood-opacity="0.161"/>
      <feComposite operator="in" in2="blur"/>
      <feComposite in="SourceGraphic"/>
    </filter>
  </defs>
  <g id="Grupo_1160824" data-name="Grupo 1160824" transform="translate(-191.819 -950)">
    <g id="Grupo_1158695" data-name="Grupo 1158695" transform="translate(-419.181 486)">
      <g id="Grupo_1155790" data-name="Grupo 1155790" transform="translate(-5 -3446)">
        <g id="Grupo_1153177" data-name="Grupo 1153177" transform="translate(362 3397)">
          <g id="Grupo_1149598" data-name="Grupo 1149598" transform="translate(80 315)">
            <g id="Grupo_1148770" data-name="Grupo 1148770" transform="translate(-27 -2583)">
              <g id="Grupo_1146954" data-name="Grupo 1146954" transform="translate(-415 -1202)">
                <g transform="matrix(1, 0, 0, 1, 616, 3983)" filter="url(#Trazado_982547)">
                  <g id="Trazado_982547-2" data-name="Trazado 982547" transform="translate(9 6)" fill="#f1f0f2">
                    <path d="M 45 88.5 C 39.12687683105469 88.5 33.43022537231445 87.35007476806641 28.06830024719238 85.08217620849609 C 22.88852500915527 82.89131164550781 18.23629951477051 79.75458526611328 14.2408504486084 75.75914764404297 C 10.24541282653809 71.76370239257812 7.108687400817871 67.11147308349609 4.917825222015381 61.93170166015625 C 2.649924993515015 56.56977462768555 1.5 50.87312316894531 1.5 45 C 1.5 39.12687683105469 2.649924993515015 33.43022537231445 4.917825222015381 28.06830024719238 C 7.108687400817871 22.88852500915527 10.24541282653809 18.23629951477051 14.2408504486084 14.2408504486084 C 18.23629951477051 10.24541282653809 22.88852500915527 7.108687400817871 28.06830024719238 4.917825222015381 C 33.43022537231445 2.649924993515015 39.12687683105469 1.5 45 1.5 C 50.87312316894531 1.5 56.56977462768555 2.649924993515015 61.93170166015625 4.917825222015381 C 67.11147308349609 7.108687400817871 71.76370239257812 10.24541282653809 75.75914764404297 14.2408504486084 C 79.75458526611328 18.23629951477051 82.89131164550781 22.88852500915527 85.08217620849609 28.06830024719238 C 87.35007476806641 33.43022537231445 88.5 39.12687683105469 88.5 45 C 88.5 50.87312316894531 87.35007476806641 56.56977462768555 85.08217620849609 61.93170166015625 C 82.89131164550781 67.11147308349609 79.75458526611328 71.76370239257812 75.75914764404297 75.75914764404297 C 71.76370239257812 79.75458526611328 67.11147308349609 82.89131164550781 61.93170166015625 85.08217620849609 C 56.56977462768555 87.35007476806641 50.87312316894531 88.5 45 88.5 Z" stroke="none"/>
                    <path d="M 45 3 C 39.32871246337891 3 33.82865524291992 4.110054016113281 28.65262985229492 6.299339294433594 C 23.65165710449219 8.414573669433594 19.15968322753906 11.44334411621094 15.301513671875 15.301513671875 C 11.44334411621094 19.15968322753906 8.414573669433594 23.65165710449219 6.299339294433594 28.65262985229492 C 4.110054016113281 33.82865524291992 3 39.32871246337891 3 45 C 3 50.67128753662109 4.110054016113281 56.17134475708008 6.299339294433594 61.34737396240234 C 8.414573669433594 66.34834289550781 11.44334411621094 70.84031677246094 15.301513671875 74.698486328125 C 19.15968322753906 78.55665588378906 23.65165710449219 81.58542633056641 28.65262985229492 83.70066070556641 C 33.82865524291992 85.88994598388672 39.32871246337891 87 45 87 C 50.67128753662109 87 56.17134475708008 85.88994598388672 61.34737396240234 83.70066070556641 C 66.34834289550781 81.58542633056641 70.84031677246094 78.55665588378906 74.698486328125 74.698486328125 C 78.55665588378906 70.84031677246094 81.58542633056641 66.34834289550781 83.70066070556641 61.34737396240234 C 85.88994598388672 56.17134475708008 87 50.67128753662109 87 45 C 87 39.32871246337891 85.88994598388672 33.82865524291992 83.70066070556641 28.65262985229492 C 81.58542633056641 23.65165710449219 78.55665588378906 19.15968322753906 74.698486328125 15.301513671875 C 70.84031677246094 11.44334411621094 66.34834289550781 8.414573669433594 61.34737396240234 6.299339294433594 C 56.17134475708008 4.110054016113281 50.67128753662109 3 45 3 M 45 0 C 69.85281372070312 0 90 20.14718627929688 90 45 C 90 69.85281372070312 69.85281372070312 90 45 90 C 20.14718627929688 90 0 69.85281372070312 0 45 C 0 20.14718627929688 20.14718627929688 0 45 0 Z" stroke="none" fill="#817489"/>
                  </g>
                </g>
              </g>
            </g>
          </g>
        </g>
      </g>
    </g>
    <g id="proyecto_1_" data-name="proyecto (1)" transform="translate(219.819 964.039)">
      <g id="Grupo_1160785" data-name="Grupo 1160785" transform="translate(2.068 16.032)">
        <path id="Trazado_1013683" data-name="Trazado 1013683" d="M19.869,51.069V81.355A1.041,1.041,0,0,0,20.91,82.4h2.18a5.634,5.634,0,0,1,11.2,0H38.85a5.634,5.634,0,0,1,11.2,0H54.61a5.634,5.634,0,0,1,11.2,0h2.18a1.041,1.041,0,0,0,1.041-1.041V51.069Z" transform="translate(-19.869 -51.069)" fill="#eaf6ff"/>
      </g>
      <g id="Grupo_1160787" data-name="Grupo 1160787" transform="translate(46.872 16.032)">
        <g id="Grupo_1160786" data-name="Grupo 1160786" transform="translate(0 0)">
          <path id="Trazado_1013684" data-name="Trazado 1013684" d="M450.262,51.069v28.51A5.607,5.607,0,0,1,451.4,82.4h2.18a1.041,1.041,0,0,0,1.041-1.041V51.069Z" transform="translate(-450.262 -51.069)" fill="#d8ecfe"/>
        </g>
      </g>
      <g id="Grupo_1160788" data-name="Grupo 1160788" transform="translate(0.781 12.742)">
        <path id="Trazado_1013685" data-name="Trazado 1013685" d="M58.2,19.46H8.541A1.041,1.041,0,0,0,7.5,20.5v1.313a1.041,1.041,0,0,0,1.041,1.041H58.2a1.041,1.041,0,0,0,1.041-1.041V20.5A1.041,1.041,0,0,0,58.2,19.46Z" transform="translate(-7.5 -19.46)" fill="#978ecb"/>
      </g>
      <g id="Grupo_1160789" data-name="Grupo 1160789" transform="translate(46.22 12.742)">
        <path id="Trazado_1013686" data-name="Trazado 1013686" d="M449.257,19.46H444a1.041,1.041,0,0,1,1.041,1.041v1.313A1.041,1.041,0,0,1,444,22.855h5.257a1.041,1.041,0,0,0,1.041-1.041V20.5A1.041,1.041,0,0,0,449.257,19.46Z" transform="translate(-444 -19.46)" fill="#8379c1"/>
      </g>
      <g id="Grupo_1160812" data-name="Grupo 1160812" transform="translate(2.068 40.484)">
        <g id="Grupo_1160797" data-name="Grupo 1160797" transform="translate(32.388 0)">
          <g id="Grupo_1160796" data-name="Grupo 1160796">
            <g id="Grupo_1160790" data-name="Grupo 1160790" transform="translate(0 12.39)">
              <path id="Trazado_1013687" data-name="Trazado 1013687" d="M345.935,406.895l-4.232-1.921a5.6,5.6,0,0,1-5.517,0l-4.232,1.921a3.113,3.113,0,0,0-.963.685,3.021,3.021,0,0,1,.91,2.157v4.353h14.3a1.561,1.561,0,0,0,1.561-1.561v-2.792A3.121,3.121,0,0,0,345.935,406.895Z" transform="translate(-330.991 -404.974)" fill="#0ed290"/>
            </g>
            <g id="Grupo_1160791" data-name="Grupo 1160791" transform="translate(0 12.39)">
              <path id="Trazado_1013688" data-name="Trazado 1013688" d="M345.935,406.895l-4.232-1.921a5.6,5.6,0,0,1-5.517,0l-4.232,1.921a3.113,3.113,0,0,0-.963.685,3.021,3.021,0,0,1,.91,2.157v4.353h14.3a1.561,1.561,0,0,0,1.561-1.561v-2.792A3.121,3.121,0,0,0,345.935,406.895Z" transform="translate(-330.991 -404.974)" fill="#0ed290"/>
            </g>
            <g id="Grupo_1160793" data-name="Grupo 1160793" transform="translate(7.329 12.39)">
              <g id="Grupo_1160792" data-name="Grupo 1160792">
                <path id="Trazado_1013689" data-name="Trazado 1013689" d="M409.007,406.895l-4.232-1.921a5.585,5.585,0,0,1-2.759.726,5.662,5.662,0,0,1-.625-.035l3.72,1.688a3.486,3.486,0,0,1,2.045,3.174v3.562h2.119a1.562,1.562,0,0,0,1.562-1.562v-2.792A3.12,3.12,0,0,0,409.007,406.895Z" transform="translate(-401.392 -404.974)" fill="#00c285"/>
              </g>
            </g>
            <g id="Grupo_1160794" data-name="Grupo 1160794" transform="translate(0.47)">
              <circle id="Elipse_11800" data-name="Elipse 11800" cx="5.739" cy="5.739" r="5.739" transform="translate(0 10.606) rotate(-67.486)" fill="#05e39c"/>
            </g>
            <g id="Grupo_1160795" data-name="Grupo 1160795" transform="translate(6.326 1.755)">
              <path id="Trazado_1013690" data-name="Trazado 1013690" d="M393.39,302.818a5.735,5.735,0,0,0-1.627.235,5.739,5.739,0,0,1,0,11.007,5.739,5.739,0,1,0,1.627-11.243Z" transform="translate(-391.763 -302.818)" fill="#0ed290"/>
            </g>
          </g>
        </g>
        <g id="Grupo_1160804" data-name="Grupo 1160804" transform="translate(0 0.004)">
          <g id="Grupo_1160803" data-name="Grupo 1160803" transform="translate(0 0)">
            <g id="Grupo_1160798" data-name="Grupo 1160798" transform="translate(0 12.386)">
              <path id="Trazado_1013691" data-name="Trazado 1013691" d="M35.733,409.736a3.021,3.021,0,0,1,.911-2.157,3.115,3.115,0,0,0-.963-.685l-4.232-1.921a5.6,5.6,0,0,1-5.517,0L21.7,406.895a3.12,3.12,0,0,0-1.831,2.842v2.792a1.561,1.561,0,0,0,1.561,1.561h14.3Z" transform="translate(-19.869 -404.974)" fill="#0ed290"/>
            </g>
            <g id="Grupo_1160800" data-name="Grupo 1160800" transform="translate(7.913 12.386)">
              <g id="Grupo_1160799" data-name="Grupo 1160799">
                <path id="Trazado_1013692" data-name="Trazado 1013692" d="M103.78,406.895l-4.232-1.921a5.607,5.607,0,0,1-3.667.652l3.8,1.723a3.486,3.486,0,0,1,2.045,3.174v3.566h2.109v-4.353a3.021,3.021,0,0,1,.911-2.157A3.116,3.116,0,0,0,103.78,406.895Z" transform="translate(-95.882 -404.974)" fill="#00c285"/>
              </g>
            </g>
            <g id="Grupo_1160801" data-name="Grupo 1160801" transform="translate(1.328)">
              <circle id="Elipse_11801" data-name="Elipse 11801" cx="5.739" cy="5.739" r="5.739" transform="translate(0 10.606) rotate(-67.486)" fill="#05e39c"/>
            </g>
            <g id="Grupo_1160802" data-name="Grupo 1160802" transform="translate(7.183 1.751)">
              <path id="Trazado_1013693" data-name="Trazado 1013693" d="M90.507,302.818a5.74,5.74,0,0,0-1.638.239,5.739,5.739,0,0,1,0,11,5.739,5.739,0,1,0,1.638-11.24Z" transform="translate(-88.869 -302.818)" fill="#0ed290"/>
            </g>
          </g>
        </g>
        <g id="Grupo_1160811" data-name="Grupo 1160811" transform="translate(15.76 0.002)">
          <g id="Grupo_1160810" data-name="Grupo 1160810" transform="translate(0 0)">
            <g id="Grupo_1160805" data-name="Grupo 1160805" transform="translate(0 12.388)">
              <path id="Trazado_1013694" data-name="Trazado 1013694" d="M187.074,406.895l-4.232-1.921a5.6,5.6,0,0,1-5.517,0l-4.232,1.921a3.121,3.121,0,0,0-1.831,2.842v4.353h17.642v-4.353A3.121,3.121,0,0,0,187.074,406.895Z" transform="translate(-171.263 -404.974)" fill="#8ac9fe"/>
            </g>
            <g id="Grupo_1160807" data-name="Grupo 1160807" transform="translate(8.196 12.388)">
              <g id="Grupo_1160806" data-name="Grupo 1160806">
                <path id="Trazado_1013695" data-name="Trazado 1013695" d="M257.614,406.895l-4.232-1.921a5.584,5.584,0,0,1-2.759.726,5.66,5.66,0,0,1-.625-.035l3.72,1.688a3.486,3.486,0,0,1,2.045,3.174v3.562h3.68v-4.353A3.121,3.121,0,0,0,257.614,406.895Z" transform="translate(-249.999 -404.974)" fill="#60b7ff"/>
              </g>
            </g>
            <g id="Grupo_1160808" data-name="Grupo 1160808" transform="translate(1.333)">
              <circle id="Elipse_11802" data-name="Elipse 11802" cx="5.739" cy="5.739" r="5.739" transform="translate(0 10.606) rotate(-67.486)" fill="#b3dafe"/>
            </g>
            <g id="Grupo_1160809" data-name="Grupo 1160809" transform="translate(7.201 1.753)">
              <path id="Trazado_1013696" data-name="Trazado 1013696" d="M242.054,302.818a5.739,5.739,0,0,0-1.62.233,5.739,5.739,0,0,1,0,11.011,5.739,5.739,0,1,0,1.62-11.245Z" transform="translate(-240.434 -302.818)" fill="#8ac9fe"/>
            </g>
          </g>
        </g>
      </g>
      <g id="Grupo_1160822" data-name="Grupo 1160822" transform="translate(6.402 20.402)">
        <g id="Grupo_1160818" data-name="Grupo 1160818" transform="translate(0 1.218)">
          <g id="Grupo_1160813" data-name="Grupo 1160813" transform="translate(0 0)">
            <path id="Trazado_1013697" data-name="Trazado 1013697" d="M74.849,109.151a.417.417,0,0,1-.416-.416V106a8.5,8.5,0,1,0,3.01,3.151Z" transform="translate(-61.5 -104.751)" fill="#05e39c"/>
          </g>
          <g id="Grupo_1160814" data-name="Grupo 1160814" transform="translate(6.858 0)">
            <path id="Trazado_1013698" data-name="Trazado 1013698" d="M136.459,109.151h-2.593a.417.417,0,0,1-.416-.416V106a8.5,8.5,0,0,0-6.075-1.089,8.5,8.5,0,0,1,0,16.675,8.5,8.5,0,0,0,9.084-12.434Z" transform="translate(-127.375 -104.751)" fill="#0ed290"/>
          </g>
          <g id="Grupo_1160815" data-name="Grupo 1160815">
            <path id="Trazado_1013699" data-name="Trazado 1013699" d="M61.5,113.247a8.5,8.5,0,0,0,16.994,0H70v-8.5A8.5,8.5,0,0,0,61.5,113.247Z" transform="translate(-61.5 -104.75)" fill="#fe646f"/>
          </g>
          <g id="Grupo_1160817" data-name="Grupo 1160817" transform="translate(6.857 8.497)">
            <g id="Grupo_1160816" data-name="Grupo 1160816">
              <path id="Trazado_1013700" data-name="Trazado 1013700" d="M134.232,186.375a8.5,8.5,0,0,1-6.858,8.337,8.5,8.5,0,0,0,10.137-8.337Z" transform="translate(-127.374 -186.375)" fill="#fd4755"/>
            </g>
          </g>
        </g>
        <g id="Grupo_1160821" data-name="Grupo 1160821" transform="translate(12.828)">
          <g id="Grupo_1160819" data-name="Grupo 1160819" transform="translate(0 0)">
            <path id="Trazado_1013701" data-name="Trazado 1013701" d="M195.914,98.77H185.249a.521.521,0,0,1-.52-.52V93.567a.521.521,0,0,1,.52-.52h10.664a.521.521,0,0,1,.52.52v4.682A.52.52,0,0,1,195.914,98.77Z" transform="translate(-184.729 -93.047)" fill="#ffd15b"/>
          </g>
          <g id="Grupo_1160820" data-name="Grupo 1160820" transform="translate(7.94)">
            <path id="Trazado_1013702" data-name="Trazado 1013702" d="M264.245,93.047H261a.521.521,0,0,1,.521.521v4.682a.521.521,0,0,1-.521.52h3.245a.521.521,0,0,0,.52-.52V93.567A.52.52,0,0,0,264.245,93.047Z" transform="translate(-261 -93.047)" fill="#ffc344"/>
          </g>
        </g>
      </g>
      <g id="Grupo_1160823" data-name="Grupo 1160823" transform="translate(0 11.961)">
        <path id="Trazado_1013703" data-name="Trazado 1013703" d="M51.477,11.961H44.242a.781.781,0,1,0,0,1.561h7.235a.26.26,0,0,1,.26.26V15.1a.26.26,0,0,1-.26.26H1.822a.261.261,0,0,1-.26-.26V13.783a.261.261,0,0,1,.26-.26H40.6a.781.781,0,0,0,0-1.561H1.822A1.824,1.824,0,0,0,0,13.783V15.1a1.825,1.825,0,0,0,1.288,1.741V28.621a.781.781,0,1,0,1.561,0v-11.7h47.6v29.4a.26.26,0,0,1-.26.26H48.776a6.519,6.519,0,0,0-12.734,0H33.016a6.519,6.519,0,0,0-12.734,0H17.256a6.519,6.519,0,0,0-12.734,0H3.109a.261.261,0,0,1-.26-.26V32.264a.781.781,0,1,0-1.561,0V46.318a1.824,1.824,0,0,0,1.822,1.822H4.374a6.5,6.5,0,0,0,2.1,4.629l-2.9,1.314a3.909,3.909,0,0,0-2.289,3.553v2.792A2.345,2.345,0,0,0,3.63,62.769h35.2a.781.781,0,1,0,0-1.561H36.251V57.635a3.9,3.9,0,0,0-.605-2.082c.032-.016.063-.034.1-.049l3.747-1.7a6.5,6.5,0,0,0,5.842,0l3.747,1.7a2.344,2.344,0,0,1,1.373,2.131v2.792a.782.782,0,0,1-.781.781h-7.2a.781.781,0,1,0,0,1.561h7.2a2.345,2.345,0,0,0,2.342-2.342V57.635a3.909,3.909,0,0,0-2.289-3.552l-2.9-1.314a6.5,6.5,0,0,0,2.1-4.629h1.264a1.824,1.824,0,0,0,1.822-1.822V16.837A1.825,1.825,0,0,0,53.3,15.1V13.783a1.824,1.824,0,0,0-1.822-1.822ZM26.649,43.02a4.958,4.958,0,1,1-4.958,4.958,4.964,4.964,0,0,1,4.958-4.958ZM5.931,47.978a4.958,4.958,0,1,1,4.958,4.958A4.964,4.964,0,0,1,5.931,47.978Zm11.116,9.657v3.573H3.63a.782.782,0,0,1-.781-.781V57.635A2.344,2.344,0,0,1,4.222,55.5l3.747-1.7a6.5,6.5,0,0,0,5.842,0l3.747,1.7c.033.015.064.032.1.049a3.9,3.9,0,0,0-.605,2.082Zm-1.741-4.867a6.5,6.5,0,0,0,2.1-4.629h2.728a6.5,6.5,0,0,0,2.1,4.629l-2.9,1.314a3.88,3.88,0,0,0-.566.319,3.872,3.872,0,0,0-.568-.319Zm19.384,8.44H18.609V57.635A2.344,2.344,0,0,1,19.982,55.5l3.747-1.7a6.5,6.5,0,0,0,5.842,0l3.747,1.7a2.344,2.344,0,0,1,1.373,2.131v3.573Zm.407-7.125a3.873,3.873,0,0,0-.569.319,3.879,3.879,0,0,0-.566-.319l-2.9-1.314a6.5,6.5,0,0,0,2.1-4.629h2.728a6.5,6.5,0,0,0,2.1,4.629Zm7.313-1.147a4.958,4.958,0,1,1,4.958-4.958A4.964,4.964,0,0,1,42.409,52.936Z" transform="translate(0 -11.961)"/>
        <path id="Trazado_1013704" data-name="Trazado 1013704" d="M78.793,85.547H68.129a1.3,1.3,0,0,0-1.3,1.3v.624a9.284,9.284,0,1,0,5.152,5.358h6.813a1.3,1.3,0,0,0,1.3-1.3V86.848A1.3,1.3,0,0,0,78.793,85.547Zm-14.735,2.82a7.7,7.7,0,0,1,2.769.826V91.53a1.3,1.3,0,0,0,1.3,1.3h2.163a7.745,7.745,0,0,1,.661,2.431H64.059Zm-.781,15.393A7.716,7.716,0,0,1,62.5,88.366v7.677a.781.781,0,0,0,.781.781h7.677A7.727,7.727,0,0,1,63.278,103.759ZM78.533,91.27H68.39V87.108H78.533Z" transform="translate(-48.379 -77.887)"/>
        <path id="Trazado_1013705" data-name="Trazado 1013705" d="M207.994,114.594h5.462a.781.781,0,1,0,0-1.561h-5.462a.781.781,0,0,0,0,1.561Z" transform="translate(-185.642 -102.511)"/>
        <path id="Trazado_1013706" data-name="Trazado 1013706" d="M250.7,180h-1.21a.781.781,0,0,0,0,1.561h1.21a.781.781,0,0,0,0-1.561Z" transform="translate(-222.822 -162.507)"/>
        <path id="Trazado_1013707" data-name="Trazado 1013707" d="M250.7,214.978h-1.21a.781.781,0,0,0,0,1.561h1.21a.781.781,0,0,0,0-1.561Z" transform="translate(-222.822 -193.844)"/>
        <path id="Trazado_1013708" data-name="Trazado 1013708" d="M250.7,249.955h-1.21a.781.781,0,0,0,0,1.561h1.21a.781.781,0,0,0,0-1.561Z" transform="translate(-222.822 -225.18)"/>
        <path id="Trazado_1013709" data-name="Trazado 1013709" d="M289.908,180.781a.781.781,0,0,0,.781.781h15.937a.781.781,0,0,0,0-1.561H290.689A.781.781,0,0,0,289.908,180.781Z" transform="translate(-259.729 -162.507)"/>
        <path id="Trazado_1013710" data-name="Trazado 1013710" d="M290.689,216.539H300.9a.781.781,0,1,0,0-1.561H290.689a.781.781,0,1,0,0,1.561Z" transform="translate(-259.729 -193.844)"/>
        <path id="Trazado_1013711" data-name="Trazado 1013711" d="M290.689,251.516h15.937a.781.781,0,0,0,0-1.561H290.689a.781.781,0,1,0,0,1.561Z" transform="translate(-259.729 -225.18)"/>
        <path id="Trazado_1013712" data-name="Trazado 1013712" d="M382.418,129.594h6.388a.781.781,0,0,0,0-1.561h-6.388a.781.781,0,0,0,0,1.561Z" transform="translate(-341.909 -115.95)"/>
        <path id="Trazado_1013713" data-name="Trazado 1013713" d="M382.418,99.594h6.388a.781.781,0,0,0,0-1.561h-6.388a.781.781,0,0,0,0,1.561Z" transform="translate(-341.909 -89.073)"/>
        <path id="Trazado_1013714" data-name="Trazado 1013714" d="M414.216,214.978h-3.435a.781.781,0,1,0,0,1.561h3.435a.781.781,0,1,0,0-1.561Z" transform="translate(-367.319 -193.844)"/>
      </g>
    </g>
  </g>
</svg>
