<svg xmlns="http://www.w3.org/2000/svg" xmlns:xlink="http://www.w3.org/1999/xlink" width="98" height="98" viewBox="0 0 98 98">
  <defs>
    <filter id="Trazado_982548" x="0" y="0" width="98" height="98" filterUnits="userSpaceOnUse">
      <feOffset dy="3" input="SourceAlpha"/>
      <feGaussianBlur stdDeviation="3" result="blur"/>
      <feFlood flood-opacity="0.161"/>
      <feComposite operator="in" in2="blur"/>
      <feComposite in="SourceGraphic"/>
    </filter>
  </defs>
  <g id="Grupo_1159316" data-name="Grupo 1159316" transform="translate(-183 -1015)">
    <g id="Grupo_1155642" data-name="Grupo 1155642" transform="translate(0 166)">
      <g id="Grupo_1154380" data-name="Grupo 1154380" transform="translate(-9 -1247)">
        <g id="Grupo_1149886" data-name="Grupo 1149886" transform="translate(0 -2463)">
          <g id="Grupo_1149694" data-name="Grupo 1149694" transform="translate(-9 4104)">
            <g id="Grupo_1149263" data-name="Grupo 1149263" transform="translate(210 461)">
              <g transform="matrix(1, 0, 0, 1, -9, -6)" filter="url(#Trazado_982548)">
                <g id="Trazado_982548-2" data-name="Trazado 982548" transform="translate(9 6)" fill="#f2f7f5">
                  <path d="M 40 78.5 C 34.80187606811523 78.5 29.76003265380859 77.48227691650391 25.01452255249023 75.47509765625 C 20.43014526367188 73.53606414794922 16.31264495849609 70.75986480712891 12.77638912200928 67.22360992431641 C 9.240133285522461 63.68735504150391 6.46393346786499 59.56985473632812 4.524899959564209 54.98547744750977 C 2.517722129821777 50.23996734619141 1.5 45.19812393188477 1.5 40 C 1.5 34.80187606811523 2.517722129821777 29.76003265380859 4.524899959564209 25.01452255249023 C 6.46393346786499 20.43014526367188 9.240133285522461 16.31264495849609 12.77638912200928 12.77638912200928 C 16.31264495849609 9.240133285522461 20.43014526367188 6.46393346786499 25.01452255249023 4.524899959564209 C 29.76003265380859 2.517722129821777 34.80187606811523 1.5 40 1.5 C 45.19812393188477 1.5 50.23996734619141 2.517722129821777 54.98547744750977 4.524899959564209 C 59.56985473632812 6.46393346786499 63.68735504150391 9.240133285522461 67.22360992431641 12.77638912200928 C 70.75986480712891 16.31264495849609 73.53606414794922 20.43014526367188 75.47509765625 25.01452255249023 C 77.48227691650391 29.76003265380859 78.5 34.80187606811523 78.5 40 C 78.5 45.19812393188477 77.48227691650391 50.23996734619141 75.47509765625 54.98547744750977 C 73.53606414794922 59.56985473632812 70.75986480712891 63.68735504150391 67.22360992431641 67.22360992431641 C 63.68735504150391 70.75986480712891 59.56985473632812 73.53606414794922 54.98547744750977 75.47509765625 C 50.23996734619141 77.48227691650391 45.19812393188477 78.5 40 78.5 Z" stroke="none"/>
                  <path d="M 40 3 C 35.00370788574219 3 30.15846633911133 3.977851867675781 25.59885406494141 5.906410217285156 C 21.19326782226562 7.769813537597656 17.23602676391602 10.43806457519531 13.83704376220703 13.83705139160156 C 10.43806457519531 17.23603820800781 7.769813537597656 21.19327926635742 5.906410217285156 25.59885406494141 C 3.977851867675781 30.15846633911133 3 35.00370788574219 3 40 C 3 44.99629211425781 3.977851867675781 49.84153366088867 5.906410217285156 54.40114593505859 C 7.769813537597656 58.80672073364258 10.43806457519531 62.76396179199219 13.83704376220703 66.16294860839844 C 17.23602676391602 69.56193542480469 21.19326782226562 72.23018646240234 25.59885406494141 74.09358978271484 C 30.15846633911133 76.02214813232422 35.00370788574219 77 40 77 C 44.99629211425781 77 49.84153366088867 76.02214813232422 54.40114593505859 74.09358978271484 C 58.80672073364258 72.23018646240234 62.76396179199219 69.56193542480469 66.16294860839844 66.16294860839844 C 69.56193542480469 62.76396179199219 72.23018646240234 58.80672073364258 74.09358978271484 54.40114593505859 C 76.02214813232422 49.84153366088867 77 44.99629211425781 77 40 C 77 35.00370788574219 76.02214813232422 30.15846633911133 74.09358978271484 25.59885406494141 C 72.23018646240234 21.19327926635742 69.56193542480469 17.23603820800781 66.16294860839844 13.83705139160156 C 62.76396179199219 10.43806457519531 58.80672073364258 7.769813537597656 54.40114593505859 5.906410217285156 C 49.84153366088867 3.977851867675781 44.99629211425781 3 40 3 M 40 0 C 62.09138488769531 0 80 17.90861511230469 80 40 C 80 62.09138488769531 62.09138488769531 80 40 80 C 17.90859985351562 80 0 62.09138488769531 0 40 C 0 17.90861511230469 17.90859985351562 0 40 0 Z" stroke="none" fill="#4a665c"/>
                </g>
              </g>
            </g>
          </g>
        </g>
      </g>
    </g>
    <g id="sugerencia" transform="translate(141.098 1035)">
      <g id="Grupo_1159302" data-name="Grupo 1159302" transform="translate(83.566 43.581)">
        <path id="Trazado_1012923" data-name="Trazado 1012923" d="M198.8,426.97h-12.47a1.039,1.039,0,0,1-1.039-1.039v-1.247a1.039,1.039,0,0,1,1.039-1.039H198.8a1.039,1.039,0,0,1,1.039,1.039v1.247A1.039,1.039,0,0,1,198.8,426.97Z" transform="translate(-185.288 -423.645)" fill="#4172ca"/>
      </g>
      <g id="Grupo_1159303" data-name="Grupo 1159303" transform="translate(92.919 43.582)">
        <path id="Trazado_1012924" data-name="Trazado 1012924" d="M280.361,423.646H276.2a1.039,1.039,0,0,1,1.039,1.039v1.247a1.039,1.039,0,0,1-1.039,1.039h4.157a1.039,1.039,0,0,0,1.039-1.039v-1.247A1.039,1.039,0,0,0,280.361,423.646Z" transform="translate(-276.204 -423.646)" fill="#3a67c1"/>
      </g>
      <g id="Grupo_1159304" data-name="Grupo 1159304" transform="translate(72.673 0.772)">
        <path id="Trazado_1012925" data-name="Trazado 1012925" d="M97.568,7.5A18.168,18.168,0,0,0,88.01,41.119,5,5,0,0,1,90.339,44.7l.31,2.292h13.836l.31-2.291a4.941,4.941,0,0,1,2.286-3.552A18.168,18.168,0,0,0,97.568,7.5Z" transform="translate(-79.401 -7.5)" fill="#f7e365"/>
      </g>
      <g id="Grupo_1159305" data-name="Grupo 1159305" transform="translate(81.333 3.7)">
        <path id="Trazado_1012926" data-name="Trazado 1012926" d="M182.982,35.969a19.178,19.178,0,0,1-19.4,30.723,5,5,0,0,1,2.279,3.545l.31,2.292h13.836l.31-2.291a4.941,4.941,0,0,1,2.286-3.552,18.17,18.17,0,0,0,.379-30.717Z" transform="translate(-163.581 -35.969)" fill="#f3d332"/>
      </g>
      <g id="Grupo_1159306" data-name="Grupo 1159306" transform="translate(82.527 40.26)">
        <path id="Trazado_1012927" data-name="Trazado 1012927" d="M190.775,394.686H176.226a1.039,1.039,0,0,1-1.039-1.039V392.4a1.039,1.039,0,0,1,1.039-1.039h14.549a1.039,1.039,0,0,1,1.039,1.039v1.247A1.039,1.039,0,0,1,190.775,394.686Z" transform="translate(-175.187 -391.361)" fill="#4172ca"/>
      </g>
      <g id="Grupo_1159307" data-name="Grupo 1159307" transform="translate(93.958 40.26)">
        <path id="Trazado_1012928" data-name="Trazado 1012928" d="M290.463,391.362h-4.157a1.039,1.039,0,0,1,1.039,1.039v1.247a1.039,1.039,0,0,1-1.039,1.039h4.157a1.039,1.039,0,0,0,1.039-1.039V392.4A1.039,1.039,0,0,0,290.463,391.362Z" transform="translate(-286.306 -391.362)" fill="#3a67c1"/>
      </g>
      <g id="Grupo_1159308" data-name="Grupo 1159308" transform="translate(85.437 46.911)">
        <path id="Trazado_1012929" data-name="Trazado 1012929" d="M211.519,461h-5.288a2.078,2.078,0,0,1-2.031-1.637l-.729-3.351h10.807l-.729,3.351A2.078,2.078,0,0,1,211.519,461Z" transform="translate(-203.471 -456.012)" fill="#ddebfd"/>
      </g>
      <g id="Grupo_1159309" data-name="Grupo 1159309" transform="translate(90.679 46.911)">
        <path id="Trazado_1012930" data-name="Trazado 1012930" d="M257.189,456.012l-.729,3.351A2.078,2.078,0,0,1,254.429,461h2.806a2.078,2.078,0,0,0,2.031-1.637l.729-3.351Z" transform="translate(-254.429 -456.012)" fill="#bed9fd"/>
      </g>
      <g id="Grupo_1159314" data-name="Grupo 1159314" transform="translate(83.151 6.903)">
        <g id="Grupo_1159310" data-name="Grupo 1159310" transform="translate(5.789 22.767)">
          <circle id="Elipse_11777" data-name="Elipse 11777" cx="1.888" cy="1.888" r="1.888" fill="#edf6ff"/>
        </g>
        <g id="Grupo_1159313" data-name="Grupo 1159313" transform="translate(0)">
          <g id="Grupo_1159312" data-name="Grupo 1159312">
            <g id="Grupo_1159311" data-name="Grupo 1159311">
              <path id="Trazado_1012931" data-name="Trazado 1012931" d="M188.928,86.089a1.888,1.888,0,0,1-1.888-1.888V80.566a1.888,1.888,0,0,1,1.888-1.888,3.9,3.9,0,0,0,3.9-4.111,3.9,3.9,0,0,0-7.758-.336,3.956,3.956,0,0,0-.038.546,1.888,1.888,0,0,1-3.777,0,7.678,7.678,0,0,1,15.345-.406,7.616,7.616,0,0,1-2.1,5.691,7.713,7.713,0,0,1-3.679,2.154V84.2A1.888,1.888,0,0,1,188.928,86.089Z" transform="translate(-181.25 -67.099)" fill="#edf6ff"/>
            </g>
          </g>
        </g>
      </g>
      <g id="Grupo_1159315" data-name="Grupo 1159315" transform="translate(71.902)">
        <path id="Trazado_1012932" data-name="Trazado 1012932" d="M103.891,0A18.92,18.92,0,0,0,86.513,11.376a.772.772,0,0,0,1.416.614,17.4,17.4,0,0,1,31.964,13.782.771.771,0,1,0,1.418.607A18.947,18.947,0,0,0,103.891,0Z" transform="translate(-84.952)"/>
        <path id="Trazado_1012933" data-name="Trazado 1012933" d="M106.253,153.623a.772.772,0,0,0-1.073.2,17.366,17.366,0,0,1-5.231,4.973A5.687,5.687,0,0,0,97.3,162.9l-.22,1.623H84.6l-.22-1.624a5.757,5.757,0,0,0-2.687-4.13,17.448,17.448,0,0,1-7.86-18.465.772.772,0,0,0-1.509-.321,19.226,19.226,0,0,0-.418,3.952,18.928,18.928,0,0,0,8.974,16.146,4.219,4.219,0,0,1,1.971,3.026l.2,1.493a1.813,1.813,0,0,0-1.294,1.735v1.247a1.813,1.813,0,0,0,1.089,1.66,1.8,1.8,0,0,0-.05.415V170.9a1.813,1.813,0,0,0,1.811,1.811h.209l.6,2.748A2.866,2.866,0,0,0,88.2,177.7h5.288a2.866,2.866,0,0,0,2.785-2.244l.6-2.748h.209a1.813,1.813,0,0,0,1.811-1.811v-1.247a1.8,1.8,0,0,0-.05-.415,1.813,1.813,0,0,0,1.089-1.66v-1.247a1.813,1.813,0,0,0-1.294-1.735l.2-1.493a4.15,4.15,0,0,1,1.925-3,18.9,18.9,0,0,0,5.693-5.412.772.772,0,0,0-.2-1.073Zm-8.138,14.225H83.566a.268.268,0,0,1-.268-.268v-1.247a.268.268,0,0,1,.268-.268H98.115a.268.268,0,0,1,.268.268v1.247A.268.268,0,0,1,98.115,167.848Zm-.772,3.054a.268.268,0,0,1-.267.267H90.989a.772.772,0,1,0,0,1.543h4.3l-.526,2.42a1.314,1.314,0,0,1-1.277,1.029H88.2a1.314,1.314,0,0,1-1.277-1.029l-.526-2.42h1a.772.772,0,1,0,0-1.543H84.605a.268.268,0,0,1-.267-.267v-1.247a.267.267,0,0,1,.231-.264H97.112a.267.267,0,0,1,.231.264V170.9Z" transform="translate(-71.902 -125.034)"/>
        <path id="Trazado_1012934" data-name="Trazado 1012934" d="M232.687,280.911a2.66,2.66,0,1,0,2.66,2.66A2.663,2.663,0,0,0,232.687,280.911Zm0,3.777a1.117,1.117,0,1,1,1.117-1.117A1.118,1.118,0,0,1,232.687,284.688Z" transform="translate(-213.76 -252.013)"/>
        <path id="Trazado_1012935" data-name="Trazado 1012935" d="M184.858,76.065A8.448,8.448,0,0,0,182.372,59.6l-.175,0a8.444,8.444,0,0,0-8.448,8.449,2.66,2.66,0,1,0,5.32,0,3.183,3.183,0,0,1,.03-.44,3.129,3.129,0,1,1,3.1,3.569,2.663,2.663,0,0,0-2.66,2.66v3.634a2.66,2.66,0,0,0,5.32,0V76.065ZM183.9,74.74a.772.772,0,0,0-.581.748v1.984a1.117,1.117,0,0,1-2.234,0V73.838a1.118,1.118,0,0,1,1.117-1.117,4.675,4.675,0,0,0,4.666-4.922,4.683,4.683,0,0,0-4.567-4.421h-.1a4.668,4.668,0,0,0-4.666,4.672,1.117,1.117,0,1,1-2.234,0,6.976,6.976,0,0,1,.067-.962,6.905,6.905,0,0,1,6.839-5.944h.143a6.926,6.926,0,0,1,6.755,6.539,6.9,6.9,0,0,1-5.2,7.058Z" transform="translate(-163.272 -53.468)"/>
      </g>
    </g>
  </g>
</svg>
