<svg xmlns="http://www.w3.org/2000/svg" width="715" height="451.373" viewBox="0 0 715 451.373">
  <g id="Grupo_1160589" data-name="Grupo 1160589" transform="translate(-810 -1229.86)">
    <g id="Grupo_1160587" data-name="Grupo 1160587" transform="translate(810 1229.86)">
      <path id="Trazado_1013102" data-name="Trazado 1013102" d="M437.629,55.5c-73.093-8.537-146.944,11.917-213.7,42.886-36.886,17.113-72.8,37.89-100.827,67.354s-47.6,68.625-46.913,109.281c.7,41.379,22.5,80.675,53.48,108.114s70.406,43.927,110.727,53.253,81.852,11.9,130.7,14.939a513.567,513.567,0,0,0,200.544-12.788c48.313-12.915,96.007-33.841,130.568-69.987s53.787-89.7,39.456-137.617c-10.521-35.167-37.221-63.23-66.219-85.737C608.557,93.281,524.306,65.62,437.629,55.5Z" transform="translate(-48.692 -44.089)" fill="#edae3b" opacity="0.44"/>
      <g id="OBJECTS" transform="translate(0 0)">
        <g id="Grupo_1160513" data-name="Grupo 1160513" transform="translate(72.588 34.179)">
          <path id="Trazado_1013103" data-name="Trazado 1013103" d="M543.232,158.435l5.375,10.71,142.583,16.29,1.011-9.1-73.239-19.208Z" transform="translate(-85.247 -70.277)" fill="#b54774"/>
          <path id="Trazado_1013104" data-name="Trazado 1013104" d="M409.874,484.781l89.431-290-79.937-9.254-80.477,230.89,52.555,68.365h18.428Z" transform="translate(-101.012 -68.087)" fill="#e06799"/>
          <path id="Trazado_1013105" data-name="Trazado 1013105" d="M693.19,182.556c-19.012-37.107-36.025-66.835-56.62-106.058C605.5,106.984,573.2,135.819,544.22,164.655c12.165,1.171,30.367,2.96,42.286,4.19C569.871,246.5,547.063,323.555,530.43,401.21L585.986,484.6l63.1-308.405C663.923,178.142,678.628,180.228,693.19,182.556Z" transform="translate(-86.235 -76.498)" fill="#e06799"/>
          <path id="Trazado_1013106" data-name="Trazado 1013106" d="M402.563,481.161,262.979,232.453,240.8,332.039Q287.4,408.4,339.587,481.161Z" transform="translate(-108.58 -64.466)" fill="#b54774"/>
          <path id="Trazado_1013107" data-name="Trazado 1013107" d="M585.976,484.118l-95.871-290L458.128,298.869q36.25,92.625,72.5,185.248h55.349Z" transform="translate(-91.813 -67.424)" fill="#b54774"/>
          <path id="Trazado_1013108" data-name="Trazado 1013108" d="M201.515,481.244,272.45,232.536l-70.278-1.159Q158.032,355.6,118.05,481.244Z" transform="translate(-118.05 -64.549)" fill="#e06799"/>
          <path id="Trazado_1013109" data-name="Trazado 1013109" d="M207.857,486.051,270.47,266.521,405.16,486.051h16.473L510.712,230.99l94.824,255.062h10.148l68.753-305.374-9.511-11.619L609.059,461.527,510.364,196.05,412.7,475.687,266.471,237.344,195.537,486.051Z" transform="translate(-112.072 -69.357)" fill="#d24d84"/>
        </g>
        <g id="Grupo_1160545" data-name="Grupo 1160545" transform="translate(101.786 37.848)">
          <g id="Grupo_1160542" data-name="Grupo 1160542" transform="translate(25.61)">
            <path id="Trazado_1013110" data-name="Trazado 1013110" d="M189,237.56a462.723,462.723,0,0,0,15.528,52.892c6.249,17.379,13.94,34.963,27.626,47.363a64.386,64.386,0,0,0,78,6.525q4.264,6.321,8.92,12.383a90.956,90.956,0,0,0,19.737-12.733c-1.6,29.5-3.535,58.853-6.334,87.819,2.055.314,4.115.609,6.172.908q-3.776,29.535-4.7,59.341H484.007q-.465-25.22-2.122-50.4c1.545-.019,3.088-.031,4.635-.057q.585-37.407-1.317-74.8a103.418,103.418,0,0,0,17.8,21.839c13.027,11.747,31.588,18.873,48.4,13.854,8.255-2.464,15.44-7.6,22.056-13.123a180.042,180.042,0,0,0,48.476-64.13,54.614,54.614,0,0,0,6.794-10.774,5.2,5.2,0,0,0,.609-1.9,1.906,1.906,0,0,0-.783-1.748c-1.016-.624-2.28.2-3.163,1a77.657,77.657,0,0,0-5.861,5.928,131.292,131.292,0,0,0,9.27-16.191c.564-1.175,1.1-2.629.365-3.708a2.618,2.618,0,0,0-3.284-.568,7.646,7.646,0,0,0-2.546,2.551l-2.623,3.636a77.326,77.326,0,0,0,3.158-7.916,7.363,7.363,0,0,0,.544-3.116,2.681,2.681,0,0,0-1.823-2.374c-1.563-.378-2.877,1.145-3.765,2.485-1.96,2.959-3.92,5.919-5.908,8.847a115.611,115.611,0,0,0,3.507-12.216c.415-1.812.49-4.244-1.227-4.956a2.76,2.76,0,0,0-2.81.679,8.15,8.15,0,0,0-1.666,2.536q-4.626,9.452-9.255,18.9l-.479-.279c-.753-5.219-1.4-9.186-2.79-12.875-.443-1.176-1.251-2.517-2.505-2.468a2.169,2.169,0,0,0-1.765,1.36,6.414,6.414,0,0,0-.41,2.3q-.4,7.466-.8,14.935a76.845,76.845,0,0,1-27.856,39.162c-6,4.395-13.26,8.015-20.61,6.885-6.019-.924-11.215-4.986-14.735-9.956s-5.574-10.813-7.359-16.636q-.378-1.234-.744-2.473c-4.646-15.727-7.87-31.892-13.6-47.258-4.46-11.966-10.681-23.632-19.388-32.833a47.242,47.242,0,0,0,8.645-21.529c1.282-10.843-2.558-22.543-10.5-29.757a4.543,4.543,0,0,0-.235-1,20.584,20.584,0,0,0,15.413-15.086c1.72-7.716-1.979-16.42-8.892-20.253a16.771,16.771,0,0,0-6.9-2.01,48.676,48.676,0,0,0-75.671-55.115c-4.767-2.252-13.164-.241-19.123,4.479s-9.705,11.785-11.744,19.109a91.216,91.216,0,0,0-2.7,18.2,17.348,17.348,0,0,0-10.663-.86c-7.665,1.928-13.475,9.391-13.794,17.289A20.58,20.58,0,0,0,363.286,178.2a5.056,5.056,0,0,0-.638,4.141c-7.21,9.313-15.472,18.189-17.5,29.56-1.567,8.778,1.462,18,7.279,24.71a111.38,111.38,0,0,0-27.2,21.217c-7.478,8.02-13.77,17.1-21.419,24.959-5.472,5.621-11.852,10.683-19.005,13.727a37.406,37.406,0,0,1-8.9,2.584c-12.638,1.967-25.765-3.473-34.743-12.582s-14.969-24.75-16.23-34.108a34.78,34.78,0,0,1-.284-4.083c-.112-7.406,1.648-17.72,6.936-23.988a9.652,9.652,0,0,0,1.848-2.668,2.721,2.721,0,0,0-.539-3.01c-1.169-.988-2.948-.315-4.263.467a42.16,42.16,0,0,0-9.6,8.461,60.572,60.572,0,0,0-8.659-11.462,6.767,6.767,0,0,0-2.16-1.677,2.482,2.482,0,0,0-2.592.29c-1.069.979-.644,2.728-.108,4.076a87.185,87.185,0,0,0,4.867,10.495c-3.658-5.329-6.985-10.173-12.344-13.3a5.72,5.72,0,0,0-2.768-.953,2.389,2.389,0,0,0-2.335,1.479,3.588,3.588,0,0,0,.793,2.849,85.383,85.383,0,0,0,7.855,10.942,53.949,53.949,0,0,0-7.315-6.822,22.185,22.185,0,0,0-9.761-4.454c-.947-.148-2.13-.1-2.584.743-.493.913.257,1.981.961,2.743l6.773,7.35-.012.016a41.217,41.217,0,0,0-8.85-4.9,4.549,4.549,0,0,0-1.661-.421,1.652,1.652,0,0,0-1.458.744c-.482.875.25,1.9.94,2.624A96.679,96.679,0,0,0,189,237.56Z" transform="translate(-168.271 -79.033)" fill="#2e2854" opacity="0.15"/>
            <g id="Grupo_1160541" data-name="Grupo 1160541">
              <g id="Grupo_1160525" data-name="Grupo 1160525" transform="translate(166.935)">
                <path id="Trazado_1013111" data-name="Trazado 1013111" d="M345.473,235.915c-13.757-3.847-23.419-18.811-21.262-32.933,2.949-19.321,23.918-31.943,27.271-51.2,0,0,2.714-12.148,2.4-13.865.278-7.6.563-15.261,2.418-22.633s5.42-14.53,11.261-19.4,14.182-7.089,19-4.957a48.717,48.717,0,0,1,72.871,62.427s-.628,23.815-.461,25.057c12.155,5.692,18.682,20.158,17.441,33.522s-9.112,25.43-19.159,34.33Z" transform="translate(-323.91 -79.904)" fill="#5767bf"/>
                <g id="Grupo_1160514" data-name="Grupo 1160514" transform="translate(67.206 110.653)">
                  <path id="Trazado_1013112" data-name="Trazado 1013112" d="M387.629,184.711q-.664,13.015-1.327,26.031s19.306-.178,19.65-.061q.372-14.024.743-28.05Z" transform="translate(-386.302 -182.631)" fill="#d17162"/>
                  <path id="Trazado_1013113" data-name="Trazado 1013113" d="M387.157,192.674a45.876,45.876,0,0,0,19.185.809q.144-5.427.288-10.852l-19.068,2.08Q387.36,188.692,387.157,192.674Z" transform="translate(-386.236 -182.631)" fill="#c45d4d"/>
                </g>
                <g id="Grupo_1160524" data-name="Grupo 1160524" transform="translate(6.103 33.682)">
                  <g id="Grupo_1160519" data-name="Grupo 1160519" transform="translate(30.586)">
                    <path id="Trazado_1013114" data-name="Trazado 1013114" d="M448.61,138.081c1.484,14.7-3.344,30.054-13.458,40.822s-25.461,16.575-40.1,14.568-28.064-12.02-33.59-25.722c-3.64-9.027-3.894-19.067-3.165-28.937,11.239-5.189,19.693-16.023,21.234-27.64A33.855,33.855,0,0,0,401.9,127.9c9.392,2.008,19.617-.29,28.6-5.928A23.889,23.889,0,0,0,448.61,138.081Z" transform="translate(-357.971 -111.173)" fill="#d17162"/>
                    <g id="Grupo_1160515" data-name="Grupo 1160515" transform="translate(5.329 53.665)">
                      <path id="Trazado_1013115" data-name="Trazado 1013115" d="M434.318,170.643a9.877,9.877,0,0,0-3.552-4.653A10.7,10.7,0,0,0,414.462,178a10.753,10.753,0,0,0,4.7,5.823,46.6,46.6,0,0,0,15.159-13.178Z" transform="translate(-358.978 -160.751)" fill="#c45d4d"/>
                      <path id="Trazado_1013116" data-name="Trazado 1013116" d="M375.418,181.831a10.856,10.856,0,0,0,7.3-6.847c1.38-4.207-.02-9.545-3.795-12.15a11.025,11.025,0,0,0-12.452.177,10.619,10.619,0,0,0-3.557,4.739A42.071,42.071,0,0,0,375.418,181.831Z" transform="translate(-362.918 -160.995)" fill="#c45d4d"/>
                    </g>
                    <g id="Grupo_1160518" data-name="Grupo 1160518" transform="translate(10.195 24.09)">
                      <g id="Grupo_1160516" data-name="Grupo 1160516">
                        <path id="Trazado_1013117" data-name="Trazado 1013117" d="M367.436,133.538c.7,2.144,1.4,4.286,2.014,6.181a18.221,18.221,0,0,1,14.115,1.33" transform="translate(-367.436 -133.538)" fill="none" stroke="#2e2854" stroke-linecap="round" stroke-linejoin="round" stroke-miterlimit="10" stroke-width="1"/>
                        <path id="Trazado_1013118" data-name="Trazado 1013118" d="M372.417,134.09c.027,1.627.042,3.243.058,4.86" transform="translate(-367.052 -133.495)" fill="none" stroke="#2e2854" stroke-linecap="round" stroke-linejoin="round" stroke-miterlimit="10" stroke-width="1"/>
                        <path id="Trazado_1013119" data-name="Trazado 1013119" d="M376.681,135.525c-.124,1.107-.249,2.216-.363,3.312" transform="translate(-366.751 -133.385)" fill="none" stroke="#2e2854" stroke-linecap="round" stroke-linejoin="round" stroke-miterlimit="10" stroke-width="1"/>
                      </g>
                      <g id="Grupo_1160517" data-name="Grupo 1160517" transform="translate(47.918 3.883)">
                        <path id="Trazado_1013120" data-name="Trazado 1013120" d="M429.156,137.509c-1.081,1.979-2.163,3.957-3.114,5.709a18.227,18.227,0,0,0-14.12-1.273" transform="translate(-411.922 -137.115)" fill="none" stroke="#2e2854" stroke-linecap="round" stroke-linejoin="round" stroke-miterlimit="10" stroke-width="1"/>
                        <path id="Trazado_1013121" data-name="Trazado 1013121" d="M422.992,137.143c-.324,1.594-.635,3.18-.947,4.766" transform="translate(-411.141 -137.143)" fill="none" stroke="#2e2854" stroke-linecap="round" stroke-linejoin="round" stroke-miterlimit="10" stroke-width="1"/>
                        <path id="Trazado_1013122" data-name="Trazado 1013122" d="M418.512,137.778c-.081,1.112-.16,2.224-.25,3.322" transform="translate(-411.433 -137.094)" fill="none" stroke="#2e2854" stroke-linecap="round" stroke-linejoin="round" stroke-miterlimit="10" stroke-width="1"/>
                      </g>
                      <path id="Trazado_1013123" data-name="Trazado 1013123" d="M394.518,140.435l-4.551,5.6a4.628,4.628,0,0,0-.786,1.2,1.573,1.573,0,0,0,.06,1.389,2.04,2.04,0,0,0,1.211.75,7.5,7.5,0,0,0,4,.032" transform="translate(-365.769 -133.006)" fill="none" stroke="#2e2854" stroke-linecap="round" stroke-linejoin="round" stroke-miterlimit="10" stroke-width="1"/>
                      <path id="Trazado_1013124" data-name="Trazado 1013124" d="M387.329,158.592a40.691,40.691,0,0,0,29.058-4.485" transform="translate(-365.901 -131.951)" fill="none" stroke="#2e2854" stroke-linecap="round" stroke-linejoin="round" stroke-miterlimit="10" stroke-width="1"/>
                    </g>
                  </g>
                  <g id="Grupo_1160521" data-name="Grupo 1160521" transform="translate(0 18.782)">
                    <path id="Trazado_1013125" data-name="Trazado 1013125" d="M362.948,137.979c-3.468-7.1-12.4-10.9-20.013-8.784s-13.236,9.726-13.357,17.63a20.591,20.591,0,0,0,12.327,18.656,22.5,22.5,0,0,0,22.359-3.184Z" transform="translate(-329.576 -128.61)" fill="#d17162"/>
                    <path id="Trazado_1013126" data-name="Trazado 1013126" d="M347.276,161.482a4.839,4.839,0,1,0,.383,7.29A4.868,4.868,0,0,0,347.276,161.482Z" transform="translate(-328.809 -126.148)" fill="#fff"/>
                    <g id="Grupo_1160520" data-name="Grupo 1160520" transform="translate(9.665 14.014)">
                      <path id="Trazado_1013127" data-name="Trazado 1013127" d="M338.549,146.028a13.569,13.569,0,0,1,14.615-3.578" transform="translate(-338.549 -141.62)" fill="none" stroke="#2e2854" stroke-linecap="round" stroke-linejoin="round" stroke-miterlimit="10" stroke-width="1"/>
                      <path id="Trazado_1013128" data-name="Trazado 1013128" d="M348.9,150.979a15.7,15.7,0,0,1-3.829-9.041" transform="translate(-338.046 -141.595)" fill="none" stroke="#2e2854" stroke-linecap="round" stroke-linejoin="round" stroke-miterlimit="10" stroke-width="1"/>
                    </g>
                  </g>
                  <g id="Grupo_1160523" data-name="Grupo 1160523" transform="translate(112.779 30.518)">
                    <path id="Trazado_1013129" data-name="Trazado 1013129" d="M440.624,145.8c4.87-6.226,14.4-8.086,21.4-4.429s10.923,12.267,9.4,20.023a20.6,20.6,0,0,1-15.939,15.684,22.5,22.5,0,0,1-21.208-7.766Z" transform="translate(-434.277 -139.505)" fill="#d17162"/>
                    <path id="Trazado_1013130" data-name="Trazado 1013130" d="M448.882,171.834a4.84,4.84,0,1,1-1.892,7.051A4.869,4.869,0,0,1,448.882,171.834Z" transform="translate(-433.358 -137.046)" fill="#fff"/>
                    <g id="Grupo_1160522" data-name="Grupo 1160522" transform="translate(14.103 13.388)">
                      <path id="Trazado_1013131" data-name="Trazado 1013131" d="M460.921,158.623a13.569,13.569,0,0,0-13.55-6.54" transform="translate(-447.37 -151.934)" fill="none" stroke="#2e2854" stroke-linecap="round" stroke-linejoin="round" stroke-miterlimit="10" stroke-width="1"/>
                      <path id="Trazado_1013132" data-name="Trazado 1013132" d="M449.136,161.144a15.7,15.7,0,0,0,5.626-8.045" transform="translate(-447.234 -151.844)" fill="none" stroke="#2e2854" stroke-linecap="round" stroke-linejoin="round" stroke-miterlimit="10" stroke-width="1"/>
                    </g>
                  </g>
                </g>
              </g>
              <g id="Grupo_1160526" data-name="Grupo 1160526" transform="translate(163.056 331.808)">
                <path id="Trazado_1013133" data-name="Trazado 1013133" d="M470.843,469.164q-1.252-40.7-5.643-81.218L324.132,394.4a618,618,0,0,0-3.793,74.763Z" transform="translate(-320.309 -387.946)" fill="#5767bf"/>
                <path id="Trazado_1013134" data-name="Trazado 1013134" d="M468.242,423q-1.31-17.552-3.2-35.055L323.975,394.4q-.937,8.376-1.633,16.776C349.2,416.432,421.7,429.11,468.242,423Z" transform="translate(-320.153 -387.946)" fill="#2e2854" opacity="0.15"/>
              </g>
              <g id="Grupo_1160540" data-name="Grupo 1160540" transform="translate(0 128.857)">
                <g id="Grupo_1160532" data-name="Grupo 1160532">
                  <g id="Grupo_1160530" data-name="Grupo 1160530">
                    <g id="Grupo_1160528" data-name="Grupo 1160528">
                      <path id="Trazado_1013135" data-name="Trazado 1013135" d="M312.944,320.295a64.493,64.493,0,0,1-86.574,2.164c-13.992-12.053-22.122-29.44-28.805-46.656a462.7,462.7,0,0,1-16.85-52.486,96.649,96.649,0,0,1-10.637-9.342c-.709-.708-1.465-1.713-1.006-2.6a1.648,1.648,0,0,1,1.439-.781,4.545,4.545,0,0,1,1.671.379,41.205,41.205,0,0,1,8.969,4.675l.011-.016q-3.477-3.589-6.955-7.178c-.723-.745-1.5-1.793-1.03-2.719.433-.855,1.615-.932,2.565-.808a22.179,22.179,0,0,1,9.87,4.207,53.882,53.882,0,0,1,7.484,6.635,85.4,85.4,0,0,1-8.127-10.741,3.589,3.589,0,0,1-.864-2.829,2.388,2.388,0,0,1,2.3-1.537,5.717,5.717,0,0,1,2.791.883c5.435,2.993,8.883,7.753,12.674,12.988a87.131,87.131,0,0,1-5.128-10.37c-.57-1.334-1.038-3.071.005-4.077a2.483,2.483,0,0,1,2.583-.354,6.758,6.758,0,0,1,2.2,1.622,60.527,60.527,0,0,1,10.238,13.427l4.843,18.4a34.8,34.8,0,0,0,.387,4.075c1.5,9.324,7.876,24.809,17.08,33.69s22.463,13.99,35.048,11.706a37.428,37.428,0,0,0,8.835-2.806Z" transform="translate(-168.932 -199.532)" fill="#d17162"/>
                      <path id="Trazado_1013136" data-name="Trazado 1013136" d="M304.295,307.438c-50.231,27.692-93.473-19.238-110.837-42.514q1.089,2.925,2.215,5.834c6.683,17.216,14.813,34.6,28.805,46.656a64.493,64.493,0,0,0,86.574-2.164Z" transform="translate(-167.04 -194.486)" fill="#c45d4d"/>
                      <g id="Grupo_1160527" data-name="Grupo 1160527">
                        <path id="Trazado_1013137" data-name="Trazado 1013137" d="M184.216,217.637a31.561,31.561,0,0,0-3.939-3.143" transform="translate(-168.057 -198.377)" fill="none" stroke="#2e2854" stroke-linecap="round" stroke-linejoin="round" stroke-miterlimit="10" stroke-width="1"/>
                        <path id="Trazado_1013138" data-name="Trazado 1013138" d="M270.074,338.069a65.171,65.171,0,0,1-43.7-15.61c-13.992-12.053-22.122-29.44-28.805-46.656a462.7,462.7,0,0,1-16.85-52.486,96.649,96.649,0,0,1-10.637-9.342c-.709-.708-1.465-1.713-1.006-2.6a1.648,1.648,0,0,1,1.439-.781,4.545,4.545,0,0,1,1.671.379,41.205,41.205,0,0,1,8.969,4.675l.011-.016q-3.477-3.589-6.955-7.178c-.723-.745-1.5-1.793-1.03-2.719.433-.855,1.615-.932,2.565-.808a22.179,22.179,0,0,1,9.87,4.207,53.882,53.882,0,0,1,7.484,6.635,85.4,85.4,0,0,1-8.127-10.741,3.589,3.589,0,0,1-.864-2.829,2.388,2.388,0,0,1,2.3-1.537,5.717,5.717,0,0,1,2.791.883c5.435,2.993,8.883,7.753,12.674,12.988a87.131,87.131,0,0,1-5.128-10.37c-.57-1.334-1.038-3.071.005-4.077a2.483,2.483,0,0,1,2.583-.354,6.758,6.758,0,0,1,2.2,1.622,60.527,60.527,0,0,1,10.238,13.427" transform="translate(-168.932 -199.532)" fill="none" stroke="#2e2854" stroke-linecap="round" stroke-linejoin="round" stroke-miterlimit="10" stroke-width="1"/>
                        <path id="Trazado_1013139" data-name="Trazado 1013139" d="M181.489,219.484c5.22-4.261,15.973-6.94,26.314-5.806" transform="translate(-167.963 -198.46)" fill="none" stroke="#2e2854" stroke-linecap="round" stroke-linejoin="round" stroke-miterlimit="10" stroke-width="1"/>
                      </g>
                    </g>
                    <g id="Grupo_1160529" data-name="Grupo 1160529" transform="translate(39.84 3.334)">
                      <path id="Trazado_1013140" data-name="Trazado 1013140" d="M205.918,214.51c2.913-3.893,6.972-8.264,11.088-10.851,1.3-.814,3.057-1.533,4.25-.574a2.723,2.723,0,0,1,.614,3,9.665,9.665,0,0,1-1.781,2.713c-5.129,6.4-6.63,16.753-6.333,24.154" transform="translate(-205.918 -202.626)" fill="#d17162"/>
                      <path id="Trazado_1013141" data-name="Trazado 1013141" d="M205.918,214.51c2.913-3.893,6.972-8.264,11.088-10.851,1.3-.814,3.057-1.533,4.25-.574a2.723,2.723,0,0,1,.614,3,9.665,9.665,0,0,1-1.781,2.713c-5.129,6.4-6.63,16.753-6.333,24.154" transform="translate(-205.918 -202.626)" fill="none" stroke="#2e2854" stroke-linecap="round" stroke-linejoin="round" stroke-miterlimit="10" stroke-width="1"/>
                    </g>
                  </g>
                  <g id="Grupo_1160531" data-name="Grupo 1160531" transform="translate(109.028 18.49)">
                    <path id="Trazado_1013142" data-name="Trazado 1013142" d="M336.665,216.7a111.428,111.428,0,0,0-27.072,22.143c-7.274,8.206-13.337,17.44-20.787,25.488-5.33,5.756-11.579,10.977-18.655,14.2a256.333,256.333,0,0,0,35.78,59.329,90.985,90.985,0,0,0,26.443-20.163Z" transform="translate(-270.151 -216.697)" fill="#7b478f"/>
                    <path id="Trazado_1013143" data-name="Trazado 1013143" d="M301.222,255.353a11.866,11.866,0,0,0-7.045-1.419c-2.059,2.573-4.167,5.106-6.407,7.526-1.34,1.448-2.738,2.86-4.192,4.216a11.471,11.471,0,0,0,.844,4.488,11.84,11.84,0,0,0,22.355-1.367A11.891,11.891,0,0,0,301.222,255.353Z" transform="translate(-269.115 -213.829)" fill="#9a59b3"/>
                    <path id="Trazado_1013144" data-name="Trazado 1013144" d="M289.207,312.56a244.558,244.558,0,0,0,15.254,21A90.986,90.986,0,0,0,330.9,313.4l1.745-41.067C324.632,282.9,309.473,300.374,289.207,312.56Z" transform="translate(-268.681 -212.405)" fill="#2e2854" opacity="0.15"/>
                  </g>
                </g>
                <g id="Grupo_1160538" data-name="Grupo 1160538" transform="translate(294.573 12.865)">
                  <g id="Grupo_1160536" data-name="Grupo 1160536" transform="translate(4.063 46.742)">
                    <g id="Grupo_1160534" data-name="Grupo 1160534">
                      <path id="Trazado_1013145" data-name="Trazado 1013145" d="M594.32,294.249a180.045,180.045,0,0,1-46.853,65.326c-6.475,5.685-13.529,11-21.72,13.672-16.677,5.439-35.41-1.219-48.728-12.636s-22.271-26.978-30.841-42.284l47.679-20.51q.4,1.23.806,2.454c1.93,5.776,4.131,11.565,7.774,16.446s8.939,8.81,14.98,9.583c7.377.945,14.544-2.857,20.431-7.4a76.845,76.845,0,0,0,26.865-39.848L572.9,275.6l12.061,6.621Z" transform="translate(-446.178 -253.27)" fill="#d17162"/>
                      <path id="Trazado_1013146" data-name="Trazado 1013146" d="M507.275,354.873c-20.875-1.1-36.052-23.972-45.822-45.707l-15.275,6.571c8.57,15.305,17.522,30.869,30.841,42.284s32.052,18.075,48.728,12.636c8.191-2.671,15.245-7.987,21.72-13.672a176.89,176.89,0,0,0,32.05-37.306C562.477,334.8,533.464,356.248,507.275,354.873Z" transform="translate(-446.178 -250.68)" fill="#c45d4d"/>
                      <path id="Trazado_1013147" data-name="Trazado 1013147" d="M585.327,295.848a54.622,54.622,0,0,0,6.521-10.941,5.205,5.205,0,0,0,.561-1.919,1.905,1.905,0,0,0-.826-1.728c-1.031-.6-2.275.256-3.137,1.078a77.777,77.777,0,0,0-5.711,6.073,131.158,131.158,0,0,0,8.861-16.419c.535-1.189,1.033-2.656.273-3.715a2.617,2.617,0,0,0-3.3-.485,7.642,7.642,0,0,0-2.482,2.614q-1.265,1.85-2.531,3.7a77.352,77.352,0,0,0,2.959-7.992,7.368,7.368,0,0,0,.465-3.129,2.682,2.682,0,0,0-1.882-2.328c-1.572-.338-2.847,1.217-3.7,2.579-1.885,3.007-3.771,6.015-5.685,8.992a115.8,115.8,0,0,0,3.2-12.3c.369-1.821.383-4.255-1.351-4.924a2.759,2.759,0,0,0-2.792.749,8.132,8.132,0,0,0-1.6,2.577q-5.217,11.373-10.437,22.745Z" transform="translate(-437.186 -254.869)" fill="#d17162"/>
                      <g id="Grupo_1160533" data-name="Grupo 1160533" transform="translate(30.841)">
                        <path id="Trazado_1013148" data-name="Trazado 1013148" d="M575.19,270.987c-1.844,2.867-3.714,5.707-5.638,8.491" transform="translate(-467.501 -253.626)" fill="none" stroke="#2e2854" stroke-linecap="round" stroke-linejoin="round" stroke-miterlimit="10" stroke-width="1"/>
                        <path id="Trazado_1013149" data-name="Trazado 1013149" d="M575.491,283.09q3.543-5.18,7.085-10.36" transform="translate(-467.042 -253.491)" fill="none" stroke="#2e2854" stroke-linecap="round" stroke-linejoin="round" stroke-miterlimit="10" stroke-width="1"/>
                        <path id="Trazado_1013150" data-name="Trazado 1013150" d="M580.626,286.887q.362-.441.73-.878" transform="translate(-466.646 -252.467)" fill="none" stroke="#2e2854" stroke-linecap="round" stroke-linejoin="round" stroke-miterlimit="10" stroke-width="1"/>
                        <path id="Trazado_1013151" data-name="Trazado 1013151" d="M567.553,278.013a39.366,39.366,0,0,1,16.088,11.774" transform="translate(-467.655 -253.083)" fill="none" stroke="#2e2854" stroke-linecap="round" stroke-linejoin="round" stroke-miterlimit="10" stroke-width="1"/>
                        <path id="Trazado_1013152" data-name="Trazado 1013152" d="M585.327,295.848a54.622,54.622,0,0,0,6.521-10.941,5.205,5.205,0,0,0,.561-1.919,1.905,1.905,0,0,0-.826-1.728c-1.031-.6-2.275.256-3.137,1.078a77.777,77.777,0,0,0-5.711,6.073,131.158,131.158,0,0,0,8.861-16.419c.535-1.189,1.033-2.656.273-3.715a2.617,2.617,0,0,0-3.3-.485,7.642,7.642,0,0,0-2.482,2.614q-1.265,1.85-2.531,3.7a77.352,77.352,0,0,0,2.959-7.992,7.368,7.368,0,0,0,.465-3.129,2.682,2.682,0,0,0-1.882-2.328c-1.572-.338-2.847,1.217-3.7,2.579-1.885,3.007-3.771,6.015-5.685,8.992a115.8,115.8,0,0,0,3.2-12.3c.369-1.821.383-4.255-1.351-4.924a2.759,2.759,0,0,0-2.792.749,8.132,8.132,0,0,0-1.6,2.577q-5.217,11.373-10.437,22.745" transform="translate(-468.027 -254.869)" fill="none" stroke="#2e2854" stroke-linecap="round" stroke-linejoin="round" stroke-miterlimit="10" stroke-width="1"/>
                        <path id="Trazado_1013153" data-name="Trazado 1013153" d="M592.111,292.913a180.043,180.043,0,0,1-46.853,65.326c-6.475,5.685-13.529,11-21.72,13.672-16.676,5.439-35.41-1.219-48.728-12.636" transform="translate(-474.81 -251.934)" fill="none" stroke="#2e2854" stroke-linecap="round" stroke-linejoin="round" stroke-miterlimit="10" stroke-width="1"/>
                      </g>
                    </g>
                    <g id="Grupo_1160535" data-name="Grupo 1160535" transform="translate(118.535 7.117)">
                      <path id="Trazado_1013154" data-name="Trazado 1013154" d="M556.223,280.142q.213-7.474.425-14.95a6.4,6.4,0,0,1,.352-2.307,2.169,2.169,0,0,1,1.731-1.4c1.254-.081,2.1,1.24,2.567,2.4,1.483,3.653,2.229,7.6,3.112,12.8a19.246,19.246,0,0,1,5.9,17.344" transform="translate(-556.223 -261.477)" fill="#d17162"/>
                      <path id="Trazado_1013155" data-name="Trazado 1013155" d="M556.223,280.142q.213-7.474.425-14.95a6.4,6.4,0,0,1,.352-2.307,2.169,2.169,0,0,1,1.731-1.4c1.254-.081,2.1,1.24,2.567,2.4,1.483,3.653,2.229,7.6,3.112,12.8a19.246,19.246,0,0,1,5.9,17.344" transform="translate(-556.223 -261.477)" fill="none" stroke="#2e2854" stroke-linecap="round" stroke-linejoin="round" stroke-miterlimit="10" stroke-width="1"/>
                    </g>
                  </g>
                  <g id="Grupo_1160537" data-name="Grupo 1160537">
                    <path id="Trazado_1013156" data-name="Trazado 1013156" d="M442.406,211.475a61.546,61.546,0,0,1,6.416,3.61c14.5,9.363,24.118,24.762,30.55,40.778,6.11,15.217,9.739,31.3,14.776,46.9a194.293,194.293,0,0,1-45.853,40.041Z" transform="translate(-442.406 -211.475)" fill="#7b478f"/>
                    <path id="Trazado_1013157" data-name="Trazado 1013157" d="M483.706,270.812a11.936,11.936,0,0,0-7.159,2.862,11.839,11.839,0,0,0,8.554,20.7,11.568,11.568,0,0,0,5.044-1.552C487.925,285.507,485.9,278.128,483.706,270.812Z" transform="translate(-440.077 -206.897)" fill="#9a59b3"/>
                    <path id="Trazado_1013158" data-name="Trazado 1013158" d="M445.18,273.373l2.9,64.705A193.445,193.445,0,0,0,467.556,324.1c-13.113-23.75-19.475-51.369-19.475-51.369S446.981,272.971,445.18,273.373Z" transform="translate(-442.192 -206.749)" fill="#2e2854" opacity="0.15"/>
                    <path id="Trazado_1013159" data-name="Trazado 1013159" d="M458.7,237.952a12.145,12.145,0,0,0,8.625-4.635,70.378,70.378,0,0,0-16.186-16.828,10.785,10.785,0,0,0-.991.766,11.839,11.839,0,0,0,8.553,20.7Z" transform="translate(-442.114 -211.088)" fill="#9a59b3"/>
                  </g>
                </g>
                <g id="Grupo_1160539" data-name="Grupo 1160539" transform="translate(160.089 2.553)">
                  <path id="Trazado_1013160" data-name="Trazado 1013160" d="M460.2,268.593l-8.162-56.528a86.405,86.405,0,0,0-23.331-7.111h0l-27.964,10.7-30.917-11.825h0a116.784,116.784,0,0,0-36.817,13.867l-9.978,53.234c-1.064,47.869-2.128,95.738-5.475,142.652,50.613,6.454,101.836,8.126,154.234,5.927A1127.539,1127.539,0,0,0,460.2,268.593Z" transform="translate(-317.555 -201.753)" fill="#7b478f"/>
                  <path id="Trazado_1013161" data-name="Trazado 1013161" d="M380.206,300.658a11.84,11.84,0,1,0,19.242,12.034,11.887,11.887,0,0,0-5.555-13.443A12.161,12.161,0,0,0,380.206,300.658Z" transform="translate(-313.027 -194.506)" fill="#9a59b3"/>
                  <path id="Trazado_1013162" data-name="Trazado 1013162" d="M330.837,305.333a12.163,12.163,0,0,0,10.69-8.664,11.89,11.89,0,0,0-5.556-13.444,12.163,12.163,0,0,0-13.687,1.41c-.011.009-.019.019-.03.029q-.2,8.622-.417,17.236A12.123,12.123,0,0,0,330.837,305.333Z" transform="translate(-317.225 -195.742)" fill="#9a59b3"/>
                  <path id="Trazado_1013163" data-name="Trazado 1013163" d="M422.237,262.985a11.839,11.839,0,1,0,19.242,12.033,11.89,11.89,0,0,0-5.555-13.443A12.16,12.16,0,0,0,422.237,262.985Z" transform="translate(-309.784 -197.412)" fill="#9a59b3"/>
                  <path id="Trazado_1013164" data-name="Trazado 1013164" d="M392.889,217.407a11.839,11.839,0,1,0,19.242,12.033A11.89,11.89,0,0,0,406.576,216,12.16,12.16,0,0,0,392.889,217.407Z" transform="translate(-312.048 -200.929)" fill="#9a59b3"/>
                  <path id="Trazado_1013165" data-name="Trazado 1013165" d="M355.619,357.533a11.84,11.84,0,1,0,5.556,13.443A11.888,11.888,0,0,0,355.619,357.533Z" transform="translate(-315.98 -190.009)" fill="#9a59b3"/>
                  <path id="Trazado_1013166" data-name="Trazado 1013166" d="M356.88,236.52a11.839,11.839,0,1,0,5.556,13.444A11.89,11.89,0,0,0,356.88,236.52Z" transform="translate(-315.882 -199.345)" fill="#9a59b3"/>
                  <path id="Trazado_1013167" data-name="Trazado 1013167" d="M436.537,382.329a11.889,11.889,0,0,0-5.556-13.443,11.84,11.84,0,1,0,5.556,13.443Z" transform="translate(-310.166 -189.133)" fill="#9a59b3"/>
                  <path id="Trazado_1013168" data-name="Trazado 1013168" d="M323.03,266.285c-1.064,47.869-2.128,95.738-5.475,142.652,50.613,6.454,101.836,8.126,154.234,5.927A1127.343,1127.343,0,0,0,460.2,263.954" transform="translate(-317.555 -197.114)" fill="none" stroke="#2e2854" stroke-linecap="round" stroke-linejoin="round" stroke-miterlimit="10" stroke-width="1"/>
                  <path id="Trazado_1013169" data-name="Trazado 1013169" d="M397.613,202.366a111.844,111.844,0,0,0-31.531,1.606c2.938,4.888,6.028,10.07,17.037,15.244,7.955,3.739,17.263,5.12,25.557,2.214A26.364,26.364,0,0,0,424.963,205.1,252.2,252.2,0,0,0,397.613,202.366Z" transform="translate(-313.811 -201.902)" fill="#d17162"/>
                </g>
              </g>
            </g>
          </g>
          <g id="Grupo_1160544" data-name="Grupo 1160544" transform="translate(0 0.85)">
            <path id="Trazado_1013170" data-name="Trazado 1013170" d="M246.075,101.468C227.689,86.261,199.434,84.39,179.2,97.04s-30.934,38.866-25.317,62.059S181,200.717,204.778,202.711s48.051-12.593,57.448-34.523S266.014,117.956,246.075,101.468Z" transform="translate(-144.598 -80.077)" fill="#2e2854" opacity="0.15"/>
            <path id="Trazado_1013171" data-name="Trazado 1013171" d="M238.835,93.486c-18.386-15.207-46.641-17.078-66.874-4.428s-30.934,38.866-25.317,62.059,27.113,41.618,50.894,43.612,48.051-12.593,57.448-34.523S258.774,109.975,238.835,93.486Z" transform="translate(-145.157 -80.692)" fill="#f7a145"/>
            <path id="Trazado_1013172" data-name="Trazado 1013172" d="M225.471,100.746c-14.916-10.065-36.236-9.43-50.527,1.5S154.47,133.6,160.282,150.624s23.194,29.394,41.187,29.3,35.251-12.632,40.894-29.713S242.159,112.007,225.471,100.746Z" transform="translate(-144.157 -79.696)" fill="#ff8330"/>
            <g id="Grupo_1160543" data-name="Grupo 1160543" transform="translate(42.483 29.976)">
              <path id="Trazado_1013173" data-name="Trazado 1013173" d="M202.574,131.484c.938.156,1.874.336,2.817.539a24.123,24.123,0,0,1,2.741.762,15.6,15.6,0,0,1,2.513,1.118,8.955,8.955,0,0,1,2.119,1.639,8.492,8.492,0,0,1,1.549,2.308,10.278,10.278,0,0,1,.832,3.141,14.067,14.067,0,0,1-.3,5.152,12.462,12.462,0,0,1-2.16,4.5,13.747,13.747,0,0,1-3.942,3.48,17.489,17.489,0,0,1-5.652,2.093l.078,3.546a2.308,2.308,0,0,1-2.072,2.34l-3.221.385-.129-5.891a24.785,24.785,0,0,1-6.43-1.139,18.593,18.593,0,0,1-5.373-2.641l2.24-4.253a2.8,2.8,0,0,1,.824-.915,2.5,2.5,0,0,1,1.189-.471,3.09,3.09,0,0,1,1.427.186c.5.18,1.047.4,1.643.665s1.248.53,1.962.8a11.065,11.065,0,0,0,2.376.591l-.223-10.779q-2.1-.323-4.216-.846a13.24,13.24,0,0,1-3.881-1.63,9.878,9.878,0,0,1-3.007-3,11.3,11.3,0,0,1-1.6-4.911,10.989,10.989,0,0,1,.387-4.459,11.782,11.782,0,0,1,2.186-4.131,13.96,13.96,0,0,1,3.95-3.3,17.046,17.046,0,0,1,5.674-1.951l-.066-3.174a2.3,2.3,0,0,1,2.072-2.34l3.221-.385.127,5.6a16.352,16.352,0,0,1,5.459,1.213,20.089,20.089,0,0,1,4.04,2.268L209.951,121a3.651,3.651,0,0,1-.852,1.149,2.085,2.085,0,0,1-1.134.464,3,3,0,0,1-1.028-.092c-.4-.094-.842-.214-1.316-.359s-.987-.293-1.533-.447a14.43,14.43,0,0,0-1.721-.382Zm-5.548-9.744a8.742,8.742,0,0,0-2.119.855,4.937,4.937,0,0,0-1.334,1.106,3.422,3.422,0,0,0-.661,1.3,3.894,3.894,0,0,0-.086,1.428A3.61,3.61,0,0,0,194.219,129a8.984,8.984,0,0,0,2.982,1.408Zm5.912,27.216q4.574-1.318,4.054-5.672a3.374,3.374,0,0,0-1.339-2.465,8.585,8.585,0,0,0-2.918-1.271Z" transform="translate(-184.597 -108.521)" fill="#f7a145"/>
            </g>
            <path id="Trazado_1013174" data-name="Trazado 1013174" d="M253.753,157.318a58.017,58.017,0,0,0,1.905-39.191c1.427,23.311-7.033,51.285-33.873,62.594-27.57,11.616-48.612,1.937-60.653-5.425,9.47,9.247,21.964,15.437,35.173,16.544C220.086,193.836,244.356,179.249,253.753,157.318Z" transform="translate(-143.924 -77.804)" fill="#2e2854" opacity="0.15"/>
            <path id="Trazado_1013175" data-name="Trazado 1013175" d="M171.912,89.057c-14.163,8.853-23.626,24.353-26.122,40.809,3.462-11.956,11.437-30.726,35.365-40.575,16.585-6.827,35.174-5.627,52.465.483C215.4,78.1,190.34,77.536,171.912,89.057Z" transform="translate(-145.108 -80.691)" fill="#f5b878"/>
            <path id="Trazado_1013176" data-name="Trazado 1013176" d="M225.471,100.746c-14.916-10.065-36.236-9.43-50.527,1.5S154.47,133.6,160.282,150.624s23.194,29.394,41.187,29.3,35.251-12.632,40.894-29.713S242.159,112.007,225.471,100.746Z" transform="translate(-144.157 -79.696)" fill="none" stroke="#2e2854" stroke-linecap="round" stroke-linejoin="round" stroke-miterlimit="10" stroke-width="1"/>
          </g>
        </g>
        <g id="Grupo_1160557" data-name="Grupo 1160557" transform="translate(6.734 11.069)">
          <g id="Grupo_1160547" data-name="Grupo 1160547" transform="translate(10.521 255.299)">
            <g id="Grupo_1160546" data-name="Grupo 1160546">
              <path id="Trazado_1013177" data-name="Trazado 1013177" d="M128.231,349.752a259.077,259.077,0,0,1-48.162-.828,10.088,10.088,0,0,1-8.9-9.466,227.44,227.44,0,0,1,.461-33.266,10.111,10.111,0,0,1,9.23-9.186,230.03,230.03,0,0,1,48.675.592,10.137,10.137,0,0,1,8.875,9.372,157.731,157.731,0,0,1-1.027,34.343A10.022,10.022,0,0,1,128.231,349.752Z" transform="translate(-66.364 -291.752)" fill="#2e2854" opacity="0.15"/>
              <path id="Trazado_1013178" data-name="Trazado 1013178" d="M124.144,345.807a259.072,259.072,0,0,1-48.162-.828,10.088,10.088,0,0,1-8.9-9.466,227.438,227.438,0,0,1,.461-33.266,10.111,10.111,0,0,1,9.23-9.186,230.03,230.03,0,0,1,48.675.592,10.137,10.137,0,0,1,8.875,9.372,157.73,157.73,0,0,1-1.027,34.343A10.023,10.023,0,0,1,124.144,345.807Z" transform="translate(-66.68 -292.056)" fill="#fff"/>
              <path id="Trazado_1013179" data-name="Trazado 1013179" d="M124.144,345.807a259.072,259.072,0,0,1-48.162-.828,10.088,10.088,0,0,1-8.9-9.466,227.438,227.438,0,0,1,.461-33.266,10.111,10.111,0,0,1,9.23-9.186,230.03,230.03,0,0,1,48.675.592,10.137,10.137,0,0,1,8.875,9.372,157.73,157.73,0,0,1-1.027,34.343A10.023,10.023,0,0,1,124.144,345.807Z" transform="translate(-66.68 -292.056)" fill="none" stroke="#2e2854" stroke-linecap="round" stroke-linejoin="round" stroke-miterlimit="10" stroke-width="1"/>
            </g>
            <path id="Trazado_1013180" data-name="Trazado 1013180" d="M122.909,315.313l-3.133-13.186c-.012-.048-.036-.092-.05-.14a2.7,2.7,0,0,0-.121-.339c-.03-.068-.067-.131-.1-.2a2.642,2.642,0,0,0-.178-.282c-.044-.06-.09-.118-.14-.174a2.714,2.714,0,0,0-.235-.238c-.056-.051-.112-.1-.173-.145a2.794,2.794,0,0,0-.281-.182c-.046-.027-.085-.062-.134-.086-.025-.013-.052-.017-.076-.028s-.053-.032-.083-.045c-.076-.032-.156-.047-.234-.072s-.143-.051-.217-.067a2.648,2.648,0,0,0-.387-.053c-.054,0-.108-.015-.162-.016a2.713,2.713,0,0,0-.53.042l-.025,0a2.714,2.714,0,0,0-.534.164.27.27,0,0,0-.027.009l-13.317,5.744a2.693,2.693,0,0,0,2.134,4.946l7.149-3.084q-1.687,3.97-3.388,7.966c-1.44,3.382-2.88,6.764-4.3,10.114-4.193-5.026-11.547-13.849-11.647-13.97a2.693,2.693,0,0,0-4.393.363,134.779,134.779,0,0,0-8.906,18.259,2.693,2.693,0,1,0,5.006,1.988,129.754,129.754,0,0,1,6.651-14.169c4,4.8,11.425,13.706,11.993,14.377a2.693,2.693,0,0,0,4.538-.69c1.97-4.661,3.993-9.412,6.016-14.165q1.407-3.307,2.81-6.6l1.237,5.206a2.692,2.692,0,1,0,5.238-1.247Z" transform="translate(-65.711 -291.438)" fill="#76c9bf"/>
          </g>
          <g id="Grupo_1160550" data-name="Grupo 1160550" transform="translate(453.435)">
            <g id="Grupo_1160548" data-name="Grupo 1160548">
              <path id="Trazado_1013181" data-name="Trazado 1013181" d="M540.214,111.958a259.079,259.079,0,0,1-48.162-.828,10.088,10.088,0,0,1-8.9-9.466,227.6,227.6,0,0,1,.46-33.266,10.113,10.113,0,0,1,9.231-9.186,230.034,230.034,0,0,1,48.675.592,10.134,10.134,0,0,1,8.873,9.372,157.667,157.667,0,0,1-1.026,34.343A10.021,10.021,0,0,1,540.214,111.958Z" transform="translate(-477.494 -54.799)" fill="#2e2854" opacity="0.15"/>
              <path id="Trazado_1013182" data-name="Trazado 1013182" d="M535.335,108.794a259.079,259.079,0,0,1-48.162-.828,10.088,10.088,0,0,1-8.9-9.466,227.6,227.6,0,0,1,.46-33.266,10.113,10.113,0,0,1,9.231-9.186,230.033,230.033,0,0,1,48.675.592,10.134,10.134,0,0,1,8.873,9.372,157.663,157.663,0,0,1-1.026,34.343A10.023,10.023,0,0,1,535.335,108.794Z" transform="translate(-477.871 -55.043)" fill="#fff"/>
              <path id="Trazado_1013183" data-name="Trazado 1013183" d="M535.335,108.794a259.079,259.079,0,0,1-48.162-.828,10.088,10.088,0,0,1-8.9-9.466,227.6,227.6,0,0,1,.46-33.266,10.113,10.113,0,0,1,9.231-9.186,230.033,230.033,0,0,1,48.675.592,10.134,10.134,0,0,1,8.873,9.372,157.663,157.663,0,0,1-1.026,34.343A10.023,10.023,0,0,1,535.335,108.794Z" transform="translate(-477.871 -55.043)" fill="none" stroke="#2e2854" stroke-linecap="round" stroke-linejoin="round" stroke-miterlimit="10" stroke-width="1"/>
            </g>
            <rect id="Rectángulo_409794" data-name="Rectángulo 409794" width="30.113" height="5.255" transform="translate(11.763 10.559)" fill="#d24d84"/>
            <g id="Grupo_1160549" data-name="Grupo 1160549" transform="translate(11.763 25.117)">
              <line id="Línea_925" data-name="Línea 925" x2="46.163" fill="none" stroke="#2e2854" stroke-linecap="round" stroke-linejoin="round" stroke-miterlimit="10" stroke-width="1"/>
              <line id="Línea_926" data-name="Línea 926" x2="46.163" transform="translate(0 7.814)" fill="none" stroke="#2e2854" stroke-linecap="round" stroke-linejoin="round" stroke-miterlimit="10" stroke-width="1"/>
              <line id="Línea_927" data-name="Línea 927" x2="46.163" transform="translate(0 15.627)" fill="none" stroke="#2e2854" stroke-linecap="round" stroke-linejoin="round" stroke-miterlimit="10" stroke-width="1"/>
            </g>
          </g>
          <g id="Grupo_1160553" data-name="Grupo 1160553" transform="translate(0 50.29)">
            <g id="Grupo_1160551" data-name="Grupo 1160551">
              <path id="Trazado_1013184" data-name="Trazado 1013184" d="M119.256,158.647a259.079,259.079,0,0,1-48.162-.828,10.088,10.088,0,0,1-8.9-9.466,227.6,227.6,0,0,1,.46-33.266,10.113,10.113,0,0,1,9.231-9.186,230.034,230.034,0,0,1,48.675.592,10.134,10.134,0,0,1,8.874,9.372,157.665,157.665,0,0,1-1.025,34.343A10.023,10.023,0,0,1,119.256,158.647Z" transform="translate(-56.536 -101.487)" fill="#2e2854" opacity="0.15"/>
              <path id="Trazado_1013185" data-name="Trazado 1013185" d="M114.377,155.482a259.077,259.077,0,0,1-48.162-.828,10.088,10.088,0,0,1-8.9-9.466,227.594,227.594,0,0,1,.46-33.266A10.113,10.113,0,0,1,67,102.736a230.034,230.034,0,0,1,48.675.592,10.134,10.134,0,0,1,8.874,9.372,157.666,157.666,0,0,1-1.025,34.343A10.023,10.023,0,0,1,114.377,155.482Z" transform="translate(-56.912 -101.731)" fill="#fff"/>
              <path id="Trazado_1013186" data-name="Trazado 1013186" d="M114.377,155.482a259.077,259.077,0,0,1-48.162-.828,10.088,10.088,0,0,1-8.9-9.466,227.594,227.594,0,0,1,.46-33.266A10.113,10.113,0,0,1,67,102.736a230.034,230.034,0,0,1,48.675.592,10.134,10.134,0,0,1,8.874,9.372,157.666,157.666,0,0,1-1.025,34.343A10.023,10.023,0,0,1,114.377,155.482Z" transform="translate(-56.912 -101.731)" fill="none" stroke="#2e2854" stroke-linecap="round" stroke-linejoin="round" stroke-miterlimit="10" stroke-width="1"/>
            </g>
            <g id="Grupo_1160552" data-name="Grupo 1160552" transform="translate(13.024 10.753)">
              <rect id="Rectángulo_409795" data-name="Rectángulo 409795" width="7.683" height="32.991" fill="#76c9bf"/>
              <rect id="Rectángulo_409796" data-name="Rectángulo 409796" width="7.683" height="26.777" transform="translate(11.46 6.214)" fill="#2e2854"/>
              <rect id="Rectángulo_409797" data-name="Rectángulo 409797" width="7.683" height="20.563" transform="translate(22.92 12.428)" fill="#2e2854"/>
              <rect id="Rectángulo_409798" data-name="Rectángulo 409798" width="7.683" height="14.349" transform="translate(34.38 18.642)" fill="#2e2854"/>
            </g>
          </g>
          <g id="Grupo_1160556" data-name="Grupo 1160556" transform="translate(626.433 303.08)">
            <g id="Grupo_1160554" data-name="Grupo 1160554">
              <path id="Trazado_1013187" data-name="Trazado 1013187" d="M690.542,402.17a321.217,321.217,0,0,1-34.049-.832,12.246,12.246,0,0,1-11.268-11.357c-.866-12.162-1.089-24.088-.773-35.949a12.2,12.2,0,0,1,11.53-11.776,182.636,182.636,0,0,1,36.385,1.294,12.154,12.154,0,0,1,10.441,11.739c.284,11.856.092,23.68-.425,35.285A12.186,12.186,0,0,1,690.542,402.17Z" transform="translate(-638.027 -335.993)" fill="#2e2854" opacity="0.15"/>
              <path id="Trazado_1013188" data-name="Trazado 1013188" d="M684.7,396.7a321.226,321.226,0,0,1-34.049-.832,12.247,12.247,0,0,1-11.268-11.357c-.866-12.162-1.089-24.088-.773-35.949a12.2,12.2,0,0,1,11.53-11.776,182.631,182.631,0,0,1,36.385,1.294,12.154,12.154,0,0,1,10.441,11.739c.284,11.856.091,23.68-.425,35.285A12.185,12.185,0,0,1,684.7,396.7Z" transform="translate(-638.478 -336.415)" fill="#fff"/>
              <path id="Trazado_1013189" data-name="Trazado 1013189" d="M684.7,396.7a321.226,321.226,0,0,1-34.049-.832,12.247,12.247,0,0,1-11.268-11.357c-.866-12.162-1.089-24.088-.773-35.949a12.2,12.2,0,0,1,11.53-11.776,182.631,182.631,0,0,1,36.385,1.294,12.154,12.154,0,0,1,10.441,11.739c.284,11.856.091,23.68-.425,35.285A12.185,12.185,0,0,1,684.7,396.7Z" transform="translate(-638.478 -336.415)" fill="none" stroke="#2e2854" stroke-linecap="round" stroke-linejoin="round" stroke-miterlimit="10" stroke-width="1"/>
            </g>
            <g id="Grupo_1160555" data-name="Grupo 1160555" transform="translate(16.217 20.567)">
              <path id="Trazado_1013190" data-name="Trazado 1013190" d="M653.533,361.279c0-3.67,2.367-5.77,5.5-5.77s5.5,2.1,5.5,5.77c0,3.7-2.367,5.769-5.5,5.769S653.533,364.977,653.533,361.279Zm17.666-5.474h5l-14.145,20.712h-5Zm-10.861,5.474c0-1.983-.652-2.574-1.3-2.574s-1.3.591-1.3,2.574.652,2.573,1.3,2.573S660.339,363.261,660.339,361.279Zm8.375,9.764c0-3.669,2.367-5.769,5.5-5.769s5.5,2.1,5.5,5.769c0,3.7-2.367,5.77-5.5,5.77S668.713,374.743,668.713,371.044Zm6.806,0c0-1.982-.652-2.574-1.3-2.574s-1.3.592-1.3,2.574.652,2.574,1.3,2.574S675.519,373.026,675.519,371.044Z" transform="translate(-653.533 -355.509)" fill="#5767bf"/>
            </g>
          </g>
        </g>
        <g id="Grupo_1160580" data-name="Grupo 1160580" transform="translate(20.231 256.657)">
          <g id="Grupo_1160565" data-name="Grupo 1160565" transform="translate(102.077)">
            <g id="Grupo_1160563" data-name="Grupo 1160563" transform="translate(29.128)">
              <g id="Grupo_1160558" data-name="Grupo 1160558" transform="translate(0 80.372)">
                <path id="Trazado_1013191" data-name="Trazado 1013191" d="M263.363,420.9a45.05,45.05,0,0,0-17.446-32.87C229.748,375.725,206.683,375.479,191.41,364a57.33,57.33,0,0,0,20.256,47.78A53.072,53.072,0,0,0,263.363,420.9Z" transform="translate(-191.251 -357.167)" fill="#2e2854" opacity="0.15"/>
                <path id="Trazado_1013192" data-name="Trazado 1013192" d="M262.642,421.779a45.051,45.051,0,0,0-13.911-34.515c-14.794-13.931-37.706-16.589-51.694-29.608a57.333,57.333,0,0,0,15.147,49.637A53.071,53.071,0,0,0,262.642,421.779Z" transform="translate(-190.873 -357.656)" fill="#76c9bf"/>
                <path id="Trazado_1013193" data-name="Trazado 1013193" d="M204.992,371.673a75.717,75.717,0,0,0,37.551,36.83c6.753,2.993,14.531,5.462,18.229,11.856" transform="translate(-190.191 -356.575)" fill="none" stroke="#2e2854" stroke-linecap="round" stroke-linejoin="round" stroke-miterlimit="10" stroke-width="1"/>
                <path id="Trazado_1013194" data-name="Trazado 1013194" d="M261.283,418.226a44.014,44.014,0,0,0-1.76-14.516c-24.068.281-39.179,1.9-45.772,2.791A53.019,53.019,0,0,0,261.283,418.226Z" transform="translate(-189.515 -354.103)" fill="#2e2854" opacity="0.15"/>
              </g>
              <g id="Grupo_1160559" data-name="Grupo 1160559" transform="translate(70.581 56.857)">
                <path id="Trazado_1013195" data-name="Trazado 1013195" d="M320.536,340.746a77.584,77.584,0,0,0-46.645,29.789c-11.175,15.209-16.447,34.644-14.683,54.819,18.909-2.3,38.468-9.558,49.483-25.1C319.254,385.357,320.059,365.885,320.536,340.746Z" transform="translate(-256.615 -335.445)" fill="#2e2854" opacity="0.15"/>
                <path id="Trazado_1013196" data-name="Trazado 1013196" d="M314.328,335.825a77.588,77.588,0,0,0-44.973,32.257c-10.341,15.789-14.558,35.48-11.709,55.53,18.758-3.319,37.9-11.615,48.06-27.726C315.449,380.441,315.206,360.953,314.328,335.825Z" transform="translate(-256.777 -335.825)" fill="#49ad9f"/>
                <path id="Trazado_1013197" data-name="Trazado 1013197" d="M298.633,360.683a159.72,159.72,0,0,1-41.364,61.611" transform="translate(-256.739 -333.907)" fill="none" stroke="#2e2854" stroke-linecap="round" stroke-linejoin="round" stroke-miterlimit="10" stroke-width="1"/>
                <path id="Trazado_1013198" data-name="Trazado 1013198" d="M292.778,404.321c-13.617-.562-25.6-.721-35.962-.627a86.559,86.559,0,0,0,.829,14.684C270.108,416.174,282.723,411.752,292.778,404.321Z" transform="translate(-256.777 -330.591)" fill="#2e2854" opacity="0.15"/>
              </g>
              <g id="Grupo_1160562" data-name="Grupo 1160562" transform="translate(1.579)">
                <path id="Trazado_1013199" data-name="Trazado 1013199" d="M231.821,336.914a105.931,105.931,0,0,1,25.519,88.679" transform="translate(-189.7 -278.884)" fill="none" stroke="#2e2854" stroke-linecap="round" stroke-linejoin="round" stroke-miterlimit="10" stroke-width="1"/>
                <g id="Grupo_1160561" data-name="Grupo 1160561">
                  <path id="Trazado_1013200" data-name="Trazado 1013200" d="M255.425,295.272c-11.9-9.84-30.178-11.05-43.27-2.865s-20.016,25.147-16.381,40.155,17.544,26.928,32.931,28.218,31.09-8.148,37.17-22.338S268.326,305.94,255.425,295.272Z" transform="translate(-192.555 -282.736)" fill="#2e2854" opacity="0.15"/>
                  <path id="Trazado_1013201" data-name="Trazado 1013201" d="M253.33,291.319c-11.9-9.84-30.179-11.05-43.27-2.865s-20.016,25.147-16.381,40.154,17.544,26.928,32.931,28.218,31.09-8.148,37.17-22.338S266.231,301.988,253.33,291.319Z" transform="translate(-192.717 -283.041)" fill="#f7a145"/>
                  <path id="Trazado_1013202" data-name="Trazado 1013202" d="M244.683,296.016a28.013,28.013,0,1,0,10.93,32.009A28.386,28.386,0,0,0,244.683,296.016Z" transform="translate(-192.07 -282.396)" fill="#ff8330"/>
                  <g id="Grupo_1160560" data-name="Grupo 1160560" transform="translate(27.488 19.394)">
                    <path id="Trazado_1013203" data-name="Trazado 1013203" d="M229.868,315.905q.91.152,1.823.348a15.586,15.586,0,0,1,1.774.493,10.1,10.1,0,0,1,1.626.724,5.783,5.783,0,0,1,1.37,1.061,5.489,5.489,0,0,1,1,1.494,6.686,6.686,0,0,1,.539,2.033,9.125,9.125,0,0,1-.194,3.334,8.076,8.076,0,0,1-1.4,2.913,8.891,8.891,0,0,1-2.551,2.251,11.311,11.311,0,0,1-3.657,1.354l.051,2.294a1.493,1.493,0,0,1-1.341,1.513l-2.083.249-.084-3.812a16.034,16.034,0,0,1-4.16-.737,11.978,11.978,0,0,1-3.476-1.709l1.45-2.751a1.82,1.82,0,0,1,.533-.592,1.619,1.619,0,0,1,.769-.3,2,2,0,0,1,.923.121c.325.116.678.261,1.062.43s.808.342,1.269.516a7.182,7.182,0,0,0,1.537.382l-.144-6.975q-1.36-.208-2.728-.547a8.564,8.564,0,0,1-2.511-1.055,6.406,6.406,0,0,1-1.946-1.938,7.31,7.31,0,0,1-1.037-3.178,7.114,7.114,0,0,1,.25-2.886,7.591,7.591,0,0,1,1.414-2.672,9.008,9.008,0,0,1,2.556-2.133,11.031,11.031,0,0,1,3.671-1.262l-.043-2.054a1.491,1.491,0,0,1,1.341-1.514l2.083-.249.082,3.625a10.606,10.606,0,0,1,3.532.784,12.98,12.98,0,0,1,2.614,1.468l-1.147,2.2a2.351,2.351,0,0,1-.552.743,1.36,1.36,0,0,1-.735.3,1.941,1.941,0,0,1-.666-.059c-.261-.06-.545-.139-.852-.232s-.639-.19-.992-.29a9.505,9.505,0,0,0-1.114-.248Zm-3.59-6.306a5.665,5.665,0,0,0-1.371.553,3.215,3.215,0,0,0-.863.715,2.222,2.222,0,0,0-.429.839,2.531,2.531,0,0,0-.056.924,2.336,2.336,0,0,0,.9,1.664,5.813,5.813,0,0,0,1.929.911Zm3.825,17.609q2.96-.853,2.623-3.67a2.179,2.179,0,0,0-.866-1.594,5.566,5.566,0,0,0-1.888-.822Z" transform="translate(-218.236 -301.046)" fill="#f7a145"/>
                  </g>
                  <path id="Trazado_1013204" data-name="Trazado 1013204" d="M262.982,332.62a37.534,37.534,0,0,0,1.232-25.358c.923,15.082-4.55,33.184-21.917,40.5-17.839,7.516-31.454,1.254-39.245-3.509a37.469,37.469,0,0,0,22.758,10.7C241.2,356.248,256.9,346.81,262.982,332.62Z" transform="translate(-191.919 -281.172)" fill="#2e2854" opacity="0.15"/>
                  <path id="Trazado_1013205" data-name="Trazado 1013205" d="M210.029,288.453c-9.164,5.728-15.287,15.758-16.9,26.405,2.239-7.736,7.4-19.881,22.882-26.253,10.731-4.417,22.759-3.641,33.946.312C238.167,281.362,221.953,281,210.029,288.453Z" transform="translate(-192.685 -283.04)" fill="#f5b878"/>
                  <path id="Trazado_1013206" data-name="Trazado 1013206" d="M244.683,296.016a28.013,28.013,0,1,0,10.93,32.009A28.386,28.386,0,0,0,244.683,296.016Z" transform="translate(-192.07 -282.396)" fill="none" stroke="#2e2854" stroke-linecap="round" stroke-linejoin="round" stroke-miterlimit="10" stroke-width="1"/>
                </g>
              </g>
            </g>
            <g id="Grupo_1160564" data-name="Grupo 1160564" transform="translate(0 136.183)">
              <path id="Trazado_1013207" data-name="Trazado 1013207" d="M176.417,467.5H351.363a25.38,25.38,0,0,0,9.461-15.414,224.961,224.961,0,0,0,3.43-40.211c-65.516-4.032-131.911-2.817-199.887,2.258a162.441,162.441,0,0,0,2.728,38.09A25.72,25.72,0,0,0,176.417,467.5Z" transform="translate(-164.209 -409.47)" fill="#a8316b"/>
              <path id="Trazado_1013208" data-name="Trazado 1013208" d="M167.692,420.932s128.264-5.469,192.183,0" transform="translate(-163.94 -408.773)" fill="none" stroke="#2e2854" stroke-linecap="round" stroke-linejoin="round" stroke-miterlimit="10" stroke-width="1"/>
              <path id="Trazado_1013209" data-name="Trazado 1013209" d="M166.521,447.225c.132.738.251,1.476.4,2.215a25.723,25.723,0,0,0,9.323,15.277H351.184a25.38,25.38,0,0,0,9.461-15.414c.233-1.24.434-2.474.639-3.71C279.566,457.882,187.224,449.4,166.521,447.225Z" transform="translate(-164.03 -406.683)" fill="#2e2854" opacity="0.15"/>
            </g>
          </g>
          <line id="Línea_928" data-name="Línea 928" x2="657.062" transform="translate(0 194.217)" fill="none" stroke="#2e2854" stroke-linecap="round" stroke-linejoin="round" stroke-miterlimit="10" stroke-width="1"/>
          <g id="Grupo_1160579" data-name="Grupo 1160579" transform="translate(330.417 11.818)">
            <g id="Grupo_1160571" data-name="Grupo 1160571">
              <g id="Grupo_1160566" data-name="Grupo 1160566" transform="translate(64.017 54.57)">
                <path id="Trazado_1013210" data-name="Trazado 1013210" d="M435.868,418a70,70,0,0,1,65.883-69.726c-5.342,8.074-7.139,17.915-10.833,26.863C482.077,396.566,461.359,412.623,435.868,418Z" transform="translate(-435.607 -344.396)" fill="#2e2854" opacity="0.15"/>
                <path id="Trazado_1013211" data-name="Trazado 1013211" d="M435.765,417.249A70,70,0,0,1,498.5,344.674c-4.979,8.3-6.339,18.214-9.633,27.317C480.98,393.784,460.993,410.744,435.765,417.249Z" transform="translate(-435.62 -344.674)" fill="#49ad9f"/>
                <path id="Trazado_1013212" data-name="Trazado 1013212" d="M475.442,367.873a108.22,108.22,0,0,0-39.816,47.975" transform="translate(-435.626 -342.884)" fill="none" stroke="#2e2854" stroke-linecap="round" stroke-linejoin="round" stroke-miterlimit="10" stroke-width="1"/>
                <path id="Trazado_1013213" data-name="Trazado 1013213" d="M435.848,405.63a68.146,68.146,0,0,0-.083,6.975,85.8,85.8,0,0,0,19.676-7.732C448.453,405.11,441.881,405.369,435.848,405.63Z" transform="translate(-435.619 -340.03)" fill="#2e2854" opacity="0.15"/>
              </g>
              <g id="Grupo_1160567" data-name="Grupo 1160567" transform="translate(4.467 78.493)">
                <path id="Trazado_1013214" data-name="Trazado 1013214" d="M436.439,417.023a53.151,53.151,0,0,0-20.161-33.033c-10.552-7.95-24.178-11.7-35.937-9.948,4.566,7.474,8.433,15.372,13.325,22.636s10.97,13.994,18.768,17.979S429.973,419.524,436.439,417.023Z" transform="translate(-380.341 -366.364)" fill="#2e2854" opacity="0.15"/>
                <path id="Trazado_1013215" data-name="Trazado 1013215" d="M436.638,415.155a53.152,53.152,0,0,0-16.858-34.834c-9.73-8.937-22.927-14-34.8-13.389,3.819,7.883,6.9,16.118,11.064,23.823s9.56,14.993,16.934,19.716S429.96,417.017,436.638,415.155Z" transform="translate(-379.983 -366.884)" fill="#76c9bf"/>
                <path id="Trazado_1013216" data-name="Trazado 1013216" d="M395.753,376.216a201.5,201.5,0,0,1,40.9,40.055" transform="translate(-379.152 -366.164)" fill="none" stroke="#2e2854" stroke-linecap="round" stroke-linejoin="round" stroke-miterlimit="10" stroke-width="1"/>
                <path id="Trazado_1013217" data-name="Trazado 1013217" d="M411.046,407.489c7.374,4.723,16.983,6.545,23.662,4.683a51.372,51.372,0,0,0-.941-6.62c-9.571.427-17.667.855-23.761,1.2C410.355,407,410.687,407.259,411.046,407.489Z" transform="translate(-378.052 -363.9)" fill="#2e2854" opacity="0.15"/>
              </g>
              <g id="Grupo_1160570" data-name="Grupo 1160570">
                <path id="Trazado_1013218" data-name="Trazado 1013218" d="M414.245,346.087a111.744,111.744,0,0,1,21.277,78.823" transform="translate(-373.258 -289.995)" fill="none" stroke="#2e2854" stroke-linecap="round" stroke-linejoin="round" stroke-miterlimit="10" stroke-width="1"/>
                <g id="Grupo_1160569" data-name="Grupo 1160569">
                  <path id="Trazado_1013219" data-name="Trazado 1013219" d="M446.145,310.213c-9.779-11.946-27.487-16.653-41.91-11.141s-24.482,20.825-23.8,36.25,12.032,29.8,26.884,34.029,32.078-2.011,40.776-14.764S456.752,323.166,446.145,310.213Z" transform="translate(-375.87 -293.799)" fill="#2e2854" opacity="0.15"/>
                  <path id="Trazado_1013220" data-name="Trazado 1013220" d="M441.94,307.445c-9.779-11.946-27.487-16.653-41.91-11.141s-24.481,20.825-23.8,36.25,12.032,29.8,26.882,34.029,32.078-2.011,40.776-14.764S452.547,320.4,441.94,307.445Z" transform="translate(-376.194 -294.012)" fill="#f7a145"/>
                  <path id="Trazado_1013221" data-name="Trazado 1013221" d="M432.414,310.5a28.013,28.013,0,1,0,4.565,33.514A28.39,28.39,0,0,0,432.414,310.5Z" transform="translate(-375.547 -293.365)" fill="#ff8330"/>
                  <g id="Grupo_1160568" data-name="Grupo 1160568" transform="translate(26.439 19.984)">
                    <path id="Trazado_1013222" data-name="Trazado 1013222" d="M413.956,327.366c.576.216,1.148.447,1.721.693a15.543,15.543,0,0,1,1.646.825,10.027,10.027,0,0,1,1.456,1.023,5.806,5.806,0,0,1,1.141,1.3,5.469,5.469,0,0,1,.7,1.659,6.667,6.667,0,0,1,.137,2.1,9.1,9.1,0,0,1-.832,3.234,8.09,8.09,0,0,1-1.931,2.589,8.88,8.88,0,0,1-2.936,1.718,11.288,11.288,0,0,1-3.85.625l-.392,2.261a1.495,1.495,0,0,1-1.607,1.228l-2.093-.157.652-3.757a16.065,16.065,0,0,1-3.941-1.523,12.044,12.044,0,0,1-3.083-2.346l1.953-2.42a1.817,1.817,0,0,1,.637-.478,1.608,1.608,0,0,1,.813-.151,2,2,0,0,1,.882.3c.3.177.614.386.96.627s.727.492,1.146.751a7.162,7.162,0,0,0,1.435.671l1.2-6.872q-1.3-.467-2.571-1.062a8.561,8.561,0,0,1-2.261-1.518,6.411,6.411,0,0,1-1.537-2.277,7.3,7.3,0,0,1-.406-3.318,7.086,7.086,0,0,1,.8-2.783,7.607,7.607,0,0,1,1.9-2.35,9.034,9.034,0,0,1,2.919-1.6,11.047,11.047,0,0,1,3.845-.532l.353-2.024a1.49,1.49,0,0,1,1.607-1.227l2.093.157-.617,3.573a10.606,10.606,0,0,1,3.315,1.45,13.055,13.055,0,0,1,2.284,1.943l-1.549,1.934a2.371,2.371,0,0,1-.684.624,1.356,1.356,0,0,1-.778.154,1.952,1.952,0,0,1-.641-.186c-.245-.11-.508-.241-.791-.391s-.59-.309-.918-.475a9.307,9.307,0,0,0-1.045-.457Zm-2.31-6.878a5.7,5.7,0,0,0-1.452.279,3.215,3.215,0,0,0-.984.536,2.218,2.218,0,0,0-.582.741,2.512,2.512,0,0,0-.233.9,2.332,2.332,0,0,0,.565,1.806,5.819,5.819,0,0,0,1.718,1.266Zm.364,18.016q3.068-.268,3.28-3.1a2.181,2.181,0,0,0-.543-1.732,5.584,5.584,0,0,0-1.694-1.171Z" transform="translate(-400.739 -312.565)" fill="#f7a145"/>
                  </g>
                  <path id="Trazado_1013223" data-name="Trazado 1013223" d="M443.41,349.444A37.533,37.533,0,0,0,449.5,324.8c-2,14.978-10.852,31.688-29.3,35.524-18.951,3.941-31.107-4.825-37.836-11a37.471,37.471,0,0,0,20.272,14.885C417.485,368.438,434.712,362.2,443.41,349.444Z" transform="translate(-375.718 -291.637)" fill="#2e2854" opacity="0.15"/>
                  <path id="Trazado_1013224" data-name="Trazado 1013224" d="M399.875,296.3c-10.1,3.857-18.035,12.521-21.668,22.658,3.687-7.161,11.088-18.084,27.508-21.358,11.38-2.268,23.034.808,33.252,6.841C428.852,294.762,413.011,291.284,399.875,296.3Z" transform="translate(-376.039 -294.012)" fill="#f5b878"/>
                  <path id="Trazado_1013225" data-name="Trazado 1013225" d="M432.414,310.5a28.013,28.013,0,1,0,4.565,33.514A28.39,28.39,0,0,0,432.414,310.5Z" transform="translate(-375.547 -293.365)" fill="none" stroke="#2e2854" stroke-linecap="round" stroke-linejoin="round" stroke-miterlimit="10" stroke-width="1"/>
                </g>
              </g>
            </g>
            <g id="Grupo_1160576" data-name="Grupo 1160576" transform="translate(109.407 16.041)">
              <g id="Grupo_1160572" data-name="Grupo 1160572" transform="translate(0 33.811)">
                <path id="Trazado_1013226" data-name="Trazado 1013226" d="M488.468,342.286c11.013,7.936,17.332,21.2,19.238,34.645s-.178,27.138-3.618,40.826c-11.94-7.146-22.767-17.834-25.578-31.464C475.631,372.343,481.551,358.246,488.468,342.286Z" transform="translate(-477.765 -340.139)" fill="#2e2854" opacity="0.15"/>
                <path id="Trazado_1013227" data-name="Trazado 1013227" d="M494.523,340.293c10.47,8.64,15.909,22.292,16.932,35.829s-1.952,27.068-6.279,40.5c-11.448-7.912-21.553-19.284-23.467-33.069C479.75,369.447,486.578,355.767,494.523,340.293Z" transform="translate(-477.487 -340.293)" fill="#76c9bf"/>
                <path id="Trazado_1013228" data-name="Trazado 1013228" d="M494.992,359.807a151.955,151.955,0,0,0,9.379,56.267" transform="translate(-476.439 -338.787)" fill="none" stroke="#2e2854" stroke-linecap="round" stroke-linejoin="round" stroke-miterlimit="10" stroke-width="1"/>
                <path id="Trazado_1013229" data-name="Trazado 1013229" d="M504.148,411.717q1.259-3.907,2.343-7.824-5.949.016-11.8.077A73.227,73.227,0,0,0,504.148,411.717Z" transform="translate(-476.459 -335.386)" fill="#2e2854" opacity="0.15"/>
              </g>
              <g id="Grupo_1160575" data-name="Grupo 1160575" transform="translate(30.259)">
                <path id="Trazado_1013230" data-name="Trazado 1013230" d="M505.941,418.165c-.73-10.175,3.362-20.239,9.423-28.444s14-14.81,21.964-21.181,16.108-12.654,22.745-20.4" transform="translate(-505.857 -305.877)" fill="none" stroke="#2e2854" stroke-linecap="round" stroke-linejoin="round" stroke-miterlimit="10" stroke-width="1"/>
                <g id="Grupo_1160574" data-name="Grupo 1160574" transform="translate(23.003)">
                  <path id="Trazado_1013231" data-name="Trazado 1013231" d="M587.656,319.041c-13.074-8.21-31.359-7.035-43.276,2.782s-16.577,27.535-11.023,41.943,20.895,24.42,36.318,23.7,29.767-12.119,33.953-26.978S601.834,327.944,587.656,319.041Z" transform="translate(-526.918 -308.542)" fill="#2e2854" opacity="0.15"/>
                  <path id="Trazado_1013232" data-name="Trazado 1013232" d="M583.84,314.354c-13.074-8.21-31.358-7.035-43.276,2.782s-16.577,27.535-11.024,41.943,20.893,24.42,36.318,23.7,29.767-12.119,33.953-26.978S598.019,323.256,583.84,314.354Z" transform="translate(-527.212 -308.904)" fill="#f7a145"/>
                  <path id="Trazado_1013233" data-name="Trazado 1013233" d="M575.957,320.047a28.013,28.013,0,1,0,15,30.317A28.39,28.39,0,0,0,575.957,320.047Z" transform="translate(-526.567 -308.261)" fill="#ff8330"/>
                  <g id="Grupo_1160573" data-name="Grupo 1160573" transform="translate(26.72 19.311)">
                    <path id="Trazado_1013234" data-name="Trazado 1013234" d="M563.991,341.519c.615.022,1.23.058,1.853.109a15.728,15.728,0,0,1,1.823.259,10.177,10.177,0,0,1,1.706.506,5.8,5.8,0,0,1,1.5.874,5.517,5.517,0,0,1,1.188,1.351,6.673,6.673,0,0,1,.8,1.945,9.1,9.1,0,0,1,.241,3.331,8.063,8.063,0,0,1-1.007,3.07,8.9,8.9,0,0,1-2.236,2.564,11.332,11.332,0,0,1-3.45,1.818l.348,2.268a1.5,1.5,0,0,1-1.133,1.676l-2.034.517-.578-3.769a16.028,16.028,0,0,1-4.221-.19,12.018,12.018,0,0,1-3.669-1.243l1.08-2.916a1.808,1.808,0,0,1,.451-.656,1.609,1.609,0,0,1,.724-.4,2,2,0,0,1,.931,0c.337.073.706.17,1.109.289s.846.235,1.325.347a7.183,7.183,0,0,0,1.574.18l-1.049-6.9q-1.376-.031-2.776-.187a8.548,8.548,0,0,1-2.626-.72,6.383,6.383,0,0,1-2.181-1.669,7.316,7.316,0,0,1-1.441-3.016,7.115,7.115,0,0,1-.127-2.893,7.619,7.619,0,0,1,1.055-2.834,9.041,9.041,0,0,1,2.257-2.447,11.054,11.054,0,0,1,3.476-1.729l-.309-2.03a1.49,1.49,0,0,1,1.132-1.675l2.034-.517.553,3.584a10.593,10.593,0,0,1,3.6.319,12.983,12.983,0,0,1,2.783,1.116l-.852,2.327a2.367,2.367,0,0,1-.45.809,1.347,1.347,0,0,1-.688.393,1.954,1.954,0,0,1-.667.028c-.267-.027-.558-.067-.875-.12s-.658-.1-1.021-.158a9.42,9.42,0,0,0-1.136-.1Zm-4.379-5.785a5.653,5.653,0,0,0-1.287.727,3.242,3.242,0,0,0-.763.822,2.219,2.219,0,0,0-.316.888,2.511,2.511,0,0,0,.065.924,2.335,2.335,0,0,0,1.11,1.533,5.819,5.819,0,0,0,2.031.653Zm6.082,16.963q2.823-1.231,2.124-3.98a2.18,2.18,0,0,0-1.066-1.468,5.556,5.556,0,0,0-1.979-.57Z" transform="translate(-552.018 -326.832)" fill="#f7a145"/>
                  </g>
                  <path id="Trazado_1013235" data-name="Trazado 1013235" d="M598.76,354.253a37.542,37.542,0,0,0-2.073-25.3c2.875,14.835-.2,33.493-16.468,43.005-16.71,9.77-31.024,5.331-39.369,1.62a37.466,37.466,0,0,0,23.957,7.656C580.231,380.512,594.574,369.113,598.76,354.253Z" transform="translate(-526.16 -307.357)" fill="#2e2854" opacity="0.15"/>
                  <path id="Trazado_1013236" data-name="Trazado 1013236" d="M540.563,317.134c-8.342,6.87-13.11,17.61-13.328,28.378,1.215-7.961,4.754-20.674,19.277-29,10.066-5.773,22.092-6.567,33.7-4.1C567.541,306.448,551.417,308.194,540.563,317.134Z" transform="translate(-527.21 -308.903)" fill="#f5b878"/>
                  <path id="Trazado_1013237" data-name="Trazado 1013237" d="M575.957,320.047a28.013,28.013,0,1,0,15,30.317A28.39,28.39,0,0,0,575.957,320.047Z" transform="translate(-526.567 -308.261)" fill="none" stroke="#2e2854" stroke-linecap="round" stroke-linejoin="round" stroke-miterlimit="10" stroke-width="1"/>
                </g>
              </g>
            </g>
            <g id="Grupo_1160577" data-name="Grupo 1160577" transform="translate(11.865 124.365)">
              <path id="Trazado_1013238" data-name="Trazado 1013238" d="M399.419,467.5H574.363a25.38,25.38,0,0,0,9.461-15.414,224.764,224.764,0,0,0,3.43-40.211c-65.514-4.032-131.911-2.817-199.887,2.258a162.443,162.443,0,0,0,2.728,38.09A25.716,25.716,0,0,0,399.419,467.5Z" transform="translate(-387.209 -409.47)" fill="#a8316b"/>
              <path id="Trazado_1013239" data-name="Trazado 1013239" d="M393.846,420.873s106.9-3.622,187.109,0" transform="translate(-386.697 -408.714)" fill="none" stroke="#2e2854" stroke-linecap="round" stroke-linejoin="round" stroke-miterlimit="10" stroke-width="1"/>
              <path id="Trazado_1013240" data-name="Trazado 1013240" d="M583.529,449.661c.547-2.917,1-5.82,1.394-8.715-54.913,13.3-163.964,13.338-193.9,13.077a25.754,25.754,0,0,0,8.106,11.053H574.069A25.377,25.377,0,0,0,583.529,449.661Z" transform="translate(-386.915 -407.041)" fill="#2e2854" opacity="0.15"/>
            </g>
            <g id="Grupo_1160578" data-name="Grupo 1160578" transform="translate(139.733 100.592)">
              <path id="Trazado_1013241" data-name="Trazado 1013241" d="M577.975,435.107c3.083-14.853-4.138-31.281-17.167-39.051a37.45,37.45,0,0,0-42.388,3.231c5.493,2.679,8.636,8.38,11.4,13.831s5.005,11.273,8.924,15.964a27.965,27.965,0,0,0,18.349,9.774C564.161,439.592,571.485,437.473,577.975,435.107Z" transform="translate(-504.955 -387.124)" fill="#2e2854" opacity="0.15"/>
              <path id="Trazado_1013242" data-name="Trazado 1013242" d="M581.977,426.7c1.154-15.125-8.113-30.493-22.029-36.529s-30.94-1.9-41.526,9.391c5.792,1.953,9.54,6.451,12.981,11.5s6.409,10.539,10.9,14.689a27.964,27.964,0,0,0,19.45,7.342C568.852,432.918,575.844,429.879,581.977,426.7Z" transform="translate(-504.954 -387.399)" fill="#49ad9f"/>
              <path id="Trazado_1013243" data-name="Trazado 1013243" d="M505.919,409.777a25.954,25.954,0,0,1,13.467-10.96c7.4-2.664,15.711-2.153,23.14.435s14.044,7.138,19.9,12.388" transform="translate(-505.919 -386.655)" fill="none" stroke="#2e2854" stroke-linecap="round" stroke-linejoin="round" stroke-miterlimit="10" stroke-width="1"/>
            </g>
          </g>
        </g>
        <g id="Grupo_1160586" data-name="Grupo 1160586" transform="translate(0 0)">
          <g id="Grupo_1160581" data-name="Grupo 1160581" transform="translate(272.217 67.271)">
            <path id="Trazado_1013244" data-name="Trazado 1013244" d="M307.2,107.22q.063,4.432.127,8.863" transform="translate(-303.085 -107.22)" fill="none" stroke="#2e2854" stroke-linecap="round" stroke-linejoin="round" stroke-miterlimit="10" stroke-width="1"/>
            <path id="Trazado_1013245" data-name="Trazado 1013245" d="M303.38,111.617l8.226-.191" transform="translate(-303.38 -106.896)" fill="none" stroke="#2e2854" stroke-linecap="round" stroke-linejoin="round" stroke-miterlimit="10" stroke-width="1"/>
          </g>
          <g id="Grupo_1160582" data-name="Grupo 1160582" transform="translate(618.68 398.137)">
            <path id="Trazado_1013246" data-name="Trazado 1013246" d="M628.853,414.388q.063,4.432.127,8.863" transform="translate(-624.733 -414.388)" fill="none" stroke="#2e2854" stroke-linecap="round" stroke-linejoin="round" stroke-miterlimit="10" stroke-width="1"/>
            <path id="Trazado_1013247" data-name="Trazado 1013247" d="M625.028,418.786l8.226-.191" transform="translate(-625.028 -414.063)" fill="none" stroke="#2e2854" stroke-linecap="round" stroke-linejoin="round" stroke-miterlimit="10" stroke-width="1"/>
          </g>
          <g id="Grupo_1160583" data-name="Grupo 1160583" transform="translate(566.724 22.452)">
            <path id="Trazado_1013248" data-name="Trazado 1013248" d="M580.618,65.611q.063,4.432.127,8.863" transform="translate(-576.499 -65.611)" fill="none" stroke="#2e2854" stroke-linecap="round" stroke-linejoin="round" stroke-miterlimit="10" stroke-width="1"/>
            <path id="Trazado_1013249" data-name="Trazado 1013249" d="M576.794,70.009l8.226-.191" transform="translate(-576.794 -65.286)" fill="none" stroke="#2e2854" stroke-linecap="round" stroke-linejoin="round" stroke-miterlimit="10" stroke-width="1"/>
          </g>
          <g id="Grupo_1160584" data-name="Grupo 1160584" transform="translate(23.366 17.197)">
            <path id="Trazado_1013250" data-name="Trazado 1013250" d="M76.178,60.732q.063,4.432.127,8.863" transform="translate(-72.058 -60.732)" fill="none" stroke="#2e2854" stroke-linecap="round" stroke-linejoin="round" stroke-miterlimit="10" stroke-width="1"/>
            <path id="Trazado_1013251" data-name="Trazado 1013251" d="M72.353,65.13l8.226-.191" transform="translate(-72.353 -60.407)" fill="none" stroke="#2e2854" stroke-linecap="round" stroke-linejoin="round" stroke-miterlimit="10" stroke-width="1"/>
          </g>
          <g id="Grupo_1160585" data-name="Grupo 1160585" transform="translate(47.19 420.165)">
            <path id="Trazado_1013252" data-name="Trazado 1013252" d="M98.3,434.838q.063,4.432.127,8.863" transform="translate(-94.176 -434.838)" fill="none" stroke="#2e2854" stroke-linecap="round" stroke-linejoin="round" stroke-miterlimit="10" stroke-width="1"/>
            <path id="Trazado_1013253" data-name="Trazado 1013253" d="M94.471,439.236l8.226-.191" transform="translate(-94.471 -434.514)" fill="none" stroke="#2e2854" stroke-linecap="round" stroke-linejoin="round" stroke-miterlimit="10" stroke-width="1"/>
          </g>
          <path id="Trazado_1013254" data-name="Trazado 1013254" d="M123.307,216.81a4.795,4.795,0,1,0,.976,6.8A4.979,4.979,0,0,0,123.307,216.81Z" transform="translate(-45.639 -31.56)" fill="#fff"/>
          <path id="Trazado_1013255" data-name="Trazado 1013255" d="M521.583,225.59a4.794,4.794,0,1,0,.975,6.8A4.979,4.979,0,0,0,521.583,225.59Z" transform="translate(-14.912 -30.883)" fill="#fff"/>
          <path id="Trazado_1013256" data-name="Trazado 1013256" d="M713.218,325.922a4.795,4.795,0,1,0,.975,6.8A4.979,4.979,0,0,0,713.218,325.922Z" transform="translate(-0.127 -23.142)" fill="#c2e2f2"/>
          <path id="Trazado_1013257" data-name="Trazado 1013257" d="M262.036,45.623a4.795,4.795,0,0,0-5.716,7.7,4.795,4.795,0,1,0,5.716-7.7Z" transform="translate(-34.936 -44.767)" fill="#c2e2f2"/>
          <path id="Trazado_1013258" data-name="Trazado 1013258" d="M109.938,389.141a4.795,4.795,0,1,0,.976,6.8A4.979,4.979,0,0,0,109.938,389.141Z" transform="translate(-46.67 -18.265)" fill="#c2e2f2"/>
          <path id="Trazado_1013259" data-name="Trazado 1013259" d="M58.215,246.888a4.795,4.795,0,1,0,.976,6.8A4.979,4.979,0,0,0,58.215,246.888Z" transform="translate(-50.661 -29.239)" fill="#c2e2f2"/>
          <path id="Trazado_1013260" data-name="Trazado 1013260" d="M654.66,287.422a4.795,4.795,0,1,0,.975,6.8A4.979,4.979,0,0,0,654.66,287.422Z" transform="translate(-4.645 -26.112)" fill="#fff"/>
          <path id="Trazado_1013261" data-name="Trazado 1013261" d="M701.9,179.873a4.795,4.795,0,1,0,.976,6.8A4.979,4.979,0,0,0,701.9,179.873Z" transform="translate(-1.001 -34.41)" fill="#c2e2f2"/>
          <path id="Trazado_1013262" data-name="Trazado 1013262" d="M232.691,62.826a2.74,2.74,0,1,0,.558,3.885A2.846,2.846,0,0,0,232.691,62.826Z" transform="translate(-36.95 -43.411)" fill="#c2e2f2"/>
          <path id="Trazado_1013263" data-name="Trazado 1013263" d="M64.548,272.908a2.74,2.74,0,1,0,.558,3.885A2.847,2.847,0,0,0,64.548,272.908Z" transform="translate(-49.922 -27.204)" fill="#c2e2f2"/>
          <path id="Trazado_1013264" data-name="Trazado 1013264" d="M62.2,364.99a2.74,2.74,0,1,0,.558,3.885A2.846,2.846,0,0,0,62.2,364.99Z" transform="translate(-50.103 -20.1)" fill="#c2e2f2"/>
          <path id="Trazado_1013265" data-name="Trazado 1013265" d="M455.322,47.137a2.74,2.74,0,1,0,.558,3.885A2.847,2.847,0,0,0,455.322,47.137Z" transform="translate(-19.774 -44.622)" fill="#c2e2f2"/>
          <path id="Trazado_1013266" data-name="Trazado 1013266" d="M129.209,81.484a2.74,2.74,0,1,0,.558,3.885A2.846,2.846,0,0,0,129.209,81.484Z" transform="translate(-44.934 -41.972)" fill="#c2e2f2"/>
          <path id="Trazado_1013267" data-name="Trazado 1013267" d="M289.3,168.647a2.74,2.74,0,1,0,.558,3.885A2.846,2.846,0,0,0,289.3,168.647Z" transform="translate(-32.582 -35.247)" fill="#fff"/>
          <path id="Trazado_1013268" data-name="Trazado 1013268" d="M530.344,209.671a2.74,2.74,0,1,0,.558,3.885A2.846,2.846,0,0,0,530.344,209.671Z" transform="translate(-13.986 -32.082)" fill="#fff"/>
          <path id="Trazado_1013269" data-name="Trazado 1013269" d="M498.839,133.505a2.74,2.74,0,1,0,.558,3.885A2.846,2.846,0,0,0,498.839,133.505Z" transform="translate(-16.417 -37.959)" fill="#fff"/>
          <path id="Trazado_1013270" data-name="Trazado 1013270" d="M334.045,78.975a2.74,2.74,0,1,0,.558,3.885A2.846,2.846,0,0,0,334.045,78.975Z" transform="translate(-29.131 -42.166)" fill="#fff"/>
          <path id="Trazado_1013271" data-name="Trazado 1013271" d="M162.938,279.216a2.74,2.74,0,1,0,.558,3.885A2.846,2.846,0,0,0,162.938,279.216Z" transform="translate(-42.332 -26.717)" fill="#fff"/>
          <path id="Trazado_1013272" data-name="Trazado 1013272" d="M594.765,89.176a2.74,2.74,0,1,0,.558,3.885A2.846,2.846,0,0,0,594.765,89.176Z" transform="translate(-9.016 -41.379)" fill="#c2e2f2"/>
          <path id="Trazado_1013273" data-name="Trazado 1013273" d="M660.449,436.484a2.74,2.74,0,1,0,.558,3.885A2.846,2.846,0,0,0,660.449,436.484Z" transform="translate(-3.949 -14.584)" fill="#c2e2f2"/>
          <path id="Trazado_1013274" data-name="Trazado 1013274" d="M663.671,413.547a2.74,2.74,0,1,0,.558,3.885A2.847,2.847,0,0,0,663.671,413.547Z" transform="translate(-3.7 -16.353)" fill="#c2e2f2"/>
          <path id="Trazado_1013275" data-name="Trazado 1013275" d="M683.339,433.975a2.74,2.74,0,1,0,.558,3.885A2.846,2.846,0,0,0,683.339,433.975Z" transform="translate(-2.183 -14.777)" fill="#c2e2f2"/>
          <path id="Trazado_1013276" data-name="Trazado 1013276" d="M119.855,412.006a2.74,2.74,0,1,0,.558,3.885A2.846,2.846,0,0,0,119.855,412.006Z" transform="translate(-45.655 -16.472)" fill="#c2e2f2"/>
        </g>
      </g>
    </g>
  </g>
</svg>
