<svg xmlns="http://www.w3.org/2000/svg" xmlns:xlink="http://www.w3.org/1999/xlink" width="108" height="108" viewBox="0 0 108 108">
  <defs>
    <filter id="Trazado_982547" x="0" y="0" width="108" height="108" filterUnits="userSpaceOnUse">
      <feOffset dy="3" input="SourceAlpha"/>
      <feGaussianBlur stdDeviation="3" result="blur"/>
      <feFlood flood-opacity="0.161"/>
      <feComposite operator="in" in2="blur"/>
      <feComposite in="SourceGraphic"/>
    </filter>
  </defs>
  <g id="Grupo_1160938" data-name="Grupo 1160938" transform="translate(-171 -2188)">
    <g id="Grupo_1158759" data-name="Grupo 1158759" transform="translate(0 -790)">
      <g id="Grupo_1155827" data-name="Grupo 1155827" transform="translate(180 2984)">
        <g id="Grupo_1153134" data-name="Grupo 1153134">
          <g id="Grupo_1149598" data-name="Grupo 1149598">
            <g id="Grupo_1148770" data-name="Grupo 1148770">
              <g id="Grupo_1146954" data-name="Grupo 1146954">
                <g transform="matrix(1, 0, 0, 1, -9, -6)" filter="url(#Trazado_982547)">
                  <g id="Trazado_982547-2" data-name="Trazado 982547" transform="translate(9 6)" fill="#fcf3f0">
                    <path d="M 45 88.5 C 39.12687683105469 88.5 33.43022537231445 87.35007476806641 28.06830024719238 85.08217620849609 C 22.88852500915527 82.89131164550781 18.23629951477051 79.75458526611328 14.2408504486084 75.75914764404297 C 10.24541282653809 71.76370239257812 7.108687400817871 67.11147308349609 4.917825222015381 61.93170166015625 C 2.649924993515015 56.56977462768555 1.5 50.87312316894531 1.5 45 C 1.5 39.12687683105469 2.649924993515015 33.43022537231445 4.917825222015381 28.06830024719238 C 7.108687400817871 22.88852500915527 10.24541282653809 18.23629951477051 14.2408504486084 14.2408504486084 C 18.23629951477051 10.24541282653809 22.88852500915527 7.108687400817871 28.06830024719238 4.917825222015381 C 33.43022537231445 2.649924993515015 39.12687683105469 1.5 45 1.5 C 50.87312316894531 1.5 56.56977462768555 2.649924993515015 61.93170166015625 4.917825222015381 C 67.11147308349609 7.108687400817871 71.76370239257812 10.24541282653809 75.75914764404297 14.2408504486084 C 79.75458526611328 18.23629951477051 82.89131164550781 22.88852500915527 85.08217620849609 28.06830024719238 C 87.35007476806641 33.43022537231445 88.5 39.12687683105469 88.5 45 C 88.5 50.87312316894531 87.35007476806641 56.56977462768555 85.08217620849609 61.93170166015625 C 82.89131164550781 67.11147308349609 79.75458526611328 71.76370239257812 75.75914764404297 75.75914764404297 C 71.76370239257812 79.75458526611328 67.11147308349609 82.89131164550781 61.93170166015625 85.08217620849609 C 56.56977462768555 87.35007476806641 50.87312316894531 88.5 45 88.5 Z" stroke="none"/>
                    <path d="M 45 3 C 39.32871246337891 3 33.82865524291992 4.110054016113281 28.65262985229492 6.299339294433594 C 23.65165710449219 8.414573669433594 19.15968322753906 11.44334411621094 15.301513671875 15.301513671875 C 11.44334411621094 19.15968322753906 8.414573669433594 23.65165710449219 6.299339294433594 28.65262985229492 C 4.110054016113281 33.82865524291992 3 39.32871246337891 3 45 C 3 50.67128753662109 4.110054016113281 56.17134475708008 6.299339294433594 61.34737396240234 C 8.414573669433594 66.34834289550781 11.44334411621094 70.84031677246094 15.301513671875 74.698486328125 C 19.15968322753906 78.55665588378906 23.65165710449219 81.58542633056641 28.65262985229492 83.70066070556641 C 33.82865524291992 85.88994598388672 39.32871246337891 87 45 87 C 50.67128753662109 87 56.17134475708008 85.88994598388672 61.34737396240234 83.70066070556641 C 66.34834289550781 81.58542633056641 70.84031677246094 78.55665588378906 74.698486328125 74.698486328125 C 78.55665588378906 70.84031677246094 81.58542633056641 66.34834289550781 83.70066070556641 61.34737396240234 C 85.88994598388672 56.17134475708008 87 50.67128753662109 87 45 C 87 39.32871246337891 85.88994598388672 33.82865524291992 83.70066070556641 28.65262985229492 C 81.58542633056641 23.65165710449219 78.55665588378906 19.15968322753906 74.698486328125 15.301513671875 C 70.84031677246094 11.44334411621094 66.34834289550781 8.414573669433594 61.34737396240234 6.299339294433594 C 56.17134475708008 4.110054016113281 50.67128753662109 3 45 3 M 45 0 C 69.85281372070312 0 90 20.14718627929688 90 45 C 90 69.85281372070312 69.85281372070312 90 45 90 C 20.14718627929688 90 0 69.85281372070312 0 45 C 0 20.14718627929688 20.14718627929688 0 45 0 Z" stroke="none" fill="#e89076"/>
                  </g>
                </g>
              </g>
            </g>
          </g>
        </g>
      </g>
    </g>
    <g id="Fill_out_line" data-name="Fill out line" transform="translate(181 2195)">
      <g id="Grupo_1160937" data-name="Grupo 1160937" transform="translate(31.021 31.96)">
        <path id="Trazado_1013856" data-name="Trazado 1013856" d="M144,224h3.755v10.327H144Z" transform="translate(-144 -215.551)" fill="#4db7e5"/>
        <path id="Trazado_1013857" data-name="Trazado 1013857" d="M272,232h3.755v13.143H272Z" transform="translate(-256.979 -222.612)" fill="#4db7e5"/>
        <path id="Trazado_1013858" data-name="Trazado 1013858" d="M211.755,216.9V200H208v15.021Z" transform="translate(-200.49 -194.367)" fill="#4db7e5"/>
        <path id="Trazado_1013859" data-name="Trazado 1013859" d="M336,210.327V200h3.755v9.388Z" transform="translate(-313.469 -194.367)" fill="#4db7e5"/>
        <path id="Trazado_1013860" data-name="Trazado 1013860" d="M400,152h3.755v14.082H400Z" transform="translate(-369.958 -152)" fill="#4db7e5"/>
      </g>
      <path id="Trazado_1013861" data-name="Trazado 1013861" d="M120,40.9l2.816,2.816,8.449-8.449,8.449,9.388L153.8,30.572v4.694h3.755V24H146.287v3.755h4.694L139.715,39.021l-8.449-9.388Z" transform="translate(-91.795 -7.061)" fill="#f35244"/>
      <path id="Trazado_1013862" data-name="Trazado 1013862" d="M80,328h3.755v15.96H80Z" transform="translate(-56.49 -275.386)" fill="#4db7e5"/>
      <path id="Trazado_1013863" data-name="Trazado 1013863" d="M328.738,306.828l.65,2.241-8.449,9.388L320,314.7l.587-1.2,2.786-6.189a3.091,3.091,0,0,1,5.365-.483Z" transform="translate(-268.325 -255.517)" fill="#ed908b"/>
      <path id="Trazado_1013864" data-name="Trazado 1013864" d="M341.725,297.783l-7.154,8.093L328,310.57v-2.816s.939-.52.936-.545h0L335.8,298l1.057-1.419a2.722,2.722,0,0,1,4.869,1.2Z" transform="translate(-275.386 -246.69)" fill="#ff9f9b"/>
      <path id="Trazado_1013865" data-name="Trazado 1013865" d="M155.185,309.906l-10.26,10.26a22.665,22.665,0,0,1-32.053,0l-.872-.872v-8.449a6.639,6.639,0,0,1,9.388,0l1.878,1.878H135A3.273,3.273,0,0,1,137,313.4a3.176,3.176,0,0,1,.329.286,3.273,3.273,0,0,1,.96,2.247h0c0,.025,0,.049,0,.075a3.273,3.273,0,0,1-.748,2.086h0a16.9,16.9,0,0,0,5.7-3.751l8.193-8.193a2.655,2.655,0,0,1,3.755,3.755Z" transform="translate(-84.734 -255.414)" fill="#ffdad2"/>
      <path id="Trazado_1013866" data-name="Trazado 1013866" d="M16,312h7.51v20.654H16Z" transform="translate(0 -261.264)" fill="#3086cd"/>
      <path id="Trazado_1013867" data-name="Trazado 1013867" d="M141.633,227.266V216.939a.939.939,0,0,0-.939-.939h-3.755a.939.939,0,0,0-.939.939v10.327h1.878v-9.388h1.878v9.388Z" transform="translate(-105.918 -176.53)"/>
      <path id="Trazado_1013868" data-name="Trazado 1013868" d="M269.633,238.082V224.939a.939.939,0,0,0-.939-.939h-3.755a.939.939,0,0,0-.939.939v13.143h1.878v-12.2h1.878v12.2Z" transform="translate(-218.897 -183.591)"/>
      <path id="Trazado_1013869" data-name="Trazado 1013869" d="M205.633,209.837v-16.9a.939.939,0,0,0-.939-.939h-3.755a.939.939,0,0,0-.939.939V207.96h1.878V193.878h1.878v15.96Z" transform="translate(-162.407 -155.346)"/>
      <path id="Trazado_1013870" data-name="Trazado 1013870" d="M333.633,202.327v-9.388a.939.939,0,0,0-.939-.939h-3.755a.939.939,0,0,0-.939.939v10.327h1.878v-9.388h1.878v8.449Z" transform="translate(-275.386 -155.346)"/>
      <path id="Trazado_1013871" data-name="Trazado 1013871" d="M397.633,159.021V144.939a.939.939,0,0,0-.939-.939h-3.755a.939.939,0,0,0-.939.939v14.082h1.878V145.878h1.878v13.143Z" transform="translate(-331.876 -112.979)"/>
      <path id="Trazado_1013872" data-name="Trazado 1013872" d="M115.092,37.318a.939.939,0,0,0,1.328,0l7.75-7.75,7.787,8.653a.939.939,0,0,0,.673.31h.025a.939.939,0,0,0,.664-.275L145.8,25.777V28.2a.939.939,0,0,0,.939.939h3.755a.939.939,0,0,0,.939-.939V16.939a.939.939,0,0,0-.939-.939H139.226a.939.939,0,0,0-.939.939v3.755a.939.939,0,0,0,.939.939h2.428L132.69,30.6,124.9,21.944a.939.939,0,0,0-1.362-.036L112.275,33.174a.939.939,0,0,0,0,1.328Zm9.077-13.383,7.787,8.653a.939.939,0,0,0,1.362.036l11.266-11.266a.939.939,0,0,0-.664-1.6h-3.755V17.878h9.388v9.388h-1.878V23.51a.939.939,0,0,0-1.6-.664L132.69,36.229,124.9,27.577a.939.939,0,0,0-.673-.31H124.2a.939.939,0,0,0-.664.275l-7.785,7.785-1.489-1.489Z" transform="translate(-84.734)"/>
      <path id="Trazado_1013873" data-name="Trazado 1013873" d="M24.45,311.015v-1.878h2.816a.939.939,0,0,0,.939-.939v-2.46a23.6,23.6,0,0,0,32.65-.7l10.26-10.26a3.594,3.594,0,0,0-4.391-5.624,3.659,3.659,0,0,0-6.007-.2l-.4.534a4.029,4.029,0,0,0-6.127,1.543l-2.367,5.259a4.2,4.2,0,0,0-1.558-.3H38.921l-1.6-1.6a7.59,7.59,0,0,0-9.113-1.222v-.931a.939.939,0,0,0-.939-.939H24.45v-.939a.939.939,0,0,0-.939-.939H16V291.3h6.572v18.776H16v1.878h7.51a.939.939,0,0,0,.939-.939Zm40.119-21.4a1.776,1.776,0,0,1,.719.826l-7.449,7.449a15.882,15.882,0,0,1-3.347,2.561l7.732-10.373a1.777,1.777,0,0,1,2.345-.463ZM55.9,291.8A2.15,2.15,0,0,1,59.2,291l-5.285,7.09a4.247,4.247,0,0,0-.518-.706ZM35.99,295.719l1.878,1.878a.939.939,0,0,0,.664.275H50.267a2.347,2.347,0,0,1,0,4.694H38.532v1.878H50.267a4.213,4.213,0,0,0,3.093-1.351,17.732,17.732,0,0,0,5.806-3.873l8.194-8.194a1.717,1.717,0,0,1,2.428,2.428l-10.26,10.26a21.726,21.726,0,0,1-30.725,0l-.6-.6v-7.652a5.706,5.706,0,0,1,7.785.256Zm-9.663-2.541v14.082H24.45V293.177Z" transform="translate(0 -239.625)"/>
    </g>
  </g>
</svg>
