<svg xmlns="http://www.w3.org/2000/svg" xmlns:xlink="http://www.w3.org/1999/xlink" width="108" height="108" viewBox="0 0 108 108">
  <defs>
    <filter id="Trazado_982547" x="0" y="0" width="108" height="108" filterUnits="userSpaceOnUse">
      <feOffset dy="3" input="SourceAlpha"/>
      <feGaussianBlur stdDeviation="3" result="blur"/>
      <feFlood flood-opacity="0.161"/>
      <feComposite operator="in" in2="blur"/>
      <feComposite in="SourceGraphic"/>
    </filter>
  </defs>
  <g id="Grupo_1160512" data-name="Grupo 1160512" transform="translate(-611 -2577)">
    <g id="Grupo_1158624" data-name="Grupo 1158624" transform="translate(0 2113)">
      <g id="Grupo_1155790" data-name="Grupo 1155790" transform="translate(-5 -3446)">
        <g id="Grupo_1153177" data-name="Grupo 1153177" transform="translate(362 3397)">
          <g id="Grupo_1149598" data-name="Grupo 1149598" transform="translate(80 315)">
            <g id="Grupo_1148770" data-name="Grupo 1148770" transform="translate(-27 -2583)">
              <g id="Grupo_1146954" data-name="Grupo 1146954" transform="translate(-415 -1202)">
                <g transform="matrix(1, 0, 0, 1, 616, 3983)" filter="url(#Trazado_982547)">
                  <g id="Trazado_982547-2" data-name="Trazado 982547" transform="translate(9 6)" fill="#fcf3f0">
                    <path d="M 45 88.5 C 39.12687683105469 88.5 33.43022537231445 87.35007476806641 28.06830024719238 85.08217620849609 C 22.88852500915527 82.89131164550781 18.23629951477051 79.75458526611328 14.2408504486084 75.75914764404297 C 10.24541282653809 71.76370239257812 7.108687400817871 67.11147308349609 4.917825222015381 61.93170166015625 C 2.649924993515015 56.56977462768555 1.5 50.87312316894531 1.5 45 C 1.5 39.12687683105469 2.649924993515015 33.43022537231445 4.917825222015381 28.06830024719238 C 7.108687400817871 22.88852500915527 10.24541282653809 18.23629951477051 14.2408504486084 14.2408504486084 C 18.23629951477051 10.24541282653809 22.88852500915527 7.108687400817871 28.06830024719238 4.917825222015381 C 33.43022537231445 2.649924993515015 39.12687683105469 1.5 45 1.5 C 50.87312316894531 1.5 56.56977462768555 2.649924993515015 61.93170166015625 4.917825222015381 C 67.11147308349609 7.108687400817871 71.76370239257812 10.24541282653809 75.75914764404297 14.2408504486084 C 79.75458526611328 18.23629951477051 82.89131164550781 22.88852500915527 85.08217620849609 28.06830024719238 C 87.35007476806641 33.43022537231445 88.5 39.12687683105469 88.5 45 C 88.5 50.87312316894531 87.35007476806641 56.56977462768555 85.08217620849609 61.93170166015625 C 82.89131164550781 67.11147308349609 79.75458526611328 71.76370239257812 75.75914764404297 75.75914764404297 C 71.76370239257812 79.75458526611328 67.11147308349609 82.89131164550781 61.93170166015625 85.08217620849609 C 56.56977462768555 87.35007476806641 50.87312316894531 88.5 45 88.5 Z" stroke="none"/>
                    <path d="M 45 3 C 39.32871246337891 3 33.82865524291992 4.110054016113281 28.65262985229492 6.299339294433594 C 23.65165710449219 8.414573669433594 19.15968322753906 11.44334411621094 15.301513671875 15.301513671875 C 11.44334411621094 19.15968322753906 8.414573669433594 23.65165710449219 6.299339294433594 28.65262985229492 C 4.110054016113281 33.82865524291992 3 39.32871246337891 3 45 C 3 50.67128753662109 4.110054016113281 56.17134475708008 6.299339294433594 61.34737396240234 C 8.414573669433594 66.34834289550781 11.44334411621094 70.84031677246094 15.301513671875 74.698486328125 C 19.15968322753906 78.55665588378906 23.65165710449219 81.58542633056641 28.65262985229492 83.70066070556641 C 33.82865524291992 85.88994598388672 39.32871246337891 87 45 87 C 50.67128753662109 87 56.17134475708008 85.88994598388672 61.34737396240234 83.70066070556641 C 66.34834289550781 81.58542633056641 70.84031677246094 78.55665588378906 74.698486328125 74.698486328125 C 78.55665588378906 70.84031677246094 81.58542633056641 66.34834289550781 83.70066070556641 61.34737396240234 C 85.88994598388672 56.17134475708008 87 50.67128753662109 87 45 C 87 39.32871246337891 85.88994598388672 33.82865524291992 83.70066070556641 28.65262985229492 C 81.58542633056641 23.65165710449219 78.55665588378906 19.15968322753906 74.698486328125 15.301513671875 C 70.84031677246094 11.44334411621094 66.34834289550781 8.414573669433594 61.34737396240234 6.299339294433594 C 56.17134475708008 4.110054016113281 50.67128753662109 3 45 3 M 45 0 C 69.85281372070312 0 90 20.14718627929688 90 45 C 90 69.85281372070312 69.85281372070312 90 45 90 C 20.14718627929688 90 0 69.85281372070312 0 45 C 0 20.14718627929688 20.14718627929688 0 45 0 Z" stroke="none" fill="#e89076"/>
                  </g>
                </g>
              </g>
            </g>
          </g>
        </g>
      </g>
    </g>
    <g id="Artboard21" transform="translate(590.387 2589)">
      <g id="Grupo_1160511" data-name="Grupo 1160511" transform="translate(52.613 7)">
        <g id="Grupo_1160510" data-name="Grupo 1160510" transform="translate(1.027 0.983)">
          <g id="Grupo_1160507" data-name="Grupo 1160507" transform="translate(0 11.497)">
            <g id="Grupo_1160503" data-name="Grupo 1160503">
              <g id="CorelEMF">
                <path id="Trazado_1013080" data-name="Trazado 1013080" d="M61.757,104.23H91.68a1.1,1.1,0,0,1,.806.334l5.43,5.43a1.1,1.1,0,0,1,.334.807v41.068a1.14,1.14,0,0,1-1.138,1.138H61.757a1.141,1.141,0,0,1-1.141-1.138v-46.5A1.143,1.143,0,0,1,61.757,104.23Z" transform="translate(-60.616 -104.23)" fill="#eceff1" fill-rule="evenodd"/>
                <path id="Trazado_1013081" data-name="Trazado 1013081" d="M306.3,104.993v5.43a.572.572,0,0,0,.57.57h5.43a1.144,1.144,0,0,0-.236-.334l-5.43-5.43A1.2,1.2,0,0,0,306.3,104.993Z" transform="translate(-274.768 -104.895)" fill="#a79ba7" fill-rule="evenodd"/>
                <path id="Trazado_1013082" data-name="Trazado 1013082" d="M61.757,104.23h1.138v48.777H61.757a1.141,1.141,0,0,1-1.141-1.138v-46.5A1.143,1.143,0,0,1,61.757,104.23Z" transform="translate(-60.616 -104.23)" fill="#d1d1d6" fill-rule="evenodd"/>
              </g>
            </g>
            <g id="Grupo_1160504" data-name="Grupo 1160504" transform="translate(6.774 12.486)">
              <path id="Trazado_1013083" data-name="Trazado 1013083" d="M114.219,201.5h6.367a.833.833,0,0,1,.831.831V208.7a.833.833,0,0,1-.831.831h-6.367a.833.833,0,0,1-.831-.831v-6.367A.833.833,0,0,1,114.219,201.5Z" transform="translate(-113.388 -201.5)" fill="#8ac9fe" fill-rule="evenodd"/>
              <path id="Trazado_1013084" data-name="Trazado 1013084" d="M161.462,201.5h1.027a.833.833,0,0,1,.831.831V208.7a.833.833,0,0,1-.831.831h-1.027a.833.833,0,0,0,.831-.831v-6.367A.833.833,0,0,0,161.462,201.5Z" transform="translate(-155.291 -201.5)" fill="#60b7ff" fill-rule="evenodd"/>
            </g>
            <g id="Grupo_1160505" data-name="Grupo 1160505" transform="translate(6.774 23.945)">
              <path id="Trazado_1013085" data-name="Trazado 1013085" d="M114.219,290.779h6.367a.833.833,0,0,1,.831.831v6.367a.833.833,0,0,1-.831.831h-6.367a.833.833,0,0,1-.831-.831V291.61A.833.833,0,0,1,114.219,290.779Z" transform="translate(-113.388 -290.779)" fill="#6cf5c2" fill-rule="evenodd"/>
              <path id="Trazado_1013086" data-name="Trazado 1013086" d="M161.462,290.779h1.027a.833.833,0,0,1,.831.831v6.367a.833.833,0,0,1-.831.831h-1.027a.833.833,0,0,0,.831-.831V291.61A.833.833,0,0,0,161.462,290.779Z" transform="translate(-155.291 -290.779)" fill="#00e499" fill-rule="evenodd"/>
            </g>
            <g id="Grupo_1160506" data-name="Grupo 1160506" transform="translate(6.774 35.405)">
              <path id="Trazado_1013087" data-name="Trazado 1013087" d="M114.219,380.058h6.367a.835.835,0,0,1,.831.833v6.367a.833.833,0,0,1-.831.831h-6.367a.833.833,0,0,1-.831-.831v-6.367A.835.835,0,0,1,114.219,380.058Z" transform="translate(-113.388 -380.058)" fill="#ffe177" fill-rule="evenodd"/>
              <path id="Trazado_1013088" data-name="Trazado 1013088" d="M161.462,380.058h1.027a.835.835,0,0,1,.831.833v6.367a.833.833,0,0,1-.831.831h-1.027a.833.833,0,0,0,.831-.831v-6.367A.835.835,0,0,0,161.462,380.058Z" transform="translate(-155.291 -380.058)" fill="#ffd064" fill-rule="evenodd"/>
            </g>
          </g>
          <g id="Grupo_1160508" data-name="Grupo 1160508" transform="translate(22.314 34.141)">
            <path id="Trazado_1013089" data-name="Trazado 1013089" d="M246.881,326.605a12.424,12.424,0,1,0-12.425-12.425A12.449,12.449,0,0,0,246.881,326.605Z" transform="translate(-234.456 -299.046)" fill="#fe646f" fill-rule="evenodd"/>
            <path id="Trazado_1013090" data-name="Trazado 1013090" d="M325.533,301.757a12.424,12.424,0,1,1,0,24.848c-.284,0-.564-.009-.843-.029a12.424,12.424,0,0,0,0-24.791C324.969,301.767,325.249,301.757,325.533,301.757Z" transform="translate(-313.108 -299.046)" fill="#fd4755" fill-rule="evenodd"/>
            <path id="Trazado_1013091" data-name="Trazado 1013091" d="M277.035,352.319a7.984,7.984,0,1,0-7.984-7.984A8,8,0,0,0,277.035,352.319Z" transform="translate(-264.61 -329.201)" fill="#eceff1" fill-rule="evenodd"/>
            <path id="Trazado_1013092" data-name="Trazado 1013092" d="M277.035,336.352c.189,0,.376.006.562.019a7.984,7.984,0,0,0,0,15.929c-.186.013-.373.019-.562.019a7.984,7.984,0,1,1,0-15.967Z" transform="translate(-264.61 -329.201)" fill="#d1d1d6" fill-rule="evenodd"/>
            <path id="Trazado_1013093" data-name="Trazado 1013093" d="M307.189,378.032a3.543,3.543,0,1,0-3.544-3.544A3.551,3.551,0,0,0,307.189,378.032Z" transform="translate(-294.764 -359.354)" fill="#fe646f" fill-rule="evenodd"/>
            <path id="Trazado_1013094" data-name="Trazado 1013094" d="M307.189,370.946a3.543,3.543,0,1,0,0,7.086,3.447,3.447,0,0,0,.562-.045,3.543,3.543,0,0,1,0-7,3.447,3.447,0,0,0-.562-.045Z" transform="translate(-294.764 -359.354)" fill="#fd4755" fill-rule="evenodd"/>
            <path id="Trazado_1013095" data-name="Trazado 1013095" d="M386.4,285.377l-4.359,4.361a.549.549,0,0,1-.516.151l-3.53-.761-.761-3.53a.546.546,0,0,1,.153-.516l4.359-4.359a.281.281,0,0,1,.473.14l.717,3.324,3.324.717a.28.28,0,0,1,.14.473Z" transform="translate(-358.895 -280.64)" fill="#e3a76f" fill-rule="evenodd"/>
            <path id="Trazado_1013096" data-name="Trazado 1013096" d="M390.31,313.485l-4.359,4.361a.549.549,0,0,1-.516.151l-3.53-.761-.2-.924,3.375.728a.551.551,0,0,0,.516-.153l4-4,.575.124a.28.28,0,0,1,.14.473Z" transform="translate(-362.805 -308.749)" fill="#c48958" fill-rule="evenodd"/>
          </g>
          <g id="Grupo_1160509" data-name="Grupo 1160509" transform="translate(5.622)">
            <path id="Trazado_1013097" data-name="Trazado 1013097" d="M117.055,16.407A8.988,8.988,0,0,1,119.69,17.5l1.713-.76,2.018,2.018-.76,1.713a8.988,8.988,0,0,1,1.092,2.635l1.747.673v2.855l-1.747.673a9,9,0,0,1-1.092,2.634l.76,1.713L121.4,33.671l-1.713-.761A8.991,8.991,0,0,1,117.055,34l-.673,1.746h-2.855L112.855,34a9,9,0,0,1-2.634-1.092l-1.713.761-2.019-2.019.761-1.711a9.02,9.02,0,0,1-1.093-2.635l-1.746-.673V23.778l1.746-.673a8.991,8.991,0,0,1,1.093-2.635l-.761-1.713,2.019-2.018,1.711.76a9.018,9.018,0,0,1,2.635-1.092l.672-1.747h2.855Z" transform="translate(-104.411 -14.66)" fill="#ffe177" fill-rule="evenodd"/>
            <path id="Trazado_1013098" data-name="Trazado 1013098" d="M146.918,17l.575-.255,2.018,2.018-.76,1.713a8.988,8.988,0,0,1,1.092,2.635l1.747.673v2.855l-1.747.673a8.995,8.995,0,0,1-1.092,2.634l.76,1.713-2.018,2.019-.575-.255,1.764-1.764-.761-1.713a9,9,0,0,0,1.092-2.634l1.747-.673V23.778l-1.747-.673a8.988,8.988,0,0,0-1.092-2.635l.761-1.713Zm-12.574,0,.255-.255,1.711.76c-.121.067-.24.137-.357.211Zm8.8-.588a8.988,8.988,0,0,1,2.635,1.092l-.472.211a11.761,11.761,0,0,0-2.994-1.3l-.673-1.747h.831Zm-6.834,16.5-1.713.761-.255-.255,1.609-.715Q136.129,32.809,136.312,32.91Zm9.469,0A8.991,8.991,0,0,1,143.146,34l-.673,1.746h-.831L142.315,34a11.789,11.789,0,0,0,3-1.3Z" transform="translate(-130.502 -14.66)" fill="#ffd064" fill-rule="evenodd"/>
            <path id="Trazado_1013099" data-name="Trazado 1013099" d="M151.463,56.544a5.168,5.168,0,1,1-5.168,5.169A5.169,5.169,0,0,1,151.463,56.544Z" transform="translate(-140.919 -51.168)" fill="#eceff1" fill-rule="evenodd"/>
            <path id="Trazado_1013100" data-name="Trazado 1013100" d="M151.463,56.544c.118,0,.234,0,.351.013a5.168,5.168,0,0,0,0,10.313c-.117.007-.233.012-.351.012a5.168,5.168,0,0,1,0-10.337Z" transform="translate(-140.919 -51.168)" fill="#d1d1d6" fill-rule="evenodd"/>
          </g>
        </g>
        <path id="Trazado_1013101" data-name="Trazado 1013101" d="M82.387,69.3H53.606a.993.993,0,0,1-.993-.993V19.528a.993.993,0,0,1,.993-.993H58.2V17.148a1.027,1.027,0,0,1,.658-.958l1.26-.485a10.058,10.058,0,0,1,.8-1.928l-.549-1.235a1.027,1.027,0,0,1,.212-1.143L62.6,9.381a1.027,1.027,0,0,1,1.143-.212l1.235.549a10,10,0,0,1,1.926-.8l.487-1.263A1.027,1.027,0,0,1,68.345,7H71.2a1.027,1.027,0,0,1,.959.659l.485,1.262a10,10,0,0,1,1.925.8L75.8,9.169a1.027,1.027,0,0,1,1.143.212L78.963,11.4a1.027,1.027,0,0,1,.213,1.142l-.547,1.235a9.981,9.981,0,0,1,.8,1.929l1.259.485a1.027,1.027,0,0,1,.658.958v1.387h3.8a.993.993,0,0,1,.7.291l6.1,6.1a.993.993,0,0,1,.291.7v19a13.235,13.235,0,0,1,1.93.777l4.044-4.047a1.027,1.027,0,0,1,1.73.51l.421,1.954a1.027,1.027,0,0,1,1.446,1.446l1.954.421a1.027,1.027,0,0,1,.51,1.73l-4.055,4.056A13.314,13.314,0,0,1,82.387,69.3ZM58.338,20.52H54.6V67.312H79.436a13.386,13.386,0,0,1-3.8-5.722h-2.15a.993.993,0,0,1,0-1.986h1.646q-.111-.645-.159-1.309H73.482a.993.993,0,1,1,0-1.986h1.494a13.23,13.23,0,0,1,2.093-6.182H73.482a.993.993,0,1,1,0-1.986H78.64a13.46,13.46,0,0,1,1.449-1.309H73.482a.993.993,0,0,1,0-1.986H83.649a13.325,13.325,0,0,1,6.6-.675V26.62H85.142a.993.993,0,0,1-.993-.993V20.52H81.2a1.025,1.025,0,0,1-.517.44l-1.259.485a10.084,10.084,0,0,1-.8,1.925l.548,1.236a1.027,1.027,0,0,1-.213,1.142l-2.017,2.017a1.027,1.027,0,0,1-1.142.213l-1.235-.547a9.973,9.973,0,0,1-1.927.8l-.485,1.259a1.027,1.027,0,0,1-.958.658H68.345a1.027,1.027,0,0,1-.958-.658L66.9,28.23a10.066,10.066,0,0,1-1.928-.8l-1.236.548a1.027,1.027,0,0,1-1.142-.213l-2.017-2.017a1.027,1.027,0,0,1-.212-1.143l.549-1.234a10.054,10.054,0,0,1-.8-1.926l-1.261-.485a1.025,1.025,0,0,1-.517-.44Zm30.506,4.113-2.709-2.709v2.709Zm4.189,22.508a11.277,11.277,0,1,0,5.439,5.452l-.034-.007-3.1-.668a8.942,8.942,0,1,1-1.632-1.638l-.666-3.087C93.039,47.177,93.035,47.159,93.033,47.142Zm5.6-1.594-.3-1.4-3.16,3.162.3,1.4ZM96.922,50.16l1.4.3,3.16-3.16-1.4-.3ZM92.35,51.827A6.885,6.885,0,1,0,93.8,53.284l-1.681,1.681a4.533,4.533,0,1,1-1.446-1.459Zm-3.2,3.2a2.478,2.478,0,1,0,1.44,1.465L89,58.085a1.027,1.027,0,0,1-1.452-1.452ZM70.913,10.145l-.419-1.092H69.05l-.422,1.093a1.027,1.027,0,0,1-.721.629,7.949,7.949,0,0,0-2.334.967,1.027,1.027,0,0,1-.956.064l-1.068-.475-1.02,1.02L63,13.42a1.027,1.027,0,0,1-.064.956,8.019,8.019,0,0,0-.971,2.339,1.027,1.027,0,0,1-.63.719l-1.089.419V19.3l1.089.419a1.027,1.027,0,0,1,.629.718,8,8,0,0,0,.97,2.336,1.027,1.027,0,0,1,.065.957l-.475,1.068,1.02,1.021,1.069-.473a1.027,1.027,0,0,1,.952.063,8.009,8.009,0,0,0,2.338.968,1.027,1.027,0,0,1,.722.63l.419,1.089h1.443L70.913,27a1.027,1.027,0,0,1,.721-.63,7.91,7.91,0,0,0,2.333-.966,1.027,1.027,0,0,1,.956-.065l1.069.473,1.021-1.021-.473-1.069a1.027,1.027,0,0,1,.063-.952,8.027,8.027,0,0,0,.969-2.336,1.027,1.027,0,0,1,.63-.721L79.29,19.3V17.853L78.2,17.434a1.026,1.026,0,0,1-.63-.722,7.935,7.935,0,0,0-.967-2.336,1.027,1.027,0,0,1-.065-.955l.473-1.069-1.02-1.021-1.068.475a1.027,1.027,0,0,1-.956-.064,7.947,7.947,0,0,0-2.334-.967,1.027,1.027,0,0,1-.721-.631Zm-1.142,2.424a6.006,6.006,0,1,1-6,6,6,6,0,0,1,6-6Zm0,2.054a3.952,3.952,0,1,0,3.953,3.95,3.949,3.949,0,0,0-3.953-3.95Zm-8.56,16.4h6.367A1.828,1.828,0,0,1,69.4,32.844v6.367a1.828,1.828,0,0,1-1.824,1.824H61.211a1.828,1.828,0,0,1-1.824-1.824V32.844A1.828,1.828,0,0,1,61.211,31.02Zm.162,1.986v6.042h6.042V33.006ZM62,36.566a.993.993,0,1,1,1.4-1.406l.616.615,1.3-1.6a.993.993,0,0,1,1.544,1.249l-1.99,2.461a.993.993,0,0,1-1.474.079ZM61.211,53.94h6.367A1.832,1.832,0,0,1,69.4,55.766v6.367a1.828,1.828,0,0,1-1.824,1.824H61.211a1.828,1.828,0,0,1-1.824-1.824V55.766A1.832,1.832,0,0,1,61.211,53.94Zm.162,1.986v6.045h6.042V55.926ZM62,59.488a.993.993,0,1,1,1.4-1.406l.616.615,1.3-1.6a.993.993,0,0,1,1.544,1.249L64.868,60.8a.993.993,0,0,1-1.474.079Zm11.484-20.82a.993.993,0,1,1,0-1.986h6.785a.993.993,0,1,1,0,1.986ZM61.211,42.48h6.367A1.828,1.828,0,0,1,69.4,44.3v6.367a1.828,1.828,0,0,1-1.824,1.824H61.211a1.828,1.828,0,0,1-1.824-1.824V44.3A1.828,1.828,0,0,1,61.211,42.48Zm.162,1.986v6.042h6.042V44.466ZM62,48.025a.993.993,0,1,1,1.4-1.4l.616.616,1.3-1.6a.993.993,0,0,1,1.544,1.249l-1.99,2.462a.993.993,0,0,1-1.474.078ZM73.482,35.373a.993.993,0,0,1,0-1.986H83.9a.993.993,0,0,1,0,1.986Z" transform="translate(-52.613 -7)" fill-rule="evenodd"/>
      </g>
    </g>
  </g>
</svg>
