<svg xmlns="http://www.w3.org/2000/svg" xmlns:xlink="http://www.w3.org/1999/xlink" width="525.015" height="344.559" viewBox="0 0 525.015 344.559">
  <defs>
    <filter id="Rectángulo_409638" x="38.989" y="0" width="134.032" height="200.986" filterUnits="userSpaceOnUse">
      <feOffset dy="3" input="SourceAlpha"/>
      <feGaussianBlur stdDeviation="3" result="blur"/>
      <feFlood flood-opacity="0.161"/>
      <feComposite operator="in" in2="blur"/>
      <feComposite in="SourceGraphic"/>
    </filter>
    <filter id="Rectángulo_409638-2" x="351.994" y="143.573" width="134.032" height="200.986" filterUnits="userSpaceOnUse">
      <feOffset dy="3" input="SourceAlpha"/>
      <feGaussianBlur stdDeviation="3" result="blur-2"/>
      <feFlood flood-opacity="0.161"/>
      <feComposite operator="in" in2="blur-2"/>
      <feComposite in="SourceGraphic"/>
    </filter>
  </defs>
  <g id="Grupo_1161099" data-name="Grupo 1161099" transform="translate(-528 -3728.207)">
    <g id="Grupo_1154845" data-name="Grupo 1154845" transform="translate(740.015 3734.207) rotate(90)">
      <g transform="matrix(0, -1, 1, 0, -6, 212.02)" filter="url(#Rectángulo_409638)">
        <rect id="Rectángulo_409638-3" data-name="Rectángulo 409638" width="182.986" height="116.032" transform="translate(164.02 6) rotate(90)" fill="#88bba9"/>
      </g>
      <path id="Trazado_991350" data-name="Trazado 991350" d="M268.405,227.706H180.473l74.181,106.01L180.473,439.721h87.932L342.59,333.716Z" transform="translate(-105.031 -227.706)" fill="#88bba9"/>
    </g>
    <g id="Grupo_1154847" data-name="Grupo 1154847" transform="translate(841 4060.766) rotate(-90)">
      <g transform="matrix(0, 1, -1, 0, 332.56, -313)" filter="url(#Rectángulo_409638-2)">
        <rect id="Rectángulo_409638-4" data-name="Rectángulo 409638" width="182.986" height="116.032" transform="translate(360.99 332.56) rotate(-90)" fill="#e89076"/>
      </g>
      <path id="Trazado_991350-2" data-name="Trazado 991350" d="M268.405,227.706H180.473l74.181,106.01L180.473,439.721h87.932L342.59,333.716Z" transform="translate(-105.031 -227.706)" fill="#e89076"/>
    </g>
    <path id="Contenido" d="M8.956,11.337H4.184L3.287,14H.457L5.08,1.045H8.139L12.727,14H9.791ZM8.2,9.1l-1.617-5.1L4.913,9.1Zm10.477-2.83a1.744,1.744,0,0,0-1.749,1.081,3.713,3.713,0,0,0-.246,1.459V14h-2.5V4.438H16.6v1.4a4.252,4.252,0,0,1,.914-1.063,3.177,3.177,0,0,1,1.96-.58,3.7,3.7,0,0,1,2.43.778,3.163,3.163,0,0,1,.945,2.58V14H20.285V8.173a2.659,2.659,0,0,0-.2-1.16A1.422,1.422,0,0,0,18.677,6.274Zm6.847-.817a4.09,4.09,0,0,1,3.41-1.266,6.059,6.059,0,0,1,2.795.624A2.4,2.4,0,0,1,32.95,7.171v4.395q0,.457.018,1.107a1.392,1.392,0,0,0,.149.668.9.9,0,0,0,.369.29V14H30.762a2.79,2.79,0,0,1-.158-.545q-.044-.255-.07-.58a5.146,5.146,0,0,1-1.2.958,3.6,3.6,0,0,1-1.828.466,3.143,3.143,0,0,1-2.149-.743,2.649,2.649,0,0,1-.848-2.1,2.732,2.732,0,0,1,1.362-2.558,6.049,6.049,0,0,1,2.2-.615l.853-.105a3.91,3.91,0,0,0,.993-.22.753.753,0,0,0,.536-.712.845.845,0,0,0-.409-.813,2.553,2.553,0,0,0-1.2-.224,1.563,1.563,0,0,0-1.257.439,1.827,1.827,0,0,0-.352.879H24.82A3.676,3.676,0,0,1,25.523,5.457Zm1.863,6.732a1.309,1.309,0,0,0,.861.29A2.551,2.551,0,0,0,29.738,12a2.024,2.024,0,0,0,.708-1.731V9.342a2.722,2.722,0,0,1-.479.242,4.006,4.006,0,0,1-.664.171l-.562.105a3.632,3.632,0,0,0-1.134.343,1.149,1.149,0,0,0-.58,1.063A1.1,1.1,0,0,0,27.387,12.189Zm.185-9.062L29.259.5h2.795L29.382,3.128Zm7.655-2.083h2.5V14h-2.5ZM42.75,4.42V14H40.21V4.42Zm0-3.454V3.277H40.21V.966Zm9.026,3.894a3.086,3.086,0,0,1,1.292,2.479h-2.5a1.482,1.482,0,0,0-.272-.765,1.714,1.714,0,0,0-1.406-.51,2.021,2.021,0,0,0-1.165.255.734.734,0,0,0-.347.6.654.654,0,0,0,.369.624,15.98,15.98,0,0,0,2.61.694A4.8,4.8,0,0,1,52.594,9.3a2.415,2.415,0,0,1,.738,1.8,2.911,2.911,0,0,1-1.059,2.325,4.976,4.976,0,0,1-3.274.9,4.929,4.929,0,0,1-3.335-.954,3.1,3.1,0,0,1-1.077-2.43h2.54a1.673,1.673,0,0,0,.343.949,2.317,2.317,0,0,0,1.723.5,2.626,2.626,0,0,0,1.173-.22.737.737,0,0,0,.083-1.3,14.3,14.3,0,0,0-2.61-.756A5.437,5.437,0,0,1,45.545,9.1a2.191,2.191,0,0,1-.668-1.723A2.988,2.988,0,0,1,45.918,5.1a4.183,4.183,0,0,1,2.931-.954A5.427,5.427,0,0,1,51.776,4.859Zm5.985-.439V14h-2.54V4.42Zm0-3.454V3.277h-2.54V.966Zm9.026,3.894A3.086,3.086,0,0,1,68.08,7.338h-2.5a1.482,1.482,0,0,0-.272-.765,1.714,1.714,0,0,0-1.406-.51,2.021,2.021,0,0,0-1.165.255.734.734,0,0,0-.347.6.654.654,0,0,0,.369.624,15.98,15.98,0,0,0,2.61.694A4.8,4.8,0,0,1,67.605,9.3a2.415,2.415,0,0,1,.738,1.8,2.911,2.911,0,0,1-1.059,2.325,4.976,4.976,0,0,1-3.274.9,4.929,4.929,0,0,1-3.335-.954,3.1,3.1,0,0,1-1.077-2.43h2.54a1.673,1.673,0,0,0,.343.949,2.317,2.317,0,0,0,1.723.5,2.626,2.626,0,0,0,1.173-.22.737.737,0,0,0,.083-1.3,14.3,14.3,0,0,0-2.61-.756A5.437,5.437,0,0,1,60.557,9.1a2.191,2.191,0,0,1-.668-1.723A2.988,2.988,0,0,1,60.93,5.1a4.183,4.183,0,0,1,2.931-.954A5.427,5.427,0,0,1,66.788,4.859ZM77.774,4.42V14h-2.54V4.42Zm0-3.454V3.277h-2.54V.966Zm6.935,5.309A1.744,1.744,0,0,0,82.96,7.355a3.713,3.713,0,0,0-.246,1.459V14h-2.5V4.438h2.417v1.4a4.252,4.252,0,0,1,.914-1.063,3.177,3.177,0,0,1,1.96-.58,3.7,3.7,0,0,1,2.43.778,3.163,3.163,0,0,1,.945,2.58V14H86.317V8.173a2.659,2.659,0,0,0-.2-1.16A1.422,1.422,0,0,0,84.709,6.274Zm10.872,5.941v1.872l-1.187.044a3.184,3.184,0,0,1-2.426-.615,1.832,1.832,0,0,1-.422-1.327v-5.9H90.211V4.508h1.336V1.836h2.479V4.508h1.556V6.292H94.025v5.063a1.14,1.14,0,0,0,.149.734,1.645,1.645,0,0,0,.914.145q.114,0,.242,0T95.581,12.216Zm9.809-1.028a3.178,3.178,0,0,1-.888,1.731,4.349,4.349,0,0,1-3.445,1.4,4.858,4.858,0,0,1-3.226-1.178,4.75,4.75,0,0,1-1.4-3.832,5.326,5.326,0,0,1,1.261-3.814,4.312,4.312,0,0,1,3.274-1.327,5.021,5.021,0,0,1,2.153.448A3.772,3.772,0,0,1,104.7,6.028a4.828,4.828,0,0,1,.729,1.978,12.771,12.771,0,0,1,.079,1.9H98.956a2.381,2.381,0,0,0,.905,2.021,2.132,2.132,0,0,0,1.248.36,1.8,1.8,0,0,0,1.257-.439,2.087,2.087,0,0,0,.466-.659Zm-2.479-2.936a2.181,2.181,0,0,0-.6-1.507,1.87,1.87,0,0,0-1.34-.514,1.7,1.7,0,0,0-1.349.545,2.72,2.72,0,0,0-.6,1.477Zm9.105-1.521a2.078,2.078,0,0,0-2.03.984,3.829,3.829,0,0,0-.29,1.705V14h-2.522V4.42h2.391V6.09a5.3,5.3,0,0,1,1.011-1.31,2.752,2.752,0,0,1,1.828-.589q.07,0,.119,0l.215.013V6.775q-.237-.026-.422-.035T112.017,6.731Zm6.7-.457a1.744,1.744,0,0,0-1.749,1.081,3.713,3.713,0,0,0-.246,1.459V14h-2.5V4.438h2.417v1.4a4.252,4.252,0,0,1,.914-1.063,3.177,3.177,0,0,1,1.96-.58,3.7,3.7,0,0,1,2.43.778,3.163,3.163,0,0,1,.945,2.58V14h-2.566V8.173a2.659,2.659,0,0,0-.2-1.16A1.422,1.422,0,0,0,118.714,6.274Zm14.476-.642A5.59,5.59,0,0,1,134.4,9.228a5.553,5.553,0,0,1-1.213,3.608,5.274,5.274,0,0,1-7.365,0,5.553,5.553,0,0,1-1.213-3.608,5.59,5.59,0,0,1,1.213-3.595,5.22,5.22,0,0,1,7.365,0Zm-3.691.6a2,2,0,0,0-1.692.778,3.6,3.6,0,0,0-.593,2.219,3.619,3.619,0,0,0,.593,2.224,2.216,2.216,0,0,0,3.379,0,3.639,3.639,0,0,0,.589-2.224,3.619,3.619,0,0,0-.589-2.219A1.99,1.99,0,0,0,129.5,6.23Z" transform="translate(877 3734)" fill="#212429"/>
    <path id="Contenido-2" data-name="Contenido" d="M8.956,11.337H4.184L3.287,14H.457L5.08,1.045H8.139L12.727,14H9.791ZM8.2,9.1l-1.617-5.1L4.913,9.1Zm10.477-2.83a1.744,1.744,0,0,0-1.749,1.081,3.713,3.713,0,0,0-.246,1.459V14h-2.5V4.438H16.6v1.4a4.252,4.252,0,0,1,.914-1.063,3.177,3.177,0,0,1,1.96-.58,3.7,3.7,0,0,1,2.43.778,3.163,3.163,0,0,1,.945,2.58V14H20.285V8.173a2.659,2.659,0,0,0-.2-1.16A1.422,1.422,0,0,0,18.677,6.274Zm6.847-.817a4.09,4.09,0,0,1,3.41-1.266,6.059,6.059,0,0,1,2.795.624A2.4,2.4,0,0,1,32.95,7.171v4.395q0,.457.018,1.107a1.392,1.392,0,0,0,.149.668.9.9,0,0,0,.369.29V14H30.762a2.79,2.79,0,0,1-.158-.545q-.044-.255-.07-.58a5.146,5.146,0,0,1-1.2.958,3.6,3.6,0,0,1-1.828.466,3.143,3.143,0,0,1-2.149-.743,2.649,2.649,0,0,1-.848-2.1,2.732,2.732,0,0,1,1.362-2.558,6.049,6.049,0,0,1,2.2-.615l.853-.105a3.91,3.91,0,0,0,.993-.22.753.753,0,0,0,.536-.712.845.845,0,0,0-.409-.813,2.553,2.553,0,0,0-1.2-.224,1.563,1.563,0,0,0-1.257.439,1.827,1.827,0,0,0-.352.879H24.82A3.676,3.676,0,0,1,25.523,5.457Zm1.863,6.732a1.309,1.309,0,0,0,.861.29A2.551,2.551,0,0,0,29.738,12a2.024,2.024,0,0,0,.708-1.731V9.342a2.722,2.722,0,0,1-.479.242,4.006,4.006,0,0,1-.664.171l-.562.105a3.632,3.632,0,0,0-1.134.343,1.149,1.149,0,0,0-.58,1.063A1.1,1.1,0,0,0,27.387,12.189Zm.185-9.062L29.259.5h2.795L29.382,3.128Zm7.655-2.083h2.5V14h-2.5ZM42.75,4.42V14H40.21V4.42Zm0-3.454V3.277H40.21V.966Zm9.026,3.894a3.086,3.086,0,0,1,1.292,2.479h-2.5a1.482,1.482,0,0,0-.272-.765,1.714,1.714,0,0,0-1.406-.51,2.021,2.021,0,0,0-1.165.255.734.734,0,0,0-.347.6.654.654,0,0,0,.369.624,15.98,15.98,0,0,0,2.61.694A4.8,4.8,0,0,1,52.594,9.3a2.415,2.415,0,0,1,.738,1.8,2.911,2.911,0,0,1-1.059,2.325,4.976,4.976,0,0,1-3.274.9,4.929,4.929,0,0,1-3.335-.954,3.1,3.1,0,0,1-1.077-2.43h2.54a1.673,1.673,0,0,0,.343.949,2.317,2.317,0,0,0,1.723.5,2.626,2.626,0,0,0,1.173-.22.737.737,0,0,0,.083-1.3,14.3,14.3,0,0,0-2.61-.756A5.437,5.437,0,0,1,45.545,9.1a2.191,2.191,0,0,1-.668-1.723A2.988,2.988,0,0,1,45.918,5.1a4.183,4.183,0,0,1,2.931-.954A5.427,5.427,0,0,1,51.776,4.859Zm5.985-.439V14h-2.54V4.42Zm0-3.454V3.277h-2.54V.966Zm9.026,3.894A3.086,3.086,0,0,1,68.08,7.338h-2.5a1.482,1.482,0,0,0-.272-.765,1.714,1.714,0,0,0-1.406-.51,2.021,2.021,0,0,0-1.165.255.734.734,0,0,0-.347.6.654.654,0,0,0,.369.624,15.98,15.98,0,0,0,2.61.694A4.8,4.8,0,0,1,67.605,9.3a2.415,2.415,0,0,1,.738,1.8,2.911,2.911,0,0,1-1.059,2.325,4.976,4.976,0,0,1-3.274.9,4.929,4.929,0,0,1-3.335-.954,3.1,3.1,0,0,1-1.077-2.43h2.54a1.673,1.673,0,0,0,.343.949,2.317,2.317,0,0,0,1.723.5,2.626,2.626,0,0,0,1.173-.22.737.737,0,0,0,.083-1.3,14.3,14.3,0,0,0-2.61-.756A5.437,5.437,0,0,1,60.557,9.1a2.191,2.191,0,0,1-.668-1.723A2.988,2.988,0,0,1,60.93,5.1a4.183,4.183,0,0,1,2.931-.954A5.427,5.427,0,0,1,66.788,4.859ZM83.4,11.188a3.178,3.178,0,0,1-.888,1.731,4.349,4.349,0,0,1-3.445,1.4,4.858,4.858,0,0,1-3.226-1.178,4.75,4.75,0,0,1-1.4-3.832A5.326,5.326,0,0,1,75.7,5.492a4.312,4.312,0,0,1,3.274-1.327,5.021,5.021,0,0,1,2.153.448,3.772,3.772,0,0,1,1.582,1.415,4.828,4.828,0,0,1,.729,1.978,12.771,12.771,0,0,1,.079,1.9H76.966a2.381,2.381,0,0,0,.905,2.021,2.132,2.132,0,0,0,1.248.36,1.8,1.8,0,0,0,1.257-.439,2.087,2.087,0,0,0,.466-.659ZM80.921,8.252a2.181,2.181,0,0,0-.6-1.507,1.87,1.87,0,0,0-1.34-.514,1.7,1.7,0,0,0-1.349.545,2.72,2.72,0,0,0-.6,1.477ZM93.744,14h-3.12l-1.652-2.874L87.311,14H84.27l3.27-4.852L84.41,4.438h3.067l1.6,2.777,1.564-2.777h2.979L90.475,9.1Zm5.862-1.784v1.872l-1.187.044a3.184,3.184,0,0,1-2.426-.615,1.832,1.832,0,0,1-.422-1.327v-5.9H94.236V4.508h1.336V1.836h2.479V4.508h1.556V6.292H98.051v5.063a1.14,1.14,0,0,0,.149.734,1.645,1.645,0,0,0,.914.145q.114,0,.242,0T99.606,12.216Zm9.809-1.028a3.178,3.178,0,0,1-.888,1.731,4.349,4.349,0,0,1-3.445,1.4,4.858,4.858,0,0,1-3.226-1.178,4.75,4.75,0,0,1-1.4-3.832,5.326,5.326,0,0,1,1.261-3.814,4.312,4.312,0,0,1,3.274-1.327,5.021,5.021,0,0,1,2.153.448,3.772,3.772,0,0,1,1.582,1.415,4.828,4.828,0,0,1,.729,1.978,12.771,12.771,0,0,1,.079,1.9h-6.557a2.381,2.381,0,0,0,.905,2.021,2.132,2.132,0,0,0,1.248.36,1.8,1.8,0,0,0,1.257-.439,2.087,2.087,0,0,0,.466-.659Zm-2.479-2.936a2.181,2.181,0,0,0-.6-1.507,1.87,1.87,0,0,0-1.34-.514,1.7,1.7,0,0,0-1.349.545,2.72,2.72,0,0,0-.6,1.477Zm9.105-1.521a2.078,2.078,0,0,0-2.03.984,3.829,3.829,0,0,0-.29,1.705V14H111.2V4.42h2.391V6.09A5.3,5.3,0,0,1,114.6,4.78a2.752,2.752,0,0,1,1.828-.589q.07,0,.119,0l.215.013V6.775q-.237-.026-.422-.035T116.042,6.731Zm6.7-.457a1.744,1.744,0,0,0-1.749,1.081,3.713,3.713,0,0,0-.246,1.459V14h-2.5V4.438h2.417v1.4a4.252,4.252,0,0,1,.914-1.063,3.177,3.177,0,0,1,1.96-.58,3.7,3.7,0,0,1,2.43.778,3.163,3.163,0,0,1,.945,2.58V14h-2.566V8.173a2.659,2.659,0,0,0-.2-1.16A1.422,1.422,0,0,0,122.739,6.274Zm14.476-.642a5.59,5.59,0,0,1,1.213,3.595,5.553,5.553,0,0,1-1.213,3.608,5.274,5.274,0,0,1-7.365,0,5.553,5.553,0,0,1-1.213-3.608,5.59,5.59,0,0,1,1.213-3.595,5.22,5.22,0,0,1,7.365,0Zm-3.691.6a2,2,0,0,0-1.692.778,3.6,3.6,0,0,0-.593,2.219,3.619,3.619,0,0,0,.593,2.224,2.216,2.216,0,0,0,3.379,0,3.639,3.639,0,0,0,.589-2.224,3.619,3.619,0,0,0-.589-2.219A1.99,1.99,0,0,0,133.523,6.23Z" transform="translate(564 4038)" fill="#212429"/>
    <path id="Trazado_1012593" data-name="Trazado 1012593" d="M-146.418,3721.749l317.981-243.491" transform="translate(777.657 294.869)" fill="#817489" stroke="#817489" stroke-linecap="round" stroke-width="5"/>
  </g>
</svg>
